<svg xmlns="http://www.w3.org/2000/svg" width="62" height="62" viewBox="0 0 62 62">
  <g id="Grupo_1112231" data-name="Grupo 1112231" transform="translate(7.899 -1.254)">
    <g id="Grupo_1112590" data-name="Grupo 1112590" transform="translate(-8.899 0.254)">
      <path id="Trazado_886407" data-name="Trazado 886407" d="M33,38.858A3.992,3.992,0,0,0,32,31a2,2,0,1,1,2-2h2a4,4,0,0,0-3-3.858V23H31v2.142A3.992,3.992,0,0,0,32,33a2,2,0,1,1-2,2H28a4,4,0,0,0,3,3.858V41h2Z" fill="#edf0f1"/>
      <path id="Trazado_886408" data-name="Trazado 886408" d="M32,19A13.015,13.015,0,0,0,19,32h2A11.013,11.013,0,0,1,32,21Z" fill="#edf0f1"/>
      <path id="Trazado_886409" data-name="Trazado 886409" d="M43,32A11.013,11.013,0,0,1,32,43v2A13.015,13.015,0,0,0,45,32Z" fill="#edf0f1"/>
      <path id="Trazado_886410" data-name="Trazado 886410" d="M21.6,8.164a25.9,25.9,0,0,0-8.319,5.792l1.439,1.389A23.952,23.952,0,0,1,22.4,10Z" fill="#edf0f1"/>
      <path id="Trazado_886411" data-name="Trazado 886411" d="M25.761,6.754c-.7.173-1.4.377-2.082.606l.642,1.895c.624-.211,1.27-.4,1.918-.56Z" fill="#edf0f1"/>
      <path id="Trazado_886412" data-name="Trazado 886412" d="M29.922,6.082c-.683.054-1.383.138-2.08.249l.316,1.975c.644-.1,1.29-.181,1.92-.229Z" fill="#edf0f1"/>
      <path id="Trazado_886413" data-name="Trazado 886413" d="M32,3a28.81,28.81,0,0,1,20.506,8.494,1.029,1.029,0,0,0,1.414,0L56,9.414V17H48.414l1.971-1.971a1,1,0,0,0,0-1.414A25.829,25.829,0,0,0,32,6V8a23.828,23.828,0,0,1,16.249,6.337l-2.956,2.956A1,1,0,0,0,46,19H57a1,1,0,0,0,1-1V7a1,1,0,0,0-1.707-.707L53.2,9.384A31,31,0,0,0,1,32H3A29.033,29.033,0,0,1,32,3Z" fill="#edf0f1"/>
      <path id="Trazado_886414" data-name="Trazado 886414" d="M50.72,50.044l-1.439-1.389A23.952,23.952,0,0,1,41.6,54l.8,1.832A25.91,25.91,0,0,0,50.72,50.044Z" fill="#edf0f1"/>
      <path id="Trazado_886415" data-name="Trazado 886415" d="M38.239,57.246c.7-.173,1.4-.377,2.082-.606l-.642-1.9c-.624.211-1.27.4-1.918.56Z" fill="#edf0f1"/>
      <path id="Trazado_886416" data-name="Trazado 886416" d="M34.078,57.918c.683-.054,1.383-.138,2.08-.249l-.316-1.975c-.644.1-1.29.181-1.92.229Z" fill="#edf0f1"/>
      <path id="Trazado_886417" data-name="Trazado 886417" d="M61,32A29,29,0,0,1,11.494,52.506a1.029,1.029,0,0,0-1.414,0L8,54.586V47h7.586l-1.971,1.971a1,1,0,0,0,0,1.414A25.829,25.829,0,0,0,32,58V56a23.828,23.828,0,0,1-16.249-6.337l2.956-2.956A1,1,0,0,0,18,45H7a1,1,0,0,0-1,1V57a1,1,0,0,0,1.707.707L10.8,54.616A31,31,0,0,0,63,32Z" fill="#edf0f1"/>
      <path id="Trazado_886418" data-name="Trazado 886418" d="M49,32A17,17,0,1,0,32,49,17.019,17.019,0,0,0,49,32ZM32,47A15,15,0,1,1,47,32,15.017,15.017,0,0,1,32,47Z" fill="#edf0f1"/>
    </g>
  </g>
</svg>
