<svg xmlns="http://www.w3.org/2000/svg" width="61.999" height="62" viewBox="0 0 61.999 62">
  <g id="Grupo_1113231" data-name="Grupo 1113231" transform="translate(-203.05 -4654)">
    <g id="Grupo_1112591" data-name="Grupo 1112591" transform="translate(202.05 4653)">
      <path id="Trazado_886419" data-name="Trazado 886419" d="M17,21v2.1A5,5,0,0,0,18,33a3,3,0,0,1,0,6H15V36H13v5h4v2h2V40.9A5,5,0,0,0,18,31a3,3,0,0,1,0-6h3v3h2V23H19V21Z" fill="#87a771"/>
      <path id="Trazado_886420" data-name="Trazado 886420" d="M60,37a2.993,2.993,0,0,0,1-5.816V24a9.01,9.01,0,0,0-8-8.941V5a4,4,0,0,0-4-4H42a4,4,0,0,0-4,4V15a2,2,0,0,1-4,0V8a4,4,0,0,0-4-4H21a4,4,0,0,0-4,4v7.036A17.132,17.132,0,0,0,1.025,31.075,16.94,16.94,0,0,0,4.858,42.768a19.3,19.3,0,0,1,1.623,2.308A2,2,0,0,0,5,47v2a2,2,0,0,0,2,2v2a2,2,0,0,0,2,2h.059a9,9,0,0,0,17.882,0H27a2,2,0,0,0,2-2V51a2,2,0,0,0,2-2V47a2,2,0,0,0-1.543-1.942,14.709,14.709,0,0,1,1.4-1.95A16.991,16.991,0,0,0,19,15.031V8a2,2,0,0,1,2-2h9a2,2,0,0,1,2,2v7a4,4,0,0,0,8,0V5a2,2,0,0,1,2-2h7a2,2,0,0,1,2,2V15.059A9.01,9.01,0,0,0,43,24v7.184A2.993,2.993,0,0,0,44,37h3.674l-4,14h6.045l-2.207,8.826a2.554,2.554,0,0,0,4.811,1.657L60.539,43h-5.1l2.25-6ZM18,61a7.006,7.006,0,0,1-6.92-6H24.92A7.006,7.006,0,0,1,18,61Zm9-8H9V51H27Zm0-4H7V47H29v2Zm6-17a14.958,14.958,0,0,1-3.655,9.8A17.2,17.2,0,0,0,27.173,45H8.733A21.153,21.153,0,0,0,6.4,41.5,14.953,14.953,0,0,1,3.021,31.181,15.115,15.115,0,0,1,17.279,17.017,15,15,0,0,1,33,32ZM52,17a7.008,7.008,0,0,1,7,7v7H45V24A7.008,7.008,0,0,1,52,17ZM43,34a1,1,0,0,1,1-1H60a1,1,0,0,1,0,2H44A1,1,0,0,1,43,34Zm9.557,11h4.9L50.5,60.671a.554.554,0,0,1-.943.116.547.547,0,0,1-.1-.476L52.281,49H46.326l3.428-12h5.8Z" fill="#87a771"/>
      <path id="Trazado_886421" data-name="Trazado 886421" d="M5,32a12.967,12.967,0,0,0,.74,4.333l1.886-.666A11.014,11.014,0,0,1,10.667,23.8l-1.334-1.49A13.02,13.02,0,0,0,5,32Z" fill="#87a771"/>
      <path id="Trazado_886422" data-name="Trazado 886422" d="M6.74,38.5a13.07,13.07,0,0,0,1.571,2.166L9.8,39.333A11.062,11.062,0,0,1,8.471,37.5Z" fill="#87a771"/>
    </g>
  </g>
</svg>
