<svg xmlns="http://www.w3.org/2000/svg" xmlns:xlink="http://www.w3.org/1999/xlink" width="521.058" height="394.805" viewBox="0 0 521.058 394.805">
  <defs>
    <clipPath id="clip-path">
      <rect id="Rectángulo_408521" data-name="Rectángulo 408521" width="300" height="300" transform="translate(-0.305 -0.305)" fill="none"/>
    </clipPath>
  </defs>
  <g id="Grupo_1113232" data-name="Grupo 1113232" transform="translate(-229.051 -5900.608)">
    <rect id="Rectángulo_402906" data-name="Rectángulo 402906" width="521.058" height="394.804" rx="20" transform="translate(229.051 5900.608)" fill="#fbfbfb"/>
    <rect id="Ilustración" width="438" height="292" rx="20" transform="translate(271.051 5951.608)" fill="#cce5f2"/>
    <g id="Grupo_1112593" data-name="Grupo 1112593" transform="translate(340.355 5944.305)">
      <g id="Grupo_1112592" data-name="Grupo 1112592" clip-path="url(#clip-path)">
        <path id="Trazado_886423" data-name="Trazado 886423" d="M299.391,149.7A149.7,149.7,0,1,1,149.7,0a149.7,149.7,0,0,1,149.7,149.7" fill="#e6f2f9"/>
        <path id="Trazado_886424" data-name="Trazado 886424" d="M1112.947,191.821c-20.281,0-36.168-4.447-36.168-10.124V106.149a.361.361,0,1,1,.721,0V181.7c0,5.1,16.233,9.4,35.447,9.4s35.447-4.306,35.447-9.4V106.149a.361.361,0,1,1,.721,0V181.7c0,5.677-15.887,10.124-36.168,10.124" transform="translate(-900.616 -88.481)" fill="#657d55"/>
        <path id="Trazado_886425" data-name="Trazado 886425" d="M1112.947,66.265c-20.281,0-36.168-4.447-36.168-10.124s15.887-10.124,36.168-10.124,36.168,4.447,36.168,10.124-15.887,10.124-36.168,10.124m0-19.527c-19.214,0-35.447,4.306-35.447,9.4s16.233,9.4,35.447,9.4,35.447-4.306,35.447-9.4-16.233-9.4-35.447-9.4" transform="translate(-900.616 -38.488)" fill="#657d55"/>
        <path id="Trazado_886426" data-name="Trazado 886426" d="M1181.876,71.934c0,3.4-14.242,6.162-28.2,6.162s-28.2-2.759-28.2-6.162,14.242-6.162,28.2-6.162,28.2,2.759,28.2,6.162" transform="translate(-941.342 -55.012)" fill="#4a6572"/>
        <path id="Trazado_886427" data-name="Trazado 886427" d="M1112.947,270.138c-20.281,0-36.168-4.447-36.168-10.124a.361.361,0,0,1,.721,0c0,5.1,16.233,9.4,35.447,9.4s35.447-4.306,35.447-9.4a.361.361,0,0,1,.721,0c0,5.677-15.887,10.124-36.168,10.124" transform="translate(-900.616 -217.173)" fill="#657d55"/>
        <path id="Trazado_886428" data-name="Trazado 886428" d="M1112.947,424.095c-20.281,0-36.168-4.447-36.168-10.124a.361.361,0,1,1,.721,0c0,5.1,16.233,9.4,35.447,9.4s35.447-4.306,35.447-9.4a.361.361,0,1,1,.721,0c0,5.677-15.887,10.124-36.168,10.124" transform="translate(-900.616 -345.943)" fill="#d3bba3"/>
        <path id="Trazado_886429" data-name="Trazado 886429" d="M1348.8,182.433V264.41c0,5.851,17.4,10.595,38.855,10.595s38.855-4.743,38.855-10.595V182.433Z" transform="translate(-1128.137 -152.587)" fill="#4a6572"/>
        <path id="Trazado_886430" data-name="Trazado 886430" d="M1385.813,273.521c-21.99,0-39.216-4.812-39.216-10.955V180.228h78.431v82.338c0,6.143-17.225,10.955-39.215,10.955m-38.494-92.571v81.616c0,5.547,17.628,10.234,38.494,10.234s38.494-4.687,38.494-10.234V180.949Z" transform="translate(-1126.292 -150.742)" fill="#fff"/>
        <path id="Trazado_886431" data-name="Trazado 886431" d="M1426.514,128.169c0,5.851-17.4,10.594-38.855,10.594s-38.855-4.743-38.855-10.594,17.4-10.595,38.855-10.595,38.855,4.743,38.855,10.595" transform="translate(-1128.138 -98.339)" fill="#fff"/>
        <path id="Trazado_886432" data-name="Trazado 886432" d="M1460.451,143.3c0,3.693-15.454,6.687-30.6,6.687s-30.6-2.994-30.6-6.687,15.454-6.687,30.6-6.687,30.6,2.994,30.6,6.687" transform="translate(-1170.327 -114.267)" fill="#b6c1c6"/>
        <path id="Trazado_886433" data-name="Trazado 886433" d="M1385.814,358.5c-21.99,0-39.216-4.812-39.216-10.955a.361.361,0,0,1,.722,0c0,5.547,17.628,10.234,38.494,10.234s38.494-4.686,38.494-10.234a.361.361,0,0,1,.722,0c0,6.143-17.225,10.955-39.215,10.955" transform="translate(-1126.292 -290.387)" fill="#fff"/>
        <path id="Trazado_886434" data-name="Trazado 886434" d="M1385.814,525.563c-21.99,0-39.216-4.812-39.216-10.955a.361.361,0,0,1,.722,0c0,5.547,17.628,10.234,38.494,10.234s38.494-4.686,38.494-10.234a.361.361,0,0,1,.722,0c0,6.143-17.225,10.955-39.215,10.955" transform="translate(-1126.292 -430.115)" fill="#fff"/>
        <path id="Trazado_886435" data-name="Trazado 886435" d="M12.081,351.775a6.946,6.946,0,0,1,8.219-5.381c3.756.784,15.817,10.4,15.817,10.4s-14.9,3.986-18.655,3.2a6.946,6.946,0,0,1-5.381-8.219" transform="translate(-9.981 -289.6)" fill="#87a771"/>
        <path id="Trazado_886436" data-name="Trazado 886436" d="M112.9,399.827a.369.369,0,0,1-.074-.008L46.405,385.956a.361.361,0,0,1,.147-.706l66.426,13.864a.361.361,0,0,1-.073.714" transform="translate(-38.573 -322.216)" fill="#f7f1eb"/>
        <path id="Trazado_886437" data-name="Trazado 886437" d="M86.874,472.545a5.729,5.729,0,0,1,3.167-7.457c2.934-1.185,15.609-.125,15.609-.125s-8.386,9.564-11.32,10.749a5.729,5.729,0,0,1-7.457-3.167" transform="translate(-72.311 -388.53)" fill="#87a771"/>
        <path id="Trazado_886438" data-name="Trazado 886438" d="M117.993,445.186a.361.361,0,0,1-.135-.7l26.362-10.645a.361.361,0,0,1,.27.669l-26.362,10.645a.365.365,0,0,1-.135.026" transform="translate(-98.387 -362.846)" fill="#f7f1eb"/>
        <path id="Trazado_886439" data-name="Trazado 886439" d="M218.162,303.016c2.4,2.451,15.468,6.9,15.468,6.9s-4.188-13.15-6.591-15.6a6.216,6.216,0,1,0-8.877,8.7" transform="translate(-180.983 -244.604)" fill="#e6d0be"/>
        <path id="Trazado_886440" data-name="Trazado 886440" d="M272.794,349.625a.36.36,0,0,1-.258-.108l-19.9-20.3a.361.361,0,1,1,.515-.505l19.9,20.3a.361.361,0,0,1-.258.613" transform="translate(-211.216 -274.842)" fill="#f7f1eb"/>
        <path id="Trazado_886441" data-name="Trazado 886441" d="M336.287,10.567c.929,4.623-4.109,22.9-4.109,22.9s-11.7-14.914-12.633-19.537a8.538,8.538,0,0,1,16.742-3.363" transform="translate(-267.126 -3.102)" fill="#87a771"/>
        <path id="Trazado_886442" data-name="Trazado 886442" d="M384.651,128.711a.361.361,0,0,1-.353-.29L367.874,46.65a.361.361,0,1,1,.707-.142l16.424,81.771a.361.361,0,0,1-.283.425.367.367,0,0,1-.071.007" transform="translate(-307.683 -38.657)" fill="#f7f1eb"/>
        <path id="Trazado_886443" data-name="Trazado 886443" d="M246.7,144.7c2.756,2.743,7.683,17.581,7.683,17.581s-14.861-4.857-17.617-7.6A7.041,7.041,0,1,1,246.7,144.7" transform="translate(-196.294 -119.313)" fill="#87a771"/>
        <path id="Trazado_886444" data-name="Trazado 886444" d="M299.109,207.322a.36.36,0,0,1-.255-.105l-24.767-24.651a.361.361,0,1,1,.509-.511l24.767,24.651a.361.361,0,0,1-.255.616" transform="translate(-229.157 -152.182)" fill="#f7f1eb"/>
        <path id="Trazado_886445" data-name="Trazado 886445" d="M486.741,211.78c-1.609,3.9-.323,20.815-.323,20.815s12.839-11.087,14.448-14.987a7.64,7.64,0,1,0-14.125-5.828" transform="translate(-406.432 -173.178)" fill="#87a771"/>
        <path id="Trazado_886446" data-name="Trazado 886446" d="M450.5,285.162a.361.361,0,0,1-.333-.5l13.327-32.3a.361.361,0,1,1,.667.275l-13.327,32.3a.361.361,0,0,1-.334.223" transform="translate(-376.497 -210.887)" fill="#f7f1eb"/>
        <rect id="Rectángulo_408495" data-name="Rectángulo 408495" width="230.554" height="163.488" transform="translate(32.368 46.849)" fill="#006398"/>
        <rect id="Rectángulo_408496" data-name="Rectángulo 408496" width="216.087" height="135.008" transform="translate(39.601 54.083)" fill="#cce5f2"/>
        <path id="Trazado_886447" data-name="Trazado 886447" d="M719.229,1306.843h6.826a9.271,9.271,0,0,0,9.271,9.271H751.67a9.271,9.271,0,0,0,9.271-9.271h6.825l6.826,36.274v3.034H712.4v-3.034Z" transform="translate(-595.853 -1093.042)" fill="#004b72"/>
        <path id="Trazado_886448" data-name="Trazado 886448" d="M772.748,1568.8H710.559a.361.361,0,1,1,0-.722h62.189a.361.361,0,0,1,0,.722" transform="translate(-594.009 -1311.539)" fill="#004b72"/>
        <rect id="Rectángulo_408497" data-name="Rectángulo 408497" width="37.524" height="32.134" transform="translate(167.254 66.557)" fill="#99cae5"/>
        <rect id="Rectángulo_408498" data-name="Rectángulo 408498" width="37.524" height="32.134" transform="translate(162.771 62.074)" fill="#fff"/>
        <path id="Trazado_886449" data-name="Trazado 886449" d="M1324.716,404.883h-33.58a.361.361,0,0,1,0-.721h33.58a.361.361,0,0,1,0,.721" transform="translate(-1079.602 -338.04)" fill="#8b865c"/>
        <path id="Trazado_886450" data-name="Trazado 886450" d="M1317.584,446.952h-26.448a.361.361,0,0,1,0-.721h26.448a.361.361,0,0,1,0,.721" transform="translate(-1079.602 -373.227)" fill="#8b865c"/>
        <path id="Trazado_886451" data-name="Trazado 886451" d="M1322.041,485.059h-30.906a.361.361,0,0,1,0-.721h30.906a.361.361,0,0,1,0,.721" transform="translate(-1079.602 -405.1)" fill="#8b865c"/>
        <path id="Trazado_886452" data-name="Trazado 886452" d="M1312.4,525.146h-21.261a.361.361,0,0,1,0-.721H1312.4a.361.361,0,0,1,0,.721" transform="translate(-1079.602 -438.628)" fill="#8b865c"/>
        <path id="Trazado_886453" data-name="Trazado 886453" d="M1053.506,418.467a7.091,7.091,0,0,1,1.817-.62l-.234-3.342a10.438,10.438,0,0,0-8.137,6.547l3.212.946a7.084,7.084,0,0,1,3.342-3.532" transform="translate(-875.669 -346.692)" fill="#657d55"/>
        <path id="Trazado_886454" data-name="Trazado 886454" d="M1046.344,469.268a7.075,7.075,0,0,1-.311-3.531l-3.212-.946a10.4,10.4,0,0,0,.527,5.974Z" transform="translate(-872.033 -388.751)" fill="#657d55"/>
        <path id="Trazado_886455" data-name="Trazado 886455" d="M1070.564,453.944l-3,1.5a7.118,7.118,0,0,1-12.635,6.319l-3,1.5a10.449,10.449,0,0,0,18.626-9.315" transform="translate(-879.839 -379.678)" fill="#87a771"/>
        <path id="Trazado_886456" data-name="Trazado 886456" d="M1107.6,417.113a7.131,7.131,0,0,1,5.546,3.163l3-1.5a10.468,10.468,0,0,0-8.775-5.006Z" transform="translate(-926.196 -346.078)" fill="#657d55"/>
        <path id="Trazado_886457" data-name="Trazado 886457" d="M359.754,815.354h-74.9a.361.361,0,0,1-.361-.361V758.516a.361.361,0,0,1,.721,0v56.117h74.538a.361.361,0,1,1,0,.721" transform="translate(-237.95 -634.12)" fill="#4a6572"/>
        <rect id="Rectángulo_408499" data-name="Rectángulo 408499" width="11.034" height="30.256" transform="translate(53.751 142.802)" fill="#99cae5"/>
        <rect id="Rectángulo_408500" data-name="Rectángulo 408500" width="11.034" height="36.283" transform="translate(71.961 136.774)" fill="#d3bba3"/>
        <rect id="Rectángulo_408501" data-name="Rectángulo 408501" width="11.034" height="58.509" transform="translate(90.17 114.548)" fill="#99cae5"/>
        <rect id="Rectángulo_408502" data-name="Rectángulo 408502" width="11.034" height="49.335" transform="translate(108.38 123.723)" fill="#99cae5"/>
        <rect id="Rectángulo_408503" data-name="Rectángulo 408503" width="11.034" height="73.541" transform="translate(126.615 99.516)" fill="#99cae5"/>
        <rect id="Rectángulo_408504" data-name="Rectángulo 408504" width="11.034" height="59.008" transform="translate(144.825 114.049)" fill="#99cae5"/>
        <rect id="Rectángulo_408505" data-name="Rectángulo 408505" width="11.034" height="37.948" transform="translate(163.034 135.109)" fill="#99cae5"/>
        <rect id="Rectángulo_408506" data-name="Rectángulo 408506" width="11.034" height="51.499" transform="translate(181.244 121.559)" fill="#99cae5"/>
        <rect id="Rectángulo_408507" data-name="Rectángulo 408507" width="11.034" height="43.359" transform="translate(199.466 129.698)" fill="#99cae5"/>
        <rect id="Rectángulo_408508" data-name="Rectángulo 408508" width="11.034" height="64.484" transform="translate(217.675 108.573)" fill="#99cae5"/>
        <rect id="Rectángulo_408509" data-name="Rectángulo 408509" width="11.034" height="30.256" transform="translate(235.911 142.802)" fill="#99cae5"/>
        <path id="Trazado_886458" data-name="Trazado 886458" d="M610.934,404.944h-42.9a.361.361,0,0,1,0-.721h42.9a.361.361,0,1,1,0,.721" transform="translate(-474.8 -338.092)" fill="#4a6572"/>
        <path id="Trazado_886459" data-name="Trazado 886459" d="M333.552,404.944h-27.52a.361.361,0,1,1,0-.721h27.52a.361.361,0,1,1,0,.721" transform="translate(-255.663 -338.092)" fill="#4a6572"/>
        <path id="Trazado_886460" data-name="Trazado 886460" d="M711.5,459.4H688.269a.361.361,0,0,1,0-.721H711.5a.361.361,0,0,1,0,.721" transform="translate(-575.365 -383.636)" fill="#4a6572"/>
        <path id="Trazado_886461" data-name="Trazado 886461" d="M361.68,459.4H306.032a.361.361,0,0,1,0-.721H361.68a.361.361,0,0,1,0,.721" transform="translate(-255.663 -383.636)" fill="#4a6572"/>
        <path id="Trazado_886462" data-name="Trazado 886462" d="M746.33,513.849H729.913a.361.361,0,0,1,0-.721H746.33a.361.361,0,0,1,0,.721" transform="translate(-610.196 -429.179)" fill="#4a6572"/>
        <path id="Trazado_886463" data-name="Trazado 886463" d="M453.138,513.849H407.146a.361.361,0,1,1,0-.721h45.992a.361.361,0,1,1,0,.721" transform="translate(-340.234 -429.179)" fill="#4a6572"/>
        <path id="Trazado_886464" data-name="Trazado 886464" d="M317.531,513.849h-11.5a.361.361,0,0,1,0-.721h11.5a.361.361,0,1,1,0,.721" transform="translate(-255.663 -429.179)" fill="#4a6572"/>
        <path id="Trazado_886465" data-name="Trazado 886465" d="M1509.195,1563.542c0,3.765-9.639,6.817-21.53,6.817s-21.53-3.052-21.53-6.817,9.639-6.817,21.53-6.817,21.53,3.052,21.53,6.817" transform="translate(-1226.273 -1302.042)" fill="#e0aa63"/>
        <rect id="Rectángulo_408510" data-name="Rectángulo 408510" width="43.06" height="7.024" transform="translate(239.862 254.708)" fill="#e0aa63"/>
        <path id="Trazado_886466" data-name="Trazado 886466" d="M1509.195,1522.845c0,3.765-9.639,6.817-21.53,6.817s-21.53-3.052-21.53-6.817,9.639-6.817,21.53-6.817,21.53,3.052,21.53,6.817" transform="translate(-1226.273 -1268.004)" fill="#efbc73"/>
        <path id="Trazado_886467" data-name="Trazado 886467" d="M1501.325,1528.179c-12.275,0-21.891-3.153-21.891-7.178s9.616-7.178,21.891-7.178,21.89,3.153,21.89,7.178-9.615,7.178-21.89,7.178m0-13.635c-11.475,0-21.169,2.957-21.169,6.457s9.694,6.457,21.169,6.457,21.169-2.957,21.169-6.457-9.694-6.457-21.169-6.457" transform="translate(-1237.396 -1266.159)" fill="#fff"/>
        <path id="Trazado_886468" data-name="Trazado 886468" d="M1518.661,1495.714c0,3.765-9.639,6.817-21.53,6.817s-21.53-3.052-21.53-6.817,9.639-6.817,21.53-6.817,21.53,3.052,21.53,6.817" transform="translate(-1234.191 -1245.311)" fill="#e0aa63"/>
        <rect id="Rectángulo_408511" data-name="Rectángulo 408511" width="43.06" height="7.024" transform="translate(241.41 243.611)" fill="#e0aa63"/>
        <path id="Trazado_886469" data-name="Trazado 886469" d="M1518.661,1455.017c0,3.765-9.639,6.817-21.53,6.817s-21.53-3.052-21.53-6.817,9.639-6.817,21.53-6.817,21.53,3.052,21.53,6.817" transform="translate(-1234.191 -1211.272)" fill="#efbc73"/>
        <path id="Trazado_886470" data-name="Trazado 886470" d="M1510.79,1460.35c-12.275,0-21.891-3.153-21.891-7.178s9.615-7.178,21.891-7.178,21.89,3.153,21.89,7.178-9.615,7.178-21.89,7.178m0-13.635c-11.475,0-21.169,2.957-21.169,6.457s9.694,6.457,21.169,6.457,21.169-2.957,21.169-6.457-9.694-6.457-21.169-6.457" transform="translate(-1245.313 -1209.427)" fill="#fff"/>
        <path id="Trazado_886471" data-name="Trazado 886471" d="M1272.7,1581.286c0,3.765-9.639,6.817-21.53,6.817s-21.53-3.052-21.53-6.817,9.639-6.817,21.53-6.817,21.53,3.052,21.53,6.817" transform="translate(-1028.47 -1316.884)" fill="#e0aa63"/>
        <rect id="Rectángulo_408512" data-name="Rectángulo 408512" width="43.06" height="7.024" transform="translate(201.171 257.611)" fill="#e0aa63"/>
        <path id="Trazado_886472" data-name="Trazado 886472" d="M1272.7,1540.589c0,3.765-9.639,6.817-21.53,6.817s-21.53-3.052-21.53-6.817,9.639-6.817,21.53-6.817,21.53,3.052,21.53,6.817" transform="translate(-1028.47 -1282.845)" fill="#efbc73"/>
        <path id="Trazado_886473" data-name="Trazado 886473" d="M1264.831,1545.923c-12.275,0-21.89-3.153-21.89-7.178s9.615-7.178,21.89-7.178,21.89,3.153,21.89,7.178-9.615,7.178-21.89,7.178m0-13.635c-11.475,0-21.169,2.957-21.169,6.457s9.694,6.457,21.169,6.457,21.169-2.957,21.169-6.457-9.694-6.457-21.169-6.457" transform="translate(-1039.594 -1281)" fill="#fff"/>
        <path id="Trazado_886474" data-name="Trazado 886474" d="M1299.832,1513.327c0,3.755-9.639,6.8-21.53,6.8s-21.53-3.044-21.53-6.8,9.639-6.8,21.53-6.8,21.53,3.044,21.53,6.8" transform="translate(-1051.162 -1260.058)" fill="#e0aa63"/>
        <rect id="Rectángulo_408513" data-name="Rectángulo 408513" width="43.06" height="7.005" transform="translate(205.61 246.496)" fill="#e0aa63"/>
        <path id="Trazado_886475" data-name="Trazado 886475" d="M1299.832,1472.742c0,3.755-9.639,6.8-21.53,6.8s-21.53-3.044-21.53-6.8,9.639-6.8,21.53-6.8,21.53,3.044,21.53,6.8" transform="translate(-1051.162 -1226.113)" fill="#efbc73"/>
        <path id="Trazado_886476" data-name="Trazado 886476" d="M1291.962,1478.057c-12.275,0-21.891-3.145-21.891-7.159s9.615-7.159,21.891-7.159,21.89,3.145,21.89,7.159-9.615,7.159-21.89,7.159m0-13.6c-11.475,0-21.169,2.948-21.169,6.438s9.694,6.438,21.169,6.438,21.169-2.948,21.169-6.438-9.694-6.438-21.169-6.438" transform="translate(-1062.286 -1224.268)" fill="#fff"/>
        <path id="Trazado_886477" data-name="Trazado 886477" d="M1544.527,1427.885c0,3.765-9.639,6.817-21.53,6.817s-21.53-3.052-21.53-6.817,9.639-6.817,21.53-6.817,21.53,3.052,21.53,6.817" transform="translate(-1255.825 -1188.579)" fill="#e0aa63"/>
        <rect id="Rectángulo_408514" data-name="Rectángulo 408514" width="43.06" height="7.024" transform="translate(245.642 232.515)" fill="#e0aa63"/>
        <path id="Trazado_886478" data-name="Trazado 886478" d="M1544.527,1387.188c0,3.765-9.639,6.817-21.53,6.817s-21.53-3.052-21.53-6.817,9.639-6.817,21.53-6.817,21.53,3.052,21.53,6.817" transform="translate(-1255.825 -1154.54)" fill="#efbc73"/>
        <path id="Trazado_886479" data-name="Trazado 886479" d="M1536.656,1392.522c-12.275,0-21.891-3.153-21.891-7.178s9.615-7.178,21.891-7.178,21.89,3.153,21.89,7.178-9.615,7.178-21.89,7.178m0-13.635c-11.475,0-21.169,2.957-21.169,6.457s9.694,6.457,21.169,6.457,21.169-2.957,21.169-6.457-9.694-6.457-21.169-6.457" transform="translate(-1266.947 -1152.696)" fill="#fff"/>
        <path id="Trazado_886480" data-name="Trazado 886480" d="M1516.5,1367.565c0,3.765-9.639,6.817-21.53,6.817s-21.53-3.052-21.53-6.817,9.639-6.817,21.53-6.817,21.53,3.052,21.53,6.817" transform="translate(-1232.381 -1138.128)" fill="#e0aa63"/>
        <rect id="Rectángulo_408515" data-name="Rectángulo 408515" width="43.06" height="7.024" transform="translate(241.057 222.646)" fill="#e0aa63"/>
        <path id="Trazado_886481" data-name="Trazado 886481" d="M1516.5,1326.868c0,3.765-9.639,6.817-21.53,6.817s-21.53-3.052-21.53-6.817,9.639-6.817,21.53-6.817,21.53,3.052,21.53,6.817" transform="translate(-1232.381 -1104.089)" fill="#efbc73"/>
        <path id="Trazado_886482" data-name="Trazado 886482" d="M1508.627,1332.2c-12.275,0-21.89-3.153-21.89-7.178s9.615-7.178,21.89-7.178,21.891,3.153,21.891,7.178-9.615,7.178-21.891,7.178m0-13.635c-11.475,0-21.169,2.957-21.169,6.457s9.694,6.457,21.169,6.457,21.169-2.957,21.169-6.457-9.694-6.457-21.169-6.457" transform="translate(-1243.505 -1102.245)" fill="#fff"/>
        <path id="Trazado_886483" data-name="Trazado 886483" d="M1241.248,1360.77c-2.675,2.65-11.627-2.05-20-10.5s-12.983-17.443-10.308-20.093,11.627,2.05,19.995,10.5,12.984,17.443,10.309,20.093" transform="translate(-1012.197 -1111.942)" fill="#e0aa63"/>
        <rect id="Rectángulo_408516" data-name="Rectángulo 408516" width="7.024" height="43.059" transform="translate(198.582 218.401) rotate(-44.73)" fill="#e0aa63"/>
        <path id="Trazado_886484" data-name="Trazado 886484" d="M1270.161,1332.129c-2.675,2.65-11.627-2.05-20-10.5s-12.983-17.443-10.308-20.093,11.627,2.05,19.995,10.5,12.984,17.444,10.309,20.093" transform="translate(-1036.379 -1087.986)" fill="#efbc73"/>
        <path id="Trazado_886485" data-name="Trazado 886485" d="M1277.147,1342.443c-4.044,0-11.2-4.349-18.117-11.333-8.639-8.72-13.166-17.77-10.307-20.6s11.866,1.78,20.505,10.5,13.166,17.771,10.307,20.6a3.267,3.267,0,0,1-2.388.833m-26.018-32.07a2.6,2.6,0,0,0-1.9.646c-2.486,2.463,2.235,11.431,10.311,19.583s17,12.959,19.485,10.5-2.235-11.431-10.311-19.583c-6.638-6.7-13.85-11.142-17.587-11.142m28.152,30.981h0Z" transform="translate(-1043.715 -1095.409)" fill="#fff"/>
        <path id="Trazado_886486" data-name="Trazado 886486" d="M1551.667,1028.038c1.972,2.8-3.588,10.111-12.419,16.339s-17.587,9.009-19.559,6.213,3.588-10.111,12.418-16.339,17.588-9.009,19.56-6.213" transform="translate(-1270.733 -858.94)" fill="#e0aa63"/>
        <rect id="Rectángulo_408517" data-name="Rectángulo 408517" width="39.13" height="6.383" transform="translate(245.399 186.606) rotate(-35.192)" fill="#e0aa63"/>
        <path id="Trazado_886487" data-name="Trazado 886487" d="M1530.353,997.814c1.972,2.8-3.588,10.111-12.419,16.339s-17.588,9.009-19.559,6.213,3.588-10.111,12.418-16.339,17.588-9.009,19.56-6.213" transform="translate(-1252.906 -833.661)" fill="#efbc73"/>
        <path id="Trazado_886488" data-name="Trazado 886488" d="M1510.962,1011.858a3.66,3.66,0,0,1-3.163-1.227c-2.119-3,3.374-10.4,12.505-16.841a48.115,48.115,0,0,1,12.45-6.539c3.856-1.225,6.56-1.078,7.612.413s.282,4.087-2.166,7.309a48.106,48.106,0,0,1-10.339,9.533c-6.6,4.656-13.04,7.353-16.9,7.353m26.254-24.714a14.591,14.591,0,0,0-4.243.794,47.391,47.391,0,0,0-12.253,6.441c-9.388,6.621-13.955,13.533-12.331,15.836s9.669.32,19.057-6.3a47.375,47.375,0,0,0,10.181-9.38c2.21-2.907,2.994-5.261,2.151-6.456a2.988,2.988,0,0,0-2.56-.935" transform="translate(-1260.741 -825.047)" fill="#fff"/>
        <path id="Trazado_886489" data-name="Trazado 886489" d="M1538.425,878.816c.487,3.376-7.761,7.361-18.424,8.9s-19.7.05-20.189-3.326,7.761-7.361,18.424-8.9,19.7-.05,20.189,3.326" transform="translate(-1254.423 -731.75)" fill="#e0aa63"/>
        <rect id="Rectángulo_408518" data-name="Rectángulo 408518" width="39.014" height="6.364" transform="translate(244.509 146.549) rotate(-8.215)" fill="#e0aa63"/>
        <path id="Trazado_886490" data-name="Trazado 886490" d="M1533.156,842.321c.487,3.376-7.761,7.361-18.424,8.9s-19.7.05-20.189-3.326,7.761-7.361,18.424-8.9,19.7-.05,20.189,3.326" transform="translate(-1250.016 -701.226)" fill="#efbc73"/>
        <path id="Trazado_886491" data-name="Trazado 886491" d="M1518.7,848.332c-7.038,0-12.064-1.57-12.451-4.247-.26-1.8,1.6-3.76,5.231-5.516A53.838,53.838,0,0,1,1539,834.6c3.981.656,6.317,2.009,6.577,3.811s-1.6,3.76-5.231,5.516a47.973,47.973,0,0,1-13.5,3.794,57.532,57.532,0,0,1-8.147.616m14.414-13.448a56.785,56.785,0,0,0-8.033.605,47.241,47.241,0,0,0-13.288,3.729c-3.278,1.584-5.039,3.32-4.831,4.763.4,2.78,8.445,4.657,19.781,3.021a47.233,47.233,0,0,0,13.288-3.729c3.279-1.584,5.039-3.32,4.831-4.763h0c-.208-1.443-2.388-2.61-5.98-3.2a35.926,35.926,0,0,0-5.768-.424" transform="translate(-1259.802 -697.693)" fill="#fff"/>
        <path id="Trazado_886492" data-name="Trazado 886492" d="M1544.832,1298.219c0,3.765-9.639,6.817-21.53,6.817s-21.53-3.052-21.53-6.817,9.639-6.817,21.53-6.817,21.53,3.052,21.53,6.817" transform="translate(-1256.08 -1080.127)" fill="#e0aa63"/>
        <rect id="Rectángulo_408519" data-name="Rectángulo 408519" width="43.06" height="7.024" transform="translate(245.692 211.301)" fill="#e0aa63"/>
        <path id="Trazado_886493" data-name="Trazado 886493" d="M1544.832,1257.522c0,3.765-9.639,6.817-21.53,6.817s-21.53-3.052-21.53-6.817,9.639-6.817,21.53-6.817,21.53,3.052,21.53,6.817" transform="translate(-1256.08 -1046.088)" fill="#efbc73"/>
        <path id="Trazado_886494" data-name="Trazado 886494" d="M1536.961,1262.855c-12.275,0-21.891-3.153-21.891-7.178s9.616-7.178,21.891-7.178,21.89,3.153,21.89,7.178-9.615,7.178-21.89,7.178m0-13.635c-11.475,0-21.169,2.957-21.169,6.457s9.694,6.457,21.169,6.457,21.169-2.957,21.169-6.457-9.694-6.457-21.169-6.457" transform="translate(-1267.202 -1044.243)" fill="#fff"/>
        <path id="Trazado_886495" data-name="Trazado 886495" d="M1587.467,1237.9c0,3.765-9.639,6.817-21.53,6.817s-21.53-3.052-21.53-6.817,9.639-6.817,21.53-6.817,21.53,3.052,21.53,6.817" transform="translate(-1291.74 -1029.674)" fill="#e0aa63"/>
        <rect id="Rectángulo_408520" data-name="Rectángulo 408520" width="43.06" height="7.024" transform="translate(252.667 201.432)" fill="#e0aa63"/>
        <path id="Trazado_886496" data-name="Trazado 886496" d="M1587.467,1197.2c0,3.765-9.639,6.817-21.53,6.817s-21.53-3.052-21.53-6.817,9.639-6.817,21.53-6.817,21.53,3.052,21.53,6.817" transform="translate(-1291.74 -995.635)" fill="#efbc73"/>
        <path id="Trazado_886497" data-name="Trazado 886497" d="M1579.6,1202.535c-12.275,0-21.891-3.153-21.891-7.178s9.615-7.178,21.891-7.178,21.89,3.153,21.89,7.178-9.615,7.178-21.89,7.178m0-13.635c-11.475,0-21.169,2.957-21.169,6.456s9.694,6.457,21.169,6.457,21.169-2.957,21.169-6.457-9.694-6.456-21.169-6.456" transform="translate(-1302.862 -993.791)" fill="#fff"/>
        <path id="Trazado_886498" data-name="Trazado 886498" d="M508.991,870.853c-1.63,0-3.364-1.468-4.15-3.666-.929-2.6-.187-5.245,1.652-5.9s4.092.92,5.02,3.516.188,5.245-1.652,5.9a2.571,2.571,0,0,1-.87.149m-1.607-9a1.918,1.918,0,0,0-.648.111c-1.465.524-2.01,2.758-1.216,4.98s2.634,3.6,4.1,3.08,2.01-2.758,1.216-4.981c-.681-1.9-2.128-3.191-3.45-3.191" transform="translate(-421.913 -720.252)" fill="#363e44"/>
        <path id="Trazado_886499" data-name="Trazado 886499" d="M380.049,819.593c-2.431-6.817-4.448-10.576-8.446-12.449-5.372-2.518-11.13.569-11.726.9-.381.211-5.973,2.892-6.9,9.063a17.15,17.15,0,0,0,6.289,16.149v13.615a7.914,7.914,0,0,0,7.914,7.914h.99a7.914,7.914,0,0,0,7.914-7.914v-9.1c2.773-.232,4.967-1.036,5.846-2.44,1.575-2.516.985-7.714-1.877-15.742" transform="translate(-295.062 -674.274)" fill="#bc8271"/>
        <path id="Trazado_886500" data-name="Trazado 886500" d="M494.8,879.238a.361.361,0,0,1-.177-.676l7.284-4.077a.361.361,0,1,1,.352.629l-7.284,4.078a.357.357,0,0,1-.176.046" transform="translate(-413.548 -731.379)" fill="#363e44"/>
        <path id="Trazado_886501" data-name="Trazado 886501" d="M493.691,979.567a.361.361,0,0,1-.36-.351l-.088-3.33a.361.361,0,1,1,.721-.019l.089,3.329a.361.361,0,0,1-.351.37h-.01" transform="translate(-412.547 -815.919)" fill="#363e44"/>
        <path id="Trazado_886502" data-name="Trazado 886502" d="M476.374,910.269a.36.36,0,0,1-.266-.117c-.379-.414-.717-.8-1.068-1.2-.287-.326-.584-.661-.918-1.032a.361.361,0,1,1,.535-.483c.337.373.635.711.924,1.038.348.395.683.775,1.06,1.186a.361.361,0,0,1-.266.6" transform="translate(-396.476 -758.883)" fill="#363e44"/>
        <path id="Trazado_886503" data-name="Trazado 886503" d="M355.32,783.652a8.633,8.633,0,0,1,2.726,2.963c3.166,5.837-2.255,13.388-2.607,13.865a12.5,12.5,0,0,0,1.54-6.044,9.637,9.637,0,0,0-1.659-5.5,11.45,11.45,0,0,1-1.9,6.926,19.477,19.477,0,0,1-11.047,8.367c-3.33,1.021-9.158,1.233-11.35-1.972-3.279-4.795.15-12.412,4.859-16.467,5.521-4.755,14.342-5.746,19.435-2.133" transform="translate(-275.786 -653.622)" fill="#363e44"/>
        <path id="Trazado_886504" data-name="Trazado 886504" d="M296.475,808.9a4.916,4.916,0,1,1-4.916-4.916,4.916,4.916,0,0,1,4.916,4.916" transform="translate(-239.748 -672.454)" fill="#363e44"/>
        <path id="Trazado_886505" data-name="Trazado 886505" d="M289.838,830.213a3.835,3.835,0,0,1-3.537-1.844,3.568,3.568,0,0,1,.07-3.269,6.23,6.23,0,0,1,2.736-2.724c2.574-1.356,5.5-.874,6.53,1.074a3.568,3.568,0,0,1-.071,3.269,6.23,6.23,0,0,1-2.736,2.724,6.476,6.476,0,0,1-2.993.77m2.279-7.893a5.8,5.8,0,0,0-2.673.694,5.5,5.5,0,0,0-2.422,2.4,2.867,2.867,0,0,0-.082,2.619c.841,1.6,3.334,1.943,5.555.772a5.506,5.506,0,0,0,2.423-2.4,2.867,2.867,0,0,0,.082-2.619,3.111,3.111,0,0,0-2.883-1.466" transform="translate(-239.158 -687.189)" fill="#363e44"/>
        <path id="Trazado_886506" data-name="Trazado 886506" d="M455.713,895.651a.359.359,0,0,1-.189-.054,5.072,5.072,0,0,1-2.464-5.554,4.208,4.208,0,0,1,3.6-3.158,4.079,4.079,0,0,1,3.715,2.228.361.361,0,0,1-.636.341,3.349,3.349,0,0,0-3.042-1.848,3.482,3.482,0,0,0-2.943,2.635,4.352,4.352,0,0,0,2.148,4.743.361.361,0,0,1-.19.668" transform="translate(-378.806 -741.786)" fill="#363e44"/>
        <path id="Trazado_886507" data-name="Trazado 886507" d="M178.27,1486.35l7.684,14.994h47.439l-22.67-51.566-59.553-12c-17.794,14.459-12.381,63.568-12.381,63.568H178.27Z" transform="translate(-115.435 -1202.554)" fill="#363e44"/>
        <path id="Trazado_886508" data-name="Trazado 886508" d="M355.909,1684.136a.361.361,0,0,1-.325-.2l-3.681-7.669a.361.361,0,0,1,.65-.312l3.681,7.669a.36.36,0,0,1-.169.481.356.356,0,0,1-.156.036" transform="translate(-294.301 -1401.592)" fill="#363e44"/>
        <path id="Trazado_886509" data-name="Trazado 886509" d="M670.369,1152.491c27.963,8.567,42.267,22.511,36.906,32.621-3.451,6.51-19.8,7.9-42.227,2.348,1.352-9.432,3.438-23.592,5.32-34.969" transform="translate(-556.246 -963.942)" fill="#bc8271"/>
        <path id="Trazado_886510" data-name="Trazado 886510" d="M805.793,934.411s13.9-20.734,22.05-31.206c8.555-11,22.786-25.987,24.858-23.969,1.18,1.149-.338,3.6-4.831,9.862a3.4,3.4,0,0,1,3.085,1.2,3.263,3.263,0,0,1,.226,3.626c.182-.045,2.156-.48,3.276.6a3.594,3.594,0,0,1,.886,4.018,3.728,3.728,0,0,1,3.217.778,3.346,3.346,0,0,1,.4,4.281c-1.842,2.3-7.448,9.02-9.778,12.624-4.584,7.092-17.482,34.462-26.817,42.962-4.267-10.059-16.567-24.775-16.567-24.775" transform="translate(-673.964 -735.238)" fill="#bc8271"/>
        <path id="Trazado_886511" data-name="Trazado 886511" d="M1100.148,1027.731a.36.36,0,0,1-.259-.11l-1.73-1.79a.361.361,0,1,1,.518-.5l1.73,1.79a.361.361,0,0,1-.259.611" transform="translate(-918.413 -857.492)" fill="#363e44"/>
        <path id="Trazado_886512" data-name="Trazado 886512" d="M1073.335,1000.31a.359.359,0,0,1-.267-.118l-1.891-2.084a.361.361,0,1,1,.534-.485l1.891,2.084a.361.361,0,0,1-.267.6" transform="translate(-895.853 -834.311)" fill="#363e44"/>
        <path id="Trazado_886513" data-name="Trazado 886513" d="M1048.355,972.261a.359.359,0,0,1-.259-.11c-.327-.337-.619-.643-.912-.95s-.572-.6-.892-.93a.361.361,0,0,1,.519-.5c.32.331.608.633.9.934s.582.61.907.946a.361.361,0,0,1-.259.612" transform="translate(-875.033 -811.022)" fill="#363e44"/>
        <path id="Trazado_886514" data-name="Trazado 886514" d="M1024.943,951.57a.36.36,0,0,1-.24-.092l-1.844-1.645a.361.361,0,0,1,.481-.538l1.844,1.645a.361.361,0,0,1-.24.63" transform="translate(-855.417 -793.912)" fill="#363e44"/>
        <path id="Trazado_886515" data-name="Trazado 886515" d="M59.447,1310.7c26.405,5.415,43.487,9.432,49.292,10.548a10.885,10.885,0,0,0,3.1.215c5.245-.42,6.8-4.622,12.115-7.579,6.029-3.356,11.324-1.833,11.66-3.562.234-1.2-1.6-2.34-5.885-3.108h0c3.322.209,7.838.3,7.948-1.541.014-2.127-5.281-2.851-8.506-3.133,3.9.341,6.081-.645,5.887-1.684-.305-1.635-3.27-2.6-8.446-2.855h0c3.622-.825,4.378-1.565,3.983-2.442-.722-1.6-4.981-1.726-8.763-1.26a22,22,0,0,0-9.318,3.643h0c-18.1-5.71-30.1-9.376-44.62-14.285-2.972-1-8.441,27.046-8.44,27.046" transform="translate(-49.721 -1073.622)" fill="#bc8271"/>
        <path id="Trazado_886516" data-name="Trazado 886516" d="M29.9,1107.451c-29.606,23.016-26.846,51.235-15.483,55.7,6.439,2.531,23.132-12.278,37.682-37.451-8.176-5.966-12.128-11.288-22.2-18.251" transform="translate(-5.366 -926.27)" fill="#bc8271"/>
        <path id="Trazado_886517" data-name="Trazado 886517" d="M26.58,1076.036s19.938-29.583,65.85-24.636c28.252,3.044,62.37,22.693,62.37,22.693l-11.712,35.8-11.676-3.466-3.837,28.755-84.251-14.347,3.6-23.786Z" transform="translate(-22.231 -878.923)" fill="#a8d08d"/>
        <path id="Trazado_886518" data-name="Trazado 886518" d="M629.3,1375.407a.357.357,0,0,1-.128-.024l-7.082-2.682a.361.361,0,0,1,.255-.675l7.082,2.682a.361.361,0,0,1-.128.7" transform="translate(-520.124 -1147.541)" fill="#363e44"/>
      </g>
    </g>
  </g>
</svg>
