<svg xmlns="http://www.w3.org/2000/svg" xmlns:xlink="http://www.w3.org/1999/xlink" width="295" height="246" viewBox="0 0 295 246">
  <defs>
    <clipPath id="clip-path">
      <rect id="Rectángulo_408599" data-name="Rectángulo 408599" width="257.51" height="245.198" fill="none"/>
    </clipPath>
    <clipPath id="clip-path-3">
      <rect id="Rectángulo_408596" data-name="Rectángulo 408596" width="59.635" height="21.462" fill="none"/>
    </clipPath>
    <clipPath id="clip-path-4">
      <rect id="Rectángulo_408597" data-name="Rectángulo 408597" width="54.909" height="21.538" fill="none"/>
    </clipPath>
  </defs>
  <g id="Grupo_1113237" data-name="Grupo 1113237" transform="translate(-709 -7962.497)">
    <path id="Trazado_876484" data-name="Trazado 876484" d="M0,0H295V246H0Z" transform="translate(709 7962.497)" fill="#edf5e8"/>
    <g id="Grupo_1112693" data-name="Grupo 1112693" transform="translate(727.745 7963.298)">
      <g id="Grupo_1112692" data-name="Grupo 1112692" clip-path="url(#clip-path)">
        <g id="Grupo_1112691" data-name="Grupo 1112691" transform="translate(0 0.001)">
          <g id="Grupo_1112690" data-name="Grupo 1112690" clip-path="url(#clip-path)">
            <path id="Trazado_886880" data-name="Trazado 886880" d="M1257.634,448.015c-1.1-.957-2.617-1.238-3.922-1.889s-2.514-2.054-2.052-3.436c.582-1.743,3-1.747,4.655-2.543,1.844-.886,2.826-2.925,3.4-4.889s.91-4.054,2.044-5.758a2.624,2.624,0,0,1,1.471-1.207,2.347,2.347,0,0,1,2.466,1.644,15.768,15.768,0,0,1,.546,3.178,8.147,8.147,0,0,0,4.816,6.039c1.223.508,2.563.708,3.757,1.28a3.533,3.533,0,0,1,2.245,3.008,1.2,1.2,0,0,1-.114.517,1.61,1.61,0,0,1-1.118.656c-2.2.554-4.539,1.041-6.229,2.554-1.774,1.589-2.51,4.042-2.788,6.407-.169,1.43-.313,3.085-1.5,3.9-1.278.875-3.135.193-4.09-1.028a10.657,10.657,0,0,1-1.6-4.32,7.451,7.451,0,0,0-1.987-4.113" transform="translate(-1080.631 -369.765)" fill="#afe2e9"/>
            <path id="Trazado_886881" data-name="Trazado 886881" d="M658.723,257.735a10.662,10.662,0,0,0-2.407-1.159c-.8-.4-1.542-1.26-1.259-2.109.357-1.069,1.84-1.072,2.856-1.56a4.568,4.568,0,0,0,2.087-3,12.527,12.527,0,0,1,1.254-3.533,1.61,1.61,0,0,1,.9-.741,1.44,1.44,0,0,1,1.513,1.009,9.653,9.653,0,0,1,.335,1.95,5,5,0,0,0,2.955,3.706c.751.312,1.573.434,2.306.785a2.168,2.168,0,0,1,1.378,1.846.736.736,0,0,1-.07.317.988.988,0,0,1-.686.4,8.7,8.7,0,0,0-3.822,1.567,6.132,6.132,0,0,0-1.711,3.931c-.1.877-.192,1.893-.921,2.392a1.964,1.964,0,0,1-2.51-.631,6.546,6.546,0,0,1-.982-2.651,4.572,4.572,0,0,0-1.219-2.524" transform="translate(-565.541 -212.065)" fill="#feeecf"/>
            <path id="Trazado_886882" data-name="Trazado 886882" d="M493.72,366.313h-4.9v9.42c1.6.783,3.263,1.453,4.9,2.241Z" transform="translate(-422.062 -316.285)" fill="#313131"/>
            <path id="Trazado_886883" data-name="Trazado 886883" d="M492.06,376.577a.266.266,0,0,1-.114-.026c-.783-.377-1.585-.733-2.362-1.078-.837-.371-1.7-.755-2.538-1.164a.263.263,0,0,1-.147-.236v-9.42a.262.262,0,0,1,.262-.262h4.9a.262.262,0,0,1,.262.262v11.66a.262.262,0,0,1-.262.262m-4.635-2.667c.781.378,1.589.736,2.373,1.084.656.292,1.332.591,2,.905V364.917h-4.373Z" transform="translate(-420.403 -314.627)" fill="#313131"/>
            <path id="Trazado_886884" data-name="Trazado 886884" d="M488.822,435.287v84.368h4.9V437.528c-1.634-.787-3.3-1.458-4.9-2.241" transform="translate(-422.062 -375.839)" fill="#feeecf"/>
            <path id="Trazado_886885" data-name="Trazado 886885" d="M238.487,388.359l31.935-29.817a1.109,1.109,0,0,1,.342,1.151L267.335,371.6,239.03,388.407a.449.449,0,0,1-.543-.048" transform="translate(-205.916 -309.576)" fill="#feeecf"/>
            <path id="Trazado_886886" data-name="Trazado 886886" d="M259.544,358.383l8.882-1.815a1.109,1.109,0,0,1,.952.25l-31.935,29.817a.458.458,0,0,1-.059-.644Z" transform="translate(-204.872 -307.851)" fill="#e0c79b"/>
            <path id="Trazado_886887" data-name="Trazado 886887" d="M484.2,319.66l-12.548-.031-.121,8.161,12.569.022a.454.454,0,0,0,.1.008c.783,0,1.417-1.827,1.417-4.08s-.635-4.08-1.417-4.08" transform="translate(-407.129 -275.977)" fill="#e0c79b"/>
            <path id="Trazado_886888" data-name="Trazado 886888" d="M460.68,323.937c0,2.253.634,4.08,1.417,4.08s1.417-1.827,1.417-4.08-.635-4.08-1.417-4.08-1.417,1.827-1.417,4.08" transform="translate(-397.764 -276.174)" fill="#313131"/>
            <path id="Trazado_886889" data-name="Trazado 886889" d="M460.437,326.62c-1.091,0-1.679-2.237-1.679-4.342s.589-4.342,1.679-4.342,1.68,2.237,1.68,4.342-.589,4.342-1.68,4.342m0-8.16c-.482,0-1.155,1.452-1.155,3.818s.672,3.818,1.155,3.818,1.155-1.452,1.155-3.818-.673-3.818-1.155-3.818" transform="translate(-396.104 -274.514)" fill="#313131"/>
            <path id="Trazado_886890" data-name="Trazado 886890" d="M422.662,328.095c0,1.872,5.3,3.39,5.951,3.39s1.177-1.518,1.177-3.39-.527-3.39-1.177-3.39-5.951,1.518-5.951,3.39" transform="translate(-364.938 -280.36)" fill="#feeecf"/>
            <path id="Trazado_886891" data-name="Trazado 886891" d="M459.391.014l-1.085,43.678a1.109,1.109,0,0,1-1.061-.562l-6.1-10.786L458.976.368a.449.449,0,0,1,.415-.354" transform="translate(-389.534 -0.013)" fill="#feeecf"/>
            <path id="Trazado_886892" data-name="Trazado 886892" d="M509.326,35.568,504.4,43.179a1.109,1.109,0,0,1-.846.5L504.639.006a.458.458,0,0,1,.5.409Z" transform="translate(-434.783 -0.005)" fill="#e0c79b"/>
            <path id="Trazado_886893" data-name="Trazado 886893" d="M541.5,394.574l-30.9-30.889a1.109,1.109,0,0,1,1.139-.381l12.017,3.017,17.774,27.709a.448.448,0,0,1-.03.544" transform="translate(-440.868 -313.657)" fill="#feeecf"/>
            <path id="Trazado_886894" data-name="Trazado 886894" d="M510.935,376.088l-2.12-8.815a1.11,1.11,0,0,1,.217-.961l30.9,30.889a.458.458,0,0,1-.642.081Z" transform="translate(-439.298 -316.285)" fill="#e0c79b"/>
            <path id="Trazado_886895" data-name="Trazado 886895" d="M0,735.448c.314-17.353,15.8-95.519,33.154-95.2s30,78.988,29.689,96.341A31.427,31.427,0,1,1,0,735.448" transform="translate(0 -552.803)" fill="#a8d08d"/>
            <path id="Trazado_886896" data-name="Trazado 886896" d="M223.123,917.254h-.005a.525.525,0,0,1-.52-.53l1.3-135.407a.525.525,0,0,1,.525-.52h.005a.525.525,0,0,1,.52.53l-1.305,135.407a.525.525,0,0,1-.525.52" transform="translate(-192.197 -674.163)" fill="#333"/>
            <path id="Trazado_886897" data-name="Trazado 886897" d="M103.329,1229.65a.865.865,0,0,1-.593-.231L83.209,1211.1a.525.525,0,0,1,.718-.766l19.408,18.207,16.636-13.854a.525.525,0,0,1,.672.807l-16.762,13.958a.859.859,0,0,1-.552.2" transform="translate(-71.702 -1044.915)" fill="#333"/>
            <path id="Trazado_886898" data-name="Trazado 886898" d="M124.528,974.89a.523.523,0,0,1-.357-.14l-16.828-15.614a.525.525,0,1,1,.714-.769l16.464,15.276,16.713-16.12a.525.525,0,1,1,.729.755l-17.07,16.464a.524.524,0,0,1-.364.147" transform="translate(-92.538 -826.626)" fill="#333"/>
            <path id="Trazado_886899" data-name="Trazado 886899" d="M150.67,954.651a.525.525,0,0,1-.515-.426l-1.728-9.037a.525.525,0,1,1,1.031-.2l1.728,9.037a.525.525,0,0,1-.417.614.552.552,0,0,1-.1.009" transform="translate(-128.148 -815.565)" fill="#333"/>
            <path id="Trazado_886900" data-name="Trazado 886900" d="M300.025,956.551a.526.526,0,0,1-.507-.661l2.207-8.248a.525.525,0,1,1,1.014.271l-2.207,8.248a.525.525,0,0,1-.507.39" transform="translate(-258.596 -817.884)" fill="#333"/>
            <path id="Trazado_886901" data-name="Trazado 886901" d="M150.729,1219.773a.525.525,0,0,1-.524-.508l-.286-8.819a.525.525,0,1,1,1.049-.034l.286,8.819a.525.525,0,0,1-.508.542h-.017" transform="translate(-129.443 -1044.666)" fill="#333"/>
            <path id="Trazado_886902" data-name="Trazado 886902" d="M301.039,1241.008a.525.525,0,0,1-.493-.7l2.525-6.983a.525.525,0,1,1,.987.357l-2.525,6.983a.525.525,0,0,1-.494.346" transform="translate(-259.472 -1064.585)" fill="#333"/>
            <path id="Trazado_886903" data-name="Trazado 886903" d="M494.762,661.88c11.612-18.034,31.483-16.1,47.5-21.772l24.243.479a64.088,64.088,0,0,1,15.44,2.393l-.024-.086c21.7,4.692,45.3,18.4,50,33.355s9.09,43.4,9.09,43.4l-31.8,4.325,1.6,62.239L502.969,785.8l-6.724-64.347-17.4-5.026s4.3-36.507,15.913-54.541" transform="translate(-413.451 -552.688)" fill="#ffc038"/>
            <path id="Trazado_886904" data-name="Trazado 886904" d="M1484.544,607.037c-.049-3.351-.162-6.707-.162-10.073v-29.1a1.154,1.154,0,0,1,.056-.315c2.639-7.375,6.347-20.408,6.145-25.071-.194-4.455-13.939-8.273-23.044-10.309,1.645-5.447,3.539-11.889,4.532-16.3l1.991-8.769a4.5,4.5,0,1,0-8.782-1.98l-1.97,8.769c-1.083,4.811-3.336,12.442-5.092,18.172-1.2,1.169-2.95,2.95-4.711,5.018-1.254-5.049-2.653-9.639-3.979-11.722a4.508,4.508,0,1,0-7.605,4.844c1.153,1.808,3.193,9.986,4.96,18.633-2.46,10.868,4.364,20.292,4.364,20.292l.185,31.62a5.112,5.112,0,0,1-2.157,1.258c-7.15.981-17.12,2.447-17.12,2.447s.88,28.59.777,40.171c-.013,1.444,3.1,4.521,4.047,5.543a26.248,26.248,0,0,0,7.74,5.7c10.126,4.936,24.1,3.294,31.866-5.249,5.232-5.753,6.839-13.642,7.506-21.146a216.3,216.3,0,0,0,.455-22.429" transform="translate(-1236.56 -433.091)" fill="#fe9766"/>
            <path id="Trazado_886905" data-name="Trazado 886905" d="M1639.116,832.175a.525.525,0,0,1-.5-.67c3.154-11-6.945-19.421-7.048-19.505a.525.525,0,0,1,.664-.812c.107.088,10.739,8.938,7.393,20.607a.525.525,0,0,1-.5.38" transform="translate(-1408.57 -700.3)" fill="#333"/>
            <path id="Trazado_886906" data-name="Trazado 886906" d="M1560.669,1245.462a.525.525,0,0,1-.455-.785c.4-1.113,1.225-15.414,1.2-19.573a.475.475,0,0,1,.522-.466h0a.476.476,0,0,1,.525.461c.014,2.569-.7,19.242-1.371,20.176a.5.5,0,0,1-.427.188" transform="translate(-1347.072 -1057.386)" fill="#333"/>
            <path id="Trazado_886907" data-name="Trazado 886907" d="M1432.2,1099.151a.609.609,0,0,1-.615-.525v-28.6a.622.622,0,0,1,1.229,0v28.6a.609.609,0,0,1-.615.525" transform="translate(-1236.066 -923.438)" fill="#333"/>
            <path id="Trazado_886908" data-name="Trazado 886908" d="M1432.056,1094.117a.525.525,0,0,1-.419-.84l4.838-6.451a.525.525,0,1,1,.839.63l-4.838,6.451a.525.525,0,0,1-.42.21" transform="translate(-1236.024 -938.215)" fill="#333"/>
            <path id="Trazado_886909" data-name="Trazado 886909" d="M1228.679,785.6a.525.525,0,0,1-.424-.214,12.761,12.761,0,0,0-2.059-2.206.525.525,0,1,1,.677-.8,13.811,13.811,0,0,1,2.229,2.387.525.525,0,0,1-.423.835" transform="translate(-1058.57 -675.421)" fill="#feefe0"/>
            <path id="Trazado_886910" data-name="Trazado 886910" d="M840.132,739.745a.525.525,0,0,1-.475-.3,11.062,11.062,0,0,0-1.5-2.359.525.525,0,1,1,.808-.67A12.131,12.131,0,0,1,840.606,739a.525.525,0,0,1-.475.748" transform="translate(-723.583 -635.678)" fill="#feefe0"/>
            <path id="Trazado_886911" data-name="Trazado 886911" d="M985.923,811.94a.523.523,0,0,1-.317-.107,6.734,6.734,0,0,1-2.041-2.542.525.525,0,1,1,.954-.439A5.676,5.676,0,0,0,986.241,811a.525.525,0,0,1-.318.943" transform="translate(-849.196 -698.123)" fill="#feefe0"/>
            <path id="Trazado_886912" data-name="Trazado 886912" d="M1117.12,913.746a.525.525,0,0,1-.449-.253l-2.155-3.558a.525.525,0,1,1,.9-.544l2.155,3.558a.525.525,0,0,1-.448.8" transform="translate(-962.238 -784.976)" fill="#feefe0"/>
            <path id="Trazado_886913" data-name="Trazado 886913" d="M1312.675,940.174a.523.523,0,0,1-.407-.193l-3.041-3.725a.525.525,0,0,1,.813-.664l3.04,3.725a.525.525,0,0,1-.406.856" transform="translate(-1130.321 -807.65)" fill="#feefe0"/>
            <path id="Trazado_886914" data-name="Trazado 886914" d="M1371.217,820.383a.524.524,0,0,1-.4-.179l-3.335-3.8a.525.525,0,0,1,.789-.692l3.336,3.8a.525.525,0,0,1-.394.871" transform="translate(-1180.612 -704.151)" fill="#feefe0"/>
            <path id="Trazado_886915" data-name="Trazado 886915" d="M1466.494,964.9a.525.525,0,0,1-.5-.38,16.355,16.355,0,0,0-.827-2.24.525.525,0,0,1,.956-.435,17.4,17.4,0,0,1,.88,2.384.525.525,0,0,1-.5.67" transform="translate(-1265.021 -830.222)" fill="#feefe0"/>
            <path id="Trazado_886916" data-name="Trazado 886916" d="M1216.991,1074.193a.523.523,0,0,1-.433-.228,13.38,13.38,0,0,1-2.128-5.22.525.525,0,1,1,1.034-.181,12.334,12.334,0,0,0,1.96,4.808.524.524,0,0,1-.432.821" transform="translate(-1048.565 -922.253)" fill="#feefe0"/>
            <path id="Trazado_886917" data-name="Trazado 886917" d="M1337.218,1154.4a.524.524,0,0,1-.412-.2,16.046,16.046,0,0,1-2.237-3.81.525.525,0,0,1,.969-.4,15.016,15.016,0,0,0,2.091,3.561.525.525,0,0,1-.411.85" transform="translate(-1152.269 -992.648)" fill="#feefe0"/>
            <path id="Trazado_886918" data-name="Trazado 886918" d="M1149.338,1201.153a.526.526,0,0,1-.461-.274,33.234,33.234,0,0,0-2.691-4.168.525.525,0,1,1,.836-.634,34.251,34.251,0,0,1,2.777,4.3.525.525,0,0,1-.46.776" transform="translate(-989.556 -1032.547)" fill="#feefe0"/>
            <path id="Trazado_886919" data-name="Trazado 886919" d="M1261.71,1267.712a.524.524,0,0,1-.452-.258,11.577,11.577,0,0,1-1.486-4.248.525.525,0,1,1,1.039-.146,10.519,10.519,0,0,0,1.35,3.859.525.525,0,0,1-.451.792" transform="translate(-1087.717 -1090.171)" fill="#feefe0"/>
            <path id="Trazado_886920" data-name="Trazado 886920" d="M1206.226,1387.1a.522.522,0,0,1-.315-.105,15.731,15.731,0,0,1-3.062-3.051.525.525,0,1,1,.836-.635,14.67,14.67,0,0,0,2.858,2.847.525.525,0,0,1-.316.944" transform="translate(-1038.48 -1194.205)" fill="#feefe0"/>
            <path id="Trazado_886921" data-name="Trazado 886921" d="M1355.1,1402.536a.525.525,0,0,1-.51-.4l-.713-2.933a.525.525,0,1,1,1.02-.247l.713,2.933a.525.525,0,0,1-.386.634.519.519,0,0,1-.124.015" transform="translate(-1168.967 -1207.549)" fill="#feefe0"/>
            <path id="Trazado_886922" data-name="Trazado 886922" d="M1281.312,1519.4a.524.524,0,0,1-.477-.306,14.057,14.057,0,0,1-1.179-4.142.525.525,0,0,1,1.042-.13,13.026,13.026,0,0,0,1.091,3.834.525.525,0,0,1-.477.744" transform="translate(-1104.887 -1307.54)" fill="#feefe0"/>
            <path id="Trazado_886923" data-name="Trazado 886923" d="M1189.961,1626.941a.519.519,0,0,1-.192-.037,4.246,4.246,0,0,1-2.734-3.859c0-.29.231-.409.52-.409h0c.288,0,.522.112.525.4a3.3,3.3,0,0,0,2.069,2.951.492.492,0,0,1,.3.651.5.5,0,0,1-.488.3" transform="translate(-1024.919 -1401.03)" fill="#feefe0"/>
            <path id="Trazado_886924" data-name="Trazado 886924" d="M1358.782,1659.336a.524.524,0,0,1-.234-.055,8.835,8.835,0,0,1-2.67-2.056.525.525,0,0,1,.788-.693,7.783,7.783,0,0,0,2.351,1.809.525.525,0,0,1-.235.994" transform="translate(-1170.59 -1430.142)" fill="#feefe0"/>
            <path id="Trazado_886925" data-name="Trazado 886925" d="M1518.354,1163.877a.525.525,0,0,1-.47-.29,6.435,6.435,0,0,0-2.453-2.634.525.525,0,0,1,.535-.9,7.5,7.5,0,0,1,2.857,3.068.525.525,0,0,1-.469.759" transform="translate(-1308.242 -1001.556)" fill="#feefe0"/>
            <path id="Trazado_886926" data-name="Trazado 886926" d="M1531.613,1042.861a.524.524,0,0,1-.419-.209l-1.091-1.449a.525.525,0,1,1,.838-.631l1.091,1.449a.525.525,0,0,1-.419.84" transform="translate(-1321.042 -898.278)" fill="#feefe0"/>
            <path id="Trazado_886927" data-name="Trazado 886927" d="M1603.13,1555.594a8.089,8.089,0,0,1-4.682-1.189,1.892,1.892,0,0,1-.852-1.936,3.365,3.365,0,0,1,2.546-2.143,8.377,8.377,0,0,1,4.513.281.525.525,0,0,1-.333,1,7.307,7.307,0,0,0-3.929-.256,2.429,2.429,0,0,0-1.771,1.344c-.024.109-.1.442.474.889,1.313,1.03,5.127,1.382,7.706.324a2.968,2.968,0,0,0,2.045-2.142c.184-1.43-1.632-2.676-2.9-3.164a11.258,11.258,0,0,0-6.185-.613.525.525,0,0,1-.225-1.025,12.35,12.35,0,0,1,6.789.658c1.355.523,3.843,2.09,3.561,4.277a3.858,3.858,0,0,1-2.688,2.979,11.051,11.051,0,0,1-4.07.72" transform="translate(-1379.377 -1335.499)" fill="#333"/>
            <path id="Trazado_886928" data-name="Trazado 886928" d="M1673.683,656.976a5.3,5.3,0,0,1,2.839,4.276,5.1,5.1,0,0,1,4.8.116,5.286,5.286,0,0,1,2.883,4.591,4.233,4.233,0,0,1-.093.754,4.517,4.517,0,0,1,4.536-.036,4.739,4.739,0,0,1,2.584,4.115,3.672,3.672,0,0,1-.4,1.628l-5.653,11.106a4.2,4.2,0,0,1-5.838,1.429,4.756,4.756,0,0,1-2.561-3.872,4.861,4.861,0,0,1-5.838.673,5.31,5.31,0,0,1-2.852-4.268,5.1,5.1,0,0,1-4.788-.123,5.169,5.169,0,0,1-2.8-4.712,77.672,77.672,0,0,1,6.047-13.216,5.5,5.5,0,0,1,6.73-2.638,3.291,3.291,0,0,1,.4.177" transform="translate(-1433.723 -566.811)" fill="#dd7b54"/>
            <path id="Trazado_886929" data-name="Trazado 886929" d="M1712.771,729.159a.525.525,0,0,1-.476-.745c2.72-5.875,6.03-12.362,6.063-12.426a.525.525,0,0,1,.935.478c-.033.065-3.334,6.534-6.044,12.39a.526.526,0,0,1-.477.3" transform="translate(-1478.401 -617.957)" fill="#333"/>
            <path id="Trazado_886930" data-name="Trazado 886930" d="M1788.766,740.174a.525.525,0,0,1-.47-.756l5.641-11.472a.525.525,0,1,1,.942.463l-5.641,11.472a.525.525,0,0,1-.472.293" transform="translate(-1544.017 -628.276)" fill="#333"/>
            <path id="Trazado_886931" data-name="Trazado 886931" d="M1005.864,979.033a.525.525,0,0,1-.511-.408,13.488,13.488,0,0,0-1.858-4.378.525.525,0,0,1,.879-.573,14.539,14.539,0,0,1,2,4.718.525.525,0,0,1-.512.642" transform="translate(-866.372 -840.491)" fill="#feefe0"/>
            <path id="Trazado_886932" data-name="Trazado 886932" d="M685.974,781.095a.524.524,0,0,1-.413-.2c-1.124-1.427-2.328-2.815-3.579-4.127a.525.525,0,1,1,.76-.725c1.274,1.336,2.5,2.75,3.645,4.2a.525.525,0,0,1-.412.849" transform="translate(-588.717 -669.917)" fill="#feefe0"/>
            <path id="Trazado_886933" data-name="Trazado 886933" d="M797.963,891.237a.523.523,0,0,1-.384-.167,49.579,49.579,0,0,1-4.369-5.4.525.525,0,1,1,.86-.6,48.637,48.637,0,0,0,4.277,5.29.525.525,0,0,1-.384.882" transform="translate(-684.797 -763.996)" fill="#feefe0"/>
            <path id="Trazado_886934" data-name="Trazado 886934" d="M625.6,905.9a.523.523,0,0,1-.377-.159l-2.644-2.727a.525.525,0,1,1,.753-.731l2.644,2.727a.525.525,0,0,1-.377.89" transform="translate(-537.425 -778.92)" fill="#feefe0"/>
            <path id="Trazado_886935" data-name="Trazado 886935" d="M1042.554,1283.91a.523.523,0,0,1-.4-.18l-4.493-5.167a.525.525,0,0,1,.792-.689l4.493,5.167a.525.525,0,0,1-.4.869" transform="translate(-895.837 -1103.197)" fill="#feefe0"/>
            <path id="Trazado_886936" data-name="Trazado 886936" d="M972.76,1388.891a.523.523,0,0,1-.378-.161,26.494,26.494,0,0,1-5.677-8.975.525.525,0,1,1,.982-.37,25.435,25.435,0,0,0,5.45,8.616.525.525,0,0,1-.378.889" transform="translate(-834.651 -1190.706)" fill="#feefe0"/>
            <path id="Trazado_886937" data-name="Trazado 886937" d="M1128.014,1483.5a.523.523,0,0,1-.408-.2l-4.322-5.352a.525.525,0,1,1,.816-.66l4.322,5.352a.525.525,0,0,1-.408.854" transform="translate(-969.773 -1275.368)" fill="#feefe0"/>
            <path id="Trazado_886938" data-name="Trazado 886938" d="M991.187,1576.962a5.36,5.36,0,0,1-3.343-1.234,5.167,5.167,0,0,1-1.983-3.974.525.525,0,0,1,1.049.011,4.341,4.341,0,0,0,5,4.07.525.525,0,1,1,.224,1.026,4.456,4.456,0,0,1-.951.1" transform="translate(-851.219 -1356.648)" fill="#feefe0"/>
            <path id="Trazado_886939" data-name="Trazado 886939" d="M855.35,137.107c-.226-1.569-.752-3.3-2.165-4.023a6.37,6.37,0,0,0-.795,4.061c-.169-2.92-2.22-5.477-4.732-6.975a23.378,23.378,0,0,0-8.333-2.572c-12.3-2-25.2-1.905-36.9,2.4-1.449.534-3.129,1.5-3.055,3.045.066,1.382,1.553,2.238,2.906,2.527s2.844.313,3.942,1.155c-3.167.39-8.7,3.71-4.113,6.45,6.931,4.144,15.333,3.73,23.1,4.127,4.85.248,9.7.458,14.556.6,1.393.042,14.3.984,14.565.218a23.818,23.818,0,0,0,1.019-11.018" transform="translate(-690.197 -109.085)" fill="#363636"/>
            <path id="Trazado_886940" data-name="Trazado 886940" d="M904.315,481.329c4.556-1.163,4.742-3.913,4.779-5.477l.182-7.618,12.788-2.141L936.987,454.4l.371,20.1c-.28,6.831,6.112,5.991,7.087,6.928-7.076,11.438-29.564,12.7-40.13-.1" transform="translate(-780.81 -392.343)" fill="#fe9766"/>
            <path id="Trazado_886941" data-name="Trazado 886941" d="M828.263,389.215s-5.231-5.342-9.626-3.763-4.985,11.058-.26,12.9,10.4-1.858,10.4-1.858Z" transform="translate(-703.762 -332.558)" fill="#dd7b54"/>
            <path id="Trazado_886942" data-name="Trazado 886942" d="M939.883,523.465l.1-6.987,12.788.506,4.984-3.9,6.851-1.524c-5.5,15.637-21.138,13.32-24.727,11.91" transform="translate(-811.521 -441.691)" fill="#363636"/>
            <path id="Trazado_886943" data-name="Trazado 886943" d="M915.139,196.581a6.57,6.57,0,0,0-5.306,1.285l1.639-8.389c2.226-11.064-5.164-19.494-16.3-21.336q-.385-.064-.781-.116c-21.785-2.854-25.544,13.261-25.544,13.261-1.119,3.661-.849,9.006-.006,16.5,1.17,10.4,1.777,24.1,16.324,26.519,6.546,1.088,11.7-1.6,15.381-4.882a24.764,24.764,0,0,0,6.792-10.342c2,.789,6,1.958,9.255.325,4.534-2.273,3.067-11.656-1.455-12.82" transform="translate(-749.547 -144.786)" fill="#fe9766"/>
            <path id="Trazado_886944" data-name="Trazado 886944" d="M1130.945,270.943l-.237.158a1.347,1.347,0,0,1-2.094-1.08c-.142-5.1-.823-16.487-4.075-17.817-4.207-1.721,6.5,1.147,6.5,1.147l3.633-.956s-.79,12.971-2.607,17.369Z" transform="translate(-970.112 -217.285)" fill="#363636"/>
            <path id="Trazado_886945" data-name="Trazado 886945" d="M853.445,270.3s.246-11.184,2.636-16.634-.382,0-.382,0l-5.633-1.252s1.76,14.393,3.1,18.026Z" transform="translate(-733.969 -216.934)" fill="#363636"/>
            <path id="Trazado_886946" data-name="Trazado 886946" d="M1166.932,407.912a.518.518,0,0,0,.468-.3c1.494-3.148,6.059-4.766,6.105-4.783a.518.518,0,1,0-.34-.978c-.2.071-5.022,1.78-6.7,5.317a.518.518,0,0,0,.468.74" transform="translate(-1007.114 -346.948)" fill="#363636"/>
            <path id="Trazado_886947" data-name="Trazado 886947" d="M1189.1,417.359a.518.518,0,0,0,.21-.992l-1.426-.631a.518.518,0,0,0-.419.947l1.426.631a.517.517,0,0,0,.21.045" transform="translate(-1025.024 -358.92)" fill="#363636"/>
            <path id="Trazado_886948" data-name="Trazado 886948" d="M844.653,410.3a.518.518,0,0,0,.457-.76c-1.247-2.352-4.568-3.706-4.708-3.762a.518.518,0,0,0-.386.961c.031.013,3.111,1.271,4.179,3.286a.518.518,0,0,0,.458.275" transform="translate(-725.013 -350.332)" fill="#363636"/>
            <path id="Trazado_886949" data-name="Trazado 886949" d="M853.526,426.7a.516.516,0,0,0,.35-.137l1.544-1.419a.518.518,0,0,0-.7-.763l-1.544,1.42a.518.518,0,0,0,.351.9" transform="translate(-736.511 -366.305)" fill="#363636"/>
            <path id="Trazado_886950" data-name="Trazado 886950" d="M902.784,153.684a16.156,16.156,0,0,1,4.1,2.359,19.706,19.706,0,0,1,4.122,5.634c.64,1.137,1.269,2.6.5,3.658-.612.837-1.8.944-2.834.976l-18.029.557a2.8,2.8,0,0,1-1.551-.251.966.966,0,0,1-.367-1.354,8.385,8.385,0,0,1,3.484-1.545c-7.573-.469-14.91,2.531-22.456,3.326a2.538,2.538,0,0,1-1.777-.263,2.186,2.186,0,0,1-.711-1.17,8.268,8.268,0,0,1,1.137-6.724,14.933,14.933,0,0,1,5.17-4.675c8.714-5.117,19.925-4.519,29.209-.529" transform="translate(-748.568 -129.975)" fill="#363636"/>
            <path id="Trazado_886951" data-name="Trazado 886951" d="M954.279,145.792a1.735,1.735,0,0,0,.849,1.45,4.694,4.694,0,0,0,1.65.577,37.133,37.133,0,0,0,5.759.723,2.649,2.649,0,0,0,1.457-.219,1.625,1.625,0,0,0,.748-1.483A2.421,2.421,0,0,0,964,145.3c-.984-.993-2.471-1.232-3.839-1.518-.68-.142-1.509-.49-1.509-1.185,0-.508.463-.874.736-1.3a2.663,2.663,0,0,0,.089-2.351,1.988,1.988,0,0,0-.787-1.047,2.456,2.456,0,0,0-.95-.253,29.687,29.687,0,0,0-5.176-.167,4.974,4.974,0,0,0-1.727.321,1.892,1.892,0,0,0-1.139,1.261,2.169,2.169,0,0,0,1.218,2.136c.755.445,1.634.639,2.4,1.06a2.279,2.279,0,0,1,1.359,2.068c-.058.508-.378.963-.4,1.474" transform="translate(-819.971 -118.659)" fill="#fff"/>
            <path id="Trazado_886952" data-name="Trazado 886952" d="M436.283,1137.663l31.794,5.907-8.142,72.209H427.366Z" transform="translate(-368.999 -982.29)" fill="#e77867"/>
            <path id="Trazado_886953" data-name="Trazado 886953" d="M850.262,1080.283a.525.525,0,0,1-.48-.312c-.333-.75-1.243-1.146-2.207-1.566-1.2-.521-2.555-1.113-2.7-2.577a.525.525,0,1,1,1.044-.1c.079.794.837,1.179,2.075,1.719a4.777,4.777,0,0,1,2.747,2.1.525.525,0,0,1-.479.738" transform="translate(-729.486 -928.402)" fill="#feefe0"/>
            <path id="Trazado_886954" data-name="Trazado 886954" d="M872.483,1217.975a.524.524,0,0,1-.437-.234,15.4,15.4,0,0,0-4.68-4.529.525.525,0,1,1,.552-.892,16.442,16.442,0,0,1,5,4.84.525.525,0,0,1-.436.815" transform="translate(-748.693 -1046.683)" fill="#feefe0"/>
            <path id="Trazado_886955" data-name="Trazado 886955" d="M804.456,1367.8a.524.524,0,0,1-.475-.3,5.7,5.7,0,0,0-1.756-1.851,5.911,5.911,0,0,1-2.142-2.47.525.525,0,0,1,.986-.361,5.066,5.066,0,0,0,1.808,2.009,6.552,6.552,0,0,1,2.053,2.226.525.525,0,0,1-.474.749" transform="translate(-690.786 -1176.401)" fill="#feefe0"/>
            <path id="Trazado_886956" data-name="Trazado 886956" d="M786.975,1495.415a.523.523,0,0,1-.428-.22l-1.623-2.275a.525.525,0,0,1,.854-.609l1.623,2.275a.525.525,0,0,1-.427.83" transform="translate(-677.641 -1288.313)" fill="#feefe0"/>
            <path id="Trazado_886957" data-name="Trazado 886957" d="M644.295,1076.794a.523.523,0,0,1-.37-.153l-3.691-3.677a.525.525,0,1,1,.741-.744l3.691,3.677a.525.525,0,0,1-.37.9" transform="translate(-552.662 -925.653)" fill="#feefe0"/>
            <path id="Trazado_886958" data-name="Trazado 886958" d="M1000.538,386.51a.525.525,0,0,1-.431-.824c2.32-3.343,1.178-8.163,1.166-8.212a.525.525,0,0,1,1.019-.251c.053.215,1.271,5.323-1.323,9.061a.524.524,0,0,1-.432.226" transform="translate(-863.44 -325.362)" fill="#333"/>
            <path id="Trazado_886959" data-name="Trazado 886959" d="M943.32,345.487a1.386,1.386,0,0,1,.086.939.878.878,0,0,1-.4.518,2.4,2.4,0,0,1-1.568.182l-.881-.093a7.789,7.789,0,0,1-.889-.129,4.766,4.766,0,0,1-1.119-.409.671.671,0,0,1-.331-.308.953.953,0,0,1-.012-.766.642.642,0,0,1,.393-.309,6.225,6.225,0,0,1,4.191-.036.811.811,0,0,1,.525.413" transform="translate(-810.012 -297.65)" fill="#333"/>
            <path id="Trazado_886960" data-name="Trazado 886960" d="M995.808,472.57a8.212,8.212,0,0,1-3.29-.7.525.525,0,1,1,.417-.963c4.7,2.034,8.394-1.562,8.549-1.716a.525.525,0,0,1,.742.743,10.02,10.02,0,0,1-6.419,2.633" transform="translate(-856.695 -404.984)" fill="#333"/>
            <path id="Trazado_886961" data-name="Trazado 886961" d="M1055.673,462.271a.524.524,0,0,1-.419-.208l-1.673-2.206a.525.525,0,0,1,.836-.634l1.673,2.206a.525.525,0,0,1-.418.842" transform="translate(-909.599 -396.327)" fill="#333"/>
            <path id="Trazado_886962" data-name="Trazado 886962" d="M1046.452,341.2a1.386,1.386,0,0,0-.086.939.878.878,0,0,0,.4.518,2.4,2.4,0,0,0,1.569.182l.881-.093a7.791,7.791,0,0,0,.889-.129,4.76,4.76,0,0,0,1.119-.409.672.672,0,0,0,.331-.308.955.955,0,0,0,.012-.766.643.643,0,0,0-.393-.309,6.226,6.226,0,0,0-4.191-.036.813.813,0,0,0-.525.413" transform="translate(-903.422 -293.947)" fill="#333"/>
            <path id="Trazado_886963" data-name="Trazado 886963" d="M1062.327,374.56s-2.575,6.673-10.988,4.278c0,0,.829-4.734,4.172-5.205a15.25,15.25,0,0,1,6.816.927" transform="translate(-907.755 -322.521)" fill="#fff"/>
            <path id="Trazado_886964" data-name="Trazado 886964" d="M1047.235,373.03a.526.526,0,0,1-.5-.669c.045-.159,1.146-3.9,4.391-5.3,2.053-.88,4.465-.609,7.169.808a.525.525,0,1,1-.487.93c-2.41-1.263-4.519-1.524-6.268-.773-2.792,1.2-3.786,4.585-3.8,4.619a.525.525,0,0,1-.5.381" transform="translate(-903.758 -316.499)" fill="#333"/>
            <path id="Trazado_886965" data-name="Trazado 886965" d="M1069.058,386.2a2.375,2.375,0,1,1,2.663,2.047,2.375,2.375,0,0,1-2.663-2.047" transform="translate(-923.036 -331.14)" fill="#333"/>
            <path id="Trazado_886966" data-name="Trazado 886966" d="M889.754,374.56s2.575,6.673,10.988,4.278c0,0-.829-4.734-4.172-5.205a15.25,15.25,0,0,0-6.817.927" transform="translate(-768.238 -322.521)" fill="#fff"/>
            <path id="Trazado_886967" data-name="Trazado 886967" d="M899.323,373.03a.525.525,0,0,1-.5-.38c-.01-.034-1.017-3.432-3.8-4.622-1.748-.747-3.854-.485-6.261.776a.525.525,0,0,1-.487-.93c2.7-1.417,5.116-1.689,7.169-.808,3.245,1.392,4.346,5.137,4.391,5.3a.526.526,0,0,1-.5.669" transform="translate(-766.712 -316.499)" fill="#333"/>
            <path id="Trazado_886968" data-name="Trazado 886968" d="M913.879,384.057a2.375,2.375,0,1,0-2.663,2.047,2.375,2.375,0,0,0,2.663-2.047" transform="translate(-784.983 -329.289)" fill="#333"/>
            <path id="Trazado_886969" data-name="Trazado 886969" d="M922.408,657.641a27.641,27.641,0,0,1-8.53-1.408,38.933,38.933,0,0,1-13.236-7.6.525.525,0,0,1,.715-.768,38.609,38.609,0,0,0,12.878,7.379c9.984,3.237,18.905.8,26.513-7.258a.525.525,0,1,1,.763.72c-6.439,6.816-13.2,8.933-19.1,8.933" transform="translate(-777.494 -559.265)" fill="#333"/>
            <path id="Trazado_886970" data-name="Trazado 886970" d="M1481.954,306.473a3.109,3.109,0,0,0-.946,6.071l26.048,8.331a3.109,3.109,0,1,0,1.894-5.922l-26.048-8.331a3.111,3.111,0,0,0-.948-.149" transform="translate(-1276.875 -264.618)" fill="#313131"/>
            <path id="Trazado_886971" data-name="Trazado 886971" d="M1482.65,438.957a3.078,3.078,0,0,0-2.942,1.976,2.8,2.8,0,0,0,2,3.571l25.89,7.612a3.152,3.152,0,0,0,3.884-1.84,2.8,2.8,0,0,0-2-3.571l-25.89-7.612a3.34,3.34,0,0,0-.942-.136" transform="translate(-1277.492 -379.008)" fill="#313131"/>
            <path id="Trazado_886972" data-name="Trazado 886972" d="M1495.439,461.727a2.986,2.986,0,0,1-2.936-3.2V451.83l-4.66-3.78a3.234,3.234,0,0,1-1.15-3.076,3.173,3.173,0,0,1,2.146-2.441l25.308-8.071a3.2,3.2,0,0,1,1.936,6.1l-19.74,6.292,1.041,1a3.059,3.059,0,0,1,.992,2.466v8.2a2.986,2.986,0,0,1-2.937,3.2" transform="translate(-1283.604 -374.996)" fill="#feeecf"/>
            <path id="Trazado_886973" data-name="Trazado 886973" d="M1632.859,510.221a3.268,3.268,0,0,1-3.278-3.2v-8.007a3.194,3.194,0,0,1,1.162-2.477l5.778-4.74a3.229,3.229,0,0,1,4.142,4.954l-4.526,3.779v6.491a3.268,3.268,0,0,1-3.278,3.2" transform="translate(-1407.025 -424.003)" fill="#feeecf"/>
            <path id="Trazado_886974" data-name="Trazado 886974" d="M1478.474,385.516a3.2,3.2,0,0,1-.975-6.254l26.836-8.583a3.2,3.2,0,1,1,1.951,6.1l-26.835,8.583a3.2,3.2,0,0,1-.977.153" transform="translate(-1273.79 -319.922)" fill="#feeecf"/>
            <path id="Trazado_886975" data-name="Trazado 886975" d="M1478.474,323.6a3.2,3.2,0,0,1-.975-6.254l26.836-8.583a3.2,3.2,0,1,1,1.951,6.1l-26.835,8.583a3.2,3.2,0,0,1-.977.153" transform="translate(-1273.79 -266.467)" fill="#feeecf"/>
            <path id="Trazado_886976" data-name="Trazado 886976" d="M1478.474,283.2a3.2,3.2,0,0,1-.922-6.27l14.257-4.292a3.2,3.2,0,1,1,1.846,6.133l-14.257,4.292a3.2,3.2,0,0,1-.925.137" transform="translate(-1273.791 -235.283)" fill="#feeecf"/>
            <path id="Trazado_886977" data-name="Trazado 886977" d="M1555.809,670.1h-10.823a2.886,2.886,0,0,1-2.886-2.886V663.5h16.6v3.706a2.886,2.886,0,0,1-2.886,2.886" transform="translate(-1331.491 -572.888)" fill="#03bbd3"/>
            <path id="Trazado_886978" data-name="Trazado 886978" d="M1541.905,600.914h-20.347a1.122,1.122,0,0,0-1.119,1.119v2.873a1.122,1.122,0,0,0,1.119,1.119h20.347a1.122,1.122,0,0,0,1.119-1.119v-2.873a1.122,1.122,0,0,0-1.119-1.119" transform="translate(-1312.79 -518.846)" fill="#03bbd3"/>
            <path id="Trazado_886979" data-name="Trazado 886979" d="M1541.905,638.332h-20.347a1.122,1.122,0,0,0-1.119,1.119v2.873a1.122,1.122,0,0,0,1.119,1.119h20.347a1.122,1.122,0,0,0,1.119-1.119v-2.873a1.122,1.122,0,0,0-1.119-1.119" transform="translate(-1312.79 -551.154)" fill="#afe2e9"/>
            <path id="Trazado_886980" data-name="Trazado 886980" d="M1546.927,613.866h-4.46a.616.616,0,1,1,0-1.229h4.46a.616.616,0,1,1,0,1.229" transform="translate(-1331.241 -528.968)" fill="#fff"/>
            <path id="Trazado_886981" data-name="Trazado 886981" d="M1546.927,650.866h-4.46a.616.616,0,1,1,0-1.229h4.46a.616.616,0,1,1,0,1.229" transform="translate(-1331.241 -560.915)" fill="#fff"/>
            <path id="Trazado_886982" data-name="Trazado 886982" d="M1488.266,377.434a.525.525,0,0,1-.16-1.025l26.836-8.583a.525.525,0,1,1,.32,1l-26.836,8.583a.528.528,0,0,1-.16.025" transform="translate(-1284.556 -317.57)" fill="#333"/>
            <path id="Trazado_886983" data-name="Trazado 886983" d="M1525.651,315.122a.525.525,0,0,1-.161-1.024l20.594-6.637a.525.525,0,0,1,.322,1l-20.594,6.637a.518.518,0,0,1-.161.026" transform="translate(-1316.836 -265.448)" fill="#333"/>
            <path id="Trazado_886984" data-name="Trazado 886984" d="M1520.648,438.012a.525.525,0,0,1-.16-1.025l22.839-7.32a.525.525,0,1,1,.32,1l-22.839,7.32a.522.522,0,0,1-.16.025" transform="translate(-1312.516 -370.964)" fill="#333"/>
            <path id="Trazado_886985" data-name="Trazado 886985" d="M1556.7,505.5h-.014a.524.524,0,0,1-.511-.538l.161-6.227a2.189,2.189,0,0,0-.76-1.72l-1.544-1.334a.525.525,0,0,1,.18-.9l13.353-4.363a.525.525,0,1,1,.326,1l-12.47,4.074.841.726a3.235,3.235,0,0,1,1.123,2.542l-.162,6.227a.525.525,0,0,1-.524.511" transform="translate(-1341.639 -423.418)" fill="#333"/>
            <path id="Trazado_886986" data-name="Trazado 886986" d="M1055.376,1590.086s4.473-22.094,23.482-22.094c12.185,0,18.238,9.146,21.018,15.716,2.1-3.449,5.706-6.993,11.645-6.993,11.564,0,14.058,13.547,14.058,13.547l-23.629-.089.018.089Z" transform="translate(-911.241 -1353.848)" fill="#6a9c39"/>
            <path id="Trazado_886987" data-name="Trazado 886987" d="M1046.9,1218.1a2.775,2.775,0,0,1,2.729-2.345l5.528-.023a9.862,9.862,0,0,0,9.811-9.9l-.077-18.155a15.417,15.417,0,0,1,15.335-15.465l8.531-.037a2.774,2.774,0,0,1,.024,5.548l-8.531.036a9.858,9.858,0,0,0-9.811,9.9l.077,18.155a15.426,15.426,0,0,1-15.334,15.465l-5.528.023a2.774,2.774,0,0,1-2.785-2.762,2.8,2.8,0,0,1,.033-.44" transform="translate(-903.896 -1012.096)" fill="#afe2e9"/>
            <path id="Trazado_886988" data-name="Trazado 886988" d="M1534.234,1092.7a2.457,2.457,0,0,1,2.447-2.468l17.336-.074a2.457,2.457,0,1,1,.021,4.914l-17.335.074a2.457,2.457,0,0,1-2.468-2.447" transform="translate(-1324.7 -941.276)" fill="#333"/>
            <path id="Trazado_886989" data-name="Trazado 886989" d="M1534.947,1260.616a2.457,2.457,0,0,1,2.446-2.467l17.336-.073a2.457,2.457,0,1,1,.021,4.914l-17.336.074a2.457,2.457,0,0,1-2.467-2.447" transform="translate(-1325.316 -1086.257)" fill="#333"/>
            <path id="Trazado_886990" data-name="Trazado 886990" d="M1370.888,1095.656l-.166-39.04-27.99.119a4.5,4.5,0,0,0-4.479,4.517l.127,30.044a4.5,4.5,0,0,0,4.517,4.479Z" transform="translate(-1155.485 -912.312)" fill="#fff"/>
            <path id="Trazado_886991" data-name="Trazado 886991" d="M1547.545,1021.663a4.16,4.16,0,0,1,8.271.625l.176,41.36a4.16,4.16,0,1,1-8.32.035l-.176-41.36a4.209,4.209,0,0,1,.049-.66" transform="translate(-1336.15 -879.095)" fill="#feeecf"/>
            <path id="Trazado_886992" data-name="Trazado 886992" d="M1499.631,1269.483a2.229,2.229,0,0,0,.513-1.425,2.241,2.241,0,0,0-3.71-1.694Z" transform="translate(-1292.062 -1092.94)" fill="#d8dad6"/>
            <path id="Trazado_886993" data-name="Trazado 886993" d="M1491.04,1272.758a2.244,2.244,0,0,0,3.177,3.1Z" transform="translate(-1287.04 -1098.935)" fill="#d8dad6"/>
            <path id="Trazado_886994" data-name="Trazado 886994" d="M1506.168,1115.516a2.228,2.228,0,0,0,1.513.073,2.241,2.241,0,0,0,.531-4.044Z" transform="translate(-1300.467 -959.739)" fill="#d8dad6"/>
            <path id="Trazado_886995" data-name="Trazado 886995" d="M1498.808,1109.049a2.244,2.244,0,0,0-2.031,3.946Z" transform="translate(-1291.554 -957.482)" fill="#d8dad6"/>
            <path id="Trazado_886996" data-name="Trazado 886996" d="M1393.258,1174.8l.025,5.808-8.392-2.951.011,2.572-11.649-7.916,8.388,1.956-.676-2.9Z" transform="translate(-1185.703 -1011.389)" fill="#bed201"/>
            <path id="Trazado_886997" data-name="Trazado 886997" d="M1302.145,1157.707l-.054-12.683-5.808,3.76.022,5.213Z" transform="translate(-1119.246 -988.646)" fill="#feeecf"/>
            <path id="Trazado_886998" data-name="Trazado 886998" d="M272.787,908.39l28.654-28.447h64.51v124.129h-64.51l-28.654-.026Z" transform="translate(-235.532 -759.768)" fill="#feeecf"/>
            <path id="Trazado_886999" data-name="Trazado 886999" d="M365.951,879.943v28.55H272.787v-.1l28.654-28.447Z" transform="translate(-235.532 -759.768)" fill="#333"/>
            <path id="Trazado_887000" data-name="Trazado 887000" d="M745.422,908.39l28.654-28.447L798.8,908.39v95.656H745.422Z" transform="translate(-643.618 -759.767)" fill="#fff"/>
            <rect id="Rectángulo_408582" data-name="Rectángulo 408582" width="14.534" height="22.608" transform="translate(75.108 191.511)" fill="#afe2e9"/>
            <rect id="Rectángulo_408583" data-name="Rectángulo 408583" width="2.894" height="22.608" transform="translate(75.204 191.511)" fill="#03bbd3"/>
            <rect id="Rectángulo_408584" data-name="Rectángulo 408584" width="14.534" height="22.608" transform="translate(47.307 191.511)" fill="#afe2e9"/>
            <rect id="Rectángulo_408585" data-name="Rectángulo 408585" width="2.894" height="22.608" transform="translate(47.404 191.511)" fill="#03bbd3"/>
            <rect id="Rectángulo_408586" data-name="Rectángulo 408586" width="14.534" height="22.608" transform="translate(75.108 159.009)" fill="#afe2e9"/>
            <rect id="Rectángulo_408587" data-name="Rectángulo 408587" width="2.894" height="22.608" transform="translate(75.204 159.009)" fill="#03bbd3"/>
            <rect id="Rectángulo_408588" data-name="Rectángulo 408588" width="14.534" height="22.608" transform="translate(47.307 159.009)" fill="#afe2e9"/>
            <rect id="Rectángulo_408589" data-name="Rectángulo 408589" width="2.894" height="22.608" transform="translate(47.404 159.009)" fill="#03bbd3"/>
            <rect id="Rectángulo_408590" data-name="Rectángulo 408590" width="11.172" height="17.379" transform="translate(126.463 158.553)" fill="#afe2e9"/>
            <rect id="Rectángulo_408591" data-name="Rectángulo 408591" width="2.224" height="17.379" transform="translate(135.336 158.553)" fill="#03bbd3"/>
            <rect id="Rectángulo_408592" data-name="Rectángulo 408592" width="11.172" height="17.379" transform="translate(126.463 184.483)" fill="#afe2e9"/>
            <rect id="Rectángulo_408593" data-name="Rectángulo 408593" width="2.224" height="17.379" transform="translate(135.336 184.483)" fill="#03bbd3"/>
            <rect id="Rectángulo_408594" data-name="Rectángulo 408594" width="11.172" height="17.379" transform="translate(126.463 211.738)" fill="#afe2e9"/>
            <rect id="Rectángulo_408595" data-name="Rectángulo 408595" width="2.224" height="17.379" transform="translate(135.336 211.738)" fill="#03bbd3"/>
            <path id="Trazado_887001" data-name="Trazado 887001" d="M410.813,903.8H356.106l-20.625,21.361h54.706Z" transform="translate(-289.664 -780.362)" fill="#afe2e9"/>
            <g id="Grupo_1112686" data-name="Grupo 1112686" transform="translate(56.804 123.257)" opacity="0.39">
              <g id="Grupo_1112685" data-name="Grupo 1112685">
                <g id="Grupo_1112684" data-name="Grupo 1112684" clip-path="url(#clip-path-3)">
                  <path id="Trazado_887002" data-name="Trazado 887002" d="M475.56,902.807s-12.772,4.156-16.3,5.97-3.335,6.046-7.661,7.935-24.418,7.255-24.418,7.255H415.924s31.174-7.557,34.041-8.691.6-4.081,8.527-7.859a109.362,109.362,0,0,1,11.416-4.912Z" transform="translate(-415.924 -902.505)" fill="#fff"/>
                </g>
              </g>
            </g>
            <g id="Grupo_1112689" data-name="Grupo 1112689" transform="translate(45.817 123.257)" opacity="0.39">
              <g id="Grupo_1112688" data-name="Grupo 1112688">
                <g id="Grupo_1112687" data-name="Grupo 1112687" clip-path="url(#clip-path-4)">
                  <path id="Trazado_887003" data-name="Trazado 887003" d="M390.39,902.882s-11.427,4.383-13.96,5.819-2.4,3.779-5.462,5.441-31.34,9.673-31.34,9.673l-4.146.227,8.179-8.615s18.433-4.081,24.637-5.97,3.867-3.25,8.424-4.837a49.276,49.276,0,0,1,8.195-2.116Z" transform="translate(-335.481 -902.504)" fill="#fff"/>
                </g>
              </g>
            </g>
            <path id="Trazado_887004" data-name="Trazado 887004" d="M402.537,900.431c-.086-.191-.408-.062-.761-.062H347.069a2.556,2.556,0,0,0-1.83.567l-20.59,21.243a.93.93,0,0,0-.292.84.717.717,0,0,0,.653.431h54.706a3.314,3.314,0,0,0,1.956-1l20.618-21.338c.248-.257.334-.492.246-.686M336.5,912.524h6.709l-8.483,9.014h-6.709Zm62.41-10.653-8.5,9.15h-6.223l8.5-9.15Zm-23.167,9.15,8.5-9.15h5.91l-8.5,9.15Zm-9.593,0,8.5-9.15h7.057l-8.5,9.15Zm13.762,1.5-8.483,9.014h-5.909L374,912.524Zm-22.833-1.5,8.5-9.15h6.535l-8.5,9.15Zm14.388,1.5-8.483,9.014h-7.057l8.483-9.014Zm-23.981-1.5,8.5-9.15h7.057l-8.5,9.15Zm14.388,1.5-8.483,9.014h-6.535l8.483-9.014Zm-9.071,0-8.483,9.014h-7.057l8.483-9.014Zm.647-10.653-8.5,9.15h-6.709l8.5-9.15Zm20.516,19.667,8.483-9.014h6.222l-8.483,9.014Z" transform="translate(-280.036 -777.367)" fill="#feeecf"/>
            <path id="Trazado_887005" data-name="Trazado 887005" d="M132.931,1688.8s-3.381-16.7-17.753-16.7c-9.212,0-13.788,6.914-15.89,11.881a10.072,10.072,0,0,0-8.8-5.287c-8.742,0-10.628,10.242-10.628,10.242l17.864-.067-.013.067Z" transform="translate(-68.951 -1443.735)" fill="#3b6911"/>
          </g>
        </g>
      </g>
    </g>
  </g>
</svg>
