<svg xmlns="http://www.w3.org/2000/svg" xmlns:xlink="http://www.w3.org/1999/xlink" width="420" height="318.232" viewBox="0 0 420 318.232">
  <defs>
    <clipPath id="clip-path">
      <rect id="Rectángulo_408612" data-name="Rectángulo 408612" width="285" height="285" fill="none"/>
    </clipPath>
    <clipPath id="clip-path-2">
      <path id="Trazado_887088" data-name="Trazado 887088" d="M546.568,829.877a7.293,7.293,0,0,0-3.706,2.607,6.3,6.3,0,0,0,8.2-2.052,7.8,7.8,0,0,0-3.15-.715,5.56,5.56,0,0,0-1.348.16" transform="translate(-542.862 -829.717)" fill="none"/>
    </clipPath>
  </defs>
  <g id="Grupo_1113240" data-name="Grupo 1113240" transform="translate(-178.935 -9270.908)">
    <rect id="Rectángulo_35205" data-name="Rectángulo 35205" width="420" height="318.233" transform="translate(178.935 9270.908)" fill="#edf0f1"/>
    <rect id="Ilustración" width="378" height="252" rx="20" transform="translate(199.698 9304.496)" fill="#cce5f2"/>
    <g id="Grupo_1112700" data-name="Grupo 1112700" transform="translate(236 9303.949)">
      <g id="Grupo_1112695" data-name="Grupo 1112695" transform="translate(0.051 0.051)">
        <g id="Grupo_1112694" data-name="Grupo 1112694" clip-path="url(#clip-path)">
          <path id="Trazado_887006" data-name="Trazado 887006" d="M285.319,142.66A142.66,142.66,0,1,1,142.66,0a142.66,142.66,0,0,1,142.66,142.66" transform="translate(-0.058 -0.058)" fill="#e6f2f9"/>
          <path id="Trazado_887007" data-name="Trazado 887007" d="M71.482,767.649h-.005l-10.957-.156a.344.344,0,0,1-.339-.349l.071-4.948a20.949,20.949,0,0,1-4.342-1.871l-3.549,3.448a.344.344,0,0,1-.486-.007l-7.637-7.858a.343.343,0,0,1,.007-.486l3.548-3.449a20.942,20.942,0,0,1-1.746-4.394l-4.948-.071a.344.344,0,0,1-.339-.349l.157-10.957a.348.348,0,0,1,.349-.339l4.948.071a20.954,20.954,0,0,1,1.871-4.342l-3.448-3.549a.344.344,0,0,1,.007-.486l7.858-7.637a.352.352,0,0,1,.244-.1.345.345,0,0,1,.242.1l3.448,3.549a20.947,20.947,0,0,1,4.394-1.746l.071-4.948a.339.339,0,0,1,.349-.339l10.957.157a.344.344,0,0,1,.339.349l-.071,4.948a20.941,20.941,0,0,1,4.342,1.871l3.549-3.448a.379.379,0,0,1,.244-.1.344.344,0,0,1,.242.1l7.637,7.858a.344.344,0,0,1-.007.486l-3.548,3.448a20.956,20.956,0,0,1,1.746,4.394l4.948.071a.344.344,0,0,1,.339.349l-.157,10.957a.339.339,0,0,1-.349.339l-4.948-.071a20.968,20.968,0,0,1-1.871,4.342l3.448,3.549a.344.344,0,0,1-.007.486l-7.858,7.637a.344.344,0,0,1-.486-.007l-3.448-3.549a20.966,20.966,0,0,1-4.394,1.746l-.071,4.948a.344.344,0,0,1-.344.339m-10.609-.839,10.27.147.07-4.865a.344.344,0,0,1,.258-.328,20.259,20.259,0,0,0,4.719-1.875.344.344,0,0,1,.413.061l3.39,3.489,7.365-7.158-3.391-3.489a.344.344,0,0,1-.049-.414,20.27,20.27,0,0,0,2.009-4.663.348.348,0,0,1,.335-.248l4.865.07.147-10.269-4.865-.069a.344.344,0,0,1-.328-.258,20.266,20.266,0,0,0-1.875-4.719.344.344,0,0,1,.061-.413l3.489-3.391L80.6,721.052l-3.489,3.391a.344.344,0,0,1-.414.05,20.254,20.254,0,0,0-4.663-2.009.344.344,0,0,1-.249-.335l.07-4.865-10.27-.147L61.515,722a.344.344,0,0,1-.258.328,20.271,20.271,0,0,0-4.719,1.875.344.344,0,0,1-.413-.061l-3.39-3.489-7.365,7.158L48.76,731.3a.344.344,0,0,1,.05.414,20.259,20.259,0,0,0-2.009,4.663.337.337,0,0,1-.335.248l-4.865-.07-.147,10.27,4.865.07a.344.344,0,0,1,.328.258,20.252,20.252,0,0,0,1.875,4.719.343.343,0,0,1-.061.412l-3.489,3.391,7.158,7.365,3.489-3.391a.344.344,0,0,1,.414-.05,20.252,20.252,0,0,0,4.663,2.009.343.343,0,0,1,.248.335Zm5.492-13.02a11.744,11.744,0,1,1,8.186-3.318,11.716,11.716,0,0,1-8.186,3.318m0-22.8a11.056,11.056,0,1,0,7.934,3.347,11.023,11.023,0,0,0-7.934-3.347" transform="translate(-34.464 -604.799)" fill="#d3bba3"/>
          <path id="Trazado_887008" data-name="Trazado 887008" d="M374.846,179.135a86.467,86.467,0,1,1-85.968-86.964,86.467,86.467,0,0,1,85.968,86.964" transform="translate(-170.49 -77.857)" fill="#99cae5"/>
          <path id="Trazado_887009" data-name="Trazado 887009" d="M366.863,263.587l-.514,0a86.811,86.811,0,0,1,.486-173.621l.514,0a86.812,86.812,0,0,1,86.31,87.31l-.344,0,.344,0a86.812,86.812,0,0,1-86.8,86.311m-.022-172.935a86.121,86.121,0,1,0,.5,0h-.5" transform="translate(-236.434 -75.995)" fill="#fff"/>
          <path id="Trazado_887010" data-name="Trazado 887010" d="M467.041,313.037c-24.014,0-47.617-4.043-68.26-11.693a.344.344,0,1,1,.239-.645c20.566,7.621,44.088,11.65,68.021,11.65,23.75,0,47.114-3.97,67.567-11.482a.344.344,0,1,1,.237.645c-20.528,7.539-43.974,11.524-67.8,11.524" transform="translate(-336.475 -253.857)" fill="#fff"/>
          <path id="Trazado_887011" data-name="Trazado 887011" d="M393.825,916.653a.344.344,0,0,1-.121-.666C414.543,908.145,438.421,904,462.756,904c24.2,0,47.97,4.1,68.729,11.867a.344.344,0,1,1-.241.644c-20.683-7.735-44.365-11.824-68.488-11.824-24.254,0-48.048,4.13-68.811,11.945a.347.347,0,0,1-.121.022" transform="translate(-332.19 -763.112)" fill="#fff"/>
          <path id="Trazado_887012" data-name="Trazado 887012" d="M591.929,263.587c-12.126,0-23.508-9.06-32.049-25.511-8.5-16.38-13.187-38.15-13.187-61.3s4.683-44.921,13.187-61.3c8.541-16.451,19.923-25.511,32.049-25.511s23.508,9.06,32.049,25.511c8.5,16.38,13.187,38.15,13.187,61.3s-4.683,44.92-13.187,61.3c-8.541,16.451-19.923,25.511-32.049,25.511m0-172.935c-24.564,0-44.549,38.635-44.549,86.124S567.365,262.9,591.929,262.9s44.549-38.635,44.549-86.124-19.985-86.124-44.549-86.124" transform="translate(-461.515 -75.996)" fill="#fff"/>
          <path id="Trazado_887013" data-name="Trazado 887013" d="M834.972,264.469a.344.344,0,0,1-.344-.344V91.49a.344.344,0,1,1,.688,0V264.126a.344.344,0,0,1-.344.344" transform="translate(-704.557 -76.993)" fill="#fff"/>
          <path id="Trazado_887014" data-name="Trazado 887014" d="M453.057,638.9h0l-173.005-1.349a.344.344,0,0,1,0-.688h0L453.06,638.21a.344.344,0,0,1,0,.688" transform="translate(-236.156 -537.625)" fill="#fff"/>
          <path id="Trazado_887015" data-name="Trazado 887015" d="M688.183,634.9H483.58a.344.344,0,0,1-.344-.344V479.476a.344.344,0,0,1,.344-.344h43.8a.344.344,0,1,1,0,.687H483.924V634.212H687.839V479.819H592.865a.344.344,0,1,1,0-.687h95.318a.344.344,0,0,1,.344.344v155.08a.344.344,0,0,1-.344.344" transform="translate(-407.952 -404.487)" fill="#004b72"/>
          <rect id="Rectángulo_408600" data-name="Rectángulo 408600" width="191.764" height="129.806" transform="translate(82.047 81.408)" fill="#f6faf4"/>
          <path id="Trazado_887016" data-name="Trazado 887016" d="M1124.59,1389.8a3.851,3.851,0,1,1-3.851-3.851,3.851,3.851,0,0,1,3.851,3.851" transform="translate(-942.809 -1169.916)" fill="#fff"/>
          <path id="Trazado_887017" data-name="Trazado 887017" d="M1013.733,1495.718h-6.057a8.227,8.227,0,0,1-8.227,8.228H984.943a8.227,8.227,0,0,1-8.227-8.228h-6.057l-6.057,32.191v2.692h55.189v-2.692Z" transform="translate(-814.266 -1262.575)" fill="#006398"/>
          <path id="Trazado_887018" data-name="Trazado 887018" d="M1017.928,1739.519H962.739a.344.344,0,1,1,0-.687h55.189a.344.344,0,1,1,0,.688" transform="translate(-812.404 -1467.784)" fill="#e6d0be"/>
          <path id="Trazado_887019" data-name="Trazado 887019" d="M685.818,692.644H675.577a.344.344,0,0,1,0-.687h10.016l6.985-5.133h31.417l7.334-6.341h32.48l11.952-10.334a.344.344,0,1,1,.45.52l-12.146,10.5h-32.48l-7.334,6.341H692.8Z" transform="translate(-570.014 -565.651)" fill="#d87355"/>
          <path id="Trazado_887020" data-name="Trazado 887020" d="M633.317,773.2H604.571a.344.344,0,1,1,0-.688h28.49L649.727,758.1h6.565l5.64-4.876h25.255l8.291,7.168h11.446a.344.344,0,0,1,0,.688h-11.7l-8.291-7.168H662.188l-5.639,4.876h-6.565Z" transform="translate(-510.079 -635.849)" fill="#efbc73"/>
          <path id="Trazado_887021" data-name="Trazado 887021" d="M1181.406,794.738a1.4,1.4,0,1,1,1.383,1.2,1.3,1.3,0,0,1-1.383-1.2" transform="translate(-997.268 -669.877)" fill="#efbc73"/>
          <path id="Trazado_887022" data-name="Trazado 887022" d="M1125.945,748.184a1.4,1.4,0,1,1,1.383,1.2,1.3,1.3,0,0,1-1.383-1.2" transform="translate(-950.454 -630.581)" fill="#efbc73"/>
          <path id="Trazado_887023" data-name="Trazado 887023" d="M965.65,748.184a1.4,1.4,0,1,1,1.383,1.2,1.3,1.3,0,0,1-1.383-1.2" transform="translate(-815.151 -630.581)" fill="#efbc73"/>
          <path id="Trazado_887024" data-name="Trazado 887024" d="M932.168,779.792a1.4,1.4,0,1,1,1.383,1.2,1.3,1.3,0,0,1-1.383-1.2" transform="translate(-786.89 -657.261)" fill="#efbc73"/>
          <path id="Trazado_887025" data-name="Trazado 887025" d="M889.232,780.333a1.4,1.4,0,1,1,1.383,1.2,1.3,1.3,0,0,1-1.383-1.2" transform="translate(-750.648 -657.718)" fill="#efbc73"/>
          <path id="Trazado_887026" data-name="Trazado 887026" d="M781.857,871.479a1.4,1.4,0,1,1,1.383,1.2,1.3,1.3,0,0,1-1.383-1.2" transform="translate(-660.014 -734.653)" fill="#efbc73"/>
          <path id="Trazado_887027" data-name="Trazado 887027" d="M794.29,655.7l-.449-.52,14.577-12.6h43.29l6.444-5.571.45.52-6.637,5.739H808.674Z" transform="translate(-670.129 -537.749)" fill="#d3bba3"/>
          <path id="Trazado_887028" data-name="Trazado 887028" d="M622.437,765.1h-17.12v-.688h16.864L634.71,753.58l.449.52Z" transform="translate(-510.998 -636.146)" fill="#d3bba3"/>
          <path id="Trazado_887029" data-name="Trazado 887029" d="M703.513,818.336a1.4,1.4,0,1,1,1.383,1.2,1.3,1.3,0,0,1-1.383-1.2" transform="translate(-593.885 -689.796)" fill="#d3bba3"/>
          <path id="Trazado_887030" data-name="Trazado 887030" d="M1157.444,668.965a1.4,1.4,0,1,1,1.383,1.2,1.3,1.3,0,0,1-1.383-1.2" transform="translate(-977.042 -563.714)" fill="#d3bba3"/>
          <rect id="Rectángulo_408601" data-name="Rectángulo 408601" width="81.406" height="57.82" transform="translate(166.658 145.124)" fill="#cce5f2"/>
          <rect id="Rectángulo_408602" data-name="Rectángulo 408602" width="81.406" height="5.131" transform="translate(166.658 145.124)" fill="#99cae5"/>
          <path id="Trazado_887031" data-name="Trazado 887031" d="M1148.839,987.48h-81.406a.344.344,0,0,1-.344-.344v-57.82a.344.344,0,0,1,.344-.344h81.406a.344.344,0,0,1,.344.344v57.82a.344.344,0,0,1-.344.344m-81.063-.688H1148.5V929.66h-80.719Z" transform="translate(-900.775 -784.193)" fill="#99cae5"/>
          <path id="Trazado_887032" data-name="Trazado 887032" d="M1086.027,941.545a1.167,1.167,0,1,1-1.167-1.167,1.167,1.167,0,0,1,1.167,1.167" transform="translate(-914.79 -793.82)" fill="#fff"/>
          <path id="Trazado_887033" data-name="Trazado 887033" d="M1110.212,941.545a1.167,1.167,0,1,1-1.167-1.167,1.167,1.167,0,0,1,1.167,1.167" transform="translate(-935.204 -793.82)" fill="#fff"/>
          <path id="Trazado_887034" data-name="Trazado 887034" d="M1134.4,941.545a1.167,1.167,0,1,1-1.167-1.167,1.167,1.167,0,0,1,1.167,1.167" transform="translate(-955.618 -793.82)" fill="#fff"/>
          <path id="Trazado_887035" data-name="Trazado 887035" d="M1168.288,1228.277H1094.9a.344.344,0,1,1,0-.687h73.391a.344.344,0,1,1,0,.688" transform="translate(-923.957 -1036.252)" fill="#99cae5"/>
          <path id="Trazado_887036" data-name="Trazado 887036" d="M1168.288,1178.129H1094.9a.344.344,0,0,1,0-.687h73.391a.344.344,0,0,1,0,.688" transform="translate(-923.957 -993.922)" fill="#99cae5"/>
          <path id="Trazado_887037" data-name="Trazado 887037" d="M1168.288,1127.979H1094.9a.344.344,0,0,1,0-.687h73.391a.344.344,0,0,1,0,.688" transform="translate(-923.957 -951.591)" fill="#99cae5"/>
          <path id="Trazado_887038" data-name="Trazado 887038" d="M1168.288,1077.832H1094.9a.344.344,0,0,1,0-.687h73.391a.344.344,0,0,1,0,.688" transform="translate(-923.957 -909.262)" fill="#99cae5"/>
          <path id="Trazado_887039" data-name="Trazado 887039" d="M1168.288,1027.682H1094.9a.344.344,0,1,1,0-.687h73.391a.344.344,0,1,1,0,.688" transform="translate(-923.957 -866.932)" fill="#99cae5"/>
          <path id="Trazado_887040" data-name="Trazado 887040" d="M1487.165,1024.446a.344.344,0,0,1-.344-.344V977.19a.344.344,0,1,1,.688,0V1024.1a.344.344,0,0,1-.344.344" transform="translate(-1255.065 -824.602)" fill="#99cae5"/>
          <path id="Trazado_887041" data-name="Trazado 887041" d="M1408.711,1024.446a.344.344,0,0,1-.344-.344V977.19a.344.344,0,1,1,.688,0V1024.1a.344.344,0,0,1-.344.344" transform="translate(-1188.843 -824.602)" fill="#99cae5"/>
          <path id="Trazado_887042" data-name="Trazado 887042" d="M1330.257,1024.446a.344.344,0,0,1-.344-.344V977.19a.344.344,0,1,1,.688,0V1024.1a.344.344,0,0,1-.344.344" transform="translate(-1122.621 -824.602)" fill="#99cae5"/>
          <path id="Trazado_887043" data-name="Trazado 887043" d="M1251.8,1024.446a.344.344,0,0,1-.344-.344V977.19a.344.344,0,1,1,.688,0V1024.1a.344.344,0,0,1-.344.344" transform="translate(-1056.401 -824.602)" fill="#99cae5"/>
          <path id="Trazado_887044" data-name="Trazado 887044" d="M1173.351,1024.446a.344.344,0,0,1-.344-.344V977.19a.344.344,0,1,1,.688,0V1024.1a.344.344,0,0,1-.344.344" transform="translate(-990.179 -824.602)" fill="#99cae5"/>
          <path id="Trazado_887045" data-name="Trazado 887045" d="M1159.489,882.607l-20.048,2.051,4.437,4.863L1121.5,908.456l-8.017-9.908-27.7,28.338,25.04-17.192,7.944,10.375,32.466-22.486,4.381,4.8Z" transform="translate(-916.555 -745.056)" fill="#006398"/>
          <rect id="Rectángulo_408603" data-name="Rectángulo 408603" width="27.315" height="23.392" transform="translate(95.821 162.496)" fill="#d3bba3"/>
          <rect id="Rectángulo_408604" data-name="Rectángulo 408604" width="27.315" height="23.392" transform="translate(134.497 134.482)" fill="#fff"/>
          <path id="Trazado_887046" data-name="Trazado 887046" d="M888.814,884.8h-28V860.717h28Zm-27.315-.687h26.628V861.4H861.5Z" transform="translate(-726.658 -726.579)" fill="#8b865c"/>
          <rect id="Rectángulo_408605" data-name="Rectángulo 408605" width="24.445" height="0.688" transform="translate(126.215 162.098)" fill="#d3bba3"/>
          <rect id="Rectángulo_408606" data-name="Rectángulo 408606" width="19.253" height="0.688" transform="translate(126.215 167.108)" fill="#d3bba3"/>
          <rect id="Rectángulo_408607" data-name="Rectángulo 408607" width="22.498" height="0.688" transform="translate(126.215 171.646)" fill="#d3bba3"/>
          <rect id="Rectángulo_408608" data-name="Rectángulo 408608" width="15.477" height="0.688" transform="translate(126.215 176.421)" fill="#d3bba3"/>
          <path id="Trazado_887047" data-name="Trazado 887047" d="M904.156,892.6a5.166,5.166,0,0,1,1.323-.451l-.17-2.432a7.6,7.6,0,0,0-5.923,4.766l2.338.688a5.158,5.158,0,0,1,2.432-2.571" transform="translate(-759.218 -751.06)" fill="#efbc73"/>
          <path id="Trazado_887048" data-name="Trazado 887048" d="M898.785,931.389a5.151,5.151,0,0,1-.226-2.57l-2.338-.689a7.57,7.57,0,0,0,.384,4.349Z" transform="translate(-756.414 -783.481)" fill="#efbc73"/>
          <path id="Trazado_887049" data-name="Trazado 887049" d="M916.752,919.844l-2.18,1.09a5.181,5.181,0,0,1-9.2,4.6l-2.181,1.091a7.607,7.607,0,0,0,13.559-6.781" transform="translate(-762.432 -776.487)" fill="#d87355"/>
          <path id="Trazado_887050" data-name="Trazado 887050" d="M945.7,891.59a5.191,5.191,0,0,1,4.037,2.3l2.181-1.091a7.62,7.62,0,0,0-6.388-3.644Z" transform="translate(-798.168 -750.585)" fill="#8b865c"/>
          <rect id="Rectángulo_408609" data-name="Rectángulo 408609" width="54.658" height="7.818" transform="translate(209.976 100.043)" fill="#e6f2f9"/>
          <rect id="Rectángulo_408610" data-name="Rectángulo 408610" width="54.658" height="7.818" transform="translate(210.435 110.768)" fill="#e6f2f9"/>
          <rect id="Rectángulo_408611" data-name="Rectángulo 408611" width="54.658" height="7.818" transform="translate(210.435 121.491)" fill="#e6f2f9"/>
          <path id="Trazado_887051" data-name="Trazado 887051" d="M988.179,342.291a26.96,26.96,0,0,0-26.953-26.536c-.431,0-.858.013-1.284.032v26.5Z" transform="translate(-810.333 -266.583)" fill="#a8d08d"/>
          <path id="Trazado_887052" data-name="Trazado 887052" d="M856.472,413.838V397.366A16.758,16.758,0,1,0,874.029,414.1c0-.089-.005-.177-.007-.266Z" transform="translate(-709.524 -335.47)" fill="#657d55"/>
          <path id="Trazado_887053" data-name="Trazado 887053" d="M1390.631,1438.868H1327.18a.344.344,0,0,1-.344-.344V1422.2a.344.344,0,0,1,.344-.344h63.452a.343.343,0,0,1,.344.344v16.328a.344.344,0,0,1-.344.344m-63.108-.688h62.764v-15.64h-62.764Z" transform="translate(-1120.024 -1200.227)" fill="#d3bba3"/>
          <path id="Trazado_887054" data-name="Trazado 887054" d="M1399.814,1363.811c-2.706-.82-3.026-4.819-5.283-4.762-5.589.141-8.126,17.585-12.365,17.355-3.5-.19-4.072-12.2-8.124-12.593-4.325-.416-7.375,12.913-12.046,12.593-4.1-.281-3.938-10.709-11.205-14.2a11.205,11.205,0,0,0-3.783-1.03v20.962h57.849V1362.4c-2.183,1.5-3.808,1.785-5.042,1.411" transform="translate(-1137.05 -1147.214)" fill="#efbc73"/>
          <path id="Trazado_887055" data-name="Trazado 887055" d="M642.533,594.9a9.051,9.051,0,0,1-8-13.283l7.825-14.792,8.1,14.645a9.051,9.051,0,0,1-7.921,13.429" transform="translate(-534.762 -478.51)" fill="#007cbe"/>
          <path id="Trazado_887056" data-name="Trazado 887056" d="M652.837,593.386a9.394,9.394,0,0,1-8.3-13.787l7.825-14.792a.343.343,0,0,1,.3-.183.368.368,0,0,1,.3.177l8.1,14.645a9.394,9.394,0,0,1-8.222,13.939m-.168-27.7-7.528,14.229a8.707,8.707,0,1,0,15.316-.141Z" transform="translate(-543.171 -476.65)" fill="#363e44"/>
          <path id="Trazado_887057" data-name="Trazado 887057" d="M1485.494,587.744a9.931,9.931,0,0,1-9.931-9.931v-7.895h19.862v7.895a9.931,9.931,0,0,1-9.931,9.931" transform="translate(-1245.563 -481.119)" fill="#363e44"/>
          <path id="Trazado_887058" data-name="Trazado 887058" d="M1420.649,174.555a26.873,26.873,0,1,0-40.561,23.123l.482,8.413a13.229,13.229,0,0,0,26.414,0l.481-8.413a26.854,26.854,0,0,0,13.184-23.123" transform="translate(-1153.845 -124.715)" fill="#efbc73"/>
          <path id="Trazado_887059" data-name="Trazado 887059" d="M1482.523,604.941a19.989,19.989,0,0,1-10.16-2.823.344.344,0,0,1,.384-.57c.1.064,9.644,6.321,19.84-.417a.344.344,0,0,1,.379.573,18.663,18.663,0,0,1-10.443,3.237" transform="translate(-1242.734 -507.417)" fill="#f2e6dc"/>
          <path id="Trazado_887060" data-name="Trazado 887060" d="M1482.523,631.6a19.99,19.99,0,0,1-10.16-2.822.344.344,0,0,1,.384-.57c.1.064,9.644,6.321,19.84-.417a.344.344,0,0,1,.379.574,18.663,18.663,0,0,1-10.443,3.236" transform="translate(-1242.734 -529.918)" fill="#f2e6dc"/>
          <path id="Trazado_887061" data-name="Trazado 887061" d="M1492.069,241.49l8.161-20.688h11.832l-10.52,16.322h10.52l-19.993,20.687,6.439-16.322Z" transform="translate(-1259.495 -186.435)" fill="#fff"/>
          <path id="Trazado_887062" data-name="Trazado 887062" d="M641.609,1046.141s8.359,22.876,25.671,22.876c12.405,0,18.715-8.329,20.04-20.253,1.44-12.96-18.3-33.792-42.373-53.233,0,0-8.405,31.7-3.337,50.61" transform="translate(-540.261 -840.373)" fill="#efbc73"/>
          <path id="Trazado_887063" data-name="Trazado 887063" d="M44.886,1016.021s-12.092,30.86-29.829,19.186C-16.633,1014.348,16.811,983.07,41,970.8c31.483-15.972,54.26-7.355,65.517-4.035l-2.016,66.554A11.59,11.59,0,0,1,92.9,1044.552h-41.2a11.592,11.592,0,0,1-11.071-15.093Z" transform="translate(-1.835 -811.605)" fill="#efbc73"/>
          <path id="Trazado_887064" data-name="Trazado 887064" d="M243.083,1136.372a.344.344,0,0,1-.333-.43l2.073-7.984a.344.344,0,1,1,.665.173l-2.073,7.984a.344.344,0,0,1-.333.258" transform="translate(-204.951 -951.936)" fill="#363e44"/>
          <path id="Trazado_887065" data-name="Trazado 887065" d="M658.283,1328.093h-.011a.344.344,0,0,1-.333-.354l.287-9.47a.344.344,0,1,1,.687.021l-.286,9.471a.344.344,0,0,1-.344.333" transform="translate(-555.416 -1112.51)" fill="#363e44"/>
          <path id="Trazado_887066" data-name="Trazado 887066" d="M73.8,1130.29s21.637-9.053,33.223-13.553c20.076-7.8,31.638-5.64,31.651-2.753.015,3.132-6.007,1.346-8.878,2.257a3.389,3.389,0,0,1,1.755,2.722,3.275,3.275,0,0,1-1.712,3.135,3.467,3.467,0,0,1,.807,6.162,3.624,3.624,0,0,1,2.075,2.446,3.4,3.4,0,0,1-1.921,3.774c-2.615.875-10.431,3.316-14.1,5-7.221,3.319-31.4,18.812-43.011,20.639-8.708.347-12.756-11.808-9.123-21.393,2.286-6.032,9.235-8.439,9.235-8.439" transform="translate(-53.432 -938.136)" fill="#84524d"/>
          <path id="Trazado_887067" data-name="Trazado 887067" d="M471.4,1241.272a.344.344,0,0,1-.339-.288l-.4-2.454a.344.344,0,0,1,.679-.111l.4,2.453a.344.344,0,0,1-.284.395.337.337,0,0,1-.056,0" transform="translate(-397.334 -1045.149)" fill="#363e44"/>
          <path id="Trazado_887068" data-name="Trazado 887068" d="M464.68,1201.631a.344.344,0,0,1-.34-.3l-.374-2.788a.344.344,0,0,1,.681-.091l.374,2.788a.344.344,0,0,1-.341.39" transform="translate(-391.683 -1011.406)" fill="#363e44"/>
          <path id="Trazado_887069" data-name="Trazado 887069" d="M459.776,1162.543a.344.344,0,0,1-.339-.288c-.076-.458-.141-.872-.206-1.287s-.13-.826-.206-1.283a.344.344,0,0,1,.679-.112c.076.459.141.873.207,1.288s.13.825.206,1.282a.344.344,0,0,1-.283.4.358.358,0,0,1-.056,0" transform="translate(-387.511 -978.597)" fill="#363e44"/>
          <path id="Trazado_887070" data-name="Trazado 887070" d="M452.122,1130.785a.344.344,0,0,1-.334-.265l-.566-2.4a.344.344,0,1,1,.669-.158l.566,2.4a.344.344,0,0,1-.256.413.335.335,0,0,1-.079.009" transform="translate(-380.921 -951.936)" fill="#363e44"/>
          <path id="Trazado_887071" data-name="Trazado 887071" d="M680.806,1152.811l10.073,25.443a13.188,13.188,0,1,0,23.539-11.693L700.43,1143.5Z" transform="translate(-574.718 -965.269)" fill="#84524d"/>
          <path id="Trazado_887072" data-name="Trazado 887072" d="M529.108,1058.518a.344.344,0,0,1-.324-.459l13.758-38.627a.344.344,0,0,1,.324-.228h0l30.161.264a.344.344,0,0,1,.341.347.349.349,0,0,1-.347.341l-29.916-.262-13.675,38.4a.344.344,0,0,1-.324.229" transform="translate(-446.382 -860.356)" fill="#f7f1eb"/>
          <path id="Trazado_887073" data-name="Trazado 887073" d="M575.668,1076.563H545.508l13.757-38.5h30.161Z" transform="translate(-460.514 -876.273)" fill="#363e44"/>
          <path id="Trazado_887074" data-name="Trazado 887074" d="M723.034,1190.3c2.66,1.514,2.982,3.286,2.139,4.767s-2.531,2.109-5.191.595-5.284-4.6-4.442-6.078,4.834-.8,7.494.715" transform="translate(-603.901 -1003.478)" fill="#84524d"/>
          <path id="Trazado_887075" data-name="Trazado 887075" d="M731.4,1154.007c3.083,1.755,3.456,3.809,2.48,5.525s-2.934,2.444-6.017.69-6.125-5.328-5.148-7.044,5.6-.925,8.685.829" transform="translate(-609.935 -972.635)" fill="#84524d"/>
          <path id="Trazado_887076" data-name="Trazado 887076" d="M770.909,1106.189c2.66,1.514,4.349.886,5.191-.6s.521-3.253-2.139-4.767-6.651-2.2-7.494-.715,1.782,4.564,4.442,6.078" transform="translate(-646.888 -927.953)" fill="#84524d"/>
          <path id="Trazado_887077" data-name="Trazado 887077" d="M744.516,1130.961c3.083,1.755,5.04,1.027,6.017-.69s.6-3.771-2.48-5.525-7.709-2.546-8.685-.829,2.065,5.289,5.148,7.044" transform="translate(-623.993 -947.936)" fill="#84524d"/>
          <path id="Trazado_887078" data-name="Trazado 887078" d="M758.913,1179.052q-.168,0-.341-.016a.344.344,0,1,1,.062-.685,2.55,2.55,0,0,0,2.364-3.92.344.344,0,0,1,.279-.534,3.03,3.03,0,0,0,2.664-4.109.344.344,0,0,1,.272-.478,2.78,2.78,0,0,0,2.125-1.495.344.344,0,0,1,.6.34,3.786,3.786,0,0,0-2.6,4.562,3.47,3.47,0,0,1-2.5,1.816,3.022,3.022,0,0,1-.176,2.878,3.059,3.059,0,0,1-2.753,1.639" transform="translate(-640.095 -985.651)" fill="#363e44"/>
          <path id="Trazado_887079" data-name="Trazado 887079" d="M68.337,1213.678c.616-.279-10.5,22.752,5.517,30.767,0,0-5.466,3.911-12.046,2.055s-13.442-23.776,6.529-32.822" transform="translate(-46.58 -1024.507)" fill="#f2e6dc"/>
          <path id="Trazado_887080" data-name="Trazado 887080" d="M730.029,1283.481s21.34,8.227,25.662-14.325l3.7,8.8s2.91,10.644-7.4,15.37-18.6-2.12-21.963-9.849" transform="translate(-616.266 -1071.337)" fill="#f2e6dc"/>
          <path id="Trazado_887081" data-name="Trazado 887081" d="M423.123,733.124a14.565,14.565,0,1,1-14.565-14.565,14.565,14.565,0,0,1,14.565,14.565" transform="translate(-332.623 -606.585)" fill="#363e44"/>
          <path id="Trazado_887082" data-name="Trazado 887082" d="M454.046,844.9c-1.843-1.018-5-3.738-6.019-1.895l-11.949,19.108c-1.018,1.843,5.094,1.2,6.937,2.22a3.813,3.813,0,0,0,5.181-1.493l7.343-12.759a3.813,3.813,0,0,0-1.494-5.181" transform="translate(-368.05 -711.099)" fill="#84524d"/>
          <path id="Trazado_887083" data-name="Trazado 887083" d="M431.529,961.621c1.651,6.048-3.1,15.2-3.1,15.2s-17.5-8.5-17.5-15.2c0-1.713,4.613-3.1,10.3-3.1s9.852,1.449,10.3,3.1" transform="translate(-346.912 -809.132)" fill="#84524d"/>
          <path id="Trazado_887084" data-name="Trazado 887084" d="M501.536,796.159c-1.653,3.094-11.344,1.764-11.344,1.764l-8.451-6.59a8.935,8.935,0,0,1,15.993-7.974s5.486,9.649,3.8,12.8" transform="translate(-405.895 -657.103)" fill="#84524d"/>
          <path id="Trazado_887085" data-name="Trazado 887085" d="M590.242,826.583s3.415,1.232,3.6,1.912c.227.812-2.046,2.509-2.046,2.509s-1.5-4.445-1.558-4.42" transform="translate(-498.274 -697.767)" fill="#84524d"/>
          <path id="Trazado_887086" data-name="Trazado 887086" d="M542.862,835.561a7.76,7.76,0,0,1,2.594-2.192c.343-.171,1.065,2.9.662,2.906a7.774,7.774,0,0,1-3.256-.714" transform="translate(-458.281 -703.489)" fill="#fff"/>
        </g>
      </g>
      <g id="Grupo_1112697" data-name="Grupo 1112697" transform="translate(84.632 129.356)">
        <g id="Grupo_1112696" data-name="Grupo 1112696" clip-path="url(#clip-path-2)">
          <path id="Trazado_887087" data-name="Trazado 887087" d="M558.85,821.443a3.054,3.054,0,1,1,1.927,3.865,3.054,3.054,0,0,1-1.927-3.865" transform="translate(-556.223 -820.972)" fill="#363e44"/>
        </g>
      </g>
      <g id="Grupo_1112699" data-name="Grupo 1112699" transform="translate(0.051 0.051)">
        <g id="Grupo_1112698" data-name="Grupo 1112698" clip-path="url(#clip-path)">
          <path id="Trazado_887089" data-name="Trazado 887089" d="M580.146,864.96a1.559,1.559,0,0,1-.179-.01,1.61,1.61,0,0,1-1.323-1.051.344.344,0,1,1,.647-.232.908.908,0,0,0,1.639.158.344.344,0,0,1,.591.352,1.6,1.6,0,0,1-1.375.784" transform="translate(-488.467 -728.876)" fill="#363e44"/>
          <path id="Trazado_887090" data-name="Trazado 887090" d="M421.774,750.664s12.556.554,20.5-12-13.849-11.818-22.9-7.571c-5.8,2.72,2.4,19.573,2.4,19.573" transform="translate(-352.296 -614.81)" fill="#363e44"/>
          <path id="Trazado_887091" data-name="Trazado 887091" d="M460.648,802.119a4.652,4.652,0,0,1-.7-.046.344.344,0,0,1,.11-.679,4.883,4.883,0,0,0,3.474-.907,5.53,5.53,0,0,0,1.778-4.19c.168-2.864-1.852-4.45-3.328-5.608-.907-.712-1.563-1.227-1.431-1.872.124-.6.918-1.039,2.834-1.551,6.816-1.823,10.783-9.852,10.822-9.933a.344.344,0,0,1,.619.3c-.166.342-4.14,8.391-11.263,10.3-2.032.544-2.312.9-2.338,1.025-.047.229.635.764,1.182,1.194,1.5,1.181,3.779,2.966,3.59,6.189a6.169,6.169,0,0,1-2.04,4.691,5.316,5.316,0,0,1-3.31,1.09" transform="translate(-388.054 -656.032)" fill="#40484c"/>
          <path id="Trazado_887092" data-name="Trazado 887092" d="M429.521,642.583s-5.295-25.423-13.2-22.854,7.454,25.355,13.2,22.854" transform="translate(-349.595 -523.01)" fill="#363e44"/>
          <path id="Trazado_887093" data-name="Trazado 887093" d="M353.959,642.739s-11.346-29.932-20.967-25.279,14.088,29.433,20.967,25.279" transform="translate(-279.22 -520.834)" fill="#363e44"/>
          <path id="Trazado_887094" data-name="Trazado 887094" d="M279.325,673.719s-25.5-27.214-33.282-18.149,28.1,25.515,33.282,18.149" transform="translate(-206.813 -551.856)" fill="#363e44"/>
          <path id="Trazado_887095" data-name="Trazado 887095" d="M281.061,741.6s-22.814-17.735-28.041-9.627,24.691,16.062,28.041,9.627" transform="translate(-213.113 -616.115)" fill="#363e44"/>
          <path id="Trazado_887096" data-name="Trazado 887096" d="M268.657,753.81c-5.3,0-10.348-1-12.561-3.135a3.747,3.747,0,0,1-1.084-3.952,4.869,4.869,0,0,1,2.65-3.083c7.377-3.7,26.617,3.554,27.433,3.865l.268.1-.052.282c-.331,1.788-2.315,3.31-5.735,4.4a37.5,37.5,0,0,1-10.919,1.517M263.3,743.282a12.137,12.137,0,0,0-5.325.974,4.154,4.154,0,0,0-2.3,2.656,3.1,3.1,0,0,0,.9,3.27c3.66,3.539,15.591,3.76,22.792,1.458,2.926-.935,4.754-2.2,5.2-3.6-1.943-.713-13.321-4.76-21.269-4.76" transform="translate(-215.164 -626.87)" fill="#363e44"/>
          <path id="Trazado_887097" data-name="Trazado 887097" d="M359.754,627.762c-1.534,0-3.433-.926-5.577-2.732-5.923-4.991-12.219-15.542-11.125-20.74a3.747,3.747,0,0,1,2.769-3.021,4.87,4.87,0,0,1,4.02.6C356.9,606.147,361,626.3,361.168,627.155l.056.281-.266.106a3.233,3.233,0,0,1-1.2.22m-12.583-26a4.092,4.092,0,0,0-1.157.171,3.1,3.1,0,0,0-2.29,2.5c-1.049,4.982,5.114,15.2,10.895,20.073,2.349,1.979,4.4,2.852,5.811,2.488-.543-2.557-4.593-20.686-10.946-24.531a4.422,4.422,0,0,0-2.314-.7" transform="translate(-289.519 -507.416)" fill="#363e44"/>
          <path id="Trazado_887098" data-name="Trazado 887098" d="M488.359,685.072s-4.052-11.9,1.875-11.478-1.875,11.478-1.875,11.478" transform="translate(-411.135 -568.622)" fill="#363e44"/>
          <path id="Trazado_887099" data-name="Trazado 887099" d="M332.2,800.6s-16.156-3.6-14.342,4.782S332.2,800.6,332.2,800.6" transform="translate(-268.24 -675.189)" fill="#363e44"/>
          <path id="Trazado_887100" data-name="Trazado 887100" d="M246.643,1442.115l9.645,21.133h37.017l-23.9-66.853-48.734.055c-12.225,18.84-16.3,41.7-15.128,66.8h40.433Z" transform="translate(-173.394 -1178.738)" fill="#657d55"/>
          <path id="Trazado_887101" data-name="Trazado 887101" d="M468.325,1628.577h-.005a.344.344,0,0,1-.339-.349l.121-8.353a.344.344,0,0,1,.2-.305l5.569-2.663a.344.344,0,1,1,.3.62l-5.377,2.572-.118,8.14a.344.344,0,0,1-.344.339" transform="translate(-395.075 -1364.84)" fill="#363e44"/>
          <rect id="Rectángulo_408613" data-name="Rectángulo 408613" width="49.157" height="8.25" transform="translate(46.984 210.602)" fill="#657d55"/>
          <path id="Trazado_887102" data-name="Trazado 887102" d="M350.3,1395.931H319.7a.344.344,0,1,1,0-.687H350.3a.344.344,0,1,1,0,.688" transform="translate(-269.623 -1177.766)" fill="#363e44"/>
        </g>
      </g>
    </g>
  </g>
</svg>
