<svg xmlns="http://www.w3.org/2000/svg" xmlns:xlink="http://www.w3.org/1999/xlink" width="521.058" height="440.265" viewBox="0 0 521.058 440.265">
  <defs>
    <clipPath id="clip-path">
      <path id="Trazado_887459" data-name="Trazado 887459" d="M53.159,0A21.406,21.406,0,0,0,31.753,21.406V325.414H472.218V21.406A21.406,21.406,0,0,0,450.812,0Z" transform="translate(-31.753)" fill="none"/>
    </clipPath>
    <clipPath id="clip-path-2">
      <rect id="Rectángulo_408650" data-name="Rectángulo 408650" width="29.805" height="84.552" fill="none"/>
    </clipPath>
    <clipPath id="clip-path-3">
      <rect id="Rectángulo_408651" data-name="Rectángulo 408651" width="54.93" height="54.929" fill="none"/>
    </clipPath>
    <clipPath id="clip-path-4">
      <rect id="Rectángulo_408652" data-name="Rectángulo 408652" width="32.725" height="65.45" fill="none"/>
    </clipPath>
    <clipPath id="clip-path-5">
      <rect id="Rectángulo_408653" data-name="Rectángulo 408653" width="29.962" height="100.391" fill="none"/>
    </clipPath>
    <clipPath id="clip-path-6">
      <rect id="Rectángulo_408654" data-name="Rectángulo 408654" width="28.71" height="100.348" fill="none"/>
    </clipPath>
    <clipPath id="clip-path-7">
      <rect id="Rectángulo_408655" data-name="Rectángulo 408655" width="28.837" height="121.053" fill="none"/>
    </clipPath>
  </defs>
  <g id="Grupo_1113243" data-name="Grupo 1113243" transform="translate(-268.941 -11518.198)">
    <rect id="Rectángulo_406960" data-name="Rectángulo 406960" width="521.058" height="394.804" rx="20" transform="translate(268.941 11536.939)" fill="#fbfbfb"/>
    <rect id="Ilustración" width="438" height="292" rx="20" transform="translate(310.941 11587.939)" fill="#cce5f2"/>
    <g id="Grupo_1112769" data-name="Grupo 1112769" transform="translate(304.891 11535.198)">
      <g id="Grupo_1112770" data-name="Grupo 1112770" transform="translate(-13 -17)">
        <path id="Trazado_887460" data-name="Trazado 887460" d="M403.333,255.036,458.5,353.553H348.169Z" transform="translate(-147.803 -108.267)" fill="#606d15"/>
        <path id="Trazado_887461" data-name="Trazado 887461" d="M527.761,283.756l47.078,105.451H480.683Z" transform="translate(-204.058 -120.459)" fill="#606d15"/>
        <g id="Grupo_1112767" data-name="Grupo 1112767">
          <g id="Grupo_1112771" data-name="Grupo 1112771">
            <path id="Trazado_887462" data-name="Trazado 887462" d="M453.329,577.005H48.195a18.16,18.16,0,0,1-18.16-18.16v-51.7a18.16,18.16,0,0,1,18.16-18.16H453.329a18.16,18.16,0,0,1,18.16,18.16v51.7a18.16,18.16,0,0,1-18.16,18.16" transform="translate(-12.75 -207.581)" fill="#907a49"/>
            <path id="Trazado_887463" data-name="Trazado 887463" d="M443.55,564.284H57.974a27.939,27.939,0,0,1-27.939-27.939V514.271H471.489v22.074a27.939,27.939,0,0,1-27.939,27.939" transform="translate(-12.75 -218.316)" fill="#d8ac55"/>
            <path id="Trazado_887464" data-name="Trazado 887464" d="M247.4,343.657a15.325,15.325,0,1,1-21.673,0,15.325,15.325,0,0,1,21.673,0" transform="translate(-93.919 -143.982)" fill="#a7be25"/>
            <path id="Trazado_887465" data-name="Trazado 887465" d="M231.2,342.916a7.8,7.8,0,1,1-7.8-7.8,7.8,7.8,0,0,1,7.8,7.8" transform="translate(-91.523 -142.262)" fill="#a7be25"/>
            <path id="Trazado_887466" data-name="Trazado 887466" d="M255.544,343.2a4.839,4.839,0,1,0,4.839-4.839,4.838,4.838,0,0,0-4.839,4.839" transform="translate(-108.482 -143.639)" fill="#a7be25"/>
            <path id="Trazado_887467" data-name="Trazado 887467" d="M268.849,356.3a4.13,4.13,0,1,0,0-5.841,4.13,4.13,0,0,0,0,5.841" transform="translate(-113.617 -148.262)" fill="#a7be25"/>
            <path id="Trazado_887468" data-name="Trazado 887468" d="M215.079,356.3a4.13,4.13,0,1,0,0-5.841,4.13,4.13,0,0,0,0,5.841" transform="translate(-90.791 -148.262)" fill="#a7be25"/>
            <path id="Trazado_887469" data-name="Trazado 887469" d="M249.387,336.845a5.791,5.791,0,1,1-5.791-5.791,5.791,5.791,0,0,1,5.791,5.791" transform="translate(-100.952 -140.538)" fill="#a7be25"/>
            <path id="Trazado_887470" data-name="Trazado 887470" d="M296.523,298.911a16.879,16.879,0,1,1-16.88-16.88,16.88,16.88,0,0,1,16.88,16.88" transform="translate(-111.548 -119.727)" fill="#82aa13"/>
            <path id="Trazado_887471" data-name="Trazado 887471" d="M295.36,302.184a12.443,12.443,0,1,1-12.443-12.443,12.443,12.443,0,0,1,12.443,12.443" transform="translate(-114.82 -123)" fill="#606d15"/>
            <path id="Trazado_887472" data-name="Trazado 887472" d="M280.25,311.362l6.817,10.063,5.843-10.063" transform="translate(-118.971 -132.178)" fill="none" stroke="#907a49" stroke-linecap="round" stroke-linejoin="round" stroke-width="9"/>
            <line id="Línea_597" data-name="Línea 597" y2="19.476" transform="translate(168.096 189.246)" fill="none" stroke="#907a49" stroke-linecap="round" stroke-linejoin="round" stroke-width="9"/>
            <path id="Trazado_887473" data-name="Trazado 887473" d="M340.439,332.263a14.434,14.434,0,0,1-14.418-14.418c0-6.822,9.842-22.367,11.815-25.414a3.1,3.1,0,0,1,5.205,0c1.973,3.047,11.816,18.592,11.816,25.414a14.434,14.434,0,0,1-14.418,14.418" transform="translate(-138.401 -123.541)" fill="#82aa13"/>
            <path id="Trazado_887474" data-name="Trazado 887474" d="M354.044,324.985a11.318,11.318,0,0,1-22.636,0c0-6.25,11.318-23.728,11.318-23.728s11.317,17.477,11.317,23.728" transform="translate(-140.688 -127.888)" fill="#606d15"/>
            <line id="Línea_598" data-name="Línea 598" y1="26.347" transform="translate(202.038 200.36)" fill="none" stroke="#907a49" stroke-linecap="round" stroke-linejoin="round" stroke-width="9"/>
            <path id="Trazado_887475" data-name="Trazado 887475" d="M168.085,317.371a14.141,14.141,0,1,0,14.141-14.141,14.142,14.142,0,0,0-14.141,14.141" transform="translate(-71.355 -128.726)" fill="#82aa13"/>
            <path id="Trazado_887476" data-name="Trazado 887476" d="M174.544,320.113a10.425,10.425,0,1,0,10.424-10.424,10.424,10.424,0,0,0-10.424,10.424" transform="translate(-74.097 -131.468)" fill="#606d15"/>
            <path id="Trazado_887477" data-name="Trazado 887477" d="M194.758,327.8l-5.711,8.43-4.9-8.43" transform="translate(-78.175 -139.158)" fill="none" stroke="#907a49" stroke-linecap="round" stroke-linejoin="round" stroke-width="9"/>
            <line id="Línea_599" data-name="Línea 599" y2="16.317" transform="translate(110.872 197.076)" fill="none" stroke="#907a49" stroke-linecap="round" stroke-linejoin="round" stroke-width="9"/>
            <path id="Trazado_887478" data-name="Trazado 887478" d="M97.022,412.786c0,28.547,39.154,51.689,87.452,51.689V355.505c-48.3,0-87.452,28.734-87.452,57.281" transform="translate(-41.187 -150.917)" fill="#a8d08d"/>
            <path id="Trazado_887479" data-name="Trazado 887479" d="M248.985,355.505v108.97c48.3,0,87.452-23.142,87.452-51.689s-39.154-57.281-87.452-57.281" transform="translate(-105.698 -150.917)" fill="#a8d08d"/>
            <path id="Trazado_887480" data-name="Trazado 887480" d="M631,449.7a23.037,23.037,0,1,1-32.579,0,23.036,23.036,0,0,1,32.579,0" transform="translate(-251.176 -188.041)" fill="#a7be25"/>
            <path id="Trazado_887481" data-name="Trazado 887481" d="M606.646,448.589a11.726,11.726,0,1,1-11.725-11.726,11.725,11.725,0,0,1,11.725,11.726" transform="translate(-247.575 -185.455)" fill="#a7be25"/>
            <path id="Trazado_887482" data-name="Trazado 887482" d="M643.245,449.013a7.274,7.274,0,1,0,7.273-7.274,7.274,7.274,0,0,0-7.273,7.274" transform="translate(-273.068 -187.525)" fill="#a7be25"/>
            <path id="Trazado_887483" data-name="Trazado 887483" d="M663.245,468.707a6.209,6.209,0,1,0,0-8.78,6.209,6.209,0,0,0,0,8.78" transform="translate(-280.786 -194.474)" fill="#a7be25"/>
            <path id="Trazado_887484" data-name="Trazado 887484" d="M582.419,468.707a6.209,6.209,0,1,0,0-8.78,6.209,6.209,0,0,0,0,8.78" transform="translate(-246.474 -194.474)" fill="#a7be25"/>
            <path id="Trazado_887485" data-name="Trazado 887485" d="M633.99,439.462a8.705,8.705,0,1,1-8.705-8.705,8.706,8.706,0,0,1,8.705,8.705" transform="translate(-261.748 -182.863)" fill="#a7be25"/>
            <path id="Trazado_887486" data-name="Trazado 887486" d="M189.668,399.935a24.144,24.144,0,1,1-34.145,0,24.144,24.144,0,0,1,34.145,0" transform="translate(-63.02 -166.777)" fill="#606d15"/>
            <path id="Trazado_887487" data-name="Trazado 887487" d="M164.142,398.767a12.289,12.289,0,1,1-12.289-12.289,12.289,12.289,0,0,1,12.289,12.289" transform="translate(-59.247 -164.066)" fill="#606d15"/>
            <path id="Trazado_887488" data-name="Trazado 887488" d="M202.5,399.212a7.623,7.623,0,1,0,7.623-7.623,7.623,7.623,0,0,0-7.623,7.623" transform="translate(-85.964 -166.236)" fill="#606d15"/>
            <path id="Trazado_887489" data-name="Trazado 887489" d="M223.459,419.852a6.507,6.507,0,1,0,0-9.2,6.507,6.507,0,0,0,0,9.2" transform="translate(-94.053 -173.519)" fill="#606d15"/>
            <path id="Trazado_887490" data-name="Trazado 887490" d="M138.749,419.852a6.507,6.507,0,1,0,0-9.2,6.507,6.507,0,0,0,0,9.2" transform="translate(-58.092 -173.519)" fill="#606d15"/>
            <path id="Trazado_887491" data-name="Trazado 887491" d="M192.8,389.2a9.123,9.123,0,1,1-9.124-9.124A9.123,9.123,0,0,1,192.8,389.2" transform="translate(-74.1 -161.35)" fill="#606d15"/>
            <path id="Trazado_887492" data-name="Trazado 887492" d="M283.668,405.019a20.345,20.345,0,1,0,28.772,0,20.346,20.346,0,0,0-28.772,0" transform="translate(-117.892 -169.407)" fill="#a7be25"/>
            <path id="Trazado_887493" data-name="Trazado 887493" d="M319.916,404.035a10.356,10.356,0,1,0,10.356-10.356,10.356,10.356,0,0,0-10.356,10.356" transform="translate(-135.809 -167.123)" fill="#a7be25"/>
            <path id="Trazado_887494" data-name="Trazado 887494" d="M293.4,404.411a6.424,6.424,0,1,1-6.424-6.424,6.423,6.423,0,0,1,6.424,6.424" transform="translate(-119.097 -168.952)" fill="#a7be25"/>
            <path id="Trazado_887495" data-name="Trazado 887495" d="M277.119,421.8a5.483,5.483,0,1,1,0-7.754,5.483,5.483,0,0,1,0,7.754" transform="translate(-113.668 -175.089)" fill="#a7be25"/>
            <path id="Trazado_887496" data-name="Trazado 887496" d="M348.5,421.8a5.483,5.483,0,1,1,0-7.754,5.483,5.483,0,0,1,0,7.754" transform="translate(-143.971 -175.089)" fill="#a7be25"/>
            <path id="Trazado_887497" data-name="Trazado 887497" d="M299.7,395.976a7.688,7.688,0,1,0,7.688-7.688,7.688,7.688,0,0,0-7.688,7.688" transform="translate(-127.229 -164.834)" fill="#a7be25"/>
            <path id="Trazado_887498" data-name="Trazado 887498" d="M448.3,520.356H53.225a23.19,23.19,0,0,1,0-46.381H448.3a23.19,23.19,0,0,1,0,46.381" transform="translate(-12.75 -201.21)" fill="#606d15"/>
            <path id="Trazado_887499" data-name="Trazado 887499" d="M128.616,424.43H74.455a24.028,24.028,0,0,0-24.028,24.028h0a24.028,24.028,0,0,0,24.028,24.028H330.387a24.028,24.028,0,0,0,24.028-24.028h0a23.918,23.918,0,0,0-2.751-11.162H149.894a24.021,24.021,0,0,1-21.277-12.866" transform="translate(-21.407 -180.177)" fill="#87a771"/>
            <path id="Trazado_887500" data-name="Trazado 887500" d="M388.065,424.43H186.294A24.021,24.021,0,0,0,207.571,437.3H409.342a24.021,24.021,0,0,0-21.277-12.866" transform="translate(-79.085 -180.177)" fill="#90d3c9"/>
            <path id="Trazado_887501" data-name="Trazado 887501" d="M476.26,424.43H443.844c7.764,0,14.057,9.32,14.057,20.817s-6.294,20.817-14.057,20.817H476.26c7.764,0,14.057-9.32,14.057-20.817s-6.294-20.817-14.057-20.817" transform="translate(-188.419 -180.177)" fill="#90d3c9"/>
            <path id="Trazado_887502" data-name="Trazado 887502" d="M317.992,444.7a23.037,23.037,0,1,0,32.579,0,23.037,23.037,0,0,0-32.579,0" transform="translate(-132.128 -185.918)" fill="#606d15"/>
            <path id="Trazado_887503" data-name="Trazado 887503" d="M359.036,443.585a11.726,11.726,0,1,0,11.725-11.725,11.725,11.725,0,0,0-11.725,11.725" transform="translate(-152.416 -183.331)" fill="#606d15"/>
            <path id="Trazado_887504" data-name="Trazado 887504" d="M329.005,444.01a7.274,7.274,0,1,1-7.274-7.274,7.274,7.274,0,0,1,7.274,7.274" transform="translate(-133.492 -185.401)" fill="#606d15"/>
            <path id="Trazado_887505" data-name="Trazado 887505" d="M310.577,463.7a6.209,6.209,0,1,1,0-8.78,6.209,6.209,0,0,1,0,8.78" transform="translate(-127.345 -192.35)" fill="#606d15"/>
            <path id="Trazado_887506" data-name="Trazado 887506" d="M391.4,463.7a6.209,6.209,0,1,1,0-8.78,6.209,6.209,0,0,1,0,8.78" transform="translate(-161.657 -192.35)" fill="#606d15"/>
            <path id="Trazado_887507" data-name="Trazado 887507" d="M336.148,434.459a8.705,8.705,0,1,0,8.705-8.705,8.705,8.705,0,0,0-8.705,8.705" transform="translate(-142.7 -180.739)" fill="#606d15"/>
            <path id="Trazado_887508" data-name="Trazado 887508" d="M502.1,496.079h0a29.9,29.9,0,0,0-29.9-29.9H175.481a29.884,29.884,0,0,0-29.366,35.487H501.571a30.034,30.034,0,0,0,.53-5.591" transform="translate(-61.803 -197.902)" fill="#a8d08d"/>
            <path id="Trazado_887509" data-name="Trazado 887509" d="M146.506,527.848a29.9,29.9,0,0,0,29.366,24.3H472.6a29.9,29.9,0,0,0,29.366-24.3Z" transform="translate(-62.194 -224.08)" fill="#87a771"/>
            <path id="Trazado_887510" data-name="Trazado 887510" d="M716.136,399.622a21.019,21.019,0,0,1-21-21c0-9.933,14.332-32.57,17.206-37.006a4.515,4.515,0,0,1,7.58,0c2.873,4.436,17.205,27.073,17.205,37.006a21.019,21.019,0,0,1-21,21" transform="translate(-295.098 -144.148)" fill="#9fc41a"/>
            <path id="Trazado_887511" data-name="Trazado 887511" d="M735.948,389.022a16.48,16.48,0,0,1-32.961,0c0-9.1,16.481-34.552,16.481-34.552s16.48,25.45,16.48,34.552" transform="translate(-298.429 -150.478)" fill="#82aa13"/>
            <line id="Línea_600" data-name="Línea 600" y1="38.365" transform="translate(421.038 243.296)" fill="none" stroke="#907a49" stroke-linecap="round" stroke-linejoin="round" stroke-width="9"/>
            <path id="Trazado_887512" data-name="Trazado 887512" d="M652.874,383.629a28.869,28.869,0,0,1-28.837-28.837c0-13.642,19.685-44.733,23.632-50.827a6.2,6.2,0,0,1,10.41,0c3.947,6.094,23.632,37.184,23.632,50.827a28.869,28.869,0,0,1-28.837,28.837" transform="translate(-264.914 -127.836)" fill="#c7da4c"/>
            <path id="Trazado_887513" data-name="Trazado 887513" d="M680.084,369.071a22.635,22.635,0,1,1-45.271,0c0-12.5,22.635-47.456,22.635-47.456s22.635,34.955,22.635,47.456" transform="translate(-269.488 -136.531)" fill="#a7be25"/>
            <line id="Línea_601" data-name="Línea 601" y1="52.694" transform="translate(387.96 239.067)" fill="none" stroke="#907a49" stroke-linecap="round" stroke-linejoin="round" stroke-width="9"/>
            <path id="Trazado_887514" data-name="Trazado 887514" d="M427.493,352.818a17.248,17.248,0,1,1-17.248-17.248,17.247,17.247,0,0,1,17.248,17.248" transform="translate(-166.834 -142.455)" fill="#9fc41a"/>
            <path id="Trazado_887515" data-name="Trazado 887515" d="M426.3,356.162a12.714,12.714,0,1,1-12.714-12.714A12.714,12.714,0,0,1,426.3,356.162" transform="translate(-170.178 -145.799)" fill="#82aa13"/>
            <path id="Trazado_887516" data-name="Trazado 887516" d="M446.925,321.727a17.248,17.248,0,1,1-17.247-17.248,17.247,17.247,0,0,1,17.247,17.248" transform="translate(-175.083 -129.256)" fill="#9fc41a"/>
            <path id="Trazado_887517" data-name="Trazado 887517" d="M445.735,325.071a12.714,12.714,0,1,1-12.714-12.714,12.713,12.713,0,0,1,12.714,12.714" transform="translate(-178.427 -132.6)" fill="#82aa13"/>
            <path id="Trazado_887518" data-name="Trazado 887518" d="M467.328,352.818a17.248,17.248,0,1,1-17.247-17.248,17.247,17.247,0,0,1,17.247,17.248" transform="translate(-183.744 -142.455)" fill="#9fc41a"/>
            <path id="Trazado_887519" data-name="Trazado 887519" d="M466.139,356.162a12.714,12.714,0,1,1-12.714-12.714,12.714,12.714,0,0,1,12.714,12.714" transform="translate(-187.089 -145.799)" fill="#82aa13"/>
            <path id="Trazado_887520" data-name="Trazado 887520" d="M421.89,386.063l11.735,17.323,10.059-17.323" transform="translate(-179.099 -163.89)" fill="none" stroke="#907a49" stroke-linecap="round" stroke-linejoin="round" stroke-width="9"/>
            <line id="Línea_602" data-name="Línea 602" y2="33.528" transform="translate(254.526 239.496)" fill="none" stroke="#907a49" stroke-linecap="round" stroke-linejoin="round" stroke-width="9"/>
            <path id="Trazado_887521" data-name="Trazado 887521" d="M92.9,345.878A17.248,17.248,0,1,1,75.649,328.63,17.248,17.248,0,0,1,92.9,345.878" transform="translate(-24.792 -139.509)" fill="#9fc41a"/>
            <path id="Trazado_887522" data-name="Trazado 887522" d="M91.707,349.222a12.714,12.714,0,1,1-12.714-12.714,12.714,12.714,0,0,1,12.714,12.714" transform="translate(-28.136 -142.853)" fill="#82aa13"/>
            <path id="Trazado_887523" data-name="Trazado 887523" d="M112.328,314.787A17.248,17.248,0,1,1,95.081,297.54a17.248,17.248,0,0,1,17.247,17.247" transform="translate(-33.041 -126.31)" fill="#9fc41a"/>
            <path id="Trazado_887524" data-name="Trazado 887524" d="M111.139,318.131a12.714,12.714,0,1,1-12.714-12.714,12.714,12.714,0,0,1,12.714,12.714" transform="translate(-36.386 -129.654)" fill="#82aa13"/>
            <path id="Trazado_887525" data-name="Trazado 887525" d="M132.732,345.878a17.248,17.248,0,1,1-17.248-17.248,17.248,17.248,0,0,1,17.248,17.248" transform="translate(-41.703 -139.509)" fill="#9fc41a"/>
            <path id="Trazado_887526" data-name="Trazado 887526" d="M131.543,349.222a12.714,12.714,0,1,1-12.714-12.714,12.714,12.714,0,0,1,12.714,12.714" transform="translate(-45.047 -142.853)" fill="#82aa13"/>
            <path id="Trazado_887527" data-name="Trazado 887527" d="M87.294,379.123l11.735,17.323,10.058-17.323" transform="translate(-37.058 -160.944)" fill="none" stroke="#907a49" stroke-linecap="round" stroke-linejoin="round" stroke-width="9"/>
            <line id="Línea_603" data-name="Línea 603" y2="33.528" transform="translate(61.971 235.502)" fill="none" stroke="#907a49" stroke-linecap="round" stroke-linejoin="round" stroke-width="9"/>
            <path id="Trazado_887528" data-name="Trazado 887528" d="M570.6,364.14a29.8,29.8,0,1,1-29.8-29.8,29.8,29.8,0,0,1,29.8,29.8" transform="translate(-216.923 -141.93)" fill="#c7da4c"/>
            <path id="Trazado_887529" data-name="Trazado 887529" d="M568.542,369.919a21.971,21.971,0,1,1-21.971-21.971,21.971,21.971,0,0,1,21.971,21.971" transform="translate(-222.701 -147.709)" fill="#a7be25"/>
            <path id="Trazado_887530" data-name="Trazado 887530" d="M541.864,386.126,553.9,403.894l10.317-17.768" transform="translate(-230.03 -163.917)" fill="none" stroke="#907a49" stroke-linecap="round" stroke-linejoin="round" stroke-width="9"/>
            <line id="Línea_604" data-name="Línea 604" y2="34.39" transform="translate(323.871 239.978)" fill="none" stroke="#907a49" stroke-linecap="round" stroke-linejoin="round" stroke-width="9"/>
            <g id="Grupo_1112750" data-name="Grupo 1112750" transform="translate(323.87 192.405)" opacity="0.5" style="mix-blend-mode: multiply;isolation: isolate">
              <g id="Grupo_1112749" data-name="Grupo 1112749">
                <g id="Grupo_1112748" data-name="Grupo 1112748" clip-path="url(#clip-path-2)">
                  <path id="Trazado_887531" data-name="Trazado 887531" d="M562.779,334.336v84.553a2.59,2.59,0,0,0,2.59-2.59V393.826a29.8,29.8,0,0,0-2.59-59.49" transform="translate(-562.779 -334.336)" fill="#907a49"/>
                </g>
              </g>
            </g>
            <path id="Trazado_887532" data-name="Trazado 887532" d="M201.692,490.76a4.162,4.162,0,1,1-4.162-4.163,4.162,4.162,0,0,1,4.162,4.163" transform="translate(-82.087 -206.568)" fill="#a7be25"/>
            <path id="Trazado_887533" data-name="Trazado 887533" d="M244.046,486.106a3.121,3.121,0,1,1-3.121-3.121,3.121,3.121,0,0,1,3.121,3.121" transform="translate(-100.952 -205.035)" fill="#a7be25"/>
            <path id="Trazado_887534" data-name="Trazado 887534" d="M295.953,492.675a4.267,4.267,0,1,1-4.267-4.267,4.266,4.266,0,0,1,4.267,4.267" transform="translate(-122.014 -207.337)" fill="#a7be25"/>
            <path id="Trazado_887535" data-name="Trazado 887535" d="M350.674,500.757a3.985,3.985,0,1,1-3.985-3.985,3.985,3.985,0,0,1,3.985,3.985" transform="translate(-145.484 -210.888)" fill="#a7be25"/>
            <path id="Trazado_887536" data-name="Trazado 887536" d="M435.476,499.984a3.213,3.213,0,1,1-3.212-3.213,3.212,3.212,0,0,1,3.212,3.213" transform="translate(-182.139 -210.887)" fill="#a7be25"/>
            <path id="Trazado_887537" data-name="Trazado 887537" d="M481.312,487.023a4.037,4.037,0,1,1-4.037-4.037,4.037,4.037,0,0,1,4.037,4.037" transform="translate(-200.897 -205.035)" fill="#a7be25"/>
            <path id="Trazado_887538" data-name="Trazado 887538" d="M590.937,492.737a6.14,6.14,0,1,1-6.14-6.14,6.14,6.14,0,0,1,6.14,6.14" transform="translate(-245.649 -206.568)" fill="#a7be25"/>
            <path id="Trazado_887539" data-name="Trazado 887539" d="M693.359,486.953a3.967,3.967,0,1,1-3.967-3.967,3.967,3.967,0,0,1,3.967,3.967" transform="translate(-290.974 -205.035)" fill="#a7be25"/>
            <path id="Trazado_887540" data-name="Trazado 887540" d="M727.994,506.739a3.043,3.043,0,1,1-3.043-3.043,3.043,3.043,0,0,1,3.043,3.043" transform="translate(-306.461 -213.827)" fill="#a7be25"/>
            <path id="Trazado_887541" data-name="Trazado 887541" d="M583.824,493.079a30.485,30.485,0,0,0-30.393-28.188H483.119a30.488,30.488,0,0,1,30.413,28.417h.078V543.4c8.323-.12,8.417-5.85,16.916-5.85,8.589,0,8.589,5.856,17.178,5.856s8.589-5.856,17.178-5.856,8.59,5.856,17.18,5.856a16.169,16.169,0,0,0,1.862-.106V493.079Z" transform="translate(-205.092 -197.354)" fill="#90d3c9"/>
            <path id="Trazado_887542" data-name="Trazado 887542" d="M606.415,536.861a16.175,16.175,0,0,1-1.862.105c-8.59,0-8.59-5.856-17.18-5.856s-8.589,5.856-17.178,5.856-8.589-5.856-17.178-5.856c-8.5,0-8.594,5.73-16.916,5.85v46.517h70.313Z" transform="translate(-227.584 -225.465)" fill="#a5e5da"/>
            <path id="Trazado_887543" data-name="Trazado 887543" d="M604.553,597c-8.59,0-8.59-5.856-17.18-5.856S578.785,597,570.2,597s-8.589-5.856-17.178-5.856c-8.5,0-8.593,5.73-16.916,5.85v68.321a6.926,6.926,0,0,0,6.906,6.906h1.374a6.926,6.926,0,0,0,6.906-6.906V636.756a3.088,3.088,0,0,1,3.088-3.088h.18a3.088,3.088,0,0,1,3.088,3.088V680a11.244,11.244,0,0,0,11.212,11.211h2.23A11.244,11.244,0,0,0,582.3,680V636.756a3.088,3.088,0,0,1,6.177,0v24.682a8.183,8.183,0,0,0,8.159,8.159h1.623a8.184,8.184,0,0,0,8.16-8.159V596.9a16.322,16.322,0,0,1-1.862.105" transform="translate(-227.584 -250.952)" fill="#b8f4e9"/>
            <path id="Trazado_887544" data-name="Trazado 887544" d="M167.463,163.311H95.278a6.926,6.926,0,0,1-6.906-6.906v-.727a6.926,6.926,0,0,1,6.906-6.906h72.185a6.926,6.926,0,0,1,6.906,6.906v.727a6.926,6.926,0,0,1-6.906,6.906" transform="translate(-37.515 -63.156)" fill="#fff"/>
            <path id="Trazado_887545" data-name="Trazado 887545" d="M190.438,123.81a16.677,16.677,0,1,1-16.677-16.677,16.677,16.677,0,0,1,16.677,16.677" transform="translate(-66.685 -45.48)" fill="#fff"/>
            <path id="Trazado_887546" data-name="Trazado 887546" d="M144.093,136.524a12.875,12.875,0,1,1-12.875-12.875,12.876,12.876,0,0,1,12.875,12.875" transform="translate(-50.238 -52.491)" fill="#fff"/>
            <path id="Trazado_887547" data-name="Trazado 887547" d="M647.843,159.75H589.288a5.618,5.618,0,0,1-5.6-5.6v-.59a5.618,5.618,0,0,1,5.6-5.6h58.556a5.618,5.618,0,0,1,5.6,5.6v.59a5.618,5.618,0,0,1-5.6,5.6" transform="translate(-247.784 -62.81)" fill="#fff"/>
            <path id="Trazado_887548" data-name="Trazado 887548" d="M666.481,127.707a13.528,13.528,0,1,1-13.528-13.528,13.528,13.528,0,0,1,13.528,13.528" transform="translate(-271.446 -48.471)" fill="#fff"/>
            <path id="Trazado_887549" data-name="Trazado 887549" d="M628.886,138.021a10.444,10.444,0,1,1-10.444-10.444,10.444,10.444,0,0,1,10.444,10.444" transform="translate(-258.105 -54.158)" fill="#fff"/>
            <path id="Trazado_887550" data-name="Trazado 887550" d="M385.129,211.036h72.185a6.927,6.927,0,0,0,6.906-6.906V203.4a6.927,6.927,0,0,0-6.906-6.906H385.129a6.926,6.926,0,0,0-6.906,6.906v.727a6.926,6.926,0,0,0,6.906,6.906" transform="translate(-160.562 -83.416)" fill="#fff"/>
            <path id="Trazado_887551" data-name="Trazado 887551" d="M400.985,171.534a16.677,16.677,0,1,0,16.677-16.677,16.677,16.677,0,0,0-16.677,16.677" transform="translate(-170.224 -65.739)" fill="#fff"/>
            <path id="Trazado_887552" data-name="Trazado 887552" d="M452.939,184.249a12.875,12.875,0,1,0,12.875-12.875,12.876,12.876,0,0,0-12.875,12.875" transform="translate(-192.28 -72.751)" fill="#fff"/>
            <g id="Grupo_1112753" data-name="Grupo 1112753" transform="translate(151.952 38.62)" opacity="0.5" style="mix-blend-mode: screen;isolation: isolate">
              <g id="Grupo_1112752" data-name="Grupo 1112752">
                <g id="Grupo_1112751" data-name="Grupo 1112751" clip-path="url(#clip-path-3)">
                  <path id="Trazado_887553" data-name="Trazado 887553" d="M318.972,94.573a27.465,27.465,0,1,1-27.465-27.465,27.465,27.465,0,0,1,27.465,27.465" transform="translate(-264.042 -67.109)" fill="#ffdf5a"/>
                </g>
              </g>
            </g>
            <path id="Trazado_887554" data-name="Trazado 887554" d="M317.026,100.048A20.043,20.043,0,1,1,296.982,80a20.044,20.044,0,0,1,20.044,20.044" transform="translate(-117.565 -33.963)" fill="#ffdf5a"/>
            <path id="Trazado_887555" data-name="Trazado 887555" d="M311.13,123.419a.863.863,0,0,1-.863-.863V58.831a.863.863,0,0,1,1.726,0v63.725a.863.863,0,0,1-.863.863" transform="translate(-131.713 -24.608)" fill="#ffdf5a"/>
            <path id="Trazado_887556" data-name="Trazado 887556" d="M319.489,115.059H255.764a.863.863,0,0,1,0-1.726h63.725a.863.863,0,0,1,0,1.726" transform="translate(-108.209 -48.112)" fill="#ffdf5a"/>
            <path id="Trazado_887557" data-name="Trazado 887557" d="M317.041,120.97a.859.859,0,0,1-.611-.253l-45.06-45.06a.863.863,0,0,1,1.221-1.221l45.06,45.06a.864.864,0,0,1-.61,1.474" transform="translate(-115.094 -31.492)" fill="#ffdf5a"/>
            <path id="Trazado_887558" data-name="Trazado 887558" d="M271.98,120.97a.864.864,0,0,1-.611-1.474l45.06-45.06a.863.863,0,0,1,1.221,1.221l-45.06,45.06a.859.859,0,0,1-.611.253" transform="translate(-115.094 -31.492)" fill="#ffdf5a"/>
            <g id="Grupo_1112756" data-name="Grupo 1112756" transform="translate(179.417 33.36)" style="mix-blend-mode: multiply;isolation: isolate">
              <g id="Grupo_1112755" data-name="Grupo 1112755">
                <g id="Grupo_1112754" data-name="Grupo 1112754" clip-path="url(#clip-path-4)">
                  <path id="Trazado_887559" data-name="Trazado 887559" d="M343.629,89.829H331.788a19.963,19.963,0,0,0-5.252-12.685l8.372-8.372a.863.863,0,1,0-1.221-1.221l-8.372,8.372a19.967,19.967,0,0,0-12.685-5.253V58.83a.864.864,0,0,0-.863-.863v65.451a.863.863,0,0,0,.863-.863V110.714a19.964,19.964,0,0,0,12.685-5.253l8.372,8.372a.863.863,0,1,0,1.221-1.221l-8.372-8.372a19.963,19.963,0,0,0,5.252-12.685h11.841a.863.863,0,0,0,0-1.726" transform="translate(-311.767 -57.968)" fill="#ffdf5a"/>
                </g>
              </g>
            </g>
            <g id="Grupo_1112759" data-name="Grupo 1112759" transform="translate(61.067 171.23)" opacity="0.5" style="mix-blend-mode: multiply;isolation: isolate">
              <g id="Grupo_1112758" data-name="Grupo 1112758">
                <g id="Grupo_1112757" data-name="Grupo 1112757" clip-path="url(#clip-path-5)">
                  <path id="Trazado_887560" data-name="Trazado 887560" d="M124.263,316.311c.044-.5.071-1.01.071-1.524a17.247,17.247,0,0,0-17.247-17.247c-.327,0-.651.011-.973.029v49.006q.649-.477,1.252-1.012a17.262,17.262,0,0,0,4.43,2.865l-4.946,8.518-.735-1.085v41.9a2.571,2.571,0,0,0,3.494-2.418V362.51l7.365-12.684a17.482,17.482,0,0,0,1.855.1,17.247,17.247,0,0,0,5.435-33.616" transform="translate(-106.114 -297.54)" fill="#907a49"/>
                </g>
              </g>
            </g>
            <g id="Grupo_1112762" data-name="Grupo 1112762" transform="translate(254.874 175.23)" opacity="0.5" style="mix-blend-mode: multiply;isolation: isolate">
              <g id="Grupo_1112761" data-name="Grupo 1112761">
                <g id="Grupo_1112760" data-name="Grupo 1112760" clip-path="url(#clip-path-6)">
                  <path id="Trazado_887561" data-name="Trazado 887561" d="M459.783,323.256c.044-.5.071-1.01.071-1.524a17.245,17.245,0,0,0-16.968-17.24v48.016a17.256,17.256,0,0,0,4.43,2.865L442.886,363v41.839a2.582,2.582,0,0,0,2.242-2.555V369.456l7.365-12.684a17.466,17.466,0,0,0,1.855.1,17.248,17.248,0,0,0,5.435-33.616" transform="translate(-442.886 -304.492)" fill="#907a49"/>
                </g>
              </g>
            </g>
            <g id="Grupo_1112765" data-name="Grupo 1112765" transform="translate(387.96 173.298)" opacity="0.5" style="mix-blend-mode: multiply;isolation: isolate">
              <g id="Grupo_1112764" data-name="Grupo 1112764">
                <g id="Grupo_1112763" data-name="Grupo 1112763" clip-path="url(#clip-path-7)">
                  <path id="Trazado_887562" data-name="Trazado 887562" d="M679.351,303.965a6.2,6.2,0,0,0-5.205-2.831V422.187a2.59,2.59,0,0,0,2.59-2.59v-36.09a28.872,28.872,0,0,0,26.247-28.715c0-13.642-19.685-44.733-23.632-50.827" transform="translate(-674.146 -301.134)" fill="#907a49"/>
                </g>
              </g>
            </g>
          </g>
        </g>
      </g>
    </g>
  </g>
</svg>
