<svg xmlns="http://www.w3.org/2000/svg" xmlns:xlink="http://www.w3.org/1999/xlink" width="533.771" height="394.805" viewBox="0 0 533.771 394.805">
  <defs>
    <clipPath id="clip-path">
      <rect id="Rectángulo_408649" data-name="Rectángulo 408649" width="533.771" height="368.241" fill="none"/>
    </clipPath>
    <clipPath id="clip-path-2">
      <rect id="Rectángulo_408648" data-name="Rectángulo 408648" width="533.77" height="368.242" fill="none"/>
    </clipPath>
    <clipPath id="clip-path-3">
      <rect id="Rectángulo_408624" data-name="Rectángulo 408624" width="423.468" height="53.987" fill="none"/>
    </clipPath>
    <clipPath id="clip-path-4">
      <rect id="Rectángulo_408639" data-name="Rectángulo 408639" width="77.359" height="26.921" fill="none"/>
    </clipPath>
    <clipPath id="clip-path-5">
      <rect id="Rectángulo_408640" data-name="Rectángulo 408640" width="53.977" height="18.783" fill="none"/>
    </clipPath>
    <clipPath id="clip-path-6">
      <rect id="Rectángulo_408641" data-name="Rectángulo 408641" width="61.081" height="23.653" fill="none"/>
    </clipPath>
    <clipPath id="clip-path-7">
      <rect id="Rectángulo_408642" data-name="Rectángulo 408642" width="3.507" height="4.594" fill="none"/>
    </clipPath>
    <clipPath id="clip-path-8">
      <rect id="Rectángulo_408643" data-name="Rectángulo 408643" width="3.268" height="4.406" fill="none"/>
    </clipPath>
    <clipPath id="clip-path-9">
      <rect id="Rectángulo_408644" data-name="Rectángulo 408644" width="126.277" height="135.491" fill="none"/>
    </clipPath>
    <clipPath id="clip-path-10">
      <rect id="Rectángulo_408645" data-name="Rectángulo 408645" width="43.464" height="34.301" fill="none"/>
    </clipPath>
    <clipPath id="clip-path-11">
      <rect id="Rectángulo_408646" data-name="Rectángulo 408646" width="82.483" height="82.483" fill="none"/>
    </clipPath>
    <clipPath id="clip-path-12">
      <rect id="Rectángulo_408647" data-name="Rectángulo 408647" width="58.439" height="58.439" fill="none"/>
    </clipPath>
  </defs>
  <g id="Grupo_1113244" data-name="Grupo 1113244" transform="translate(-300.229 -12197.066)">
    <rect id="Rectángulo_406962" data-name="Rectángulo 406962" width="521.058" height="394.804" rx="20" transform="translate(306.113 12197.066)" fill="#fbfbfb"/>
    <rect id="Ilustración" width="438" height="292" rx="20" transform="translate(348.113 12248.066)" fill="#cce5f2"/>
    <g id="Grupo_1112745" data-name="Grupo 1112745" transform="translate(300.229 12221.066)">
      <g id="Grupo_1112744" data-name="Grupo 1112744" clip-path="url(#clip-path)">
        <g id="Grupo_1112743" data-name="Grupo 1112743" transform="translate(0 -0.001)">
          <g id="Grupo_1112742" data-name="Grupo 1112742" clip-path="url(#clip-path-2)">
            <g id="Grupo_1112714" data-name="Grupo 1112714" transform="translate(60.093 280.848)" opacity="0.5">
              <g id="Grupo_1112713" data-name="Grupo 1112713">
                <g id="Grupo_1112712" data-name="Grupo 1112712" clip-path="url(#clip-path-3)">
                  <path id="Trazado_887306" data-name="Trazado 887306" d="M705.326,1344.259c0,14.908-94.8,26.994-211.734,26.994s-211.734-12.086-211.734-26.994,94.8-26.994,211.734-26.994,211.734,12.085,211.734,26.994" transform="translate(-281.858 -1317.265)" fill="#b8d5dc"/>
                </g>
              </g>
            </g>
            <path id="Trazado_887307" data-name="Trazado 887307" d="M473.622,1203.819h-6.705l6-54.408h6.705Z" transform="translate(-367.368 -904.35)" fill="#99c4cc"/>
            <path id="Trazado_887308" data-name="Trazado 887308" d="M352.025,1016.965h-97.1l-14.846-57.546h97.1Z" transform="translate(-188.894 -754.865)" fill="#99c4cc"/>
            <path id="Trazado_887309" data-name="Trazado 887309" d="M369.417,1016.965h-97.1l-14.846-57.546h97.1Z" transform="translate(-202.578 -754.865)" fill="#b8d5dc"/>
            <rect id="Rectángulo_408625" data-name="Rectángulo 408625" width="97.099" height="0.825" transform="translate(58.609 218.541)" fill="#99c4cc"/>
            <rect id="Rectángulo_408626" data-name="Rectángulo 408626" width="97.099" height="0.825" transform="translate(62.317 232.915)" fill="#99c4cc"/>
            <rect id="Rectángulo_408627" data-name="Rectángulo 408627" width="97.098" height="0.825" transform="translate(66.026 247.286)" fill="#99c4cc"/>
            <rect id="Rectángulo_408628" data-name="Rectángulo 408628" width="0.824" height="59.431" transform="translate(71.875 204.657) rotate(-14.467)" fill="#99c4cc"/>
            <rect id="Rectángulo_408629" data-name="Rectángulo 408629" width="0.824" height="59.43" transform="translate(92.403 204.657) rotate(-14.465)" fill="#99c4cc"/>
            <rect id="Rectángulo_408630" data-name="Rectángulo 408630" width="0.824" height="59.431" transform="translate(112.93 204.657) rotate(-14.467)" fill="#99c4cc"/>
            <rect id="Rectángulo_408631" data-name="Rectángulo 408631" width="0.824" height="59.43" transform="translate(133.459 204.657) rotate(-14.465)" fill="#99c4cc"/>
            <path id="Trazado_887310" data-name="Trazado 887310" d="M475.651,1381.379h11.366a4.951,4.951,0,0,1,4.951,4.951H475.651Z" transform="translate(-374.24 -1086.862)" fill="#99c4cc"/>
            <path id="Trazado_887311" data-name="Trazado 887311" d="M956.818,1248.913h-4.411l3.95-35.8h4.412Z" transform="translate(-749.349 -954.474)" fill="#99c4cc"/>
            <path id="Trazado_887312" data-name="Trazado 887312" d="M876.816,1162.188H812.932l-9.768-37.861h63.884Z" transform="translate(-631.926 -884.614)" fill="#99c4cc"/>
            <path id="Trazado_887313" data-name="Trazado 887313" d="M888.258,1162.188H824.375l-9.768-37.861h63.884Z" transform="translate(-640.929 -884.614)" fill="#b8d5dc"/>
            <rect id="Rectángulo_408632" data-name="Rectángulo 408632" width="63.884" height="0.545" transform="translate(176.122 248.914)" fill="#99c4cc"/>
            <rect id="Rectángulo_408633" data-name="Rectángulo 408633" width="63.884" height="0.545" transform="translate(178.562 258.369)" fill="#99c4cc"/>
            <rect id="Rectángulo_408634" data-name="Rectángulo 408634" width="63.883" height="0.545" transform="translate(181.002 267.827)" fill="#99c4cc"/>
            <rect id="Rectángulo_408635" data-name="Rectángulo 408635" width="0.542" height="39.103" transform="translate(184.851 239.779) rotate(-14.464)" fill="#99c4cc"/>
            <rect id="Rectángulo_408636" data-name="Rectángulo 408636" width="0.542" height="39.103" transform="translate(198.356 239.779) rotate(-14.465)" fill="#99c4cc"/>
            <rect id="Rectángulo_408637" data-name="Rectángulo 408637" width="0.542" height="39.103" transform="translate(211.862 239.779) rotate(-14.465)" fill="#99c4cc"/>
            <rect id="Rectángulo_408638" data-name="Rectángulo 408638" width="0.542" height="39.103" transform="matrix(0.968, -0.25, 0.25, 0.968, 225.367, 239.779)" fill="#99c4cc"/>
            <path id="Trazado_887314" data-name="Trazado 887314" d="M958.153,1365.735h7.478a3.258,3.258,0,0,1,3.258,3.257H958.153Z" transform="translate(-753.87 -1074.553)" fill="#99c4cc"/>
            <g id="Grupo_1112717" data-name="Grupo 1112717" transform="translate(356.455 76.367)" opacity="0.8">
              <g id="Grupo_1112716" data-name="Grupo 1112716">
                <g id="Grupo_1112715" data-name="Grupo 1112715" clip-path="url(#clip-path-4)">
                  <path id="Trazado_887315" data-name="Trazado 887315" d="M1726.287,365.732s-4.434-8.529-15.655-7.46-9.885,9.618-15.228,8.816-12.824,0-14.427,5.343-8.816,2.4-9.083,6.946,8.282,7.748,18.167,3.74,14.694,3.113,28.586,1.824,15.614-2.893,23.836-2.091,8.028-4.829,4.287-8.569-18.88-3.384-20.483-8.549" transform="translate(-1671.888 -358.179)" fill="#fff"/>
                </g>
              </g>
            </g>
            <g id="Grupo_1112720" data-name="Grupo 1112720" transform="translate(216.313 37.975)" opacity="0.6">
              <g id="Grupo_1112719" data-name="Grupo 1112719">
                <g id="Grupo_1112718" data-name="Grupo 1112718" clip-path="url(#clip-path-5)">
                  <path id="Trazado_887316" data-name="Trazado 887316" d="M1052.54,183.376a11.017,11.017,0,0,0-10.923-5.205c-7.829.746-6.9,6.711-10.625,6.151s-8.948,0-10.066,3.728-6.151,1.678-6.338,4.847,5.779,5.406,12.676,2.61,10.252,2.172,19.945,1.272,10.894-2.018,16.632-1.459,5.6-3.369,2.991-5.979-13.173-2.361-14.292-5.965" transform="translate(-1014.583 -178.107)" fill="#fff"/>
                </g>
              </g>
            </g>
            <g id="Grupo_1112723" data-name="Grupo 1112723" transform="translate(78.788 86.777)" opacity="0.6">
              <g id="Grupo_1112722" data-name="Grupo 1112722">
                <g id="Grupo_1112721" data-name="Grupo 1112721" clip-path="url(#clip-path-6)">
                  <path id="Trazado_887317" data-name="Trazado 887317" d="M412.5,413.649a12.3,12.3,0,0,0-12.361-6.555c-8.859.939-7.8,8.45-12.024,7.746s-10.125,0-11.391,4.695-6.961,2.113-7.172,6.1,6.539,6.807,14.344,3.286,11.6,2.735,22.571,1.6,12.328-2.541,18.82-1.837,6.339-4.243,3.385-7.529-14.907-2.974-16.173-7.512" transform="translate(-369.543 -407.013)" fill="#fff"/>
                </g>
              </g>
            </g>
            <path id="Trazado_887318" data-name="Trazado 887318" d="M2079.716,1016.023h-5.444l.455-40.08.7-61.391h2.467l.976,54.234Z" transform="translate(-1632.027 -719.564)" fill="#fff"/>
            <path id="Trazado_887319" data-name="Trazado 887319" d="M2080.545,968.786a62.543,62.543,0,0,0-4.139,7.157l.7-61.391h2.467Z" transform="translate(-1633.706 -719.564)" fill="#b8d5dc"/>
            <path id="Trazado_887320" data-name="Trazado 887320" d="M2077.964,771.292l-1.111-3.363a11.157,11.157,0,0,1,1.922-10.517l21.2-26.193a.491.491,0,0,1,.818.533l-20.4,39.73a1.322,1.322,0,0,1-2.431-.189" transform="translate(-1633.615 -575.171)" fill="#fff"/>
            <path id="Trazado_887321" data-name="Trazado 887321" d="M2084.289,909.524l3.538-.159a11.157,11.157,0,0,1,9.6,4.7l19.478,27.5a.491.491,0,0,1-.734.643l-32.727-30.388a1.322,1.322,0,0,1,.84-2.289" transform="translate(-1638.913 -715.475)" fill="#fff"/>
            <path id="Trazado_887322" data-name="Trazado 887322" d="M1927.553,906.558l-1.8,3.05a11.157,11.157,0,0,1-9.182,5.476l-33.671,1.282a.491.491,0,0,1-.137-.966l43.334-10.8a1.322,1.322,0,0,1,1.458,1.955" transform="translate(-1481.054 -711.704)" fill="#fff"/>
            <path id="Trazado_887323" data-name="Trazado 887323" d="M2074.288,906.253a2.879,2.879,0,1,1,3.873,1.257,2.879,2.879,0,0,1-3.873-1.257" transform="translate(-1631.792 -709.739)" fill="#366f90"/>
            <path id="Trazado_887324" data-name="Trazado 887324" d="M2061.068,1376.96h-19.307a5.741,5.741,0,0,1,5.741-5.741h7.825a5.741,5.741,0,0,1,5.741,5.741" transform="translate(-1606.448 -1078.868)" fill="#fff"/>
            <path id="Trazado_887325" data-name="Trazado 887325" d="M1932.71,907.62h-8.946l.748-55.224,1.144-84.587h4.054l1.6,74.726Z" transform="translate(-1513.608 -604.107)" fill="#fff"/>
            <path id="Trazado_887326" data-name="Trazado 887326" d="M1934.073,842.534a84.078,84.078,0,0,0-6.8,9.861l1.144-84.588h4.054Z" transform="translate(-1516.368 -604.107)" fill="#b8d5dc"/>
            <path id="Trazado_887327" data-name="Trazado 887327" d="M1840.29,756.275l2.176,4.857a16.763,16.763,0,0,1-1.26,16.014l-27.668,42.4a.737.737,0,0,1-1.3-.671l24.394-62.51a1.986,1.986,0,0,1,3.662-.09" transform="translate(-1425.813 -594.109)" fill="#fff"/>
            <path id="Trazado_887328" data-name="Trazado 887328" d="M1739.566,613.081l-5.264.78a16.764,16.764,0,0,1-15.075-5.547L1685.9,570.2a.737.737,0,0,1,1-1.074l53.574,40.4a1.986,1.986,0,0,1-.9,3.55" transform="translate(-1326.306 -447.663)" fill="#fff"/>
            <path id="Trazado_887329" data-name="Trazado 887329" d="M1929.18,691.641l2.225-4.835a16.763,16.763,0,0,1,12.885-9.592l50.131-7.078a.737.737,0,0,1,.353,1.424l-63.116,22.78a1.986,1.986,0,0,1-2.478-2.7" transform="translate(-1517.722 -527.252)" fill="#fff"/>
            <path id="Trazado_887330" data-name="Trazado 887330" d="M1927.364,749.218a4.327,4.327,0,1,1-5.982-1.285,4.327,4.327,0,0,1,5.982,1.285" transform="translate(-1510.177 -587.924)" fill="#366f90"/>
            <path id="Trazado_887331" data-name="Trazado 887331" d="M1902.064,1401.339h-31.73a9.435,9.435,0,0,1,9.435-9.435h12.86a9.435,9.435,0,0,1,9.435,9.435" transform="translate(-1471.57 -1095.143)" fill="#fff"/>
            <path id="Trazado_887332" data-name="Trazado 887332" d="M720.327,997.959c.343,10.088,1.151,20.154,1.7,30.232.222,4.056.481,8.091-.667,12.042a16.763,16.763,0,0,1-5.307,8.191c-7,5.928-16.872,5.445-25.454,6.262-7.412.707-15.753,2.773-20.581,8.922-5.292,6.739-3.814,15.892,1.336,22.251,5.625,6.947,14.953,9.492,23.47,10.415a69.372,69.372,0,0,0,29.621-3.265,40.367,40.367,0,0,0,6.73-2.9,61.323,61.323,0,0,0,6.063-4.13,44.571,44.571,0,0,1,11.877-6.323c18.16-6.192,37.455-.775,54.252,6.9,2.23,1.019,4.44,2.081,6.638,3.166,1.928.952,3.629-1.939,1.692-2.895-16.89-8.339-35.316-15.36-54.469-12.557a50.522,50.522,0,0,0-12.677,3.579c-4.268,1.837-7.879,4.485-11.644,7.158-7.948,5.643-18.272,7.839-27.882,8.248-8.848.377-18.8-.53-26.43-5.433-6.206-3.987-11.037-12.478-7.457-19.755,3.275-6.657,11.446-9.15,18.3-9.905,8.99-.992,18.672-.43,26.581-5.566,6.243-4.055,9.3-10.681,9.57-17.993.18-4.867-.39-9.821-.694-14.677-.313-5-.644-9.994-.906-15q-.182-3.483-.305-6.968c-.073-2.152-3.426-2.161-3.353,0" transform="translate(-524.559 -783.916)" fill="#657d55"/>
            <path id="Trazado_887333" data-name="Trazado 887333" d="M725.832,997.959c.343,10.088,1.151,20.154,1.7,30.232.222,4.056.481,8.091-.667,12.042a16.763,16.763,0,0,1-5.307,8.191c-7,5.928-16.872,5.445-25.454,6.262-7.412.707-15.753,2.773-20.581,8.922-5.291,6.739-3.814,15.892,1.336,22.251,5.625,6.947,14.953,9.492,23.47,10.415a69.371,69.371,0,0,0,29.621-3.265,40.377,40.377,0,0,0,6.73-2.9,61.337,61.337,0,0,0,6.063-4.13,44.571,44.571,0,0,1,11.877-6.323c18.16-6.192,37.455-.775,54.252,6.9,2.23,1.019,4.439,2.081,6.638,3.166,1.928.952,3.629-1.939,1.692-2.895-16.89-8.339-35.316-15.36-54.469-12.557a50.524,50.524,0,0,0-12.677,3.579c-4.268,1.837-7.879,4.485-11.644,7.158-7.948,5.643-18.272,7.839-27.882,8.248-8.848.377-18.8-.53-26.43-5.433-6.206-3.987-11.037-12.478-7.457-19.755,3.275-6.657,11.446-9.15,18.295-9.905,8.99-.992,18.672-.43,26.581-5.566,6.243-4.055,9.3-10.681,9.57-17.993.18-4.867-.39-9.821-.694-14.677-.313-5-.644-9.994-.906-15q-.183-3.483-.305-6.968c-.073-2.152-3.426-2.161-3.353,0" transform="translate(-528.89 -783.916)" fill="#87a771"/>
            <path id="Trazado_887334" data-name="Trazado 887334" d="M906.587,1025.644h0a8.449,8.449,0,0,1-8.449-8.449v-5.3a8.449,8.449,0,1,1,16.9,0v5.3a8.449,8.449,0,0,1-8.449,8.449" transform="translate(-706.651 -789.505)" fill="#87a771"/>
            <path id="Trazado_887335" data-name="Trazado 887335" d="M722.063,319.585v82.464A8.87,8.87,0,0,1,715.8,410.5a8.726,8.726,0,0,1-2.57.384,8.862,8.862,0,0,1-8.836-8.836V319.585a8.862,8.862,0,0,1,8.836-8.836,8.726,8.726,0,0,1,2.57.384,8.873,8.873,0,0,1,6.265,8.451" transform="translate(-554.212 -244.495)" fill="#b8d5dc"/>
            <path id="Trazado_887336" data-name="Trazado 887336" d="M741.035,321v82.464a6.548,6.548,0,1,1-12.53,0V321a6.353,6.353,0,1,1,12.53,0" transform="translate(-573.184 -245.914)" fill="#fff"/>
            <path id="Trazado_887337" data-name="Trazado 887337" d="M1078.113,319.585v82.464a8.87,8.87,0,0,1-6.265,8.451,8.726,8.726,0,0,1-2.57.384,8.862,8.862,0,0,1-8.836-8.836V319.585a8.862,8.862,0,0,1,8.836-8.836,8.726,8.726,0,0,1,2.57.384,8.873,8.873,0,0,1,6.265,8.451" transform="translate(-834.351 -244.495)" fill="#b8d5dc"/>
            <path id="Trazado_887338" data-name="Trazado 887338" d="M1097.085,321v82.464a6.548,6.548,0,1,1-12.53,0V321a6.353,6.353,0,1,1,12.53,0" transform="translate(-853.323 -245.914)" fill="#fff"/>
            <path id="Trazado_887339" data-name="Trazado 887339" d="M711.658,665.323H610.334a11.4,11.4,0,0,1-11.4-11.4V570.265a11.4,11.4,0,0,1,11.4-11.4H711.658a11.4,11.4,0,0,1,11.4,11.4v83.661a11.4,11.4,0,0,1-11.4,11.4" transform="translate(-471.241 -439.713)" fill="#87a771"/>
            <path id="Trazado_887340" data-name="Trazado 887340" d="M781.762,665.323H687.908A11.013,11.013,0,0,1,676.9,654.31V569.88a11.013,11.013,0,0,1,11.012-11.013h93.854a11.013,11.013,0,0,1,11.013,11.013V654.31a11.013,11.013,0,0,1-11.013,11.013" transform="translate(-532.578 -439.713)" fill="#a8d08d"/>
            <path id="Trazado_887341" data-name="Trazado 887341" d="M862.634,739.185l15.929-23.519H860.771l22.462-35.821h14.751l-18.607,28.223h18.607Z" transform="translate(-677.25 -534.898)" fill="#acab58"/>
            <path id="Trazado_887342" data-name="Trazado 887342" d="M850.953,739.185l12.763-23.519H845.925l22.462-35.821h14.751l-18.607,28.223h18.607Z" transform="translate(-665.569 -534.898)" fill="#fff"/>
            <path id="Trazado_887343" data-name="Trazado 887343" d="M1835.136,1224.685c-.143.845-.058,2.613-.186,3.462-.055.368-.158,1.627.191,1.768.3.122.844-.794,1.048-1.267,1.273,2.908,3.954,6.244,1.671.318l.008,0c.233.5,1.827,4.186,2.5,3.65.49-.393-.908-3.394-1.284-4.213l.02-.011c.448.8,1.677,3.3,2.164,2.95.641-.461-1.041-3.631-1.041-3.631s1.334,2.662,1.81,1.862c.269-.451-.568-2-1.1-2.962h0c-.112-.2-.211-.377-.283-.51a1.634,1.634,0,0,0-.191-.282,14.528,14.528,0,0,0-1.854-2.4,1.855,1.855,0,0,0-2.2-.591,2.675,2.675,0,0,0-1.267,1.864" transform="translate(-1443.684 -961.982)" fill="#ffb27d"/>
            <path id="Trazado_887344" data-name="Trazado 887344" d="M1559.756,1030.666c-.092-.852-.653-2.525-.762-3.376-.047-.369-.291-1.607-.663-1.642-.324-.03-.595,1-.663,1.518-2.012-2.425-5.494-4.857-1.691.175l-.007,0c-.359-.409-2.892-3.493-3.388-2.786-.364.517,1.794,3,2.378,3.674l-.016.017c-.649-.643-2.507-2.685-2.88-2.209-.491.626,1.986,3.186,1.986,3.186s-2-2.172-2.245-1.267c-.135.51,1.09,1.759,1.864,2.526h0c.162.161.3.3.411.408a1.576,1.576,0,0,0,.261.215,14.169,14.169,0,0,0,2.433,1.775,1.843,1.843,0,0,0,2.272-.064,2.72,2.72,0,0,0,.711-2.154" transform="translate(-1220.945 -805.988)" fill="#ffb27d"/>
            <path id="Trazado_887345" data-name="Trazado 887345" d="M1701.01,1467.53s.069,1.944-1.255,2.568-5.229,1.339-3.682,2.5c.888.669,4.836-.017,5.958-.081s2.206.351,3-.423c.869-.851-.295-4.779-.295-4.779a4.587,4.587,0,0,1-1.811.57,3.682,3.682,0,0,1-1.911-.36" transform="translate(-1334.182 -1154.48)" fill="#331832"/>
            <path id="Trazado_887346" data-name="Trazado 887346" d="M1812.111,1423.278s2.883,7.657,2.3,9.029-3.036,4.582-1.126,4.389c1.1-.111,3.6-3.328,4.4-4.144s1.874-1.251,1.962-2.368c.1-1.229-3.726-5.15-3.726-5.15s-.37-5.583-1-4.965c-.913.891-2.8,3.209-2.8,3.209" transform="translate(-1425.76 -1117.265)" fill="#331832"/>
            <path id="Trazado_887347" data-name="Trazado 887347" d="M1724.438,1022.081s.224-3.352,3.279-3.074,1.968,2.345,2.408,3.009-1.246,2.055-2.729,2-2.957-1.935-2.957-1.935" transform="translate(-1356.78 -801.736)" fill="#ef8062"/>
            <path id="Trazado_887348" data-name="Trazado 887348" d="M1671.789,1233.257c.548-6.162,13.206.97,13.206.97s4.43,42.467,1.835,48.353c-.512,1.162-2.6,1.095-3.582.962-6.912-.936-8.15-22.138-9.746-31.48-.8-4.687-2.044-15.078-1.713-18.805" transform="translate(-1315.313 -968.347)" fill="#007cbe"/>
            <path id="Trazado_887349" data-name="Trazado 887349" d="M1695.215,1224.965c-.4,1.507-6.242,2.965-13.157,1.2s-12.3-3.6-11.9-5.1,6.431-2.12,13.345-.355,12.112,2.751,11.713,4.258" transform="translate(-1314.055 -959.599)" fill="#331832"/>
            <path id="Trazado_887350" data-name="Trazado 887350" d="M1673.462,1104.237a21.856,21.856,0,0,1-3.228-1.936,12.821,12.821,0,0,1,11.5-5.652c1.065.083,5.861,1.04,6.89,1.246,13.2,2.649,6.729,29.69,6.668,30.276a45.023,45.023,0,0,0-25.058-3.9,72.748,72.748,0,0,1,3.228-20.032" transform="translate(-1314.132 -862.806)" fill="#4a6572"/>
            <path id="Trazado_887351" data-name="Trazado 887351" d="M1694.109,1232.717s-11.6-3.911-21.274-3.541a.866.866,0,0,0-.842.779s-.27,3.466-.21,4.621c.131,2.556,23.073,2.142,23.073,2.142Z" transform="translate(-1315.344 -967.09)" fill="#007cbe"/>
            <path id="Trazado_887352" data-name="Trazado 887352" d="M1728.608,1065.551a5.119,5.119,0,0,1-4.251,1.648c-2.6-.059-1.331-2.623-1.331-2.623a.943.943,0,0,0,1.063-.92l.081-.756.04-.375.13-1.2.116-1.075.476-4.409,1.1,4.525.187.768.643,2.653a2.446,2.446,0,0,0,1.734,1.756l.013,0" transform="translate(-1355.424 -830.733)" fill="#ffb27d"/>
            <path id="Trazado_887353" data-name="Trazado 887353" d="M1731.735,1080.674a3.072,3.072,0,0,1-2.007,1.387l.13-1.2c.756-.127,1.876-.19,1.876-.19" transform="translate(-1360.942 -850.268)" fill="#331832"/>
            <path id="Trazado_887354" data-name="Trazado 887354" d="M1745.776,1062.328a4.788,4.788,0,0,0-.7,2.115c-.34,2.236-3.065,2.006-3.4,1.171-.042-.1,1.612-3.421,1.612-3.421l.948-.092Z" transform="translate(-1370.34 -835.655)" fill="#ef8062"/>
            <path id="Trazado_887355" data-name="Trazado 887355" d="M1714.7,1038.787c1.19-2.572,3.907-3.867,6.069-2.893s2.95,3.848,1.76,6.42-3.907,3.867-6.069,2.893-2.95-3.848-1.76-6.42" transform="translate(-1348.684 -814.781)" fill="#ffb27d"/>
            <path id="Trazado_887356" data-name="Trazado 887356" d="M1722,1032.99c.043.192-1.682,2.31,2.656,4.955s4.064-3.984.725-5.636c-4.823-2.385-7.007.473-7.066,1.829s3.685-1.148,3.685-1.148" transform="translate(-1351.958 -811.492)" fill="#ef8062"/>
            <path id="Trazado_887357" data-name="Trazado 887357" d="M1745.261,1057.482s1,2.759-.56,4.42c0,0,1.623-.658,1.845-1.076a17.646,17.646,0,0,0,.65-2.1Z" transform="translate(-1372.722 -832.021)" fill="#ef8062"/>
            <path id="Trazado_887358" data-name="Trazado 887358" d="M1744.094,1062.409a1.08,1.08,0,0,1-1.428-.53,1.123,1.123,0,0,1,.862-1.285,1.08,1.08,0,0,1,1.428.531,1.123,1.123,0,0,1-.862,1.285" transform="translate(-1371.094 -834.409)" fill="#ffb27d"/>
            <path id="Trazado_887359" data-name="Trazado 887359" d="M1733.105,1057.723a.1.1,0,0,1-.036-.078.094.094,0,0,1,.1-.089,1.079,1.079,0,0,1,1.038.767.094.094,0,0,1-.059.12.11.11,0,0,1-.125-.06,1.709,1.709,0,0,0-.862-.638.1.1,0,0,1-.058-.022" transform="translate(-1363.571 -832.079)" fill="#080435"/>
            <path id="Trazado_887360" data-name="Trazado 887360" d="M1732.252,1062.367a.372.372,0,0,1-.442.259.365.365,0,0,1-.124-.493.372.372,0,0,1,.442-.259.365.365,0,0,1,.124.493" transform="translate(-1362.449 -835.462)" fill="#080435"/>
            <path id="Trazado_887361" data-name="Trazado 887361" d="M1717.1,1052.772a.1.1,0,0,1-.063-.059.092.092,0,0,1,.058-.121,1.085,1.085,0,0,1,1.253.33.093.093,0,0,1-.007.134.11.11,0,0,1-.138-.01,1.725,1.725,0,0,0-1.041-.275.1.1,0,0,1-.062,0" transform="translate(-1350.954 -828.112)" fill="#080435"/>
            <path id="Trazado_887362" data-name="Trazado 887362" d="M1718.574,1057.24c0,.226-.136.407-.3.405s-.306-.188-.307-.414.135-.408.3-.405.306.188.307.414" transform="translate(-1351.685 -831.505)" fill="#080435"/>
            <g id="Grupo_1112726" data-name="Grupo 1112726" transform="translate(368.341 224.289)" opacity="0.3">
              <g id="Grupo_1112725" data-name="Grupo 1112725">
                <g id="Grupo_1112724" data-name="Grupo 1112724" clip-path="url(#clip-path-7)">
                  <path id="Trazado_887363" data-name="Trazado 887363" d="M1731.124,1054.133a2.67,2.67,0,0,1-2.01,2.442c-.957.083-1.608-.877-1.454-2.142a2.669,2.669,0,0,1,2.01-2.442c.956-.083,1.607.877,1.454,2.142" transform="translate(-1727.638 -1051.986)" fill="#fff"/>
                </g>
              </g>
            </g>
            <g id="Grupo_1112729" data-name="Grupo 1112729" transform="translate(364.425 223.24)" opacity="0.3">
              <g id="Grupo_1112728" data-name="Grupo 1112728">
                <g id="Grupo_1112727" data-name="Grupo 1112727" clip-path="url(#clip-path-8)">
                  <path id="Trazado_887364" data-name="Trazado 887364" d="M1712.447,1049.188c-.293,1.216-1.223,2.237-2.076,2.281s-1.307-.907-1.014-2.123,1.223-2.237,2.076-2.281,1.307.907,1.014,2.123" transform="translate(-1709.268 -1047.063)" fill="#fff"/>
                </g>
              </g>
            </g>
            <path id="Trazado_887365" data-name="Trazado 887365" d="M1730.263,1053.355a3.305,3.305,0,0,0,.12-.49c.01-.058.019-.116.026-.174.011-.1.019-.194.021-.291a2.2,2.2,0,0,0-.562-1.636,1.368,1.368,0,0,0-1.109-.411,1.562,1.562,0,0,0-.259.043,3.008,3.008,0,0,0-1.776,1.87,3.292,3.292,0,0,0-.157.694,3.109,3.109,0,0,0-.006.664,2.042,2.042,0,0,0,.547,1.263,1.459,1.459,0,0,0,.415.292,1.369,1.369,0,0,0,.694.119,1.687,1.687,0,0,0,.6-.163,2.777,2.777,0,0,0,1.212-1.225c.032-.055.061-.115.089-.174a3.425,3.425,0,0,0,.15-.381m-3.347.977a2.205,2.205,0,0,1-.193-.721,2.8,2.8,0,0,1,0-.632,3.3,3.3,0,0,1,.138-.63,2.865,2.865,0,0,1,.106-.282,2.5,2.5,0,0,1,1.609-1.528,1.264,1.264,0,0,1,.194-.03,1.211,1.211,0,0,1,.977.362,1.725,1.725,0,0,1,.427.774,2.268,2.268,0,0,1,.071.389c0,.008,0,.014,0,.022a.045.045,0,0,1,0,.012,1.673,1.673,0,0,1,.011.212,2.76,2.76,0,0,1-.019.39,3.1,3.1,0,0,1-.078.423c-.023.093-.051.184-.082.273s-.07.187-.11.276v0a2.706,2.706,0,0,1-1.163,1.311,1.556,1.556,0,0,1-.613.184,1.246,1.246,0,0,1-.622-.108,1.229,1.229,0,0,1-.356-.254,1.546,1.546,0,0,1-.3-.438.028.028,0,0,0,0-.008" transform="translate(-1358.438 -826.407)" fill="#331832"/>
            <path id="Trazado_887366" data-name="Trazado 887366" d="M1711.892,1048.527c.025-.063.047-.125.069-.189a.517.517,0,0,0-.062.007,3.642,3.642,0,0,1-.424.946.005.005,0,0,1,0,0c.022-.031.042-.061.063-.093,0,0,.007-.011.009-.015.025-.036.049-.075.071-.114.034-.057.069-.115.1-.175s.062-.12.091-.183.053-.119.077-.18m0,0c.025-.063.047-.125.069-.189a.517.517,0,0,0-.062.007,3.642,3.642,0,0,1-.424.946.005.005,0,0,1,0,0c.022-.031.042-.061.063-.093,0,0,.007-.011.009-.015.025-.036.049-.075.071-.114.034-.057.069-.115.1-.175s.062-.12.091-.183.053-.119.077-.18m0,0c.025-.063.047-.125.069-.189a.517.517,0,0,0-.062.007,3.642,3.642,0,0,1-.424.946.005.005,0,0,1,0,0c.022-.031.042-.061.063-.093,0,0,.007-.011.009-.015.025-.036.049-.075.071-.114.034-.057.069-.115.1-.175s.062-.12.091-.183.053-.119.077-.18m0,0c.025-.063.047-.125.069-.189a.517.517,0,0,0-.062.007,3.642,3.642,0,0,1-.424.946.005.005,0,0,1,0,0c.022-.031.042-.061.063-.093,0,0,.007-.011.009-.015.025-.036.049-.075.071-.114.034-.057.069-.115.1-.175s.062-.12.091-.183.053-.119.077-.18m0,0c.025-.063.047-.125.069-.189a.517.517,0,0,0-.062.007,3.642,3.642,0,0,1-.424.946.005.005,0,0,1,0,0c.022-.031.042-.061.063-.093,0,0,.007-.011.009-.015.025-.036.049-.075.071-.114.034-.057.069-.115.1-.175s.062-.12.091-.183.053-.119.077-.18m0,0c.025-.063.047-.125.069-.189a.517.517,0,0,0-.062.007,3.642,3.642,0,0,1-.424.946.005.005,0,0,1,0,0c.022-.031.042-.061.063-.093,0,0,.007-.011.009-.015.025-.036.049-.075.071-.114.034-.057.069-.115.1-.175s.062-.12.091-.183.053-.119.077-.18m0,0c.025-.063.047-.125.069-.189a.517.517,0,0,0-.062.007,3.642,3.642,0,0,1-.424.946.005.005,0,0,1,0,0c.022-.031.042-.061.063-.093,0,0,.007-.011.009-.015.025-.036.049-.075.071-.114.034-.057.069-.115.1-.175s.062-.12.091-.183.053-.119.077-.18m0,0c.025-.063.047-.125.069-.189a.517.517,0,0,0-.062.007,3.642,3.642,0,0,1-.424.946.005.005,0,0,1,0,0c.022-.031.042-.061.063-.093,0,0,.007-.011.009-.015.025-.036.049-.075.071-.114.034-.057.069-.115.1-.175s.062-.12.091-.183.053-.119.077-.18m.177-.193c.028-.095.05-.192.069-.289.01-.052.018-.1.027-.158a2.347,2.347,0,0,0-.456-1.963,1.181,1.181,0,0,0-.315-.23,1.044,1.044,0,0,0-.292-.094,1.089,1.089,0,0,0-.225-.012h0c-.018,0-.039,0-.058,0-.916.081-1.821,1.224-2.014,2.551a2.348,2.348,0,0,0,.457,1.963,1.108,1.108,0,0,0,.344.245,1.064,1.064,0,0,0,.477.092h.006c.021,0,.041,0,.062,0a1.667,1.667,0,0,0,.957-.464h0a3.241,3.241,0,0,0,.742-1.039,3.588,3.588,0,0,0,.217-.6m-.618,1a2.573,2.573,0,0,1-.621.668,1.4,1.4,0,0,1-.593.267s0,0,0,0,0,0,0,0a.058.058,0,0,1-.022,0,.5.5,0,0,1-.076.011.649.649,0,0,1-.089,0,.9.9,0,0,1-.667-.286,2.176,2.176,0,0,1-.419-1.8s0,0,0-.006,0-.006,0-.007l0,0c0-.006,0-.011,0-.017.185-1.261,1.025-2.345,1.873-2.42a.972.972,0,0,1,.16,0,.868.868,0,0,1,.3.075.967.967,0,0,1,.294.208.209.209,0,0,1,.02.023,1.617,1.617,0,0,1,.369.747,2.937,2.937,0,0,1,.025,1.061c-.01.06-.019.12-.031.179-.021.1-.046.2-.074.3a3.642,3.642,0,0,1-.424.946.359.359,0,0,0-.026.037m.442-.8c.025-.063.047-.125.069-.189a.517.517,0,0,0-.062.007,3.642,3.642,0,0,1-.424.946.005.005,0,0,1,0,0c.022-.031.042-.061.063-.093,0,0,.007-.011.009-.015.025-.036.049-.075.071-.114.034-.057.069-.115.1-.175s.062-.12.091-.183.053-.119.077-.18m0,0c.025-.063.047-.125.069-.189a.517.517,0,0,0-.062.007,3.642,3.642,0,0,1-.424.946.005.005,0,0,1,0,0c.022-.031.042-.061.063-.093,0,0,.007-.011.009-.015.025-.036.049-.075.071-.114.034-.057.069-.115.1-.175s.062-.12.091-.183.053-.119.077-.18m0,0c.025-.063.047-.125.069-.189a.517.517,0,0,0-.062.007,3.642,3.642,0,0,1-.424.946.005.005,0,0,1,0,0c.022-.031.042-.061.063-.093,0,0,.007-.011.009-.015.025-.036.049-.075.071-.114.034-.057.069-.115.1-.175s.062-.12.091-.183.053-.119.077-.18m0,0c.025-.063.047-.125.069-.189a.517.517,0,0,0-.062.007,3.642,3.642,0,0,1-.424.946.005.005,0,0,1,0,0c.022-.031.042-.061.063-.093,0,0,.007-.011.009-.015.025-.036.049-.075.071-.114.034-.057.069-.115.1-.175s.062-.12.091-.183.053-.119.077-.18m0,0c.025-.063.047-.125.069-.189a.517.517,0,0,0-.062.007,3.642,3.642,0,0,1-.424.946.005.005,0,0,1,0,0c.022-.031.042-.061.063-.093,0,0,.007-.011.009-.015.025-.036.049-.075.071-.114.034-.057.069-.115.1-.175s.062-.12.091-.183.053-.119.077-.18m0,0c.025-.063.047-.125.069-.189a.517.517,0,0,0-.062.007,3.642,3.642,0,0,1-.424.946.005.005,0,0,1,0,0c.022-.031.042-.061.063-.093,0,0,.007-.011.009-.015.025-.036.049-.075.071-.114.034-.057.069-.115.1-.175s.062-.12.091-.183.053-.119.077-.18m0,0c.025-.063.047-.125.069-.189a.517.517,0,0,0-.062.007,3.642,3.642,0,0,1-.424.946.005.005,0,0,1,0,0c.022-.031.042-.061.063-.093,0,0,.007-.011.009-.015.025-.036.049-.075.071-.114.034-.057.069-.115.1-.175s.062-.12.091-.183.053-.119.077-.18" transform="translate(-1344.448 -822.662)" fill="#331832"/>
            <path id="Trazado_887367" data-name="Trazado 887367" d="M1722.618,1057.39a.151.151,0,0,1-.085-.1.144.144,0,0,1,.11-.176,1.7,1.7,0,0,1,1.314.363.145.145,0,0,1,.03.206.153.153,0,0,1-.212.026,1.4,1.4,0,0,0-1.059-.309.154.154,0,0,1-.1-.01" transform="translate(-1355.277 -831.716)" fill="#331832"/>
            <path id="Trazado_887368" data-name="Trazado 887368" d="M1754.684,1035.5s1.77-2.86,4.384-1.265,1.349,2.85.757,3.72a2.9,2.9,0,0,1-3.388.56c-1.307-.7-1.753-3.015-1.753-3.015" transform="translate(-1380.577 -813.35)" fill="#ef8062"/>
            <path id="Trazado_887369" data-name="Trazado 887369" d="M1742.972,1083.526a.092.092,0,0,1-.077-.042,4.105,4.105,0,0,0-1.684-1.34.092.092,0,0,1-.049-.12.087.087,0,0,1,.121-.05,4.215,4.215,0,0,1,1.767,1.41.093.093,0,0,1-.026.128.1.1,0,0,1-.052.015" transform="translate(-1369.932 -851.284)" fill="#ef8062"/>
            <path id="Trazado_887370" data-name="Trazado 887370" d="M1721.147,1071.346a1.478,1.478,0,0,1-1.387-.618.052.052,0,0,1,.024-.068.054.054,0,0,1,.066.023c.346.725,1.669.548,1.678.54a.059.059,0,0,1,.056.043.051.051,0,0,1-.041.057,3.212,3.212,0,0,1-.4.023" transform="translate(-1353.095 -842.388)" fill="#020202"/>
            <path id="Trazado_887371" data-name="Trazado 887371" d="M1717.339,1096.339s-1.14,2.505,1.331,2.623c0,0-1.327,1.228-2.224.7s-.017-.954-.4-1.3-.8-.6-.4-.982.025-1.082.025-1.082a3.624,3.624,0,0,1,1.668.038" transform="translate(-1349.737 -862.496)" fill="#daebe8"/>
            <path id="Trazado_887372" data-name="Trazado 887372" d="M1716.583,1124.761a.389.389,0,1,0-.4.367.383.383,0,0,0,.4-.367" transform="translate(-1349.988 -884.653)" fill="#daebe8"/>
            <path id="Trazado_887373" data-name="Trazado 887373" d="M1707.646,1181.178a.389.389,0,1,0-.4.367.382.382,0,0,0,.4-.367" transform="translate(-1342.957 -929.042)" fill="#daebe8"/>
            <path id="Trazado_887374" data-name="Trazado 887374" d="M1708.23,1155.536a.389.389,0,1,0-.4.367.382.382,0,0,0,.4-.367" transform="translate(-1343.416 -908.867)" fill="#daebe8"/>
            <path id="Trazado_887375" data-name="Trazado 887375" d="M1595.877,1070a69.153,69.153,0,0,0-1.753,15.328l9.761-25.435a51.963,51.963,0,0,1-13.1-1.578c-4.457-1.109-12.406-7.844-13.238-8.327-.9-.521-4.1,3.332-4.1,3.332-.716,1.254,10.512,13.828,22.434,16.679" transform="translate(-1237.952 -826.085)" fill="#4a6572"/>
            <path id="Trazado_887376" data-name="Trazado 887376" d="M1750.395,1103.113s8.508.194,20.325,24.863a1.49,1.49,0,0,1-.624,1.954l-2.746,1.463a2.567,2.567,0,0,1-3.374-.894c-2.491-3.849-8.192-12.078-12.857-14.512-6.16-3.213-.724-12.875-.724-12.875" transform="translate(-1375.46 -867.923)" fill="#4a6572"/>
            <path id="Trazado_887377" data-name="Trazado 887377" d="M1734.35,1101.368l1.751.372a.884.884,0,0,1-.576,1.153c-.868.261-1.04.257-1.331.9s-1.364.642-1.736.409-1.052.593-1.664.579-.949-1.071-.695-1.761a11.4,11.4,0,0,0,4.251-1.648" transform="translate(-1361.166 -866.55)" fill="#daebe8"/>
            <path id="Trazado_887378" data-name="Trazado 887378" d="M1777.813,1174.691a.06.06,0,0,1-.055-.035,15.793,15.793,0,0,0-4.618-5.187.061.061,0,0,1-.014-.085.061.061,0,0,1,.084-.015,15.994,15.994,0,0,1,4.658,5.236.061.061,0,0,1-.03.08.086.086,0,0,1-.025,0" transform="translate(-1395.079 -920.045)" fill="#331832"/>
            <path id="Trazado_887379" data-name="Trazado 887379" d="M1678.567,1136.717a.04.04,0,0,1-.017,0,.059.059,0,0,1-.04-.075l.6-1.938a.067.067,0,0,1,.075-.04.059.059,0,0,1,.04.075l-.6,1.938a.06.06,0,0,1-.058.042" transform="translate(-1320.641 -892.744)" fill="#331832"/>
            <path id="Trazado_887380" data-name="Trazado 887380" d="M1705.455,1244.656s7.49,33.239,20.653,45.126a4.1,4.1,0,0,0,4.63.606l2.41-1.229a3.44,3.44,0,0,0,1.481-4.575c-3.409-6.918-11.5-24.434-14.019-39.669Z" transform="translate(-1341.844 -979.289)" fill="#007cbe"/>
            <path id="Trazado_887381" data-name="Trazado 887381" d="M1708.1,1286.381a140,140,0,0,1-4.49-13.9,10.029,10.029,0,0,0-5.045-6.764l.069-.155a10.22,10.22,0,0,1,5.139,6.884,140.131,140.131,0,0,0,4.485,13.871Z" transform="translate(-1336.423 -995.74)" fill="#331832"/>
            <path id="Trazado_887382" data-name="Trazado 887382" d="M873.193,364.79a6.158,6.158,0,0,0-6.456-2.736c-4.6.7-7.777,5.748-11.35,2.717s-7.342-2.9-9.539-.141.595,6.143-5.145,5.182-5.912,4.107-1.773,9.025,16.17,7.321,21.487,4.9,11.344-5.774,13.4-8.137,2.876-8.73-.629-10.811" transform="translate(-657.82 -284.788)" fill="#331832"/>
            <path id="Trazado_887383" data-name="Trazado 887383" d="M918.289,361.954c-.008-.039-.863-3.95-4.417-4.066-2.466-.076-4.575,1.159-6.427,2.253-1.777,1.05-3.311,1.956-4.575,1.191-3.15-1.908-5.443-2.649-8.529-1.1l-.112-.223c3.505-1.754,6.148-.474,8.77,1.114,1.135.688,2.541-.142,4.319-1.192,1.88-1.111,4.01-2.373,6.562-2.287,3.751.122,4.644,4.223,4.652,4.265Z" transform="translate(-703.576 -281.384)" fill="#331832"/>
            <path id="Trazado_887384" data-name="Trazado 887384" d="M913.771,382a7.944,7.944,0,0,1-4.831-2.173.043.043,0,0,1,0-.06.049.049,0,0,1,.058,0c2.954,2.466,5.732,2.836,7.436.993a6.04,6.04,0,0,1,6.512-1.913,3.247,3.247,0,0,0,3.532-.605.042.042,0,0,1,.059,0,.04.04,0,0,1,0,.058,3.27,3.27,0,0,1-2.252.905,3.623,3.623,0,0,1-1.37-.28,5.961,5.961,0,0,0-6.422,1.893,3.575,3.575,0,0,1-2.717,1.19" transform="translate(-715.137 -297.587)" fill="#331832"/>
            <path id="Trazado_887385" data-name="Trazado 887385" d="M873.791,387.328a32.843,32.843,0,0,1-4.648-8.837l4.443-.8c2.437,6.3,9.495,11.073,15.606,10.422l4.965,7.08c-3.52,1.32-14.6-.668-20.366-7.864" transform="translate(-683.838 -297.164)" fill="#ffb27d"/>
            <path id="Trazado_887386" data-name="Trazado 887386" d="M867.272,357.984c.172-.717.19-2.238.348-2.959.068-.313.226-1.387-.077-1.527-.263-.122-.792.634-1,1.028-.978-2.566-3.187-5.578-1.469-.366l-.007,0c-.181-.438-1.4-3.693-2.026-3.271-.456.309.629,2.962.92,3.685l-.018.009c-.356-.715-1.317-2.924-1.769-2.651-.594.359.734,3.173.734,3.173s-1.046-2.358-1.511-1.7c-.262.372.4,1.75.824,2.6h0c.089.179.168.335.225.453a1.4,1.4,0,0,0,.155.252,12.6,12.6,0,0,0,1.522,2.166,1.686,1.686,0,0,0,1.923.63,2.291,2.291,0,0,0,1.225-1.528" transform="translate(-677.697 -276.049)" fill="#ffb27d"/>
            <path id="Trazado_887387" data-name="Trazado 887387" d="M872.273,684.508s.1,3.864-.448,4.953-2.747,3.53-1.136,3.552c.924.013,3.164-2.43,3.868-3.035s1.706-.857,1.749-1.787c.021-.442-.728-1.063-1.015-1.839a13.247,13.247,0,0,1-.642-2.833s-1.165-1.306-1.724-.851a2.206,2.206,0,0,0-.653,1.839" transform="translate(-684.598 -537.044)" fill="#331832"/>
            <path id="Trazado_887388" data-name="Trazado 887388" d="M946.658,526.942c-.422,1.416-5.825,1.055-12.068-.807s-10.961-4.518-10.539-5.934,5.825-1.055,12.068.807,10.961,4.518,10.539,5.934" transform="translate(-727.018 -408.61)" fill="#331832"/>
            <path id="Trazado_887389" data-name="Trazado 887389" d="M753.135,598.009s-3.572,1.307-4.744,1.126-4.073-1.5-3.635.035c.252.881,3.167,2.24,3.931,2.718s1.285,1.35,2.164,1.1c.417-.119.784-1.024,1.424-1.539a13.2,13.2,0,0,1,2.457-1.5s.885-1.514.3-1.9a2.106,2.106,0,0,0-1.9-.043" transform="translate(-585.936 -470.339)" fill="#331832"/>
            <path id="Trazado_887390" data-name="Trazado 887390" d="M942.985,432.346s-1.39-4.756-7.332-4.915c-2.808-.075-5.456-.189-7.136,4.623a94.856,94.856,0,0,0-4.369,15.82,29.755,29.755,0,0,1,22.607,6.741c1.312-4.454,1.232-14.441.339-21.273-.279-2.134-3.625.53-4.109-1" transform="translate(-727.115 -336.284)" fill="#007cbe"/>
            <path id="Trazado_887391" data-name="Trazado 887391" d="M960.961,427.872l-1.358,5.516s-17.23,2.147-18.633-.393c-2.091-3.784-.978-8.676-.978-8.676a72.546,72.546,0,0,0,7.518.145c2.307-.13,2.92-.394,5.607.426,6.172,1.884,7.843,2.982,7.843,2.982" transform="translate(-739.349 -333.85)" fill="#007cbe"/>
            <path id="Trazado_887392" data-name="Trazado 887392" d="M1018.906,440.124c.435.634-.175,2.861-1.491,4.406-1.373,1.613-2.743,2.811-3.632,2.241-1.252-.8.427-3.855,1.773-5.232,1.756-1.8,3.04-1.868,3.35-1.416" transform="translate(-797.293 -346.102)" fill="#331832"/>
            <path id="Trazado_887393" data-name="Trazado 887393" d="M975.251,400.528c-.78-.382-.049-2.014-.049-2.014.677-.062,1.12-.146,1.234-.659l.139-.631.068-.313.221-1,.2-.9.813-3.679.471,3.925.08.667s.1,2.434,1.575,2.8c.052-.027-3.055,2.632-4.751,1.8" transform="translate(-767.04 -307.901)" fill="#ffb27d"/>
            <path id="Trazado_887394" data-name="Trazado 887394" d="M984.892,412.768a2.548,2.548,0,0,1-1.783.983l.221-1c.634-.036,1.562.016,1.562.016" transform="translate(-773.505 -324.74)" fill="#f09962"/>
            <path id="Trazado_887395" data-name="Trazado 887395" d="M997.894,394.269a4.173,4.173,0,0,0-.336,1.863c-.028,1.922-2.29,2.053-2.661,1.391-.046-.082.939-3.071.939-3.071l.767-.19Z" transform="translate(-782.779 -310.203)" fill="#331832"/>
            <path id="Trazado_887396" data-name="Trazado 887396" d="M970.5,376.927c.688-2.306,2.772-3.719,4.655-3.157s2.852,2.887,2.164,5.193-2.772,3.719-4.655,3.157-2.852-2.887-2.164-5.192" transform="translate(-763.412 -293.983)" fill="#ffb27d"/>
            <path id="Trazado_887397" data-name="Trazado 887397" d="M985.566,392.953a.081.081,0,0,1-.038-.061.08.08,0,0,1,.073-.087.881.881,0,0,1,.938.522.08.08,0,0,1-.035.108.089.089,0,0,1-.109-.036,1.393,1.393,0,0,0-.778-.434.082.082,0,0,1-.05-.012" transform="translate(-775.408 -309.049)" fill="#080435"/>
            <path id="Trazado_887398" data-name="Trazado 887398" d="M986.522,397.014c-.049.185-.2.307-.334.271a.312.312,0,0,1-.157-.4c.049-.185.2-.306.334-.271a.312.312,0,0,1,.157.4" transform="translate(-775.793 -312.048)" fill="#080435"/>
            <path id="Trazado_887399" data-name="Trazado 887399" d="M971.911,390.528a.081.081,0,0,1-.059-.042.08.08,0,0,1,.034-.109.881.881,0,0,1,1.066.129.081.081,0,0,1,.009.113.089.089,0,0,1-.114.008,1.4,1.4,0,0,0-.885-.107.083.083,0,0,1-.051.008" transform="translate(-764.642 -307.049)" fill="#080435"/>
            <path id="Trazado_887400" data-name="Trazado 887400" d="M975.007,393.956c.026.19-.066.359-.2.377s-.272-.122-.3-.312.065-.359.2-.377.272.121.3.312" transform="translate(-766.732 -309.715)" fill="#080435"/>
            <path id="Trazado_887401" data-name="Trazado 887401" d="M975.566,403.125a1.267,1.267,0,0,0,.776,1.006,1.087,1.087,0,0,0,1.242-.558,4.592,4.592,0,0,1-2.018-.449" transform="translate(-767.571 -317.176)" fill="#fff"/>
            <path id="Trazado_887402" data-name="Trazado 887402" d="M883.337,532.526s-13.461,8.168-16.062,14.108-2.811,17.77-.206,19.323,5.2,1.65,6.641-3.541,1.575-12.207,6.362-14.165,18.552-8.77,16.857-11.77-11.522-5.276-13.592-3.955" transform="translate(-680.748 -418.686)" fill="#3b515b"/>
            <path id="Trazado_887403" data-name="Trazado 887403" d="M811.557,525.154s-14.982,2.325-19.079,4.717-12.163,7.924-12.007,10.63,2.851,4.124,5.229,3.66,11.926-6.52,15.326-7.335a141.991,141.991,0,0,1,19.314-2.909l1.981-6.837a29.43,29.43,0,0,0-10.763-1.925" transform="translate(-614.069 -413.186)" fill="#3b515b"/>
            <path id="Trazado_887404" data-name="Trazado 887404" d="M890.97,555.864l-.12-.115c1.552-1.648,7.438-6.122,7.5-6.167l.1.13c-.059.045-5.935,4.511-7.478,6.152" transform="translate(-700.917 -432.408)" fill="#331832"/>
            <path id="Trazado_887405" data-name="Trazado 887405" d="M971.195,371.664a2,2,0,0,1-2.313,1.378,3.9,3.9,0,0,0-3.2,1.6l.971-5,4.575-.363,2.549,1.13.345,4.348-.391,1.964-.416-1.66s-.887-3.039-2.123-3.392" transform="translate(-759.795 -290.542)" fill="#331832"/>
            <path id="Trazado_887406" data-name="Trazado 887406" d="M997.813,396.346a.879.879,0,0,1-1.231-.276.966.966,0,0,1,.563-1.184.879.879,0,0,1,1.231.276.966.966,0,0,1-.563,1.184" transform="translate(-784.058 -310.591)" fill="#ffb27d"/>
            <path id="Trazado_887407" data-name="Trazado 887407" d="M1028.34,459.86a32.86,32.86,0,0,1-2.533,9.658l-3.82-2.407c2.324-5.965.156-14.772-4.295-18.774a1.287,1.287,0,0,1-.2-1.478c.881-2.382,3.612-5.1,4.758-3.684,3.026,3.744,6.489,10.528,6.088,16.684" transform="translate(-800.451 -348.38)" fill="#ffb27d"/>
            <path id="Trazado_887408" data-name="Trazado 887408" d="M1032.179,551.016c-.61.413-1.65,1.524-2.253,1.95-.262.185-1.1.871-.974,1.179.112.267,1.012.067,1.431-.085-1.01,2.554-1.412,6.267.837,1.262l.006,0c-.162.446-1.456,3.673-.712,3.781.545.079,1.535-2.61,1.808-3.341l.019.006c-.22.768-1,3.047-.484,3.15.681.136,1.6-2.837,1.6-2.837s-.82,2.446-.031,2.274c.445-.1.886-1.561,1.148-2.477h0c.055-.192.1-.36.14-.487a1.406,1.406,0,0,0,.056-.291,12.62,12.62,0,0,0,.339-2.625,1.686,1.686,0,0,0-.994-1.763,2.291,2.291,0,0,0-1.935.3" transform="translate(-809.564 -433.208)" fill="#ffb27d"/>
            <g id="Grupo_1112732" data-name="Grupo 1112732" transform="translate(234.721 150.914)" opacity="0.6">
              <g id="Grupo_1112731" data-name="Grupo 1112731">
                <g id="Grupo_1112730" data-name="Grupo 1112730" clip-path="url(#clip-path-9)">
                  <path id="Trazado_887409" data-name="Trazado 887409" d="M1166.528,707.868c-34.683-1.3-64.24,30.194-65.562,60.041-.831,18.759,9.69,32.4,26.232,40.273,22.471,11.688,21.493,34,21.493,34l30.261,1.137c.9-20.272,21.583-33.419,24.227-35.019,12.638-7.4,21.148-20.938,23.753-44.03,3.35-29.7-25.722-55.1-60.405-56.4" transform="translate(-1100.92 -707.829)" fill="#fff"/>
                </g>
              </g>
            </g>
            <path id="Trazado_887410" data-name="Trazado 887410" d="M1333.924,1292.792s4.258,6.455-.391,12.389c-1.3,1.659-4.759,2.542-9.126,2.877-11.261.872-28.545-1.891-30.28-4.356-2.407-3.424-.957-7.255,1.819-8.078,0,0-3.723-3.165-2.541-6.885s3.223-4.383,3.223-4.383-2.85-1.772-2.9-6.773c-.02-1.978.894-4.144,3.8-5.722,4.437-2.412,13.518-3.451,31-.348,0,0,7.89,1.473,5.583,10.273,0,0,5.347,6.216-.19,11.006" transform="translate(-1017.254 -998.905)" fill="#657d55"/>
            <g id="Grupo_1112735" data-name="Grupo 1112735" transform="translate(254.004 164.457)" opacity="0.9">
              <g id="Grupo_1112734" data-name="Grupo 1112734">
                <g id="Grupo_1112733" data-name="Grupo 1112733" clip-path="url(#clip-path-10)">
                  <path id="Trazado_887411" data-name="Trazado 887411" d="M1232.438,785.75s-14.387,3.438-23.093,14.639-20.177,2.808-17.618-9.071,17.663-21.789,26.4-19.679,22.2,6.5,14.311,14.111" transform="translate(-1191.362 -771.353)" fill="#fff"/>
                </g>
              </g>
            </g>
            <path id="Trazado_887412" data-name="Trazado 887412" d="M1391.651,1368.129a.548.548,0,0,1-.258-.037,37.242,37.242,0,0,0-7.4-1.85,40.55,40.55,0,0,0-17.077.935.551.551,0,0,1-.3-1.06,41.669,41.669,0,0,1,17.582-.96,37.5,37.5,0,0,1,7.611,1.911.551.551,0,0,1-.153,1.06" transform="translate(-1074.928 -1073.692)" fill="#acab58"/>
            <path id="Trazado_887413" data-name="Trazado 887413" d="M1385.559,1316.593a.553.553,0,0,1-.205-.019,71.029,71.029,0,0,0-9.266-1.828c-4.807-.627-11.682-1-17.135.818a.551.551,0,0,1-.348-1.046c5.656-1.88,12.716-1.507,17.643-.862a72.151,72.151,0,0,1,9.41,1.86.551.551,0,0,1-.1,1.079" transform="translate(-1068.646 -1033.164)" fill="#acab58"/>
            <path id="Trazado_887414" data-name="Trazado 887414" d="M1324.406,1316.443c-11.261.872-28.545-1.891-30.28-4.356-2.407-3.424-.957-7.255,1.819-8.078,0,0-3.724-3.165-2.541-6.884s3.223-4.383,3.223-4.383-2.85-1.773-2.9-6.773c-.02-1.978.894-4.144,3.8-5.722l.007,0s-3.784,9.678,5.156,12.66a1.151,1.151,0,0,1,.3,1.936c-1.118,1.194.223,7.749,3.053,9.09s-.671,6.482,2.906,9.09c2.751,2.005,11.547,3.049,15.456,3.422" transform="translate(-1017.254 -1007.289)" fill="#87a771"/>
            <path id="Trazado_887415" data-name="Trazado 887415" d="M1285.161,878.713c-6.189-8.565-3.129-27,21.9-36.676,22.063-8.533,29.168-19.085,29.168-19.085s8.325,26.2-3.611,46.422c-14.566,24.686-39.444,20.422-47.454,9.339" transform="translate(-1008.999 -647.494)" fill="#a8d08d"/>
            <path id="Trazado_887416" data-name="Trazado 887416" d="M1299.134,894.037a.9.9,0,0,1-.884-.728c-.043-.218-3.964-21.866,22.97-38.441,21.915-13.491,26.359-35.212,26.4-35.43a.9.9,0,0,1,1.773.343c-.044.228-4.614,22.7-27.229,36.623-25.877,15.927-22.185,36.35-22.145,36.555a.9.9,0,0,1-.71,1.06.838.838,0,0,1-.176.017" transform="translate(-1021.282 -644.153)" fill="#acab58"/>
            <path id="Trazado_887417" data-name="Trazado 887417" d="M1346.288,971.492a.9.9,0,0,1-.864-.643c-2.815-9.32-.082-15.82.035-16.09a.9.9,0,0,1,1.658.715c-.026.06-2.577,6.2.035,14.854a.9.9,0,0,1-.6,1.125.951.951,0,0,1-.261.038" transform="translate(-1057.576 -750.773)" fill="#acab58"/>
            <path id="Trazado_887418" data-name="Trazado 887418" d="M1419.64,974.527c-2.583,0-4.371-.117-4.571-.133a.9.9,0,0,1-.838-.963.886.886,0,0,1,.963-.838c.132.005,13.675.9,21.29-2.375a.9.9,0,0,1,.712,1.66c-5.211,2.24-12.756,2.648-17.556,2.648" transform="translate(-1112.708 -763.303)" fill="#acab58"/>
            <path id="Trazado_887419" data-name="Trazado 887419" d="M1164.739,1107.234a6.173,6.173,0,0,1-2.485-.881c-2.523-1.55-4.215-4.826-5.487-10.622a28.266,28.266,0,0,0-2.313-5.917l5.686-3.05a34.565,34.565,0,0,1,2.929,7.584c.442,2.013.677-10.694,1.765-11.9.667-.737,3.355.475,3.355.475a64.2,64.2,0,0,1,2.132,10.081,49.524,49.524,0,0,1,.473,7.5,12.342,12.342,0,0,1-.49,3.3,4.524,4.524,0,0,1-3.158,3.257,6.43,6.43,0,0,1-2.407.169" transform="translate(-908.319 -851.48)" fill="#ffb27d"/>
            <path id="Trazado_887420" data-name="Trazado 887420" d="M1202.07,1192.031c-.7,0-1.247-.27-1.248-.618a.4.4,0,0,1,.129-.282,1.678,1.678,0,0,1,1.125-.34h.01c.7,0,1.247.27,1.248.618s-.552.623-1.254.623Zm.006-1.07a1.526,1.526,0,0,0-1.006.29.234.234,0,0,0-.08.162c0,.213.444.448,1.08.448h.01c.64,0,1.087-.237,1.087-.452s-.444-.448-1.08-.448Z" transform="translate(-944.801 -936.908)" fill="#e9845c"/>
            <path id="Trazado_887421" data-name="Trazado 887421" d="M1191.242,1145.745a.087.087,0,0,1-.084-.075,13.273,13.273,0,0,1,.881-6.362.077.077,0,0,1,.113-.04.084.084,0,0,1,.04.11,13.085,13.085,0,0,0-.867,6.272.084.084,0,0,1-.074.093s-.006,0-.01,0" transform="translate(-937.142 -896.36)" fill="#e9845c"/>
            <path id="Trazado_887422" data-name="Trazado 887422" d="M1205.616,1078.034s3.455.294,4.808-1.054,2.061-4.092,1.045-3.435a12.578,12.578,0,0,0-2.082,1.856s2.157-2.668,1.314-2.9-2.7,2.1-2.7,2.1,2.313-3.379,1.446-3.343-2.607,2.616-2.607,2.616,2.027-3.23,1.02-3.164-1.657,2.68-2.5,2.446-4.115-1.038-4.115,1.324Z" transform="translate(-945.138 -842.43)" fill="#ffb27d"/>
            <path id="Trazado_887423" data-name="Trazado 887423" d="M1234.014,1093.406a.07.07,0,0,1,0-.14c.554-.035,1.036-.845,1.04-.853a.069.069,0,0,1,.1-.025.071.071,0,0,1,.025.1c-.021.038-.525.883-1.153.923Z" transform="translate(-970.861 -859.476)" fill="#e9845c"/>
            <path id="Trazado_887424" data-name="Trazado 887424" d="M1226.536,1089.841a.068.068,0,0,1-.068-.052.068.068,0,0,1,.049-.085,2.384,2.384,0,0,0,1.267-1.028.071.071,0,1,1,.123.07,2.474,2.474,0,0,1-1.352,1.093.045.045,0,0,1-.019,0" transform="translate(-964.977 -856.536)" fill="#e9845c"/>
            <path id="Trazado_887425" data-name="Trazado 887425" d="M1221.482,1086.362h-.012a.069.069,0,0,1-.069-.072.069.069,0,0,1,.07-.068h.012c.585,0,1.15-.953,1.156-.963a.067.067,0,0,1,.1-.025.07.07,0,0,1,.026.1c-.025.042-.613,1.033-1.279,1.033" transform="translate(-960.992 -853.848)" fill="#e9845c"/>
            <path id="Trazado_887426" data-name="Trazado 887426" d="M1122.68,1471.437s.1,1.927,1.419,2.435,5.112.9,3.733,2.175c-.791.733-4.623.377-5.7.406s-2.078.526-2.9-.174c-.9-.77-.128-4.745-.128-4.745a4.309,4.309,0,0,0,1.78.415,3.433,3.433,0,0,0,1.8-.512" transform="translate(-880.263 -1157.719)" fill="#331832"/>
            <path id="Trazado_887427" data-name="Trazado 887427" d="M1124.038,1197.134s.495,8.693-1.832,25.458c-1.679,12.1-3.718,24.308-4.722,30.161a4.543,4.543,0,0,1-4.142,3.8l-1.114.075a3.813,3.813,0,0,1-4.013-4.024l1.754-39.456.345-12.98Z" transform="translate(-871.935 -941.898)" fill="#71a99e"/>
            <path id="Trazado_887428" data-name="Trazado 887428" d="M1064.733,1473s.1,1.927,1.42,2.435,5.112.9,3.733,2.175c-.791.733-4.623.376-5.7.405s-2.078.526-2.9-.174c-.9-.77-.128-4.745-.128-4.745a4.309,4.309,0,0,0,1.78.415,3.433,3.433,0,0,0,1.8-.512" transform="translate(-834.671 -1158.948)" fill="#331832"/>
            <path id="Trazado_887429" data-name="Trazado 887429" d="M1066.09,1198.7s.495,8.693-1.832,25.458c-1.68,12.1-3.718,24.308-4.722,30.16a4.543,4.543,0,0,1-4.142,3.8l-1.114.075a3.813,3.813,0,0,1-4.013-4.024l1.754-39.456.345-12.98Z" transform="translate(-826.341 -943.128)" fill="#71a99e"/>
            <path id="Trazado_887430" data-name="Trazado 887430" d="M1054.6,1233.752c.055,1.049,6.414,1.295,14.257.838s14.088-1.711,14.032-2.76-6.388-1.495-14.232-1.038-14.113,1.912-14.058,2.961" transform="translate(-829.751 -968.24)" fill="#331832"/>
            <path id="Trazado_887431" data-name="Trazado 887431" d="M1053.58,1084s1.24-5.539,11.48-5.871c14.768-.479,13.766,13.13,15.689,33.718,0,0-14.6-1.665-28.3,1.664,0,0-1.846-21.018,1.135-29.511" transform="translate(-827.615 -848.254)" fill="#73b3ce"/>
            <path id="Trazado_887432" data-name="Trazado 887432" d="M1042.021,1083.146l6.789,3.521s14.683.935,18.554.19a6.231,6.231,0,0,0,4.861-3.63,21.44,21.44,0,0,0-11.327-5.127c-.664-.091-1.352-.152-2.065-.179a20.231,20.231,0,0,0-3.556.167c-8.895,1.246-13.257,5.058-13.257,5.058" transform="translate(-819.857 -848.09)" fill="#73b3ce"/>
            <path id="Trazado_887433" data-name="Trazado 887433" d="M1100.012,1044.561l.706-2.516.205-.733,1.208-4.307.289,4.244.173,2.547.055.806c.037.547.374.653.794,1.119.17.188,1.255,1.33.074,1.891-1.472.7-4.285-.223-5.379-1.5.008,0,1.648-.738,1.876-1.551" transform="translate(-864.008 -815.91)" fill="#ffb27d"/>
            <path id="Trazado_887434" data-name="Trazado 887434" d="M1085.041,1238.033s-8.574-2.273-26.1,1.637l-.067,2.538,25.849.216Z" transform="translate(-833.119 -973.561)" fill="#71a99e"/>
            <path id="Trazado_887435" data-name="Trazado 887435" d="M1040.79,1101.432c-.546.818.333,2.38,1.962,3.49s3.391,1.347,3.937.529-.333-2.38-1.961-3.49-3.391-1.347-3.937-.529" transform="translate(-818.761 -866.218)" fill="#331832"/>
            <path id="Trazado_887436" data-name="Trazado 887436" d="M1013.643,1138.355c.433-6.8,1.508-16.925,4.534-24.689a23.212,23.212,0,0,1,1.554-3.462c.449-.794-.439-2.489-1.79-3.272-1.267-.735-3.2-.557-3.5-.168a20.532,20.532,0,0,0-1.843,3.908c-2.829,6.921-4.913,16.183-5.337,27.594Z" transform="translate(-792.507 -870.53)" fill="#ffb27d"/>
            <path id="Trazado_887437" data-name="Trazado 887437" d="M1123.169,1025.784a5.615,5.615,0,0,1,.469,2.283c0,1.325-1.937-1.532-1.937-1.532Z" transform="translate(-882.549 -807.081)" fill="#5c305d"/>
            <path id="Trazado_887438" data-name="Trazado 887438" d="M1104.264,1026.029c-.827-2.389-3.1-3.771-5.086-3.085s-2.918,3.179-2.091,5.569,3.1,3.771,5.086,3.085,2.918-3.179,2.091-5.569" transform="translate(-862.946 -804.708)" fill="#ffb27d"/>
            <path id="Trazado_887439" data-name="Trazado 887439" d="M1084.552,1016.824l1.762-.557a1.338,1.338,0,0,0,.851-.789c.25-.653.633-1.041,2.326-1.323a3.6,3.6,0,0,0,3.288-3.073,1.3,1.3,0,0,0-2.2-.969c-.957.761-.771-.661-1.827-.591-1.974.131-2.029,1.685-3.611,1.959-2.073.36-5.443,2.684-2.947,5.952Z" transform="translate(-850.768 -794.284)" fill="#331832"/>
            <path id="Trazado_887440" data-name="Trazado 887440" d="M1112.694,1042.33a.077.077,0,0,0-.062-.132.833.833,0,0,0-.768.673.078.078,0,0,0,.055.094.085.085,0,0,0,.094-.055,1.319,1.319,0,0,1,.637-.56.077.077,0,0,0,.044-.021" transform="translate(-874.808 -819.995)" fill="#080435"/>
            <path id="Trazado_887441" data-name="Trazado 887441" d="M1114.99,1046.1c.083.164.247.248.366.188a.3.3,0,0,0,.065-.406c-.083-.164-.247-.248-.365-.188a.3.3,0,0,0-.065.406" transform="translate(-877.231 -822.731)" fill="#080435"/>
            <path id="Trazado_887442" data-name="Trazado 887442" d="M1125.764,1038.309a.056.056,0,0,0,.033-.046.092.092,0,0,0-.05-.1.539.539,0,0,0-.75.245.091.091,0,0,0,.02.106.057.057,0,0,0,.086-.006.808.808,0,0,1,.623-.2.051.051,0,0,0,.039,0" transform="translate(-885.135 -816.771)" fill="#080435"/>
            <path id="Trazado_887443" data-name="Trazado 887443" d="M1126.147,1042.072c.014.183.134.323.267.313s.229-.167.215-.351-.134-.323-.266-.313-.229.167-.215.35" transform="translate(-886.046 -819.621)" fill="#080435"/>
            <path id="Trazado_887444" data-name="Trazado 887444" d="M1085.454,1041.643s1.794,2.428,3.6,2.262c0,0-1.846-1.752.9-3.615a9.773,9.773,0,0,0-4.5,1.353" transform="translate(-854.03 -818.494)" fill="#5c305d"/>
            <path id="Trazado_887445" data-name="Trazado 887445" d="M1096.5,1045.872a.743.743,0,1,0-.509-.984.786.786,0,0,0,.509.984" transform="translate(-862.286 -821.754)" fill="#ffb27d"/>
            <path id="Trazado_887446" data-name="Trazado 887446" d="M1102.584,1040.946s.222,2.3.768,2.632,3.515-.227,4.815-1.063l.009,0a3.092,3.092,0,0,1-1.709,3.568,4.36,4.36,0,0,1-1.466.3,3,3,0,0,1-2.665-1.015,8.757,8.757,0,0,1-.173-2.044,1.984,1.984,0,0,0-.765-1.439,2.928,2.928,0,0,1,1.186-.943" transform="translate(-866.575 -819.011)" fill="#5c305d"/>
            <path id="Trazado_887447" data-name="Trazado 887447" d="M1120.756,1010.268a.567.567,0,0,1-.543-.38l.1-.03a.453.453,0,0,0,.444.3.749.749,0,0,0,.173-.02l.023.1a.823.823,0,0,1-.2.025" transform="translate(-881.378 -794.551)" fill="#331832"/>
            <path id="Trazado_887448" data-name="Trazado 887448" d="M1121.851,1016.385l-.025-.045c.022-.013,2.147-1.145,2-2.333a.779.779,0,0,0-.305-.633c-.266-.145-.655.035-1,.19-.054.025-.105.05-.155.07l-.02-.045c.049-.023.1-.047.152-.07.357-.165.752-.348,1.044-.19a.828.828,0,0,1,.331.673c.15,1.22-1.939,2.336-2.028,2.383" transform="translate(-882.647 -797.234)" fill="#fff"/>
            <path id="Trazado_887449" data-name="Trazado 887449" d="M1095.52,1015.326l0-.05a3.755,3.755,0,0,0,3.087-1.63l.045.025a3.8,3.8,0,0,1-3.13,1.656" transform="translate(-861.948 -797.531)" fill="#fff"/>
            <path id="Trazado_887450" data-name="Trazado 887450" d="M1024.077,1172.973a.608.608,0,0,1-.094-.007.781.781,0,0,1-.52-.323,1.578,1.578,0,0,1-.246-1.145h0a1.688,1.688,0,0,1,.391-.893.827.827,0,0,1,.744-.315c.524.07.868.73.767,1.47-.1.693-.553,1.213-1.042,1.213m.178-2.436a.639.639,0,0,0-.46.238,1.42,1.42,0,0,0-.326.758h0a1.326,1.326,0,0,0,.2.958.552.552,0,0,0,.352.225.486.486,0,0,0,.059,0c.359,0,.713-.435.79-.993.081-.6-.166-1.133-.552-1.185a.478.478,0,0,0-.061,0" transform="translate(-805.048 -920.77)" fill="#ec865c"/>
            <path id="Trazado_887451" data-name="Trazado 887451" d="M1003.763,1245.12s5.474.164,5.66.56c.43.913.871,2.9,1.283,3.826.179.4.688,1.784.313,2.013-.326.2-1.254-.71-1.643-1.2-.542,2.833-2.1,6.742-1.9.7h-.01c-.128.6-.764,4.379-1.641,4.261-.668-.09-.181-3.644.018-4.637l-.027-.009c-.29.991-.777,3.965-1.537,3.79-.647-.149-.049-4.274-.049-4.274s-.817,3.361-1.366,2.718c-.5-.591.174-3.76.375-4.722.209-1,.527-3.033.527-3.033" transform="translate(-788.903 -979.653)" fill="#ffb27d"/>
            <path id="Trazado_887452" data-name="Trazado 887452" d="M1164.489,1104.238a13.425,13.425,0,0,0-1.957-3.421l.133-.1a13.658,13.658,0,0,1,1.984,3.476Z" transform="translate(-914.675 -866.034)" fill="#331832"/>
            <path id="Trazado_887453" data-name="Trazado 887453" d="M1113.525,1280.185l-.167-.02c.01-.073.961-7.2,1.679-9.755.725-2.583,4.06-4.811,4.094-4.834l.093.14c-.033.023-3.316,2.216-4.024,4.739-.714,2.548-1.666,9.66-1.674,9.73" transform="translate(-875.984 -995.748)" fill="#331832"/>
            <path id="Trazado_887454" data-name="Trazado 887454" d="M1117.6,1053.689a5.354,5.354,0,0,0,2.459-.447,1.1,1.1,0,0,1-.829,1.118,1.321,1.321,0,0,1-1.63-.671" transform="translate(-879.319 -828.685)" fill="#fff"/>
            <g id="Grupo_1112738" data-name="Grupo 1112738" transform="translate(266.564 46.993)" opacity="0.1">
              <g id="Grupo_1112737" data-name="Grupo 1112737">
                <g id="Grupo_1112736" data-name="Grupo 1112736" clip-path="url(#clip-path-11)">
                  <path id="Trazado_887455" data-name="Trazado 887455" d="M1250.266,261.652a41.242,41.242,0,1,1,41.242,41.242,41.242,41.242,0,0,1-41.242-41.242" transform="translate(-1250.267 -220.41)" fill="#ffe690"/>
                </g>
              </g>
            </g>
            <g id="Grupo_1112741" data-name="Grupo 1112741" transform="translate(278.584 59.14)" opacity="0.4">
              <g id="Grupo_1112740" data-name="Grupo 1112740">
                <g id="Grupo_1112739" data-name="Grupo 1112739" clip-path="url(#clip-path-12)">
                  <path id="Trazado_887456" data-name="Trazado 887456" d="M1306.654,306.6a29.22,29.22,0,1,1,29.219,29.219,29.22,29.22,0,0,1-29.219-29.219" transform="translate(-1306.653 -277.378)" fill="#ffe690"/>
                </g>
              </g>
            </g>
            <path id="Trazado_887457" data-name="Trazado 887457" d="M1347.13,338.444a20.59,20.59,0,1,1,20.59,20.59,20.59,20.59,0,0,1-20.59-20.59" transform="translate(-1059.915 -250.085)" fill="#ffe690"/>
          </g>
        </g>
      </g>
    </g>
  </g>
</svg>
