<svg xmlns="http://www.w3.org/2000/svg" xmlns:xlink="http://www.w3.org/1999/xlink" width="295" height="246.001" viewBox="0 0 295 246.001">
  <defs>
    <clipPath id="clip-path">
      <rect id="Rectángulo_408677" data-name="Rectángulo 408677" width="278.102" height="232.594" transform="translate(0 0)" fill="none"/>
    </clipPath>
  </defs>
  <g id="Grupo_1113245" data-name="Grupo 1113245" transform="translate(-1053 -15196.133)">
    <rect id="Rectángulo_406978" data-name="Rectángulo 406978" width="295" height="246" rx="20" transform="translate(1053 15196.133)" fill="#edf5e8"/>
    <g id="Grupo_1112791" data-name="Grupo 1112791" transform="translate(1056.898 15209.543)">
      <g id="Grupo_1112790" data-name="Grupo 1112790" transform="translate(0 -0.003)" clip-path="url(#clip-path)">
        <path id="Trazado_887684" data-name="Trazado 887684" d="M153.778,1085.011c-55.022-1.306-111.85,2.139-137.033,15.259s-20.7,32.608,5.02,41.19c20.3,6.772,34.831,5.959,42.235,5.339,52-4.355,75.154,5.645,113.046,7.743,58.926,3.263,93.213-12.143,99.928-28.26s-17.054-31.162-59.062-36.533-64.135-4.739-64.135-4.739" transform="translate(0 -922.39)" fill="#657d55"/>
        <path id="Trazado_887685" data-name="Trazado 887685" d="M282.183,764a9.722,9.722,0,0,0-5.79-4.593,12.735,12.735,0,0,0-2.715-.49c-2.593-7.961-8.894-14.747-17.224-16.774-7.549-1.836-15.9,1.4-19.7,8.323a14.335,14.335,0,0,0-1.587,4.62,11.961,11.961,0,0,0-13.763-4.791,11.453,11.453,0,0,0-6.226,5.678,41.19,41.19,0,0,0-6.769-22.729c-2.53-3.752-6.263-7.4-10.911-8.134-4.82-.76-8.982,2.182-11.894,5.745-.192.235-.378.474-.563.715-.028-.043-.054-.087-.082-.13a22.489,22.489,0,0,0-11.241-9,21.161,21.161,0,0,0-14.763.336,16.222,16.222,0,0,0-6.1,4.155,11.116,11.116,0,0,0-1.937,3.055,15.234,15.234,0,0,0-1.923-3.85,21.322,21.322,0,0,0-6.649-6.253,16.738,16.738,0,0,0-8.533-2.477,13.186,13.186,0,0,0-4.661.879,27.553,27.553,0,0,0-3.819-6.1,26.5,26.5,0,0,0-9.26-7.126,23.377,23.377,0,0,0-12.141-2.009,32.157,32.157,0,0,0-12.617,4.267,38.546,38.546,0,0,0-9.055,7.239,39.226,39.226,0,0,0-6.521,9.54,37.191,37.191,0,0,0-3.421,11.486,38.8,38.8,0,0,0,.025,9.878,21.451,21.451,0,0,0-7.329-.136,16.927,16.927,0,0,0-8.561,4.062,19.875,19.875,0,0,0-5.124,7.323,20.143,20.143,0,0,0-1.487,8.872,12.861,12.861,0,0,0,3.346,8.389c5.41,5.59,25.072,4.533,34.116,3.928,24.48-1.637,40.452-3.743,64.86-4.8,27.97-1.213,57.269.862,83.471,2.708,9.625.678,19.271.965,28.912,1.334,6.194.237,14.793.544,17.776-5.774a8.226,8.226,0,0,0-.132-7.364" transform="translate(-42.342 -597.714)" fill="#87a771"/>
        <path id="Trazado_887686" data-name="Trazado 887686" d="M1239.75,1087.755a13.66,13.66,0,0,1,5.743-9.605,13.463,13.463,0,0,1,16.94,1.584.185.185,0,0,0,.261,0,20.29,20.29,0,0,1,7.6-5.971,21.49,21.49,0,0,1,9.509-1.954,19.546,19.546,0,0,1,5.394.91c.227.072.324-.284.1-.356a20.608,20.608,0,0,0-9.795-.6,21.811,21.811,0,0,0-9.073,3.84,19.888,19.888,0,0,0-4,3.873h.261a14.044,14.044,0,0,0-11.184-3.933,13.841,13.841,0,0,0-12.13,12.215c-.025.236.345.234.369,0" transform="translate(-1053.871 -911.064)" fill="#2b244a"/>
        <path id="Trazado_887687" data-name="Trazado 887687" d="M200.593,947.941c3.647-3.838,9.088-5.764,14.264-6.256a22.644,22.644,0,0,1,7.974.549A20.854,20.854,0,0,1,229.8,945.6a20.28,20.28,0,0,1,5.83,6.681.186.186,0,0,0,.208.085,14.292,14.292,0,0,1,10.364.048,14.088,14.088,0,0,1,8.7,12.079.187.187,0,0,0,.278.159,19.1,19.1,0,0,1,13.254-2.269,11.951,11.951,0,0,1,5.294,2.428,19.826,19.826,0,0,1,4.091,4.575,20.288,20.288,0,0,1,2.768,6.034.185.185,0,0,0,.356-.1,21.091,21.091,0,0,0-6.548-10.435,12.181,12.181,0,0,0-5.073-2.687,19.438,19.438,0,0,0-14.329,2.133l.278.16a14.644,14.644,0,0,0-4.023-9.112,14.43,14.43,0,0,0-15.5-3.372l.209.085a21.09,21.09,0,0,0-12.1-9.944,24.989,24.989,0,0,0-16.123.81,19.876,19.876,0,0,0-7.4,4.722c-.164.172.1.434.261.261" transform="translate(-170.302 -800.295)" fill="#2b244a"/>
        <path id="Trazado_887688" data-name="Trazado 887688" d="M359.657,827.561a12.767,12.767,0,0,1,3.584-11.288A13.027,13.027,0,0,1,368.269,813a13.872,13.872,0,0,1,6.113-.678,13.409,13.409,0,0,1,6.486,2.516.186.186,0,0,0,.253-.066A16.574,16.574,0,0,1,389.2,807.4a15.913,15.913,0,0,1,3.012-.942c.233-.048.134-.4-.1-.356a16.869,16.869,0,0,0-9.544,5.836,16.446,16.446,0,0,0-1.766,2.653l.253-.066a13.837,13.837,0,0,0-21.085,6.119,12.1,12.1,0,0,0-.668,7.017c.049.232.405.134.356-.1" transform="translate(-305.311 -685.44)" fill="#2b244a"/>
        <path id="Trazado_887689" data-name="Trazado 887689" d="M1113.685,1231.211c-.5-1.526-2.814-3.11-3.711-4.415a11.287,11.287,0,0,1-1.655-4.528c-.7-4.072-1.381-8.12-1.988-12.2-.043-.291-.089-.581-.134-.871,0-.013,0-.026,0-.04a1.969,1.969,0,0,0-.21-1.078,1.672,1.672,0,0,0-.907-.518q-.59-.2-1.187-.371a20.93,20.93,0,0,0-2.447-.537,19.969,19.969,0,0,0-4.842-.172,18.129,18.129,0,0,0-2.384.37q-.557.125-1.1.284a3.494,3.494,0,0,0-.968.383,1.314,1.314,0,0,0-.523.954,6.8,6.8,0,0,0-.067,1.376,7.956,7.956,0,0,0,.228,1.54q.532,4.744,1.242,9.489c.279,1.88.6,4.353.913,6.232.151.9.283,1.81.471,2.711,1.078,5.168,10.014,5.743,14.989,5.5,1.3-.063,3.1-.334,3.982-1.258a3.06,3.06,0,0,0,.3-2.85" transform="translate(-928.17 -1025.834)" fill="#2b244a"/>
        <path id="Trazado_887690" data-name="Trazado 887690" d="M1148.855,1265.792a38.351,38.351,0,0,0,.405,3.928,15.546,15.546,0,0,0,.8,3.4,5.257,5.257,0,0,0,1.922,2.485,4.331,4.331,0,0,0,2.9.736,3.465,3.465,0,0,0,2.609-1.779c.112-.209-.206-.4-.319-.187a3.1,3.1,0,0,1-2.134,1.568,3.888,3.888,0,0,1-2.778-.6c-1.85-1.169-2.276-3.453-2.6-5.454a37.444,37.444,0,0,1-.435-4.1c-.012-.236-.381-.238-.369,0" transform="translate(-976.897 -1076.179)" fill="#8d84b8"/>
        <path id="Trazado_887691" data-name="Trazado 887691" d="M1081.267,1238.294a19.894,19.894,0,0,0,.3,3.346,5.4,5.4,0,0,0,1.7,3.712c1.645,1.332,4.383,1.394,6.372,1.455a40.606,40.606,0,0,0,7.622-.581,6.272,6.272,0,0,0,2.087-.593c1.936-1.086,1.223-4.391.776-6.183-.229-.92-18.85-1.156-18.855-1.156" transform="translate(-919.39 -1052.948)" fill="#4a6572"/>
        <path id="Trazado_887692" data-name="Trazado 887692" d="M1130.434,1366.906a1.943,1.943,0,0,1-.983.892,7.4,7.4,0,0,1-1.645.56,14.78,14.78,0,0,1-3.27.4,32.905,32.905,0,0,1-8.135-.981,16.129,16.129,0,0,1-4.525-1.763c-.2-.124-.389.2-.186.319a15.769,15.769,0,0,0,4.087,1.663,32.007,32.007,0,0,0,4.587.868,22.073,22.073,0,0,0,7.267-.09,8.481,8.481,0,0,0,1.942-.626,2.308,2.308,0,0,0,1.18-1.056c.092-.216-.226-.4-.319-.187" transform="translate(-945.221 -1161.528)" fill="#8d84b8"/>
        <path id="Trazado_887693" data-name="Trazado 887693" d="M1080.626,715.8c.525,2.948,1.184,5.886,1.887,8.807q.538,2.238,1.132,4.465c.321,1.2.2,1.513,1.242,2.381a7.516,7.516,0,0,0,5.723,1.223,28,28,0,0,1,2.876-.264c2.99-.175,4.1-2.7,3.763-5.635-.538-4.685-1.385-9.154-2.305-14.007-.7-3.682-1.814-8.465-6.352-8.866-1.889-.167-3.786-.3-5.672-.341a2.131,2.131,0,0,0-1.687.481,3.6,3.6,0,0,0-.7,1.583,15.02,15.02,0,0,0-.376,1.959,27.453,27.453,0,0,0,.465,8.213" transform="translate(-918.363 -598.25)" fill="#4a6572"/>
        <path id="Trazado_887694" data-name="Trazado 887694" d="M765.846,1229.638a17.726,17.726,0,0,1,1.4-4.486,12.419,12.419,0,0,0,.944-4.211c.5-4.013.977-8,1.382-12.034a7.8,7.8,0,0,1,.319-1.953,1.229,1.229,0,0,1,.8-.441q.577-.149,1.163-.262a19.245,19.245,0,0,1,2.409-.311,19.816,19.816,0,0,1,4.81.276,19.441,19.441,0,0,1,2.391.591q.56.177,1.109.387a4.029,4.029,0,0,1,.983.473,1.561,1.561,0,0,1,.567,1,13.7,13.7,0,0,1-.017,2.9q-.3,4.7-.772,9.388-.279,2.785-.612,5.563c-.107.891-.193,1.786-.336,2.671-.82,5.075-7.12,5.655-12.083,4.951a6.3,6.3,0,0,1-3.72-1.67,3.828,3.828,0,0,1-.742-2.841" transform="translate(-651.195 -1025.402)" fill="#2b244a"/>
        <path id="Trazado_887695" data-name="Trazado 887695" d="M807.165,1255.353a38.332,38.332,0,0,1-.315,4.779c-.175,1.637-.494,3.46-2.1,4.3a3.56,3.56,0,0,1-4.571-.972c-.814-1.341-.618-3.035-.453-4.52.205-1.843.477-3.677.687-5.52.027-.236-.343-.234-.369,0-.2,1.741-.451,3.475-.652,5.215-.183,1.583-.4,3.319.349,4.8a3.781,3.781,0,0,0,4.48,1.609,3.719,3.719,0,0,0,2.116-1.6,6.226,6.226,0,0,0,.789-2.484c.122-.917.2-1.841.278-2.762.077-.942.15-1.891.132-2.837a.185.185,0,0,0-.369,0" transform="translate(-679.588 -1065.659)" fill="#8d84b8"/>
        <path id="Trazado_887696" data-name="Trazado 887696" d="M795.9,1239.736a19.72,19.72,0,0,1-.3,3.339,5.256,5.256,0,0,1-1.706,3.67c-1.651,1.292-4.4,1.287-6.392,1.3a41.122,41.122,0,0,1-7.646-.766,6.436,6.436,0,0,1-2.094-.644c-1.942-1.133-1.226-4.42-.779-6.2.23-.914,18.91-.7,18.915-.7" transform="translate(-660.26 -1054.155)" fill="#4a6572"/>
        <path id="Trazado_887697" data-name="Trazado 887697" d="M766.265,1362.42a3.3,3.3,0,0,0,1.861,1.591,12.933,12.933,0,0,0,2.941.9,18.886,18.886,0,0,0,6.913-.207,20.284,20.284,0,0,0,4.419-1.735c.212-.108.025-.427-.186-.319a20.88,20.88,0,0,1-3.8,1.558,15.042,15.042,0,0,1-3.547.542,17.2,17.2,0,0,1-3.269-.12,13.833,13.833,0,0,1-2.76-.721,6.881,6.881,0,0,1-1.389-.689,2.046,2.046,0,0,1-.826-.9c-.083-.22-.44-.125-.356.1" transform="translate(-651.562 -1158.306)" fill="#8d84b8"/>
        <path id="Trazado_887698" data-name="Trazado 887698" d="M981.437,559.872c-.273-2.2-.607-4.383-.833-6.518-1.4-13.216-3.231-26.389-5.571-39.472q-3.37-18.837-8.213-37.371a111.977,111.977,0,0,0-3.842-12.52c-1.212-2.878-3.1-6.752-5.6-8.694-.087-.068-.176-.131-.265-.2,0-.02-.007-.041-.01-.061a4.492,4.492,0,0,0-.185-.925A2.193,2.193,0,0,0,956,452.79a4.193,4.193,0,0,0-3.108-.123,12.645,12.645,0,0,0-3.107,1.19c-4.213,2.274-6.326,8.631-7.77,13.091A42.463,42.463,0,0,0,940.373,475c-.336,2.807-.6,5.637-.73,8.461a38.78,38.78,0,0,0,.4,8.543,28.569,28.569,0,0,0,2.741,7.909c.676,1.34,1.412,2.649,2.167,3.947.632,1.893,1.307,3.77,1.984,5.634,2.645,7.281,3.555,14.839,4.435,22.548,1.22,10.681,1.579,22.242,4.244,31.632,1.545,5.445,4.216,9.977,10.078,11.211,5.705,1.2,15.935.429,16.209-6.4a61.169,61.169,0,0,0-.466-8.616" transform="translate(-798.943 -384.71)" fill="#4a6572"/>
        <path id="Trazado_887699" data-name="Trazado 887699" d="M1024.881,1024.255a40.508,40.508,0,0,0,10.44,1.138,39.662,39.662,0,0,0,10.265-1.584,39.064,39.064,0,0,0,5.482-2.07c.215-.1.028-.419-.187-.319a38.748,38.748,0,0,1-9.776,3.048,39.687,39.687,0,0,1-10.315.4,40.149,40.149,0,0,1-5.811-.969c-.231-.056-.329.3-.1.356" transform="translate(-871.367 -868.52)" fill="#2b244a"/>
        <path id="Trazado_887700" data-name="Trazado 887700" d="M981.055,563.776c-1.219,4.185-3.075,7.768-4.02,12.023q-1.3,5.811-2.028,11.726-.659,5.313-.86,10.667c.066.118.133.237.2.355.631,1.891,1.307,3.771,1.983,5.632,2.608,7.184,3.527,14.637,4.4,22.238.606-2.035,2.111-47.546.323-62.641" transform="translate(-828.339 -479.391)" fill="#2b244a"/>
        <path id="Trazado_887701" data-name="Trazado 887701" d="M801.259,477.227a9.357,9.357,0,0,0-2.887-3.845,12.22,12.22,0,0,0-7.352-2.646,5.2,5.2,0,0,0-3.141-2.292,6.713,6.713,0,0,0-5.388.984c-4.1,2.655-4.947,7.891-6.006,12.1a314.066,314.066,0,0,0-5.935,31.211c-1.557,10.637-2.883,21.3-4.28,31.961l-2.117,16.144-1.059,8.072c-.348,2.65-.764,5.3-1.015,7.961a14.209,14.209,0,0,0,1,7.011c1.247,2.812,4.966,4.247,7.768,4.463,4.79.369,9.8.705,13.284-2.032,3.778-2.965,4.528-7.134,5.557-11.593,2.482-10.76,8.56-49.2,9.529-59.437.991-10.462,1.947-20.936,2.653-31.418a15.432,15.432,0,0,0-.609-6.645" transform="translate(-647.95 -398.151)" fill="#4a6572"/>
        <path id="Trazado_887702" data-name="Trazado 887702" d="M856.628,518.489q-1.6,5.1-2.916,10.276-1.307,5.156-2.324,10.38-.576,2.962-1.058,5.941c-.038.233.318.333.356.1q.854-5.273,2-10.492,1.144-5.195,2.577-10.32.813-2.906,1.718-5.784c.071-.227-.285-.324-.356-.1" transform="translate(-723.052 -440.773)" fill="#2b244a"/>
        <path id="Trazado_887703" data-name="Trazado 887703" d="M786.646,1007.155a45.163,45.163,0,0,0,21.555,4.677,44.461,44.461,0,0,0,6.219-.653c.234-.041.135-.4-.1-.356a44.149,44.149,0,0,1-10.935.542,44.935,44.935,0,0,1-10.793-2.158,44.45,44.45,0,0,1-5.762-2.371c-.212-.105-.4.213-.186.319" transform="translate(-668.823 -856.116)" fill="#2b244a"/>
        <path id="Trazado_887704" data-name="Trazado 887704" d="M871.6,516.832a14.561,14.561,0,0,0,7.773-10.04,13.6,13.6,0,0,0,.27-3.681c-.015-.236-.385-.238-.369,0a14.21,14.21,0,0,1-4.856,11.427,13.234,13.234,0,0,1-3,1.975c-.215.1-.027.421.186.319" transform="translate(-740.9 -427.654)" fill="#2b244a"/>
        <path id="Trazado_887705" data-name="Trazado 887705" d="M1023.837,519.181a4.889,4.889,0,0,0,2.876-1.983,7.812,7.812,0,0,0,1.33-3.782,30,30,0,0,0,.012-4.672q-.111-2.452-.344-4.9-.261-2.739-.674-5.461c-.036-.234-.391-.135-.356.1q.706,4.672.962,9.4c.081,1.5.168,3.021.106,4.526a8.828,8.828,0,0,1-.965,4,4.739,4.739,0,0,1-3.045,2.419c-.232.049-.134.405.1.356" transform="translate(-870.395 -423.676)" fill="#2b244a"/>
        <path id="Trazado_887706" data-name="Trazado 887706" d="M1022.241,504.32q.151,4.656.126,9.316-.026,4.678-.23,9.353-.114,2.612-.285,5.221c-.015.237.354.236.369,0q.3-4.634.428-9.277.127-4.681.075-9.364-.029-2.625-.114-5.249c-.008-.237-.377-.238-.369,0" transform="translate(-868.903 -428.682)" fill="#2b244a"/>
        <path id="Trazado_887707" data-name="Trazado 887707" d="M777.971,1013.961q-.921,6.747-1.763,13.5t-1.6,13.521q-.429,3.817-.833,7.636c-.025.236.345.234.369,0q.713-6.747,1.506-13.485t1.666-13.467q.494-3.807,1.013-7.611c.032-.232-.324-.333-.356-.1" transform="translate(-657.954 -862.079)" fill="#2b244a"/>
        <path id="Trazado_887708" data-name="Trazado 887708" d="M793.073,701.842a15.242,15.242,0,0,0-.5-1.938,3.657,3.657,0,0,0-.8-1.544,2.122,2.122,0,0,0-1.707-.385c-1.87.145-3.744.39-5.609.665-4.48.659-5.272,5.506-5.724,9.228-.595,4.906-1.141,9.423-1.368,14.139-.142,2.951,1.126,5.415,4.107,5.42a27.692,27.692,0,0,1,2.873.1,7.393,7.393,0,0,0,5.6-1.549c.977-.928.837-1.229,1.077-2.452q.443-2.261.83-4.529c.506-2.962.966-5.937,1.294-8.915a27.7,27.7,0,0,0-.079-8.24" transform="translate(-661.005 -593.486)" fill="#4a6572"/>
        <path id="Trazado_887709" data-name="Trazado 887709" d="M801.732,725.959c1.406.009,2.814.075,4.219.008a6.52,6.52,0,0,0,3.727-1.114,5.362,5.362,0,0,0,1.762-3.348c.305-1.541.486-3.114.71-4.669.471-3.279.909-6.563,1.268-9.856q.27-2.477.477-4.961c.065-.791.145-1.586.169-2.379a4.2,4.2,0,0,0-.329-1.977,3.33,3.33,0,0,0-2.879-1.635,10.037,10.037,0,0,0-1.9.114q-1,.117-2,.272-.586.091-1.171.19c-.234.039-.135.4.1.356,1.337-.224,2.679-.426,4.029-.551a3.773,3.773,0,0,1,3.165.927,2.819,2.819,0,0,1,.622,1.843,20.244,20.244,0,0,1-.119,2.2q-.186,2.375-.436,4.744c-.331,3.156-.737,6.3-1.18,9.444q-.334,2.365-.69,4.726a7.87,7.87,0,0,1-1.144,3.579,4.766,4.766,0,0,1-3.423,1.665,31.652,31.652,0,0,1-4.021.061c-.317-.005-.633-.01-.95-.012a.185.185,0,0,0,0,.369" transform="translate(-681.578 -591.836)" fill="#2b244a"/>
        <path id="Trazado_887710" data-name="Trazado 887710" d="M1144.351,707.76l2.124,10.68,2.132,10.725,1.2,6.019c.046.233.4.134.356-.1l-2.124-10.68q-1.066-5.363-2.132-10.725-.6-3.009-1.2-6.019c-.046-.233-.4-.134-.356.1" transform="translate(-973.063 -601.627)" fill="#2b244a"/>
        <path id="Trazado_887711" data-name="Trazado 887711" d="M1044.719,321.478s-.252,12.035,3.277,15.317,14.893,7.5,14.893,7.5l12.225-7.721-17.435-9.6s3.692-7.893,0-9.872-12.96,4.372-12.96,4.372" transform="translate(-888.344 -269.316)" fill="#e0785e"/>
        <path id="Trazado_887712" data-name="Trazado 887712" d="M1175.927,446.695c-1.427-2.609-5.4-3.245-8.2-3.217-2.086.021-4.706-.117-6.134,1.658-1.315,1.634-.754,4.58-.187,6.4a15.258,15.258,0,0,0,1.4,3.135c.245.42,2.022,2.383,1.964,2.716a.168.168,0,0,0,0-.079c.034,0,.067-.012.1-.016-.036.141-.07.291-.1.449-.172.99-.123,2.219.918,2.5a2.075,2.075,0,0,0,1.145-.023,2.943,2.943,0,0,0,1.548-1.187,1.324,1.324,0,0,0,.9,1.118,1.9,1.9,0,0,0,1.76-.671,4.325,4.325,0,0,0,.911-1.486,1.593,1.593,0,0,0,.582.332c1.52.482,2.477-1.082,2.759-1.889a14.394,14.394,0,0,0,.626-4.278c0-.007-.008-.01-.012-.016a4.462,4.462,0,0,0,.672-1.692,5.811,5.811,0,0,0-.647-3.749" transform="translate(-987.039 -377.098)" fill="#e0785e"/>
        <path id="Trazado_887713" data-name="Trazado 887713" d="M1210.322,503.16a16.313,16.313,0,0,1,2.488-7.495c.126-.2-.194-.388-.319-.186a16.7,16.7,0,0,0-2.539,7.681c-.015.237.355.236.369,0" transform="translate(-1028.849 -421.242)" fill="#2b244a"/>
        <path id="Trazado_887714" data-name="Trazado 887714" d="M1234.866,508.656a8.008,8.008,0,0,1,1.821-5.383c.144-.189-.177-.373-.319-.186a8.311,8.311,0,0,0-1.871,5.57c.021.235.391.237.369,0" transform="translate(-1049.7 -427.718)" fill="#2b244a"/>
        <path id="Trazado_887715" data-name="Trazado 887715" d="M1171.133,446.167a1.659,1.659,0,0,0-1.613-.137c-.344.106-12.792,5.538-13.8,6.022a8.962,8.962,0,0,0-3.014,2.035,60.941,60.941,0,0,0-4.458,5.377c-.834,1.392-.563,2.847,1.072,3.278a4.605,4.605,0,0,0,2.192-.187c.757-.18,10.5-3.967,12.572-4.924a17.48,17.48,0,0,0,2.626-1.319,6.936,6.936,0,0,0,1.848-1.978,30.544,30.544,0,0,0,1.758-3.443c.343-.717.689-1.434,1-2.168a4.246,4.246,0,0,0,.384-1.507,1.282,1.282,0,0,0-.56-1.049" transform="translate(-975.987 -379.147)" fill="#f7e5da"/>
        <path id="Trazado_887716" data-name="Trazado 887716" d="M1255.165,475.142l-1.508,3.138c-.1.213.216.4.319.186l1.508-3.138c.1-.213-.216-.4-.319-.186" transform="translate(-1065.995 -403.943)" fill="#2b244a"/>
        <path id="Trazado_887717" data-name="Trazado 887717" d="M1241.592,472.3l-2.154,4.483c-.1.213.216.4.319.186l2.154-4.483c.1-.213-.216-.4-.319-.186" transform="translate(-1053.905 -401.524)" fill="#2b244a"/>
        <path id="Trazado_887718" data-name="Trazado 887718" d="M1227.373,478.438l-2.154,4.483c-.1.213.216.4.319.186l2.154-4.483c.1-.213-.216-.4-.319-.186" transform="translate(-1041.814 -406.746)" fill="#2b244a"/>
        <path id="Trazado_887719" data-name="Trazado 887719" d="M1219.273,484.579l-1.077,2.242c-.1.213.216.4.319.186l1.077-2.242c.1-.213-.216-.4-.319-.186" transform="translate(-1035.842 -411.967)" fill="#2b244a"/>
        <path id="Trazado_887720" data-name="Trazado 887720" d="M1148.166,510.4q6.335-2.376,12.583-4.973,1.741-.724,3.474-1.465c.218-.093.03-.411-.186-.319q-6.157,2.631-12.4,5.044-1.779.687-3.565,1.357c-.22.083-.125.44.1.356" transform="translate(-976.121 -428.244)" fill="#2b244a"/>
        <path id="Trazado_887721" data-name="Trazado 887721" d="M1260.555,447.1l-2.689,4.97a10.869,10.869,0,0,1-1.329,2.206,5.766,5.766,0,0,1-2.025,1.25c-.217.1-.029.414.187.319a6.165,6.165,0,0,0,2.046-1.25,9.766,9.766,0,0,0,1.353-2.177l2.776-5.132c.113-.209-.205-.4-.319-.186" transform="translate(-1066.658 -380.103)" fill="#2b244a"/>
        <path id="Trazado_887722" data-name="Trazado 887722" d="M1211.52,471.834a1.011,1.011,0,0,1,1.758-.971.185.185,0,0,0,.261,0,.189.189,0,0,0,0-.261,1.428,1.428,0,0,0-1.359-.492,1.353,1.353,0,0,0-1.038.972,1.37,1.37,0,0,0,.022.85.19.19,0,0,0,.227.129.186.186,0,0,0,.129-.227" transform="translate(-1029.812 -399.726)" fill="#2b244a"/>
        <path id="Trazado_887723" data-name="Trazado 887723" d="M1197.229,478.729a1.012,1.012,0,0,1,1.758-.971.186.186,0,0,0,.261,0,.189.189,0,0,0,0-.261,1.428,1.428,0,0,0-1.359-.492,1.353,1.353,0,0,0-1.038.972,1.372,1.372,0,0,0,.022.85.189.189,0,0,0,.227.129.186.186,0,0,0,.129-.227" transform="translate(-1017.66 -405.589)" fill="#2b244a"/>
        <path id="Trazado_887724" data-name="Trazado 887724" d="M1225.64,464.355a1.011,1.011,0,0,1,1.758-.971.186.186,0,0,0,.261,0,.19.19,0,0,0,0-.261,1.428,1.428,0,0,0-1.359-.492,1.353,1.353,0,0,0-1.038.972,1.371,1.371,0,0,0,.022.85.19.19,0,0,0,.227.129.186.186,0,0,0,.129-.227" transform="translate(-1041.819 -393.366)" fill="#2b244a"/>
        <path id="Trazado_887725" data-name="Trazado 887725" d="M1247.017,456.764a1.011,1.011,0,0,1,1.758-.971.186.186,0,0,0,.261,0,.19.19,0,0,0,0-.261,1.428,1.428,0,0,0-1.359-.492,1.353,1.353,0,0,0-1.038.972,1.37,1.37,0,0,0,.022.85.19.19,0,0,0,.227.129.186.186,0,0,0,.129-.227" transform="translate(-1059.996 -386.912)" fill="#2b244a"/>
        <path id="Trazado_887726" data-name="Trazado 887726" d="M1273.317,446.533a1.011,1.011,0,0,1,1.758-.971.186.186,0,0,0,.261,0,.19.19,0,0,0,0-.261,1.428,1.428,0,0,0-1.359-.492,1.353,1.353,0,0,0-1.038.972,1.371,1.371,0,0,0,.022.85.19.19,0,0,0,.227.129.186.186,0,0,0,.129-.227" transform="translate(-1082.359 -378.212)" fill="#2b244a"/>
        <path id="Trazado_887727" data-name="Trazado 887727" d="M1259.466,454.174a1.011,1.011,0,0,1,1.758-.971.186.186,0,0,0,.261,0,.189.189,0,0,0,0-.261,1.428,1.428,0,0,0-1.359-.492,1.353,1.353,0,0,0-1.038.972,1.371,1.371,0,0,0,.022.85.19.19,0,0,0,.227.129.186.186,0,0,0,.129-.227" transform="translate(-1070.582 -384.709)" fill="#2b244a"/>
        <path id="Trazado_887728" data-name="Trazado 887728" d="M1220.869,444c-1.433-.762-4.533-2.2-6-2.246-.956-.032-1.761.137-1.4,1.664.514,2.175,4.4,3.531,6.125,3.312a2.475,2.475,0,0,0,1.9-.984,1.269,1.269,0,0,0-.623-1.746" transform="translate(-1031.764 -375.627)" fill="#e0785e"/>
        <path id="Trazado_887729" data-name="Trazado 887729" d="M993.374,198.8c-.029-.2-.06-.405-.086-.609q-.276-2.157-.424-4.327a71.963,71.963,0,0,1,.54-15.264c.5-3.456,1.473-7.2,4.109-9.736.881.094,1.758.234,2.628.408,4.009.8,7.979,2.05,10.492,5.322,4.033,5.251,5.666,12.434,6.2,18.921q.148,1.8.141,3.609a23.088,23.088,0,0,1-2.278.859,36.134,36.134,0,0,1-6.588,1.358,49.964,49.964,0,0,1-7.32.367,37.988,37.988,0,0,1-7.415-.909" transform="translate(-844.103 -143.591)" fill="#fff"/>
        <path id="Trazado_887730" data-name="Trazado 887730" d="M1033.372,170.006a27.479,27.479,0,0,1,6.882,1.864,14.081,14.081,0,0,1,2.817,1.63,10.884,10.884,0,0,1,2.218,2.3,32.048,32.048,0,0,1,5.2,13.365,49.1,49.1,0,0,1,.781,8.627l.091-.16a23.442,23.442,0,0,1-2.219.835c-.226.072-.129.429.1.356a24.434,24.434,0,0,0,2.307-.872.181.181,0,0,0,.091-.159,49.583,49.583,0,0,0-.65-7.867,41.978,41.978,0,0,0-1.754-7.165,27.886,27.886,0,0,0-3.224-6.57,12.726,12.726,0,0,0-2.156-2.523,13.044,13.044,0,0,0-2.663-1.758,26.059,26.059,0,0,0-7.725-2.258c-.233-.037-.333.319-.1.356" transform="translate(-878.586 -144.255)" fill="#2b244a"/>
        <path id="Trazado_887731" data-name="Trazado 887731" d="M1015.87,331.334a35.966,35.966,0,0,0,16.087.106,36.753,36.753,0,0,0,4.453-1.291c.222-.08.126-.437-.1-.356a36.05,36.05,0,0,1-15.887,1.95,34.9,34.9,0,0,1-4.458-.765c-.231-.055-.33.3-.1.356" transform="translate(-863.705 -280.42)" fill="#2b244a"/>
        <path id="Trazado_887732" data-name="Trazado 887732" d="M882.254,200.595q-.147-6.02-.293-12.041c-.153-6.292.676-14.668-4.354-19.477-4.167-3.984-10.109-3.478-15.509-3.659a54.884,54.884,0,0,0-5.68.033,8.974,8.974,0,0,0-4.683,1.428,7.679,7.679,0,0,0-2.489,3.266,17.983,17.983,0,0,0-1.126,4.214c-.29,1.783-.5,3.583-.721,5.376-.249,1.986-.478,3.977-.657,5.971-.675,2.729-1.364,5.456-2.01,8.193-1.163,4.929-1.988,10.326.379,15.042a10.713,10.713,0,0,0,4.157,4.57,12.174,12.174,0,0,0,3.542,1.234c1.338.286,2.69.516,4.044.712.836.122,1.677.22,2.52.308,5.279,1.092,12.534.575,17.205-.058,4.035-.547,5.072-2.99,5.25-5.819a10.929,10.929,0,0,0,.54-3.412c.038-1.957-.068-3.923-.116-5.88" transform="translate(-717.325 -140.609)" fill="#ffbe63"/>
        <path id="Trazado_887733" data-name="Trazado 887733" d="M968.432,268.288a84.724,84.724,0,0,1-12.3,1.588l-.185.008c.046-.629.074-1.26.093-1.887.023-.716.024-1.432.01-2.148q2.749-.143,5.486-.464a83.781,83.781,0,0,0,12.3-2.412c.874-.24,1.744-.5,2.611-.765.17.771.331,1.543.472,2.32.088.486.161.975.238,1.463a85.952,85.952,0,0,1-8.726,2.3" transform="translate(-812.86 -222.96)" fill="#fff"/>
        <path id="Trazado_887734" data-name="Trazado 887734" d="M1016.06,218.419a106.514,106.514,0,0,1,1.6,12.54c.286,4.155.348,8.323.226,12.486q-.1,3.513-.371,7.018c-.018.237.352.236.369,0,.315-4.171.47-8.355.421-12.539a117.264,117.264,0,0,0-.8-12.577q-.423-3.53-1.083-7.026c-.044-.233-.4-.135-.356.1" transform="translate(-863.975 -185.53)" fill="#2b244a"/>
        <path id="Trazado_887735" data-name="Trazado 887735" d="M911.93,170.008a9.228,9.228,0,0,1,4.184,4.26,19.9,19.9,0,0,1,1.956,6.508,52.3,52.3,0,0,1,.479,8.086,21.429,21.429,0,0,1-.363,4.04,18.474,18.474,0,0,1-.779,2.676,20.632,20.632,0,0,1-1.38,3.055,7.052,7.052,0,0,1-1.805,2.285c-.19.139-.006.46.186.319a6.8,6.8,0,0,0,1.68-1.978,18.779,18.779,0,0,0,1.365-2.775,22.305,22.305,0,0,0,.885-2.61,18.238,18.238,0,0,0,.552-3.9c.061-1.387.025-2.779-.026-4.166s-.141-2.776-.307-4.156a22.432,22.432,0,0,0-1.789-6.9,9.967,9.967,0,0,0-4.651-5.059c-.215-.1-.4.222-.186.319" transform="translate(-775.353 -144.274)" fill="#2b244a"/>
        <path id="Trazado_887736" data-name="Trazado 887736" d="M955.185,154.01a6.67,6.67,0,0,0-.861-1.758c-1.842-2.728-5.262-4.087-8.989-4.154-3.088-.056-5.786,1.31-5.663,4,.026.573.257.413.644.858a4.229,4.229,0,0,0,.681,2.678,3.805,3.805,0,0,0,1.472,1.345,5.97,5.97,0,0,0,2.37.552c.9.051,1.807.023,2.7-.014q1.435-.059,2.861-.212a18.211,18.211,0,0,0,2.629-.439,4.221,4.221,0,0,0,2.067-.975,1.892,1.892,0,0,0,.084-1.881" transform="translate(-799.02 -125.93)" fill="#ffbe63"/>
        <path id="Trazado_887737" data-name="Trazado 887737" d="M938.916,164.593a4.586,4.586,0,0,0,3.1,2.737.185.185,0,0,0,.1-.356,4.2,4.2,0,0,1-2.838-2.479c-.087-.218-.444-.123-.356.1" transform="translate(-798.37 -139.768)" fill="#2b244a"/>
        <path id="Trazado_887738" data-name="Trazado 887738" d="M1032.177,169.9a1.294,1.294,0,0,1-.035,1.524.186.186,0,0,0,.066.253.189.189,0,0,0,.253-.066,1.648,1.648,0,0,0,.035-1.9.19.19,0,0,0-.253-.066.186.186,0,0,0-.066.253" transform="translate(-877.63 -144.235)" fill="#2b244a"/>
        <path id="Trazado_887739" data-name="Trazado 887739" d="M969.545,164.283a4.953,4.953,0,0,0-.888-1.307,17.361,17.361,0,0,0-3.131-2.744,5.879,5.879,0,0,0-2.183-1.078c-.708-.057-1.284.947-1.995.92-.764-.029-1.53-.051-2.3-.054-.513,0-1.259-.85-1.725-.566-.73.445-.978,2.335-1.043,2.86a5.806,5.806,0,0,0,.031,1.656,1.471,1.471,0,0,0,.716,1.266,2.739,2.739,0,0,0,1.777,0c.68-.167,1.353-.349,2.027-.527.271.326.543.652.82.977q1.024,1.2,2.079,2.384.516.58,1.039,1.157c.245.271.554.731,1.093.537a1.46,1.46,0,0,0,.768-.93,4.63,4.63,0,0,0,.256-1.183c.107-.942.194-1.885.27-2.829,0,0,0-.007,0-.01.094.044.186.09.283.13a4.647,4.647,0,0,0,1.839.411c.681-.015.379-.787.264-1.072" transform="translate(-813.11 -135.329)" fill="#fff"/>
        <path id="Trazado_887740" data-name="Trazado 887740" d="M986.652,185.374c.347-.36.683-.731,1.055-1.066a3.4,3.4,0,0,1,.589-.464.981.981,0,0,1,.8-.047,11.1,11.1,0,0,1,1.6.74l1.665.817c.213.1.4-.214.186-.319l-1.868-.916a6.778,6.778,0,0,0-1.707-.732,1.577,1.577,0,0,0-1.345.5c-.442.376-.832.8-1.234,1.222-.165.171.1.433.261.261" transform="translate(-838.705 -155.92)" fill="#2b244a"/>
        <path id="Trazado_887741" data-name="Trazado 887741" d="M963.565,161.284a5.847,5.847,0,0,0,3.592,3.674c2.767.862,4,.062,4.171-1.139s-1.483-2.535-1.483-2.535Z" transform="translate(-819.341 -137.143)" fill="#e0785e"/>
        <path id="Trazado_887742" data-name="Trazado 887742" d="M1116.2,370.627a2.374,2.374,0,0,0-2.2-.886c-1.252.061-2.417.158-3.583.269-1.193.114-2.317.114-3.511.207-.209.016-.289.626-.419.989a1.459,1.459,0,0,0,.213,1.149,4.157,4.157,0,0,0,1.955,1.608c1.91.848,3.876.213,5.84-.339,1.4-.394,2.4-1.775,1.708-3" transform="translate(-940.823 -314.395)" fill="#e0785e"/>
        <path id="Trazado_887743" data-name="Trazado 887743" d="M1116.758,345.284a.912.912,0,0,0-.163,1.2l9.3,14.472,1.54,1.349a.324.324,0,0,0,.523-.336l-.587-1.961-9.327-14.514a.877.877,0,0,0-1.286-.211" transform="translate(-949.335 -293.438)" fill="#2b244a"/>
        <path id="Trazado_887744" data-name="Trazado 887744" d="M1117.292,348.257a1.531,1.531,0,0,0,1.315-.869.189.189,0,0,0-.066-.253.187.187,0,0,0-.253.066,1.319,1.319,0,0,1-.083.156c-.015.024-.031.047-.047.07s-.023.03-.007.009l-.032.039a1.321,1.321,0,0,1-.117.12q-.031.028-.064.054c.029-.023-.014.01-.016.012l-.035.024a1.376,1.376,0,0,1-.145.085l-.038.019s-.053.023-.018.009l-.079.029a1.292,1.292,0,0,1-.162.044l-.05.009c-.035.006.013,0-.009,0s-.061.005-.092.007a.185.185,0,0,0,0,.369" transform="translate(-949.901 -295.157)" fill="#8d84b8"/>
        <path id="Trazado_887745" data-name="Trazado 887745" d="M1179.815,445.555a1.531,1.531,0,0,0,1.314-.869.189.189,0,0,0-.066-.253.187.187,0,0,0-.253.066,1.31,1.31,0,0,1-.083.156c-.015.024-.031.047-.047.07s-.023.03-.007.009l-.032.039a1.359,1.359,0,0,1-.118.12q-.031.028-.064.055c.029-.023-.014.01-.016.012l-.035.024a1.421,1.421,0,0,1-.145.085l-.038.018s-.053.023-.017.009c-.026.011-.052.021-.079.029a1.27,1.27,0,0,1-.162.044l-.05.009c-.035.006.013,0-.009,0s-.061.006-.092.007a.185.185,0,0,0,0,.369" transform="translate(-1003.065 -377.891)" fill="#8d84b8"/>
        <path id="Trazado_887746" data-name="Trazado 887746" d="M858.637,372.634a18.673,18.673,0,0,0-3.114-2.556,37.7,37.7,0,0,0-3.705-2.436,9.347,9.347,0,0,0-6.927-1.26l-.04,0c-2.128.336-24.974,6.422-24.974,6.422-.007-.138.254-5.1.246-5.242-.027-.514.289-.771,0-1.192-.268-.39-18.014-3.034-19.037.022-.9,2.69-.865,10.484-.325,13.052,1.833,8.711,8.539,12.84,17.118,11.151a97.182,97.182,0,0,0,27.859-10.432,35,35,0,0,0,5.07.7c1.17-.061,1.685-.548,1.862-1.431a2.239,2.239,0,0,0-.132-1.4,2.361,2.361,0,0,0,1.55-1.363,2.4,2.4,0,0,0-.435-2.667c.553.267,1.109.53,1.656.8a3.56,3.56,0,0,0,2.772.431,1.648,1.648,0,0,0,1.1-1.354,1.535,1.535,0,0,0-.544-1.241" transform="translate(-680.58 -310.316)" fill="#e0785e"/>
        <path id="Trazado_887747" data-name="Trazado 887747" d="M1129.645,413.236l3.93,1.751c.215.1.4-.222.187-.319l-3.93-1.751c-.215-.1-.4.222-.186.319" transform="translate(-960.481 -351.097)" fill="#2b244a"/>
        <path id="Trazado_887748" data-name="Trazado 887748" d="M1119.945,440.34l4.16,1.673c.221.089.316-.268.1-.356l-4.16-1.673c-.22-.089-.316.269-.1.356" transform="translate(-952.209 -374.115)" fill="#2b244a"/>
        <path id="Trazado_887749" data-name="Trazado 887749" d="M789.653,208.511a47.631,47.631,0,0,1-7.28-.86,34.631,34.631,0,0,1-6.481-1.851,22.465,22.465,0,0,1-2.215-1.047q.118-1.893.387-3.773a47.228,47.228,0,0,1,2.3-9.233,32.745,32.745,0,0,1,5.132-9.93c2.9-3.5,6.507-4.533,10.879-5.155l.026,0a2.891,2.891,0,0,1,2.947,1.457A30.7,30.7,0,0,1,798.28,189.2c.39,5.334-.634,18.513-.677,18.724a41.229,41.229,0,0,1-7.95.588" transform="translate(-657.875 -150.191)" fill="#fff"/>
        <path id="Trazado_887750" data-name="Trazado 887750" d="M776.952,206.045a24.961,24.961,0,0,1-4.233-1.774l.091.159a47.1,47.1,0,0,1,1.192-7.97,52.708,52.708,0,0,1,2.318-7.2c1.639-4.126,3.894-8.5,7.942-10.7a19.8,19.8,0,0,1,6.5-1.952c.234-.037.135-.392-.1-.356a21.271,21.271,0,0,0-5.974,1.676,13.408,13.408,0,0,0-4.8,3.971,28.014,28.014,0,0,0-3.529,6.308,53.322,53.322,0,0,0-2.475,7.213,47.656,47.656,0,0,0-1.44,9.01.182.182,0,0,0,.091.159,25.493,25.493,0,0,0,4.321,1.811c.227.073.324-.284.1-.356" transform="translate(-656.824 -149.869)" fill="#2b244a"/>
        <path id="Trazado_887751" data-name="Trazado 887751" d="M775.676,335.658a44.977,44.977,0,0,0,22.778,3.323c.234-.027.236-.4,0-.369a44.762,44.762,0,0,1-17.778-1.544,44.221,44.221,0,0,1-4.814-1.728c-.216-.092-.4.226-.186.319" transform="translate(-659.492 -285.132)" fill="#2b244a"/>
        <path id="Trazado_887752" data-name="Trazado 887752" d="M1098.338,427.175q.316-.216.627-.44l-.142.019c1.433.263,2.876.533,4.329.668.964.09,2.163.028,2.644-.966a2.553,2.553,0,0,0,.036-2.113l-.11.271a2.561,2.561,0,0,0,1.8-1.838,2.62,2.62,0,0,0-.606-2.5l-.224.29c.7.34,1.4.709,2.119,1.014a3.78,3.78,0,0,0,1.966.363,1.819,1.819,0,0,0,1.626-2.3c-.087-.218-.444-.123-.356.1.422,1.063-.7,1.871-1.648,1.858a4.268,4.268,0,0,1-1.737-.489c-.6-.284-1.189-.576-1.783-.863a.185.185,0,0,0-.224.29,2.236,2.236,0,0,1,.511,2.141,2.19,2.19,0,0,1-1.545,1.58.187.187,0,0,0-.11.271,2.134,2.134,0,0,1-.105,1.868,1.62,1.62,0,0,1-1.323.679,6.92,6.92,0,0,1-1.408-.075c-.707-.084-1.411-.2-2.112-.314q-.644-.108-1.286-.225c-.175-.032-.372-.112-.534-.022-.206.114-.4.282-.592.415s-.01.454.186.319" transform="translate(-933.712 -356.726)" fill="#2b244a"/>
        <path id="Trazado_887753" data-name="Trazado 887753" d="M1151.012,386.347l1.56,1.108a.186.186,0,0,0,.253-.066.189.189,0,0,0-.066-.253l-1.559-1.108a.186.186,0,0,0-.253.066.189.189,0,0,0,.066.253" transform="translate(-978.654 -328.225)" fill="#2b244a"/>
        <path id="Trazado_887754" data-name="Trazado 887754" d="M1172.32,464.434a6.936,6.936,0,0,0,6.762-1.139c.184-.151-.079-.411-.261-.261a6.567,6.567,0,0,1-6.4,1.044c-.223-.084-.319.273-.1.356" transform="translate(-996.744 -393.689)" fill="#2b244a"/>
        <path id="Trazado_887755" data-name="Trazado 887755" d="M1216.176,463.328a16.429,16.429,0,0,0,2.624,1.031.185.185,0,0,0,.1-.356,15.877,15.877,0,0,1-2.536-.994c-.212-.105-.4.213-.186.319" transform="translate(-1034.061 -393.688)" fill="#2b244a"/>
        <path id="Trazado_887756" data-name="Trazado 887756" d="M964.794,105.75l6.534-.447L970,114.461s-.712,1.292-3.168.914a4.7,4.7,0,0,1-3.271-1.692Z" transform="translate(-819.341 -89.541)" fill="#e0785e"/>
        <path id="Trazado_887757" data-name="Trazado 887757" d="M1006.151,23.65c.926,1.08,4.2,5.6,2.017,9.566s-6.18,3.344-7.271,3.356-.271-11.5-.271-11.5Z" transform="translate(-850.602 -20.11)" fill="#2b244a"/>
        <path id="Trazado_887758" data-name="Trazado 887758" d="M952.891,31.877q.046-.185.1-.368c1.3-4.356,6.862-5.8,10.392-3.2,2.972,2.192,3.965,5.825,3.776,9.108-.018.3-.046.628-.086.967.019.082.04.164.053.247.581,3.524-.472,7.406-3.918,7.379a8.651,8.651,0,0,1-5.662-2.467c-3.243-2.949-5.757-7.23-4.655-11.666" transform="translate(-810.041 -22.97)" fill="#e0785e"/>
        <path id="Trazado_887759" data-name="Trazado 887759" d="M1012.564,91.166c.217,0,.476-.123.574-.542.14-.606-.076-1.645-.776-1.526-.752.128-.6,2.063.2,2.068" transform="translate(-860.418 -75.754)" fill="#2b244a"/>
        <path id="Trazado_887760" data-name="Trazado 887760" d="M1039.192,93.547c.217,0,.476-.123.573-.542.14-.606-.076-1.645-.776-1.526-.752.128-.6,2.063.2,2.068" transform="translate(-883.061 -77.778)" fill="#2b244a"/>
        <path id="Trazado_887761" data-name="Trazado 887761" d="M998.571,73.055c.218.427.918.37,1.334.324a6.385,6.385,0,0,1,1.038-.068,5.014,5.014,0,0,0,1.215.036c.429-.107.489-.558.388-.932-.26-.962-1.949-1.385-3.043-.874a1.92,1.92,0,0,0-.735.6.91.91,0,0,0-.2.918" transform="translate(-849.054 -60.647)" fill="#2b244a"/>
        <path id="Trazado_887762" data-name="Trazado 887762" d="M1032.333,75.439a1.255,1.255,0,0,0,.723.123,2.32,2.32,0,0,1,.785.027,4.7,4.7,0,0,1,.781.409,12.573,12.573,0,0,0-.185-1.763,1.767,1.767,0,0,0-2.355.1.77.77,0,0,0,.252,1.1" transform="translate(-877.489 -62.792)" fill="#2b244a"/>
        <path id="Trazado_887763" data-name="Trazado 887763" d="M951.671,18.452a8.8,8.8,0,0,1,5.865,2.664c1.144,1.336,1.106,2.94.633,4.619a.885.885,0,0,0-.054.166c-1.1-3.125-3.534-2.722-3.534-2.722-.973,2.873-1.989,3.393-4.485,2.788-1.511-.366-2.347.752-1.727,2.17.485,1.249.093,2.414.549,3.631.449,1.2-1.083,3.375-2.591,3.868l-.4-2.429c-3.734-3.152-3.584-8.049-3.209-9.693a6.371,6.371,0,0,1,4.368-4.416,12.825,12.825,0,0,1,4.589-.646" transform="translate(-801.455 -15.681)" fill="#2b244a"/>
        <path id="Trazado_887764" data-name="Trazado 887764" d="M1016.943,41.681a3.585,3.585,0,0,0-2.363-1.884,2.942,2.942,0,0,0-2.854.924,1.21,1.21,0,0,0-.109,1.423,2.364,2.364,0,0,0,.624,1.465,1.249,1.249,0,0,0,1.412.228,1.22,1.22,0,0,0,.509-.518,2.33,2.33,0,0,0,.6.6,1.626,1.626,0,0,0,1.508.256,1.594,1.594,0,0,0,.887-1.067,2.018,2.018,0,0,0-.214-1.424" transform="translate(-860.046 -33.785)" fill="#2b244a"/>
        <path id="Trazado_887765" data-name="Trazado 887765" d="M1028.531,94.885a1.116,1.116,0,0,1-.122,1.688.186.186,0,0,0,0,.261.189.189,0,0,0,.261,0,1.482,1.482,0,0,0,.122-2.21c-.167-.17-.428.091-.261.261" transform="translate(-874.433 -80.414)" fill="#2b244a"/>
        <path id="Trazado_887766" data-name="Trazado 887766" d="M996.615,144.109a6.84,6.84,0,0,1-1.722-1.059.189.189,0,0,0-.261,0,.186.186,0,0,0,0,.261,7.135,7.135,0,0,0,1.8,1.116.191.191,0,0,0,.253-.066.186.186,0,0,0-.066-.253" transform="translate(-845.712 -121.594)" fill="#2b244a"/>
        <path id="Trazado_887767" data-name="Trazado 887767" d="M968.932,87.183a2.27,2.27,0,1,0,2.257-2.283,2.27,2.27,0,0,0-2.257,2.283" transform="translate(-823.904 -72.192)" fill="#e0785e"/>
        <path id="Trazado_887768" data-name="Trazado 887768" d="M974.993,89.971a2.078,2.078,0,0,0-.639,2.685c.112.21.431.023.319-.186a1.7,1.7,0,0,1,.506-2.179c.193-.136.008-.456-.186-.319" transform="translate(-828.304 -76.476)" fill="#2b244a"/>
        <path id="Trazado_887769" data-name="Trazado 887769" d="M1018.506,116.171a1.972,1.972,0,0,0,1.962.858.186.186,0,0,0,.129-.227.189.189,0,0,0-.227-.129,1.588,1.588,0,0,1-1.544-.688c-.129-.2-.449-.014-.319.186" transform="translate(-866.032 -98.552)" fill="#2b244a"/>
        <path id="Trazado_887770" data-name="Trazado 887770" d="M953.888,7.419c-.754-.135-1.51-.233-2.273-.295a10.5,10.5,0,0,0-1.942-4.356A6.032,6.032,0,0,0,944.814.041,11.478,11.478,0,0,0,936.476,2.5c-2.35,1.986-2.8,4.532-2.823,8.075-.007,1.343.334,2.409,2.056,2.07a2.227,2.227,0,0,0,1.713-1,8.261,8.261,0,0,1,.792-1.071,4.507,4.507,0,0,1,1-.783,8.241,8.241,0,0,1,2.367-.86,28.259,28.259,0,0,1,6.135-.625c1.046,0,2.1,0,3.145.091,1.122.093,2.033.176,3.174.267.339.027.888-.082.9-.525.01-.5-.679-.651-1.046-.716" transform="translate(-793.905 0.002)" fill="#87a771"/>
        <path id="Trazado_887771" data-name="Trazado 887771" d="M986.5,46.376a.615.615,0,0,1,.143-.928,2.6,2.6,0,0,1,1.231-.332c.9-.1,1.8-.177,2.7-.228a36.7,36.7,0,0,1,5.384.1c.237.022.235-.348,0-.369a36.37,36.37,0,0,0-4.805-.126c-.787.033-1.572.09-2.356.163-.417.039-.835.077-1.251.13a2.715,2.715,0,0,0-.963.267,1.01,1.01,0,0,0-.349,1.588c.159.177.419-.084.261-.261" transform="translate(-838.402 -37.805)" fill="#2b244a"/>
        <path id="Trazado_887772" data-name="Trazado 887772" d="M944.192,12.612a7.436,7.436,0,0,1,4.606-2.195,3.184,3.184,0,0,1,2.089.435,2.774,2.774,0,0,1,.926,1.7,8.746,8.746,0,0,1,.014,2.91c-.031.235.338.232.369,0a9.457,9.457,0,0,0,.013-2.8,3.4,3.4,0,0,0-.927-1.966,3.065,3.065,0,0,0-2.09-.666,6.669,6.669,0,0,0-2.645.564,8.337,8.337,0,0,0-2.616,1.749.185.185,0,0,0,.261.261" transform="translate(-802.599 -8.534)" fill="#2b244a"/>
        <path id="Trazado_887773" data-name="Trazado 887773" d="M934,61.182a3.435,3.435,0,0,1,2.263-.724,1.26,1.26,0,0,1,.9.676,2.714,2.714,0,0,1,.251,1.186c.015.236.385.238.369,0a3.186,3.186,0,0,0-.289-1.348,1.628,1.628,0,0,0-1.029-.847,3.6,3.6,0,0,0-2.654.739c-.2.127-.015.447.186.319" transform="translate(-793.969 -51.073)" fill="#2b244a"/>
        <path id="Trazado_887774" data-name="Trazado 887774" d="M1036.726,171.076a13.858,13.858,0,0,1,5.861,6.7A34.211,34.211,0,0,1,1045.4,188.2a48.33,48.33,0,0,1,.354,6.315.185.185,0,0,0,.369,0,45.588,45.588,0,0,0-1.258-11.295,24.212,24.212,0,0,0-4.182-9.281,11.577,11.577,0,0,0-3.77-3.185c-.211-.108-.4.211-.186.319" transform="translate(-881.471 -145.179)" fill="#2b244a"/>
        <path id="Trazado_887775" data-name="Trazado 887775" d="M916.087,265.844a129.331,129.331,0,0,1,2.037,12.889q.2,1.842.339,3.69c.018.235.388.237.369,0a130.319,130.319,0,0,0-1.679-13.041q-.329-1.823-.711-3.637c-.049-.232-.4-.134-.356.1" transform="translate(-778.965 -225.856)" fill="#2b244a"/>
        <path id="Trazado_887776" data-name="Trazado 887776" d="M785.355,710.4a17.388,17.388,0,0,0,2.523-.111c.964-.073,1.934-.146,2.888-.307a4.059,4.059,0,0,0,1.956-.728,3.616,3.616,0,0,0,1.02-1.661c.545-1.554.9-3.167,1.6-4.667a9.018,9.018,0,0,1,3.06-3.733c.2-.129.013-.449-.186-.319a9.177,9.177,0,0,0-2.8,3.113,20.228,20.228,0,0,0-1.668,4.359,8.614,8.614,0,0,1-.771,2.048,2.558,2.558,0,0,1-1.716,1.118,20.772,20.772,0,0,1-3.006.378c-.59.048-1.18.089-1.771.119a9.265,9.265,0,0,1-1.129.021c-.237-.017-.236.352,0,.369" transform="translate(-667.654 -594.238)" fill="#2b244a"/>
        <path id="Trazado_887777" data-name="Trazado 887777" d="M829.028,757.973c-.6,2.885-1.085,5.8-1.426,8.722-.168,1.445-.3,2.894-.36,4.348a11.33,11.33,0,0,0,.495,4.527,3.659,3.659,0,0,0,1.239,1.55,3.3,3.3,0,0,0,1.742.734c.237.015.236-.355,0-.369a2.921,2.921,0,0,1-1.5-.643,3.312,3.312,0,0,1-1.123-1.37,10.736,10.736,0,0,1-.484-4.355,70.986,70.986,0,0,1,.937-8.505q.37-2.279.838-4.54c.048-.232-.308-.331-.356-.1" transform="translate(-703.4 -644.408)" fill="#2b244a"/>
        <path id="Trazado_887778" data-name="Trazado 887778" d="M1083.3,1255.612a22.752,22.752,0,0,0,7.185,1.4,31.9,31.9,0,0,0,7.741-.526,20.809,20.809,0,0,0,3.782-1.086c.218-.088.123-.445-.1-.356a24.132,24.132,0,0,1-7.01,1.528,30.659,30.659,0,0,1-7.705-.286,19.118,19.118,0,0,1-3.8-1.028c-.221-.087-.317.27-.1.356" transform="translate(-921.047 -1067.177)" fill="#2b244a"/>
        <path id="Trazado_887779" data-name="Trazado 887779" d="M796.8,1253.745a19.23,19.23,0,0,1-7.14,1.123,33.9,33.9,0,0,1-7.743-.948,26.475,26.475,0,0,1-3.717-1.166c-.221-.089-.316.268-.1.356a32.792,32.792,0,0,0,14.949,1.93,16.046,16.046,0,0,0,3.847-.938c.219-.086.123-.443-.1-.356" transform="translate(-661.534 -1065.232)" fill="#2b244a"/>
        <path id="Trazado_887780" data-name="Trazado 887780" d="M882.334,420.362a38.12,38.12,0,0,1,6.639-2.994c.224-.076.128-.433-.1-.356a38.606,38.606,0,0,0-6.727,3.032.185.185,0,0,0,.186.319" transform="translate(-750.034 -354.585)" fill="#2b244a"/>
        <path id="Trazado_887781" data-name="Trazado 887781" d="M1432.34,239.082l0,0a.422.422,0,0,0-.042-.032,1.736,1.736,0,0,0-1.633,0,.416.416,0,0,0-.042.032l0,0a.443.443,0,0,0-.15.384l.266,2.335a.752.752,0,0,0,1.494,0l.266-2.335a.443.443,0,0,0-.15-.384" transform="translate(-1216.352 -203.091)" fill="#70708c"/>
        <path id="Trazado_887782" data-name="Trazado 887782" d="M1508.988,289.094h4.151a2.255,2.255,0,0,0,2.255-2.255V261.7a2.255,2.255,0,0,0-2.255-2.255h-4.151a2.255,2.255,0,0,0-2.255,2.255v25.141a2.255,2.255,0,0,0,2.255,2.255" transform="translate(-1281.208 -220.61)" fill="#99cae5"/>
        <path id="Trazado_887783" data-name="Trazado 887783" d="M1500.154,289.094h4.151a2.255,2.255,0,0,0,2.255-2.255V261.7a2.255,2.255,0,0,0-2.255-2.255h-4.151a2.255,2.255,0,0,0-2.255,2.255v25.141a2.255,2.255,0,0,0,2.255,2.255" transform="translate(-1273.697 -220.61)" fill="#70708c"/>
        <rect id="Rectángulo_408671" data-name="Rectángulo 408671" width="11.627" height="5.073" transform="translate(220.062 62.083)" fill="#70708c"/>
        <path id="Trazado_887784" data-name="Trazado 887784" d="M1450.68,604.765h0V559.2h-3.5v42.065a3.5,3.5,0,0,0,3.5,3.5" transform="translate(-1230.572 -475.502)" fill="#99cae5"/>
        <path id="Trazado_887785" data-name="Trazado 887785" d="M1508.312,604.765h0a3.5,3.5,0,0,0,3.5-3.5V559.2h-3.5Z" transform="translate(-1282.551 -475.502)" fill="#99cae5"/>
        <path id="Trazado_887786" data-name="Trazado 887786" d="M1447.183,523.212h12.647v-3.622a2.714,2.714,0,0,0-2.714-2.714h-7.22a2.714,2.714,0,0,0-2.714,2.714Z" transform="translate(-1230.572 -439.511)" fill="#70708c"/>
        <path id="Trazado_887787" data-name="Trazado 887787" d="M1470.547,505.557h5.653v-3.265a1.572,1.572,0,0,0-1.572-1.572h-2.508a1.572,1.572,0,0,0-1.572,1.572Z" transform="translate(-1250.439 -425.773)" fill="#70708c"/>
        <path id="Trazado_887788" data-name="Trazado 887788" d="M1473.372,901.769h0a1.275,1.275,0,0,0,1.341-1.171l1.485-83.023v-8.1h-5.653v8.1l1.485,83.023a1.275,1.275,0,0,0,1.341,1.171" transform="translate(-1250.438 -688.312)" fill="#99cae5"/>
        <rect id="Rectángulo_408672" data-name="Rectángulo 408672" width="12.646" height="2.364" transform="translate(216.613 121.165)" fill="#70708c"/>
        <path id="Trazado_887789" data-name="Trazado 887789" d="M1482.638,1396.35a2.424,2.424,0,0,1-1.1.289,2.459,2.459,0,0,1-1.118-.289c-.211-.108-.4.211-.186.319a2.869,2.869,0,0,0,1.3.339,2.828,2.828,0,0,0,1.291-.339c.211-.109.025-.428-.186-.319" transform="translate(-1258.592 -1187.328)" fill="#2b244a"/>
        <path id="Trazado_887790" data-name="Trazado 887790" d="M1469.313,823.929v5.61a.185.185,0,0,0,.369,0v-5.61a.185.185,0,0,0-.369,0" transform="translate(-1249.389 -700.453)" fill="#2b244a"/>
        <path id="Trazado_887791" data-name="Trazado 887791" d="M1508.18,829.54v-5.61a.185.185,0,0,0-.369,0v5.61a.185.185,0,0,0,.369,0" transform="translate(-1282.125 -700.453)" fill="#2b244a"/>
        <path id="Trazado_887792" data-name="Trazado 887792" d="M1453.1,445l-.7,3.3a1.063,1.063,0,0,1-1.04.843h-13.216a1.063,1.063,0,0,1-1.04-.843l-.7-3.3Z" transform="translate(-1221.407 -378.389)" fill="#70708c"/>
        <path id="Trazado_887793" data-name="Trazado 887793" d="M1528.431,378.456V383.5a.185.185,0,0,0,.37,0v-5.048a.185.185,0,0,0-.37,0" transform="translate(-1299.659 -321.657)" fill="#2b244a"/>
        <path id="Trazado_887794" data-name="Trazado 887794" d="M1464.628,358.632h12.058v1.693a2.288,2.288,0,0,1-2.288,2.288h-9.771Z" transform="translate(-1245.406 -304.952)" fill="#99cae5"/>
        <rect id="Rectángulo_408673" data-name="Rectángulo 408673" width="12.059" height="10.916" transform="translate(219.222 42.764)" fill="#70708c"/>
        <path id="Trazado_887795" data-name="Trazado 887795" d="M1498.206,285.211h3.477c.555,0,1.127-.041,1.68,0a1.743,1.743,0,0,1,1.141.955,4.35,4.35,0,0,1,.246,2.093v8c0,.406,0,.812,0,1.217a2.15,2.15,0,0,1-1.313,2.039c-.217.089-.122.447.1.356a2.515,2.515,0,0,0,1.584-2.31c0-.26,0-.52,0-.781v-8.306a7.732,7.732,0,0,0-.086-1.969,2.5,2.5,0,0,0-1-1.4,2.374,2.374,0,0,0-.4-.218.932.932,0,0,0-.4-.05h-5.03a.185.185,0,0,0,0,.369" transform="translate(-1273.806 -242.206)" fill="#2b244a"/>
        <path id="Trazado_887796" data-name="Trazado 887796" d="M1508.1,294.64a3.8,3.8,0,0,0,0,7.5h3.519l.051-7.5-3.571,0" transform="translate(-1279.658 -250.538)" fill="#70708c"/>
        <path id="Trazado_887797" data-name="Trazado 887797" d="M1536.385,302.018c0,1.719,1.121,3.113,2.5,3.113s2.5-1.394,2.5-3.113-1.121-3.113-2.5-3.113-2.5,1.394-2.5,3.113" transform="translate(-1306.422 -254.165)" fill="#2b244a"/>
        <path id="Trazado_887798" data-name="Trazado 887798" d="M1523.422,297.362a3.985,3.985,0,0,0,2.209,3.693,3.131,3.131,0,0,0,3.766-1.186,4.465,4.465,0,0,0,.289-4.539,3.259,3.259,0,0,0-3.547-1.828,3.867,3.867,0,0,0-2.717,3.86.185.185,0,0,0,.37,0,3.623,3.623,0,0,1,1.973-3.351,2.764,2.764,0,0,1,3.348,1.081,4.1,4.1,0,0,1,.268,4.088,2.9,2.9,0,0,1-3.172,1.679,3.5,3.5,0,0,1-2.418-3.5.185.185,0,0,0-.37,0" transform="translate(-1295.399 -249.509)" fill="#2b244a"/>
        <path id="Trazado_887799" data-name="Trazado 887799" d="M1510.008,293.409l-2.857,0a3.355,3.355,0,0,0-2.96,1.847,4.511,4.511,0,0,0-.057,4.065,3.366,3.366,0,0,0,2.939,1.959c.961.008,1.922,0,2.883,0a.185.185,0,0,0,0-.369h-2.536a3.546,3.546,0,0,1-1.285-.168,3.032,3.032,0,0,1-1.384-1.1,4.11,4.11,0,0,1-.41-3.841,3.055,3.055,0,0,1,2.732-2.021c.978-.007,1.956,0,2.933,0a.185.185,0,0,0,0-.369" transform="translate(-1278.611 -249.489)" fill="#2b244a"/>
        <path id="Trazado_887800" data-name="Trazado 887800" d="M1488.8,300.393a2.505,2.505,0,0,0,1.559-1.968,5.432,5.432,0,0,0,.025-.737v-8.5c0-.489,0-.978,0-1.467a2.519,2.519,0,0,0-1.343-2.242c-.21-.111-.4.208-.187.319a2.153,2.153,0,0,1,1.16,1.941c0,.476,0,.951,0,1.427V297.3c0,.254,0,.509,0,.764a2.135,2.135,0,0,1-1.313,1.971c-.217.089-.122.447.1.356" transform="translate(-1265.772 -242.726)" fill="#2b244a"/>
        <path id="Trazado_887801" data-name="Trazado 887801" d="M1510.008,293.409l-2.857,0a3.355,3.355,0,0,0-2.96,1.847,4.511,4.511,0,0,0-.057,4.065,3.366,3.366,0,0,0,2.939,1.959c.961.008,1.922,0,2.883,0a.185.185,0,0,0,0-.369h-2.536a3.546,3.546,0,0,1-1.285-.168,3.032,3.032,0,0,1-1.384-1.1,4.11,4.11,0,0,1-.41-3.841,3.055,3.055,0,0,1,2.732-2.021c.978-.007,1.956,0,2.933,0a.185.185,0,0,0,0-.369" transform="translate(-1278.611 -249.489)" fill="#2b244a"/>
        <rect id="Rectángulo_408674" data-name="Rectángulo 408674" width="1.223" height="6.225" transform="translate(232.467 44.74)" fill="#2b244a"/>
        <path id="Trazado_887802" data-name="Trazado 887802" d="M1544.554,302.018c0,1.719,1.121,3.113,2.5,3.113s2.5-1.394,2.5-3.113-1.121-3.113-2.5-3.113-2.5,1.394-2.5,3.113" transform="translate(-1313.368 -254.165)" fill="#2b244a"/>
        <path id="Trazado_887803" data-name="Trazado 887803" d="M1551.442,309.154a1.889,1.889,0,0,0,1,1.745,1.4,1.4,0,0,0,1.715-.573,2.184,2.184,0,0,0,.123-2.13,1.468,1.468,0,0,0-1.6-.866,1.819,1.819,0,0,0-1.24,1.825.185.185,0,0,0,.37,0,1.531,1.531,0,0,1,.767-1.4,1.029,1.029,0,0,1,1.289.452,1.816,1.816,0,0,1,.109,1.7,1.108,1.108,0,0,1-1.235.708,1.463,1.463,0,0,1-.93-1.459.185.185,0,0,0-.37,0" transform="translate(-1319.225 -261.302)" fill="#8d84b8"/>
        <path id="Trazado_887804" data-name="Trazado 887804" d="M1427.207,266.555c0-3.8.021-6.858.062-7.061a2.167,2.167,0,0,1,.507-1.12c.482-.491,1.3-.413,1.927-.415.268,0,.538,0,.807.012.3-.022.6-.011.87-.012.35,0,.7,0,1.053.021a1.691,1.691,0,0,1,.9.279,1.138,1.138,0,0,1,.132.115,1.9,1.9,0,0,1,.464.881,3.753,3.753,0,0,1,.069.809c0,.121,0,.241.006.361q0,.108,0,.215a.869.869,0,0,0,0,.222,7.721,7.721,0,0,1,.017,11.387c0,.528,0,1.053-.005,1.568.028,3.543.011,7.086-.091,10.627-.027.942.039,2.519-.883,3.083a2.854,2.854,0,0,1-1.557.3c-.274-.006-1.4.005-1.676,0a3.184,3.184,0,0,1-1.616-.3,1.793,1.793,0,0,1-.735-1.53,8.245,8.245,0,0,1-.148-1.553c-.1-3.541-.12-7.085-.091-10.627-.009-2.381-.014-4.951-.012-7.262" transform="translate(-1213.585 -219.345)" fill="#70708c"/>
        <path id="Trazado_887805" data-name="Trazado 887805" d="M1455.906,455.3h-15.4a.185.185,0,0,0,0,.369h15.4a.185.185,0,0,0,0-.369" transform="translate(-1224.745 -387.149)" fill="#2b244a"/>
        <path id="Trazado_887806" data-name="Trazado 887806" d="M1409.409,259.494a2.167,2.167,0,0,1,.507-1.12c.482-.491,1.3-.413,1.927-.415h1.676c.351,0,.7,0,1.053.022a1.691,1.691,0,0,1,.9.279,1.135,1.135,0,0,1,.132.115,3.28,3.28,0,0,1,.544,2.406c.01.7.013,1.409.016,2.114q.014,3.011.008,6.022c0,1.633-.025,3.267-.012,4.9.027,3.389.013,6.779-.079,10.167a14.4,14.4,0,0,1-.131,1.907,2.11,2.11,0,0,1-.791,1.578,3.738,3.738,0,0,1-2.021.356c-1.2-.014-2.976.028-3.392-1.026a6.908,6.908,0,0,1-.294-2.356c-.1-3.541-.12-7.085-.092-10.627-.025-6.328-.016-14,.049-14.323" transform="translate(-1198.399 -219.345)" fill="#99cae5"/>
        <path id="Trazado_887807" data-name="Trazado 887807" d="M1409.348,278.965c0,3.547,2.085,6.423,4.657,6.423s4.657-2.876,4.657-6.423-2.085-6.423-4.657-6.423-4.657,2.876-4.657,6.423" transform="translate(-1198.4 -231.748)" fill="#99cae5"/>
        <path id="Trazado_887808" data-name="Trazado 887808" d="M1446.635,287.84a6.628,6.628,0,0,0,2.5-4.257,8.609,8.609,0,0,0-.733-5.446,5.79,5.79,0,0,0-1.723-2.055c-.193-.14-.377.181-.186.319a6.322,6.322,0,0,1,2.292,4.041,8.174,8.174,0,0,1-.716,5.154,5.364,5.364,0,0,1-1.62,1.926c-.193.136-.008.457.186.319" transform="translate(-1229.878 -234.728)" fill="#2b244a"/>
        <path id="Trazado_887809" data-name="Trazado 887809" d="M1471.682,296.091c2.418-1.71,3.064-5.187,2.431-7.923a7.574,7.574,0,0,0-.984-2.372c-.128-.2-.448-.015-.319.186a8.079,8.079,0,0,1,.067,8.288,5.136,5.136,0,0,1-1.381,1.5c-.193.136-.008.457.186.319" transform="translate(-1251.176 -242.945)" fill="#2b244a"/>
        <path id="Trazado_887810" data-name="Trazado 887810" d="M1450.414,353.149h-3.68a.185.185,0,0,0,0,.369h3.68a.185.185,0,0,0,0-.369" transform="translate(-1230.038 -300.29)" fill="#2b244a"/>
        <path id="Trazado_887811" data-name="Trazado 887811" d="M1450.973,275.729h-3.447a.185.185,0,0,0,0,.369h3.447a.185.185,0,0,0,0-.369" transform="translate(-1230.712 -234.458)" fill="#2b244a"/>
        <path id="Trazado_887812" data-name="Trazado 887812" d="M1439.469,258.6c.7.432.693,1.37.691,2.094,0,.969.015,1.939.019,2.909q.013,3.01.005,6.02c-.013,4.032.031,8.064-.035,12.1-.018,1.114-.028,2.231-.081,3.344-.039.824-.058,2.064-.869,2.538a.185.185,0,0,0,.186.319,2.434,2.434,0,0,0,.974-1.948,27.666,27.666,0,0,0,.137-3.063q.067-3.16.059-6.32c-.005-4.207.01-8.414,0-12.621,0-1.137-.019-2.274-.021-3.411a2.478,2.478,0,0,0-.875-2.275c-.2-.125-.389.194-.186.319" transform="translate(-1223.708 -219.598)" fill="#2b244a"/>
        <path id="Trazado_887813" data-name="Trazado 887813" d="M1471.1,353.332v.505a.185.185,0,1,0,.369,0v-.505a.185.185,0,1,0-.369,0" transform="translate(-1250.911 -300.288)" fill="#2b244a"/>
        <path id="Trazado_887814" data-name="Trazado 887814" d="M1441.823,472.688h-17.739a1.553,1.553,0,0,0-1.552,1.553v4.692a1.553,1.553,0,0,0,1.552,1.553h4.172v.208a1.553,1.553,0,0,0,1.552,1.553h6.29a1.553,1.553,0,0,0,1.552-1.553v-.208h4.172a1.553,1.553,0,0,0,1.553-1.553v-4.692a1.553,1.553,0,0,0-1.553-1.553" transform="translate(-1209.61 -401.937)" fill="#99cae5"/>
        <path id="Trazado_887815" data-name="Trazado 887815" d="M1443.356,488.727h-20.474a.185.185,0,0,0,0,.369h20.474a.185.185,0,0,0,0-.369" transform="translate(-1209.756 -415.575)" fill="#2b244a"/>
        <path id="Trazado_887816" data-name="Trazado 887816" d="M1314.783,607.062h0l12.39-46.568H1323.6l-11.547,43.4c-.466,1.751.756,3.171,2.731,3.171" transform="translate(-1115.583 -476.6)" fill="#99cae5"/>
        <path id="Trazado_887817" data-name="Trazado 887817" d="M1369.457,607.062h0a4.711,4.711,0,0,0,4.418-3.171l11.547-43.4h-3.574Z" transform="translate(-1164.48 -476.6)" fill="#99cae5"/>
        <path id="Trazado_887818" data-name="Trazado 887818" d="M1446.223,595.755l1.158-4.351,1.831-6.882.422-1.587a.185.185,0,0,0-.356-.1l-1.158,4.351-1.831,6.882-.422,1.587a.185.185,0,0,0,.356.1" transform="translate(-1229.447 -495.487)" fill="#2b244a"/>
        <path id="Trazado_887819" data-name="Trazado 887819" d="M1447.512,560.672l.625-2.35.09-.336a.185.185,0,0,0-.356-.1l-.625,2.351-.089.336a.185.185,0,0,0,.356.1" transform="translate(-1230.543 -474.272)" fill="#2b244a"/>
        <path id="Trazado_887820" data-name="Trazado 887820" d="M1389.758,523.709h12.926l1.082-4.068a1.905,1.905,0,0,0-2.073-2.407h-7.5a3.577,3.577,0,0,0-3.354,2.407Z" transform="translate(-1181.742 -439.815)" fill="#70708c"/>
        <path id="Trazado_887821" data-name="Trazado 887821" d="M1476.825,536.618l-.783,3.057a.185.185,0,0,0,.356.1l.783-3.057a.185.185,0,0,0-.356-.1" transform="translate(-1255.105 -456.186)" fill="#2b244a"/>
        <path id="Trazado_887822" data-name="Trazado 887822" d="M1420.754,505.663h5.777l.944-3.549a1.1,1.1,0,0,0-1.2-1.395h-2.633a2.072,2.072,0,0,0-1.943,1.395Z" transform="translate(-1208.099 -425.772)" fill="#70708c"/>
        <path id="Trazado_887823" data-name="Trazado 887823" d="M1422.03,517.155a3,3,0,0,0-.223,1.722,1.514,1.514,0,0,0,1.594.835h1.893c.166,0,.333,0,.5,0a2.342,2.342,0,0,0,1.369-.474,2.062,2.062,0,0,0,.77-1.12c.077-.285.152-.57.228-.855a.185.185,0,0,0-.356-.1,3.415,3.415,0,0,1-.614,1.558,1.975,1.975,0,0,1-1.292.617c-.143.008-.288,0-.432,0H1423.7c-.486,0-1.064.063-1.411-.354-.394-.474-.041-1.218.1-1.735a.185.185,0,0,0-.356-.1" transform="translate(-1208.934 -439.636)" fill="#2b244a"/>
        <path id="Trazado_887824" data-name="Trazado 887824" d="M1191.025,910.625h0a1.812,1.812,0,0,0,1.689-1.2l24.1-84.856,2.2-8.281h-5.778l-2.2,8.281-21.059,84.856a.963.963,0,0,0,1.052,1.2" transform="translate(-1011.832 -694.11)" fill="#99cae5"/>
        <path id="Trazado_887825" data-name="Trazado 887825" d="M1331.052,816.31l-.628,2.364H1317.5l.628-2.364Z" transform="translate(-1120.297 -694.126)" fill="#70708c"/>
        <path id="Trazado_887826" data-name="Trazado 887826" d="M1198.154,1416.082a3.618,3.618,0,0,1-2.364,0c-.223-.084-.319.273-.1.356a3.955,3.955,0,0,0,2.561,0c.227-.069.13-.426-.1-.356" transform="translate(-1016.617 -1204.115)" fill="#2b244a"/>
        <path id="Trazado_887827" data-name="Trazado 887827" d="M1331.475,831.029q-.763,2.867-1.526,5.734a.185.185,0,0,0,.356.1l1.526-5.734a.185.185,0,0,0-.356-.1" transform="translate(-1130.879 -706.53)" fill="#2b244a"/>
        <path id="Trazado_887828" data-name="Trazado 887828" d="M1369.652,836.861l1.526-5.734a.185.185,0,0,0-.356-.1l-1.526,5.734a.185.185,0,0,0,.356.1" transform="translate(-1164.337 -706.53)" fill="#2b244a"/>
        <path id="Trazado_887829" data-name="Trazado 887829" d="M1576.7,607.062h0l-9.5-46.568h3.574l8.853,43.4c.357,1.751-.953,3.171-2.927,3.171" transform="translate(-1332.626 -476.6)" fill="#99cae5"/>
        <path id="Trazado_887830" data-name="Trazado 887830" d="M1517.8,607.062h0a4.359,4.359,0,0,1-4.221-3.171l-8.853-43.4h3.574Z" transform="translate(-1279.498 -476.6)" fill="#99cae5"/>
        <path id="Trazado_887831" data-name="Trazado 887831" d="M1511.655,597.8l-.345-1.7-.828-4.075-1-4.929-.866-4.261-.284-1.4c-.045-.219-.071-.454-.136-.668,0-.01,0-.021-.006-.031-.047-.233-.4-.134-.356.1l.345,1.7.828,4.075,1,4.929.866,4.261.285,1.4c.044.219.071.454.136.668a.29.29,0,0,1,.006.031c.047.233.4.134.356-.1" transform="translate(-1282.138 -493.7)" fill="#2b244a"/>
        <path id="Trazado_887832" data-name="Trazado 887832" d="M1526.542,558.005l-.468-2.3-.067-.328c-.047-.233-.4-.134-.356.1l.468,2.3.067.328c.047.233.4.134.356-.1" transform="translate(-1297.292 -472.136)" fill="#2b244a"/>
        <path id="Trazado_887833" data-name="Trazado 887833" d="M1512.681,523.709h-12.926l-.83-4.068a2.035,2.035,0,0,1,2.223-2.407h7.5a3.309,3.309,0,0,1,3.2,2.407Z" transform="translate(-1274.531 -439.815)" fill="#70708c"/>
        <path id="Trazado_887834" data-name="Trazado 887834" d="M1498.73,536.709l.655,3.057c.05.232.406.134.356-.1l-.655-3.057c-.05-.232-.406-.134-.356.1" transform="translate(-1274.399 -456.178)" fill="#2b244a"/>
        <path id="Trazado_887835" data-name="Trazado 887835" d="M1524.663,505.663h-5.777l-.724-3.549a1.179,1.179,0,0,1,1.288-1.395h2.633a1.917,1.917,0,0,1,1.856,1.395Z" transform="translate(-1290.904 -425.772)" fill="#70708c"/>
        <path id="Trazado_887836" data-name="Trazado 887836" d="M1524.553,517.242c.094.46.338,1.081.117,1.53-.274.559-.9.559-1.432.559H1521.5a2.4,2.4,0,0,1-1.617-.4,2.685,2.685,0,0,1-.749-1.783c-.047-.233-.4-.134-.356.1a3.459,3.459,0,0,0,.607,1.721,2.4,2.4,0,0,0,1.912.729h1.907a1.911,1.911,0,0,0,1.657-.545c.466-.592.183-1.352.048-2.012-.048-.233-.4-.134-.356.1" transform="translate(-1291.446 -439.625)" fill="#2b244a"/>
        <path id="Trazado_887837" data-name="Trazado 887837" d="M1602.913,910.625h0a1.676,1.676,0,0,1-1.615-1.2l-18.828-84.856-1.689-8.281h5.778l1.689,8.281,15.792,84.856a1.029,1.029,0,0,1-1.126,1.2" transform="translate(-1344.173 -694.11)" fill="#99cae5"/>
        <path id="Trazado_887838" data-name="Trazado 887838" d="M1570.306,818.674h-12.927l-.48-2.364h12.927Z" transform="translate(-1323.866 -694.126)" fill="#70708c"/>
        <path id="Trazado_887839" data-name="Trazado 887839" d="M1713.364,1416.458a3.5,3.5,0,0,0,2.56,0,.19.19,0,0,0,.129-.227.186.186,0,0,0-.227-.129,3.193,3.193,0,0,1-2.364,0,.186.186,0,0,0-.227.129.189.189,0,0,0,.129.227" transform="translate(-1456.795 -1204.135)" fill="#2b244a"/>
        <path id="Trazado_887840" data-name="Trazado 887840" d="M1621.391,831.117l1.17,5.734c.047.233.4.134.356-.1l-1.17-5.734c-.048-.233-.4-.134-.356.1" transform="translate(-1378.701 -706.52)" fill="#2b244a"/>
        <path id="Trazado_887841" data-name="Trazado 887841" d="M1583.57,836.752l-1.17-5.734c-.047-.233-.4-.134-.356.1l1.17,5.734c.047.233.4.134.356-.1" transform="translate(-1345.244 -706.519)" fill="#2b244a"/>
        <path id="Trazado_887842" data-name="Trazado 887842" d="M1410.752,300.393c0,1.314.771,2.379,1.723,2.379s1.723-1.065,1.723-2.379-.771-2.379-1.723-2.379-1.723,1.065-1.723,2.379" transform="translate(-1199.594 -253.407)" fill="#2b244a"/>
        <rect id="Rectángulo_408675" data-name="Rectángulo 408675" width="1.233" height="4.759" transform="translate(211.648 44.607)" fill="#2b244a"/>
        <path id="Trazado_887843" data-name="Trazado 887843" d="M1402.511,300.393c0,1.314.771,2.379,1.723,2.379s1.723-1.065,1.723-2.379-.771-2.379-1.723-2.379-1.723,1.065-1.723,2.379" transform="translate(-1192.586 -253.407)" fill="#2b244a"/>
        <path id="Trazado_887844" data-name="Trazado 887844" d="M1417.381,302.63a2.958,2.958,0,0,0-.05-4.708.185.185,0,0,0-.186.319,2.591,2.591,0,0,1,.05,4.07c-.2.125-.016.445.186.319" transform="translate(-1204.953 -253.307)" fill="#8d84b8"/>
        <path id="Trazado_887845" data-name="Trazado 887845" d="M1475.423,413.912h5.6c.309,0,.619,0,.928,0a.593.593,0,0,1,.516.24.792.792,0,0,1,.1.486v3.144c0,.093,0,.187,0,.279a.567.567,0,0,1-.568.554c-.194.009-.391,0-.585,0h-8.993c-.356,0-.734-.079-.769-.525-.022-.29,0-.589,0-.88v-3.484a.185.185,0,0,0-.369,0v4.212a.963.963,0,0,0,.93,1.046c.606.02,1.217,0,1.823,0h7.873a.954.954,0,0,0,1.018-.8,8.365,8.365,0,0,0,.011-1.1V415.22a2.594,2.594,0,0,0-.116-1.2,1.069,1.069,0,0,0-1.054-.475h-6.345a.185.185,0,0,0,0,.369" transform="translate(-1251.064 -351.644)" fill="#2b244a"/>
        <path id="Trazado_887846" data-name="Trazado 887846" d="M1545.177,298.645c-2.415,1.014-2.509,5.079-.146,6.215.213.1.4-.216.186-.319a3.013,3.013,0,0,1-1.536-2.794,2.961,2.961,0,0,1,1.593-2.746c.216-.091.121-.448-.1-.356" transform="translate(-1312.312 -253.931)" fill="#8d84b8"/>
        <path id="Trazado_887847" data-name="Trazado 887847" d="M1463.112,405.772a1.366,1.366,0,1,0,1.348-1.585,1.481,1.481,0,0,0-1.348,1.585" transform="translate(-1244.116 -343.689)" fill="#2b244a"/>
        <rect id="Rectángulo_408676" data-name="Rectángulo 408676" width="0.928" height="3.17" transform="translate(220.344 60.498)" fill="#2b244a"/>
        <path id="Trazado_887848" data-name="Trazado 887848" d="M1469.309,405.772a1.366,1.366,0,1,0,1.348-1.585,1.481,1.481,0,0,0-1.348,1.585" transform="translate(-1249.386 -343.689)" fill="#2b244a"/>
        <path id="Trazado_887849" data-name="Trazado 887849" d="M1468.905,404.208a1.914,1.914,0,0,0,.049,3.141.185.185,0,0,0,.186-.319,1.541,1.541,0,0,1-.049-2.5c.2-.13.013-.45-.186-.319" transform="translate(-1248.365 -343.681)" fill="#8d84b8"/>
        <path id="Trazado_887850" data-name="Trazado 887850" d="M331.283,1204.249a7.6,7.6,0,0,0-1.884-.92,1.237,1.237,0,0,0-.925-.114c-.283.131-.434.471-.594.72a71.319,71.319,0,0,0-4.668,8.027,26.131,26.131,0,0,0-1.638,4.285,12.119,12.119,0,0,0-.47,3.372,3.386,3.386,0,0,0,.294,2.493,4.579,4.579,0,0,0,3.376,2.148.207.207,0,0,0,.233-.172,24.017,24.017,0,0,1,2.441-8.73,29.935,29.935,0,0,1,2.457-3.992c.459-.643.934-1.275,1.413-1.9a8.542,8.542,0,0,0,1.21-1.783,2.926,2.926,0,0,0-1.246-3.43" transform="translate(-272.943 -1023.072)" fill="#2b244a"/>
        <path id="Trazado_887851" data-name="Trazado 887851" d="M391.45,1171.552l-31.207-5.082,1.852,22.411a5.275,5.275,0,0,0,3.947,4.676l22.481,5.764a13.876,13.876,0,0,0,5.9.216l16.585-2.98a5.275,5.275,0,0,0,4.331-4.848l1.5-22.968Z" transform="translate(-306.323 -991.875)" fill="#99cae5"/>
        <path id="Trazado_887852" data-name="Trazado 887852" d="M345.609,1190.161a3.5,3.5,0,0,1-.449.034,8.13,8.13,0,0,1,.147-1.068c.05-.23-.311-.284-.361-.055a8.341,8.341,0,0,0-.157,1.111,6.1,6.1,0,0,1-1.725-.437c-.4-.158-.8-.335-1.2-.507a4.85,4.85,0,0,0-1.155-.419.794.794,0,0,0-.85.357,3.3,3.3,0,0,0-.219,1.217c-.1.929-.194,1.86-.282,2.79-.339,3.58-.627,7.165-1.072,10.733-.222,1.782-.483,3.56-.807,5.327-.247,1.344-.17,2.805-.785,4.059a3.763,3.763,0,0,1-3.928,1.846,9.559,9.559,0,0,1-2.634-.6,18.57,18.57,0,0,1-2.487-1.167,8.682,8.682,0,0,1-1.962-1.3,2.019,2.019,0,0,1-.555-.887,2.517,2.517,0,0,1,.026-1.129,3.263,3.263,0,0,0,.053-2.063c-.066-.133-.132-.273-.29-.3-.243-.035-.5-.018-.75-.048a7.607,7.607,0,0,0-1.285-.1,1.845,1.845,0,0,0-1.677.987,4.234,4.234,0,0,0,.037,2.415,7.5,7.5,0,0,0,.906,2.343,8.663,8.663,0,0,0,3.73,3.064,25.537,25.537,0,0,0,5.074,1.848,23.436,23.436,0,0,0,5.282.745,7.462,7.462,0,0,0,4.47-1.115c2.35-1.659,2.607-4.985,3.118-7.595a81.89,81.89,0,0,0,1.4-12.577c.074-1.93,0-3.844-.084-5.772-.018-.429-.022-.859-.005-1.287a3.971,3.971,0,0,0,.524-.04c.266-.04.222-.457-.046-.417" transform="translate(-272.986 -1010.869)" fill="#2b244a"/>
        <path id="Trazado_887853" data-name="Trazado 887853" d="M566.68,1196.864q.06,1.394.119,2.787l.285,6.656.342,7.986.287,6.707c.041.963.073,1.927.124,2.89a3.455,3.455,0,0,0,.349,1.342c.1.214.423.027.319-.186a4.059,4.059,0,0,1-.322-1.69q-.04-.926-.079-1.853-.137-3.2-.274-6.4l-.338-7.907q-.148-3.451-.3-6.9c-.048-1.128-.07-2.26-.145-3.387,0-.015,0-.03,0-.046-.01-.237-.38-.238-.369,0" transform="translate(-481.86 -1017.568)" fill="#2b244a"/>
        <path id="Trazado_887854" data-name="Trazado 887854" d="M408.41,1152.209h0l-.3-3.419h0a.55.55,0,0,0-.512-.5l-36.169-3.477h-.091l-21.976,1.394a.551.551,0,0,0-.532.511h0l-.3,3.432h0a.586.586,0,0,0,.5.653l32.249,5.342a5.905,5.905,0,0,0,1.731.029l24.879-3.258a.591.591,0,0,0,.517-.7" transform="translate(-296.363 -973.455)" fill="#fff"/>
        <path id="Trazado_887855" data-name="Trazado 887855" d="M646.338,1188.5a2.54,2.54,0,0,0-.3-1.485c-.451-.646-1.322-.6-2.423-.477,0,.089,0,.177,0,.262a5.822,5.822,0,0,1-.007.842c-.081.539-.591.613-1.049.68-.624.085-1.245.173-1.869.262s-1.248.2-1.876.259a.887.887,0,0,1-1.052-.628,4.2,4.2,0,0,1-.052-.92c-.044.007-.085.011-.118.015-.957.107-1.81.019-2.489.794-.576.665-.491,2.3-.336,3.191a1.743,1.743,0,0,0,2.076,1.241c1.241-.114,2.478-.336,3.708-.51l3.693-.521c.9-.126,1.909-.273,2.065-1.341a11.39,11.39,0,0,0,.022-1.666" transform="translate(-539.665 -1008.871)" fill="#2b244a"/>
        <path id="Trazado_887856" data-name="Trazado 887856" d="M475.466,1189.469a1.4,1.4,0,0,1-.838-1.118,1.261,1.261,0,0,1,.885-1.144c.224-.074.128-.431-.1-.356a1.724,1.724,0,0,0-.835.6,1.425,1.425,0,0,0-.321.9,1.774,1.774,0,0,0,1.109,1.474c.224.082.32-.275.1-.356" transform="translate(-403.271 -1009.197)" fill="#2b244a"/>
        <path id="Trazado_887857" data-name="Trazado 887857" d="M436.537,1181c2.231.305,4.463.6,6.69.936.233.035.333-.321.1-.356-2.227-.332-4.459-.631-6.69-.936-.232-.032-.333.324-.1.356" transform="translate(-371.083 -1003.925)" fill="#2b244a"/>
        <path id="Trazado_887858" data-name="Trazado 887858" d="M350.347,1157.094a1.817,1.817,0,0,0,.987.31l1.829.3,6.376,1.056,8.245,1.366,7.982,1.322,5.674.94a9.892,9.892,0,0,0,2.907.254l4.319-.565,7.918-1.037,7.955-1.042,4.424-.579a1.105,1.105,0,0,0,.555-.178c.189-.14,0-.461-.186-.319a2.419,2.419,0,0,1-1.068.219l-2.328.3-7.429.973-8.187,1.072-5.445.713a6.519,6.519,0,0,1-1.881.07c-.232-.036-.463-.077-.694-.115l-4.759-.788-7.58-1.255-8.327-1.379-7.01-1.161-3.63-.6a.668.668,0,0,1-.385-.142c-.174-.161-.436.1-.261.261" transform="translate(-297.858 -983.637)" fill="#2b244a"/>
        <path id="Trazado_887859" data-name="Trazado 887859" d="M234.179,1391.889l-3.828-3.256a.882.882,0,0,1-.1-1.244l.956-1.124a.882.882,0,0,1,1.244-.1l3.828,3.256a.882.882,0,0,1,.1,1.244l-.956,1.124a.882.882,0,0,1-1.244.1" transform="translate(-195.608 -1178.508)" fill="#2b244a"/>
        <path id="Trazado_887860" data-name="Trazado 887860" d="M235.053,1396.456l.23.826-6.493-1.706-.24-.865Z" transform="translate(-194.341 -1185.954)" fill="#2b244a"/>
        <path id="Trazado_887861" data-name="Trazado 887861" d="M241.373,1005.538,238.389,1003a.374.374,0,0,1-.043-.528l59.062-69.453a.374.374,0,0,1,.528-.043l2.983,2.537a.374.374,0,0,1,.043.528L241.9,1005.5a.375.375,0,0,1-.528.043" transform="translate(-202.596 -793.256)" fill="#c8c8e6"/>
        <path id="Trazado_887862" data-name="Trazado 887862" d="M626.641,930.381l-3.828-3.256a.882.882,0,0,1-.1-1.244l.955-1.124a.882.882,0,0,1,1.244-.1l3.828,3.256a.882.882,0,0,1,.1,1.244l-.956,1.124a.882.882,0,0,1-1.244.1" transform="translate(-529.327 -786.077)" fill="#2b244a"/>
        <path id="Trazado_887863" data-name="Trazado 887863" d="M627.619,935.3l.245.885-2.076,1.956-4.434-3.693-.215-.808Z" transform="translate(-528.168 -793.891)" fill="#2b244a"/>
        <path id="Trazado_887864" data-name="Trazado 887864" d="M593.214,964.567l-3.828-3.256a.882.882,0,0,1-.1-1.244l1.722-2.025a.882.882,0,0,1,1.244-.1l3.828,3.256a.882.882,0,0,1,.1,1.244l-1.722,2.025a.882.882,0,0,1-1.244.1" transform="translate(-500.903 -814.38)" fill="#2b244a"/>
        <path id="Trazado_887865" data-name="Trazado 887865" d="M594.893,973.539l.23.8-7.25-.8-.256-.881Z" transform="translate(-499.664 -827.07)" fill="#2b244a"/>
        <path id="Trazado_887866" data-name="Trazado 887866" d="M540.456,1026.607l-3.828-3.256a.882.882,0,0,1-.1-1.244l1.722-2.025a.882.882,0,0,1,1.244-.1l3.828,3.256a.882.882,0,0,1,.1,1.244l-1.722,2.025a.882.882,0,0,1-1.244.1" transform="translate(-456.042 -867.134)" fill="#2b244a"/>
        <path id="Trazado_887867" data-name="Trazado 887867" d="M542.1,1035.427l.231.8-2.4,2.412-4.863-3.226-.248-.907Z" transform="translate(-454.766 -879.665)" fill="#2b244a"/>
        <path id="Trazado_887868" data-name="Trazado 887868" d="M556.966,1022.329l3.416,2.9c.18.153.443-.107.261-.261l-3.415-2.9c-.18-.153-.443.107-.261.261" transform="translate(-473.549 -869.047)" fill="#2b244a"/>
        <path id="Trazado_887869" data-name="Trazado 887869" d="M609.78,960.223l3.416,2.9c.18.153.443-.107.261-.261l-3.416-2.9c-.18-.153-.443.107-.261.261" transform="translate(-518.458 -816.237)" fill="#2b244a"/>
        <path id="Trazado_887870" data-name="Trazado 887870" d="M538.785,1020.53l-3.828-3.256a.882.882,0,0,1-.1-1.244l1.722-2.025a.882.882,0,0,1,1.244-.1l3.828,3.256a.882.882,0,0,1,.1,1.244l-1.722,2.025a.882.882,0,0,1-1.244.1" transform="translate(-454.621 -861.966)" fill="#2b244a"/>
        <path id="Trazado_887871" data-name="Trazado 887871" d="M591.542,958.491l-3.828-3.256a.883.883,0,0,1-.1-1.244l1.722-2.025a.882.882,0,0,1,1.244-.1l3.828,3.256a.882.882,0,0,1,.1,1.244l-1.722,2.025a.882.882,0,0,1-1.244.1" transform="translate(-499.482 -809.213)" fill="#2b244a"/>
        <path id="Trazado_887872" data-name="Trazado 887872" d="M624.969,924.3l-3.828-3.256a.882.882,0,0,1-.1-1.244l.956-1.124a.882.882,0,0,1,1.244-.1l3.828,3.256a.882.882,0,0,1,.1,1.244l-.955,1.124a.882.882,0,0,1-1.244.1" transform="translate(-527.905 -780.911)" fill="#2b244a"/>
        <path id="Trazado_887873" data-name="Trazado 887873" d="M232.508,1385.812l-3.828-3.256a.882.882,0,0,1-.1-1.244l.956-1.124a.882.882,0,0,1,1.244-.1l3.828,3.256a.882.882,0,0,1,.1,1.244l-.956,1.124a.882.882,0,0,1-1.244.1" transform="translate(-194.187 -1173.34)" fill="#2b244a"/>
        <path id="Trazado_887874" data-name="Trazado 887874" d="M239.7,999.461l-2.983-2.537a.374.374,0,0,1-.043-.528l59.062-69.453a.375.375,0,0,1,.528-.043l2.983,2.537a.374.374,0,0,1,.043.528L240.23,999.419a.375.375,0,0,1-.528.043" transform="translate(-201.175 -788.088)" fill="#c8c8e6"/>
        <path id="Trazado_887875" data-name="Trazado 887875" d="M555.3,1016.252l3.416,2.9c.18.153.443-.107.261-.261l-3.416-2.9c-.18-.153-.443.107-.261.261" transform="translate(-472.128 -863.88)" fill="#2b244a"/>
        <path id="Trazado_887876" data-name="Trazado 887876" d="M480.29,1104.453l3.416,2.9c.18.153.443-.107.261-.261l-3.416-2.9c-.18-.153-.443.107-.261.261" transform="translate(-408.35 -938.879)" fill="#2b244a"/>
        <path id="Trazado_887877" data-name="Trazado 887877" d="M397.764,1201.5l3.416,2.9c.18.153.443-.107.261-.261l-3.415-2.9c-.18-.153-.443.107-.261.261" transform="translate(-338.176 -1021.398)" fill="#2b244a"/>
        <path id="Trazado_887878" data-name="Trazado 887878" d="M315.238,1298.543l3.416,2.9c.18.153.443-.107.261-.261l-3.416-2.9c-.18-.153-.443.107-.261.261" transform="translate(-268.002 -1103.918)" fill="#2b244a"/>
        <path id="Trazado_887879" data-name="Trazado 887879" d="M608.109,954.147l3.416,2.9c.18.153.443-.107.261-.261l-3.415-2.9c-.18-.153-.443.107-.261.261" transform="translate(-517.037 -811.07)" fill="#2b244a"/>
        <path id="Trazado_887880" data-name="Trazado 887880" d="M323.807,957.548l-1.522,1.79-4.114,4.838-6.078,7.147-7.454,8.765-8.122,9.551-8.2,9.639-7.663,9.011-6.473,7.612-4.642,5.458-2.2,2.588-.1.112c-.153.18.107.443.261.261l1.522-1.79,4.114-4.838,6.078-7.147,7.454-8.765,8.122-9.551,8.2-9.639,7.663-9.011,6.473-7.612,4.642-5.458,2.2-2.588.1-.112c.153-.18-.107-.443-.261-.261" transform="translate(-227.206 -814.172)" fill="#2b244a"/>
      </g>
    </g>
  </g>
</svg>
