<svg xmlns="http://www.w3.org/2000/svg" xmlns:xlink="http://www.w3.org/1999/xlink" width="295" height="173.767" viewBox="0 0 295 173.767">
  <defs>
    <clipPath id="clip-path">
      <rect id="Rectángulo_408364" data-name="Rectángulo 408364" width="247.469" height="173.765" fill="none"/>
    </clipPath>
    <clipPath id="clip-path-3">
      <rect id="Rectángulo_408292" data-name="Rectángulo 408292" width="69.626" height="5.027" fill="none"/>
    </clipPath>
    <clipPath id="clip-path-21">
      <rect id="Rectángulo_408362" data-name="Rectángulo 408362" width="20.135" height="20.135" fill="none"/>
    </clipPath>
  </defs>
  <g id="Grupo_1113230" data-name="Grupo 1113230" transform="translate(-923.32 -2597.693)">
    <rect id="Imagen_6" data-name="Imagen 6" width="295" height="166" rx="19" transform="translate(923.32 2605.46)" fill="#87a771"/>
    <g id="Grupo_1112397" data-name="Grupo 1112397" transform="translate(952.35 2597.693)">
      <g id="Grupo_1112396" data-name="Grupo 1112396" clip-path="url(#clip-path)">
        <g id="Grupo_1112356" data-name="Grupo 1112356" transform="translate(0 0)">
          <g id="Grupo_1112355" data-name="Grupo 1112355" clip-path="url(#clip-path)">
            <path id="Trazado_885710" data-name="Trazado 885710" d="M10.449,652.893S-3.984,636.3,1.076,617.134s30.25-30.655,42.165-25.146,36.637.561,40.047-18.058,16.837-27.382,38.61-18.379,19.152,43.64,39.715,44.049,47.4,18.172,37.06,53.213Z" transform="translate(0 -485.68)" fill="#deecff"/>
            <path id="Trazado_885711" data-name="Trazado 885711" d="M257.272,1395.981H49.545a2.475,2.475,0,0,1-2.475-2.475v-.547a2.475,2.475,0,0,1,2.475-2.475H257.272a2.475,2.475,0,0,1,2.475,2.475v.547a2.475,2.475,0,0,1-2.475,2.475" transform="translate(-41.416 -1223.451)" fill="#36968a"/>
            <rect id="Rectángulo_408274" data-name="Rectángulo 408274" width="4.191" height="30.708" transform="translate(188.607 136.405)" fill="#36968a"/>
            <path id="Trazado_885712" data-name="Trazado 885712" d="M1587.515,0V17.46l4.4-3.293Z" transform="translate(-1396.812 -0.004)" fill="#7bb88e"/>
            <path id="Trazado_885713" data-name="Trazado 885713" d="M1594.323,182.407l-6.809,2.724v9.993l9.021-5.6Z" transform="translate(-1396.812 -160.496)" fill="#7bb88e"/>
            <path id="Trazado_885714" data-name="Trazado 885714" d="M1597.209,259.716l-9.695,5.747v40.586l20.329-12.108-1.276-4.1-.759-2.446-.694-2.24-.46-1.477-1.949-6.272-.387-1.243-.852-2.744-1.154-3.717Z" transform="translate(-1396.812 -228.518)" fill="#7bb88e"/>
            <path id="Trazado_885715" data-name="Trazado 885715" d="M1608.3,556.721,1587.515,571.7v19l28.256-9.921-3.225-10.381-1.138-3.669Z" transform="translate(-1396.813 -489.845)" fill="#7bb88e"/>
            <path id="Trazado_885716" data-name="Trazado 885716" d="M1616.292,770.908,1587.515,784.1v21.229l34.217-16.911Z" transform="translate(-1396.812 -678.302)" fill="#7bb88e"/>
            <path id="Trazado_885717" data-name="Trazado 885717" d="M1587.515,969.755V982.46s27.2,0,37.3-19.687l-1.55-4.993a39.809,39.809,0,0,1-12.98,11.975c-10.615,6.183-22.775,0-22.775,0" transform="translate(-1396.812 -842.726)" fill="#7bb88e"/>
            <path id="Trazado_885718" data-name="Trazado 885718" d="M1566.046,8.306l2.579,3.487V0Z" transform="translate(-1377.922 -0.004)" fill="#36968a"/>
            <path id="Trazado_885719" data-name="Trazado 885719" d="M1498.682,141.716l10.566,4.238.1,4.67V123.489l-4.557-1.457-.755,2.438-.585,1.881-.351,1.134-.262.844-1.893,6.082,8.3,4.193v2.4l-9.719-2.014Z" transform="translate(-1318.651 -107.373)" fill="#36968a"/>
            <path id="Trazado_885720" data-name="Trazado 885720" d="M1386.734,348.733l24.119,15.373v-49.74l-11.5-6.236-3.588,11.547-.912,2.934-1.667,5.364-.246.791-4.726,15.208-.614,1.978Z" transform="translate(-1220.15 -271.116)" fill="#36968a"/>
            <path id="Trazado_885721" data-name="Trazado 885721" d="M1276.969,767.013c8.016,15.623,26.8,18.848,34.213,19.514,1.929.174,3.092.174,3.092.174V739.956l-.1,5.219s-13.319,4.637-27.344-9.88l-2.01,6.47-.1.311-2.357,7.58,31.808,16.132s-4.738,14.287-25.209,3.709a80.809,80.809,0,0,1-10.707-6.615Z" transform="translate(-1123.571 -646.966)" fill="#36968a"/>
            <path id="Trazado_885722" data-name="Trazado 885722" d="M1470.207,412.148l-14.987-7.878-.911,2.933,15.9,15.147Z" transform="translate(-1279.607 -355.707)" fill="#7bb88e"/>
            <path id="Trazado_885723" data-name="Trazado 885723" d="M1446.8,486.344l-17.565-13.008-1.529,4.92,19.094,10.256Z" transform="translate(-1256.201 -416.476)" fill="#7bb88e"/>
            <path id="Trazado_885724" data-name="Trazado 885724" d="M1544.325,145.076l-5.312-2.764-.585,1.881,5.9,2.223Z" transform="translate(-1353.623 -125.217)" fill="#7bb88e"/>
            <path id="Trazado_885725" data-name="Trazado 885725" d="M1539.822,170.989v2.628l-6.511-5.345.262-.843Z" transform="translate(-1349.119 -147.317)" fill="#7bb88e"/>
            <path id="Trazado_885726" data-name="Trazado 885726" d="M1342.072,776.157l28.972,14.453v4.74l-29.554-17.32Z" transform="translate(-1180.341 -682.921)" fill="#7bb88e"/>
            <path id="Trazado_885727" data-name="Trazado 885727" d="M1417.189,621.907l-23.254-13.413.614-1.977,22.64,11.062Z" transform="translate(-1226.486 -533.659)" fill="#7bb88e"/>
            <path id="Trazado_885728" data-name="Trazado 885728" d="M1600.313,342.841l1.155,3.716-13.952,6.08V349.8Z" transform="translate(-1396.813 -301.658)" fill="#36968a"/>
            <path id="Trazado_885729" data-name="Trazado 885729" d="M1587.516,401.349v2.422l15.192-5.9-.387-1.244Z" transform="translate(-1396.813 -348.978)" fill="#36968a"/>
            <path id="Trazado_885730" data-name="Trazado 885730" d="M1605.811,490.13l.76,2.445-19.055,13.976v-2.628Z" transform="translate(-1396.813 -431.253)" fill="#36968a"/>
            <path id="Trazado_885731" data-name="Trazado 885731" d="M1603.9,459.172l.46,1.479-17.7,15.4v-7.093Z" transform="translate(-1396.058 -404.014)" fill="#36968a"/>
            <path id="Trazado_885732" data-name="Trazado 885732" d="M1611.408,640.061l1.139,3.665L1587.516,659.9v-2.473Z" transform="translate(-1396.813 -563.173)" fill="#36968a"/>
            <path id="Trazado_885733" data-name="Trazado 885733" d="M623.891,167.607H533.865a16.417,16.417,0,0,1-16.417-16.417V17.066A16.417,16.417,0,0,1,533.865.649h90.026a16.417,16.417,0,0,1,16.417,16.417V151.19a16.417,16.417,0,0,1-16.417,16.417" transform="translate(-455.289 -0.572)" fill="#004b72"/>
            <path id="Trazado_885734" data-name="Trazado 885734" d="M666.827,49.459H576.8a10.567,10.567,0,0,0-10.556,10.552V194.137a10.564,10.564,0,0,0,9.851,10.527q.346.025.705.025h90.025a10.561,10.561,0,0,0,10.552-10.552V60.011a10.564,10.564,0,0,0-10.552-10.552" transform="translate(-498.225 -43.518)" fill="#deecff"/>
            <path id="Trazado_885735" data-name="Trazado 885735" d="M722.5,112.255v6.15H625.633v-6.15a3.425,3.425,0,0,1,3.424-3.415H719.08a3.418,3.418,0,0,1,3.415,3.415" transform="translate(-550.478 -95.766)" fill="#c4ddff"/>
            <path id="Trazado_885736" data-name="Trazado 885736" d="M722.5,187.953V316a3.419,3.419,0,0,1-3.415,3.417H629.057c-.067,0-.134-.008-.2-.008A3.431,3.431,0,0,1,625.633,316V187.953Z" transform="translate(-550.478 -165.375)" fill="#fff"/>
            <path id="Trazado_885737" data-name="Trazado 885737" d="M666.978,135.655a1.775,1.775,0,1,1-1.775-1.775,1.775,1.775,0,0,1,1.775,1.775" transform="translate(-583.733 -117.798)" fill="#36968a"/>
            <path id="Trazado_885738" data-name="Trazado 885738" d="M708.568,135.655a1.775,1.775,0,1,1-1.775-1.775,1.775,1.775,0,0,1,1.775,1.775" transform="translate(-620.327 -117.798)" fill="#fff"/>
            <path id="Trazado_885739" data-name="Trazado 885739" d="M750.158,135.655a1.775,1.775,0,1,1-1.775-1.775,1.775,1.775,0,0,1,1.775,1.775" transform="translate(-656.921 -117.798)" fill="#d63a38"/>
            <path id="Trazado_885740" data-name="Trazado 885740" d="M735.494,861.5H648.165a2.341,2.341,0,0,1-2.341-2.341V809.948a2.341,2.341,0,0,1,2.341-2.341h87.329a2.341,2.341,0,0,1,2.341,2.341v49.215a2.341,2.341,0,0,1-2.341,2.341" transform="translate(-568.243 -710.592)" fill="#f0f7ff"/>
            <path id="Trazado_885741" data-name="Trazado 885741" d="M687.948,945.54s3.593-7.755,10.437-6.306,2.1,15.911,9.715,17.346,11.813-20.922,29.035-17.527,33.133-7.424,33.133-7.424V965.7H687.948Z" transform="translate(-605.307 -819.717)" fill="#ffe9d4"/>
            <path id="Trazado_885742" data-name="Trazado 885742" d="M687.948,1046.937c5.138-.442,5.8-14.429,14.081-15.329s7.176,11.8,11.923,13.452,6.613-4.085,15.561-3.643,9.831,7.159,15.02,7.159,14.6-4.731,25.736-3.847v8.9H687.948Z" transform="translate(-605.307 -907.645)" fill="#fad6b2"/>
            <line id="Línea_567" data-name="Línea 567" x2="82.442" transform="translate(82.519 140.932)" fill="none" stroke="#bddeff" stroke-linecap="round" stroke-linejoin="round" stroke-width="3.055" stroke-dasharray="18.261 18.261"/>
            <line id="Línea_568" data-name="Línea 568" x2="82.442" transform="translate(82.519 130.224)" fill="none" stroke="#bddeff" stroke-linecap="round" stroke-linejoin="round" stroke-width="3.055" stroke-dasharray="18.261 18.261"/>
            <line id="Línea_569" data-name="Línea 569" x2="82.442" transform="translate(82.519 124.871)" fill="none" stroke="#bddeff" stroke-linecap="round" stroke-linejoin="round" stroke-width="3.055" stroke-dasharray="18.261 18.261"/>
            <line id="Línea_570" data-name="Línea 570" x1="82.442" transform="translate(82.519 135.578)" fill="none" stroke="#bddeff" stroke-linecap="round" stroke-linejoin="round" stroke-width="3.055" stroke-dasharray="18.261 18.261"/>
            <line id="Línea_571" data-name="Línea 571" x2="82.442" transform="translate(82.519 119.517)" fill="none" stroke="#bddeff" stroke-linecap="round" stroke-linejoin="round" stroke-width="3.055" stroke-dasharray="18.261 18.261"/>
            <line id="Línea_572" data-name="Línea 572" x2="82.442" transform="translate(82.519 114.163)" fill="none" stroke="#bddeff" stroke-linecap="round" stroke-linejoin="round" stroke-width="3.055" stroke-dasharray="18.261 18.261"/>
            <line id="Línea_573" data-name="Línea 573" x2="82.442" transform="translate(82.519 108.81)" fill="none" stroke="#bddeff" stroke-linecap="round" stroke-linejoin="round" stroke-width="3.055" stroke-dasharray="18.261 18.261"/>
            <path id="Trazado_885743" data-name="Trazado 885743" d="M687.948,859.545v42.729h83.13" transform="translate(-605.307 -756.292)" fill="none" stroke="#bddeff" stroke-linecap="round" stroke-linejoin="round" stroke-width="6.11"/>
            <path id="Trazado_885744" data-name="Trazado 885744" d="M675.7,256.666a14.3,14.3,0,1,1-28.6,0h2.8a11.493,11.493,0,1,0,11.493-11.486v-2.8a14.3,14.3,0,0,1,14.3,14.29" transform="translate(-569.373 -213.261)" fill="#bddeff"/>
            <path id="Trazado_885745" data-name="Trazado 885745" d="M661.406,242.375v2.8a11.5,11.5,0,0,0-11.493,11.486h-2.8a14.3,14.3,0,0,1,14.3-14.29" transform="translate(-569.373 -213.26)" fill="#ffe9d4"/>
            <path id="Trazado_885746" data-name="Trazado 885746" d="M681.947,265.721v3.132a8.366,8.366,0,0,0-8.354,8.354h-3.139a11.5,11.5,0,0,1,11.493-11.486" transform="translate(-589.915 -233.801)" fill="#fff6ed"/>
            <path id="Trazado_885747" data-name="Trazado 885747" d="M693.44,277.207a11.493,11.493,0,1,1-22.986,0h3.139a8.354,8.354,0,1,0,8.354-8.354v-3.132a11.5,11.5,0,0,1,11.493,11.486" transform="translate(-589.915 -233.801)" fill="#d6eaff"/>
            <path id="Trazado_885748" data-name="Trazado 885748" d="M938.373,256.641a14.3,14.3,0,1,1-22.749-11.523l1.659,2.261a11.49,11.49,0,1,0,6.792-2.224v-2.8a14.3,14.3,0,0,1,14.3,14.29" transform="translate(-800.489 -213.239)" fill="#bddeff"/>
            <path id="Trazado_885749" data-name="Trazado 885749" d="M956.111,277.183a11.493,11.493,0,1,1-18.285-9.262l1.852,2.522a8.356,8.356,0,1,0,4.939-1.614V265.7a11.5,11.5,0,0,1,11.493,11.486" transform="translate(-821.031 -233.78)" fill="#d6eaff"/>
            <path id="Trazado_885750" data-name="Trazado 885750" d="M966.9,242.351v2.8a11.441,11.441,0,0,0-6.792,2.224l-1.659-2.261a14.209,14.209,0,0,1,8.451-2.767" transform="translate(-843.317 -213.239)" fill="#ffe9d4"/>
            <path id="Trazado_885751" data-name="Trazado 885751" d="M979.053,265.7v3.132a8.351,8.351,0,0,0-4.939,1.614l-1.852-2.522a11.441,11.441,0,0,1,6.792-2.224" transform="translate(-855.467 -233.78)" fill="#fff6ed"/>
            <path id="Trazado_885752" data-name="Trazado 885752" d="M1195.933,267.591a14.292,14.292,0,1,1-9.187-25.241v2.8a11.49,11.49,0,1,0,7.38,20.286Z" transform="translate(-1031.606 -213.238)" fill="#ffe9d4"/>
            <path id="Trazado_885753" data-name="Trazado 885753" d="M1305.769,256.641a14.253,14.253,0,0,1-5.111,10.95l-1.808-2.15a11.481,11.481,0,0,0-7.379-20.286v-2.8a14.3,14.3,0,0,1,14.3,14.29" transform="translate(-1136.331 -213.239)" fill="#fad6b2"/>
            <path id="Trazado_885754" data-name="Trazado 885754" d="M1214.668,285.984a11.485,11.485,0,1,1-7.38-20.286v3.132a8.354,8.354,0,1,0,5.364,14.751Z" transform="translate(-1052.149 -233.781)" fill="#fff6ed"/>
            <path id="Trazado_885755" data-name="Trazado 885755" d="M1302.963,277.183a11.461,11.461,0,0,1-4.114,8.8l-2.016-2.4a8.349,8.349,0,0,0-5.364-14.752V265.7a11.5,11.5,0,0,1,11.493,11.486" transform="translate(-1136.33 -233.78)" fill="#ffe9d4"/>
            <rect id="Rectángulo_408275" data-name="Rectángulo 408275" width="19.069" height="1.11" transform="translate(82.498 25.704)" fill="#d6eaff"/>
            <rect id="Rectángulo_408276" data-name="Rectángulo 408276" width="19.069" height="1.11" transform="translate(114.051 25.704)" fill="#d6eaff"/>
            <rect id="Rectángulo_408277" data-name="Rectángulo 408277" width="19.069" height="1.11" transform="translate(145.605 25.704)" fill="#d6eaff"/>
            <path id="Trazado_885756" data-name="Trazado 885756" d="M675.7,566.3a14.3,14.3,0,1,1-28.6,0h2.8a11.493,11.493,0,1,0,11.493-11.486v-2.8a14.3,14.3,0,0,1,14.3,14.29" transform="translate(-569.373 -485.701)" fill="#bddeff"/>
            <path id="Trazado_885757" data-name="Trazado 885757" d="M661.406,552.013v2.8A11.5,11.5,0,0,0,649.912,566.3h-2.8a14.3,14.3,0,0,1,14.3-14.29" transform="translate(-569.373 -485.702)" fill="#ffe9d4"/>
            <path id="Trazado_885758" data-name="Trazado 885758" d="M681.947,575.359v3.132a8.366,8.366,0,0,0-8.354,8.354h-3.139a11.5,11.5,0,0,1,11.493-11.486" transform="translate(-589.915 -506.244)" fill="#fff6ed"/>
            <path id="Trazado_885759" data-name="Trazado 885759" d="M693.44,586.844a11.493,11.493,0,1,1-22.986,0h3.139a8.354,8.354,0,1,0,8.354-8.354v-3.132a11.5,11.5,0,0,1,11.493,11.486" transform="translate(-589.915 -506.243)" fill="#d6eaff"/>
            <path id="Trazado_885760" data-name="Trazado 885760" d="M938.373,566.278a14.3,14.3,0,1,1-22.749-11.523l1.659,2.261a11.49,11.49,0,1,0,6.792-2.224v-2.8a14.3,14.3,0,0,1,14.3,14.29" transform="translate(-800.489 -485.68)" fill="#bddeff"/>
            <path id="Trazado_885761" data-name="Trazado 885761" d="M956.111,586.82a11.493,11.493,0,1,1-18.285-9.262l1.852,2.522a8.356,8.356,0,1,0,4.939-1.614v-3.132a11.5,11.5,0,0,1,11.493,11.486" transform="translate(-821.031 -506.222)" fill="#d6eaff"/>
            <path id="Trazado_885762" data-name="Trazado 885762" d="M966.9,551.988v2.8a11.441,11.441,0,0,0-6.792,2.224l-1.659-2.261a14.21,14.21,0,0,1,8.451-2.767" transform="translate(-843.317 -485.68)" fill="#ffe9d4"/>
            <path id="Trazado_885763" data-name="Trazado 885763" d="M979.053,575.335v3.132a8.351,8.351,0,0,0-4.939,1.614l-1.852-2.522a11.441,11.441,0,0,1,6.792-2.224" transform="translate(-855.467 -506.223)" fill="#fff6ed"/>
            <path id="Trazado_885764" data-name="Trazado 885764" d="M1195.933,577.229a14.292,14.292,0,1,1-9.187-25.241v2.8a11.49,11.49,0,1,0,7.38,20.286Z" transform="translate(-1031.606 -485.68)" fill="#ffe9d4"/>
            <path id="Trazado_885765" data-name="Trazado 885765" d="M1305.769,566.278a14.253,14.253,0,0,1-5.111,10.95l-1.808-2.15a11.481,11.481,0,0,0-7.379-20.286v-2.8a14.3,14.3,0,0,1,14.3,14.29" transform="translate(-1136.331 -485.68)" fill="#fad6b2"/>
            <path id="Trazado_885766" data-name="Trazado 885766" d="M1214.668,595.621a11.485,11.485,0,1,1-7.38-20.286v3.132a8.354,8.354,0,1,0,5.364,14.752Z" transform="translate(-1052.149 -506.223)" fill="#fff6ed"/>
            <path id="Trazado_885767" data-name="Trazado 885767" d="M1302.963,586.82a11.462,11.462,0,0,1-4.114,8.8l-2.016-2.4a8.349,8.349,0,0,0-5.364-14.752v-3.132a11.5,11.5,0,0,1,11.493,11.486" transform="translate(-1136.33 -506.222)" fill="#ffe9d4"/>
            <rect id="Rectángulo_408278" data-name="Rectángulo 408278" width="19.069" height="1.11" transform="translate(82.498 62.9)" fill="#d6eaff"/>
            <rect id="Rectángulo_408279" data-name="Rectángulo 408279" width="19.069" height="1.11" transform="translate(114.051 62.9)" fill="#d6eaff"/>
            <rect id="Rectángulo_408280" data-name="Rectángulo 408280" width="19.069" height="1.11" transform="translate(145.605 62.9)" fill="#d6eaff"/>
            <path id="Trazado_885768" data-name="Trazado 885768" d="M42.859,1041.227c.006.072.006.143.011.215a173.713,173.713,0,0,1,14.251,16.39c-.327-.281-8.125-7.042-13.714-10.911a55.954,55.954,0,0,0,5.025,16.574l28.259.056a35.162,35.162,0,0,0,8.435-15.475l-14.957,11.269,15.465-14.7a22.413,22.413,0,0,0,.006-3.2L71.474,1055.23l13.664-17.115v-.005a22.374,22.374,0,0,0-2.292-5.877c-.107.107-.215.225-.327.342s-.215.225-.322.343c-.119.133-.243.266-.367.4s-.237.271-.356.409c-.514.593-1.05,1.237-1.587,1.906-.169.2-.333.409-.5.618s-.344.434-.514.654c-.2.26-.4.516-.6.777-.294.373-.576.751-.853,1.119-.113.153-.231.307-.344.46-1.152,1.533-2.134,2.908-2.733,3.751q-.085.115-.152.215c-.152.225-.271.394-.35.506-.023.031-.045.061-.062.082a.107.107,0,0,1-.023.036c.192-.48.39-.951.587-1.4q.119-.284.237-.552c.169-.388.339-.761.508-1.129.051-.107.1-.21.147-.312.124-.276.254-.547.384-.807s.248-.521.378-.772.248-.5.373-.736c.243-.47.48-.92.717-1.344.079-.143.158-.286.237-.424.683-1.232,1.338-2.279,1.931-3.164.1-.153.209-.307.311-.45s.2-.291.294-.424c.062-.087.119-.169.181-.25.175-.245.344-.47.5-.68.13-.164.254-.322.373-.47.237-.3.452-.552.644-.772v-.005c-.367-.537-.762-1.068-1.186-1.6l-4.748,3.966,2.558-6.445c-.175-.184-.356-.363-.536-.542q-1.084-1.066-2.162-1.957l-5.528,14.57,2.224-16.947a22.282,22.282,0,0,0-2.038-1.1c-.011.21-.023.424-.04.639s-.034.455-.056.69c-.068.8-.175,1.63-.3,2.479-.045.3-.09.6-.141.9-.073.465-.152.93-.237,1.39-.1.572-.209,1.135-.322,1.681-.073.363-.147.721-.22,1.068-.034.169-.073.337-.107.506-.017.082-.034.158-.051.235-.023.092-.04.184-.062.271-.034.153-.068.3-.1.445-.011.046-.023.087-.034.133l-.051.23c-.051.225-.1.445-.152.649-.017.072-.034.138-.045.2-.1.409-.186.777-.271,1.1a1.352,1.352,0,0,1-.04.158c-.034.158-.068.3-.107.429-.017.082-.04.158-.056.23-.079.312-.136.526-.164.623a.832.832,0,0,1,.011-.112c.011-.107.023-.22.034-.332.017-.153.034-.307.045-.47.006-.092.011-.184.023-.276s.017-.21.023-.317c.006-.087.011-.179.017-.266q.017-.268.034-.552c.028-.629.051-1.293.068-1.978q.017-.652.017-1.318c.011-.715.006-1.441,0-2.167-.006-.4-.011-.8-.017-1.191v-.056c-.011-.531-.017-1.053-.028-1.559-.017-.521-.028-1.032-.045-1.513-.006-.266-.017-.521-.028-.767-.011-.353-.022-.69-.034-1.007-.006-.128-.011-.25-.017-.373q-.017-.422-.034-.782a16.122,16.122,0,0,0-5.065-.756l-1.491,23.34-.881-23.126A16.892,16.892,0,0,0,54,1021.04l6.16,28.461L51.1,1023.248a25.028,25.028,0,0,0-3.805,4.375c.807,4.492,2.846,15.266,4.477,18.919l-6.849-14.729a21.2,21.2,0,0,0-2.066,9.414m21.235,15.69c.152-.434,5.149-14.33,9.649-21.582,0,0-2.693,11.995-9.649,21.582m1.688-34.073s1.084,8.182-1.513,23.32c0,0-.948-13.758,1.513-23.32m-14.849,8.2s7.588,20.013,9.22,26.493c-.226-.393-7.425-13.134-9.22-26.493" transform="translate(-37.698 -896.042)" fill="#36968a"/>
            <rect id="Rectángulo_408281" data-name="Rectángulo 408281" width="9.854" height="2.4" transform="translate(32.686 37.116)" fill="#006398"/>
            <path id="Trazado_885769" data-name="Trazado 885769" d="M305.046,189.214h-2.551v-13.24l1.276-3.708,1.276,3.708Z" transform="translate(-266.157 -151.573)" fill="#006398"/>
            <rect id="Rectángulo_408282" data-name="Rectángulo 408282" width="9.854" height="2.4" transform="translate(67.89 37.116)" fill="#006398"/>
            <path id="Trazado_885770" data-name="Trazado 885770" d="M595.554,189.214H598.1v-13.24l-1.276-3.708-1.276,3.708Z" transform="translate(-524.012 -151.573)" fill="#006398"/>
            <path id="Trazado_885771" data-name="Trazado 885771" d="M772.186,491.945h-2.354a1.269,1.269,0,0,1-1.266-1.266V478.753a1.269,1.269,0,0,1,1.266-1.266h2.354a1.269,1.269,0,0,1,1.266,1.266v11.927a1.269,1.269,0,0,1-1.266,1.266" transform="translate(-676.242 -420.129)" fill="#006398"/>
            <path id="Trazado_885772" data-name="Trazado 885772" d="M772.735,621.184h-3.45a.72.72,0,0,1-.718-.718v-3.213a.72.72,0,0,1,.718-.718h3.45a.72.72,0,0,1,.718.718v3.213a.72.72,0,0,1-.718.718" transform="translate(-676.243 -542.473)" fill="#006398"/>
            <path id="Trazado_885773" data-name="Trazado 885773" d="M142.187,405.561,134.8,372.355V330.082A10.2,10.2,0,0,1,144.988,319.9h57.675a10.2,10.2,0,0,1,10.184,10.185v42.273l-7.377,33.063Z" transform="translate(-118.61 -281.469)" fill="#007cbe"/>
            <path id="Trazado_885774" data-name="Trazado 885774" d="M254.348,378.143v57.4l-1.7,37.323-.97,21.3a2.515,2.515,0,0,1-2.513,2.4H194.6a2.521,2.521,0,0,1-2.513-2.4l-.037-.825-2.63-57.8v-57.4a3.623,3.623,0,0,1,3.624-3.624h57.672a3.627,3.627,0,0,1,3.627,3.624" transform="translate(-166.67 -329.53)" fill="#e6f2f9"/>
            <path id="Trazado_885775" data-name="Trazado 885775" d="M253.621,375.966l-60.98,119.652-.586-2.28-2.63-57.8v-57.4a3.623,3.623,0,0,1,3.624-3.624h57.672a3.62,3.62,0,0,1,2.9,1.448" transform="translate(-166.67 -329.529)" fill="#99cae5"/>
            <path id="Trazado_885776" data-name="Trazado 885776" d="M323.026,503.907v21.481L278.684,610.41H267.478Z" transform="translate(-235.347 -443.375)" fill="#99cae5"/>
            <path id="Trazado_885777" data-name="Trazado 885777" d="M485.468,857.895v2.957l-1.7,37.323-12.36,23.7H452.1Z" transform="translate(-397.79 -754.839)" fill="#99cae5"/>
            <path id="Trazado_885778" data-name="Trazado 885778" d="M278.731,415v49.067a1.151,1.151,0,0,1-1.149,1.153h-54.9a1.152,1.152,0,0,1-1.153-1.153V415a1.152,1.152,0,0,1,1.153-1.153h54.9A1.152,1.152,0,0,1,278.731,415" transform="translate(-194.914 -364.135)" fill="#deecff"/>
            <path id="Trazado_885779" data-name="Trazado 885779" d="M237.856,413.849l-14.524,51.373h-.652a1.152,1.152,0,0,1-1.153-1.153V449.53l10.085-35.681Z" transform="translate(-194.915 -364.135)" fill="#edf4ff"/>
            <path id="Trazado_885780" data-name="Trazado 885780" d="M281.291,413.849l-14.524,51.373h-8.51l14.52-51.373Z" transform="translate(-227.234 -364.135)" fill="#edf4ff"/>
            <path id="Trazado_885781" data-name="Trazado 885781" d="M471.917,413.849,457.4,465.222h-5.328l14.52-51.373Z" transform="translate(-397.763 -364.135)" fill="#edf4ff"/>
            <path id="Trazado_885782" data-name="Trazado 885782" d="M536.618,414.242l-14.409,50.98h-7.264l14.52-51.373h6.289a1.145,1.145,0,0,1,.864.393" transform="translate(-453.086 -364.135)" fill="#edf4ff"/>
            <rect id="Rectángulo_408283" data-name="Rectángulo 408283" width="6.199" height="3.951" transform="translate(74.154 51.745)" fill="none" stroke="#54667a" stroke-miterlimit="10" stroke-width="1.543"/>
            <rect id="Rectángulo_408284" data-name="Rectángulo 408284" width="1.162" height="2.362" transform="translate(80.353 52.54)" fill="#54667a"/>
            <rect id="Rectángulo_408285" data-name="Rectángulo 408285" width="0.975" height="3.093" transform="translate(78.76 52.174)" fill="#54667a"/>
            <rect id="Rectángulo_408286" data-name="Rectángulo 408286" width="0.975" height="3.093" transform="translate(77.41 52.174)" fill="#54667a"/>
            <rect id="Rectángulo_408287" data-name="Rectángulo 408287" width="0.975" height="3.093" transform="translate(76.06 52.174)" fill="#54667a"/>
            <rect id="Rectángulo_408288" data-name="Rectángulo 408288" width="0.975" height="3.093" transform="translate(74.71 52.174)" fill="#54667a"/>
            <path id="Trazado_885783" data-name="Trazado 885783" d="M268.372,456.055a2.475,2.475,0,0,0-2.511-2.474,2.508,2.508,0,0,0-2.438,2.466,2.469,2.469,0,0,0,1.165,2.105,1,1,0,0,1,.46.852v.576h1.7V459a1.02,1.02,0,0,1,.475-.861A2.468,2.468,0,0,0,268.372,456.055Z" transform="translate(-231.779 -399.093)" fill="none" stroke="#54667a" stroke-miterlimit="10" stroke-width="1.363"/>
            <path id="Trazado_885784" data-name="Trazado 885784" d="M276.539,501.03h-.415a.843.843,0,0,1-.843-.843v-.307h2.1v.307a.843.843,0,0,1-.843.843" transform="translate(-242.213 -439.832)" fill="#54667a"/>
            <line id="Línea_574" data-name="Línea 574" y1="2.1" transform="translate(34.119 51.745)" fill="none" stroke="#54667a" stroke-miterlimit="10" stroke-width="1.363"/>
            <line id="Línea_575" data-name="Línea 575" x1="0.718" y1="1.973" transform="translate(32.327 52.054)" fill="none" stroke="#54667a" stroke-miterlimit="10" stroke-width="1.363"/>
            <line id="Línea_576" data-name="Línea 576" x1="1.35" y1="1.608" transform="translate(30.749 52.958)" fill="none" stroke="#54667a" stroke-miterlimit="10" stroke-width="1.363"/>
            <line id="Línea_577" data-name="Línea 577" x1="1.818" y1="1.05" transform="translate(29.576 54.346)" fill="none" stroke="#54667a" stroke-miterlimit="10" stroke-width="1.363"/>
            <line id="Línea_578" data-name="Línea 578" y1="1.05" x2="1.818" transform="translate(36.824 54.379)" fill="none" stroke="#54667a" stroke-miterlimit="10" stroke-width="1.363"/>
            <line id="Línea_579" data-name="Línea 579" y1="1.608" x2="1.35" transform="translate(36.129 52.982)" fill="none" stroke="#54667a" stroke-miterlimit="10" stroke-width="1.363"/>
            <line id="Línea_580" data-name="Línea 580" y1="1.973" x2="0.718" transform="translate(35.19 52.067)" fill="none" stroke="#54667a" stroke-miterlimit="10" stroke-width="1.363"/>
            <path id="Trazado_885785" data-name="Trazado 885785" d="M418.108,568.026l-1.984,1.993-1.044-1.345,3.191-2.885H419.9v11.476h-1.789Z" transform="translate(-365.218 -497.824)" fill="#54667a"/>
            <path id="Trazado_885786" data-name="Trazado 885786" d="M488.835,568.986h.462a5.7,5.7,0,0,0,.754-.048,1.838,1.838,0,0,0,.656-.211,1.235,1.235,0,0,0,.47-.47,1.638,1.638,0,0,0,.178-.827,1.437,1.437,0,0,0-1.505-1.508,1.523,1.523,0,0,0-.962.332,1.881,1.881,0,0,0-.619.932l-1.893-.551a3.631,3.631,0,0,1,.506-1.1,2.952,2.952,0,0,1,.776-.77,3.318,3.318,0,0,1,.984-.445,4.395,4.395,0,0,1,2.416.048,3.188,3.188,0,0,1,1.074.576,2.792,2.792,0,0,1,.739.956,3.062,3.062,0,0,1,.275,1.337,2.915,2.915,0,0,1-.477,1.645,2.227,2.227,0,0,1-1.328.949v.033a2.169,2.169,0,0,1,1.536.94,3.234,3.234,0,0,1,.522,1.848,3.46,3.46,0,0,1-.291,1.459,3.116,3.116,0,0,1-.783,1.061,3.332,3.332,0,0,1-1.141.648,4.186,4.186,0,0,1-1.349.219,4.809,4.809,0,0,1-1.238-.154,3.334,3.334,0,0,1-1.051-.478,3.077,3.077,0,0,1-.813-.834,3.85,3.85,0,0,1-.522-1.224l1.909-.551a2.1,2.1,0,0,0,.581,1.1,1.6,1.6,0,0,0,1.134.39,1.8,1.8,0,0,0,1.245-.5,1.7,1.7,0,0,0,.388-.567,1.862,1.862,0,0,0,.142-.737,1.69,1.69,0,0,0-.216-.9,1.509,1.509,0,0,0-.552-.536,2.248,2.248,0,0,0-.753-.251,5.374,5.374,0,0,0-.82-.065h-.432Z" transform="translate(-427.803 -496.4)" fill="#54667a"/>
            <path id="Trazado_885787" data-name="Trazado 885787" d="M559.61,648.846a.838.838,0,0,1,.233-.594A.745.745,0,0,1,560.4,648a.766.766,0,0,1,.557.238.791.791,0,0,1,.239.583.837.837,0,0,1-.234.594.742.742,0,0,1-.562.249.732.732,0,0,1-.3-.065.854.854,0,0,1-.253-.173.79.79,0,0,1-.174-.259.812.812,0,0,1-.064-.324" transform="translate(-492.386 -570.161)" fill="#54667a"/>
            <path id="Trazado_885788" data-name="Trazado 885788" d="M586.7,598.8H583.87l-.03,1.524a1.355,1.355,0,0,1,.354-.076,3.891,3.891,0,0,1,.4-.022,2.471,2.471,0,0,1,.95.179,2.054,2.054,0,0,1,.74.513,2.4,2.4,0,0,1,.482.8,3.252,3.252,0,0,1-.019,2.155,2.327,2.327,0,0,1-1.347,1.357,2.724,2.724,0,0,1-1,.183,2.2,2.2,0,0,1-2.277-1.75l1.253-.368a1.275,1.275,0,0,0,.407.648,1.13,1.13,0,0,0,.746.238,1.219,1.219,0,0,0,.492-.1,1.151,1.151,0,0,0,.388-.275,1.274,1.274,0,0,0,.253-.416,1.456,1.456,0,0,0,.09-.519,1.564,1.564,0,0,0-.135-.68,1.267,1.267,0,0,0-.363-.46,1.488,1.488,0,0,0-.527-.259,2.4,2.4,0,0,0-.626-.081,3.1,3.1,0,0,0-.77.1,3.021,3.021,0,0,0-.7.27l.069-4.128H586.7Z" transform="translate(-512.192 -525.842)" fill="#54667a"/>
            <path id="Trazado_885789" data-name="Trazado 885789" d="M628.713,629.146a1.039,1.039,0,0,1,.072-.391,1.018,1.018,0,0,1,.2-.319.954.954,0,0,1,.293-.216.87.87,0,0,1,.721,0,.953.953,0,0,1,.293.216,1.021,1.021,0,0,1,.2.319,1.1,1.1,0,0,1,0,.784,1.016,1.016,0,0,1-.2.318.951.951,0,0,1-.293.216.869.869,0,0,1-.721,0,.952.952,0,0,1-.293-.216,1.013,1.013,0,0,1-.2-.318,1.047,1.047,0,0,1-.072-.392m1.372,0a.49.49,0,0,0-.129-.346.431.431,0,0,0-.637,0,.527.527,0,0,0,0,.691.431.431,0,0,0,.637,0,.49.49,0,0,0,.129-.346m1.565-1.113.412.206L630,632.2l-.412-.206Zm-.576,3.058a1.057,1.057,0,0,1,.071-.391,1.012,1.012,0,0,1,.2-.319.952.952,0,0,1,.293-.216.868.868,0,0,1,.721,0,.953.953,0,0,1,.293.216,1.006,1.006,0,0,1,.2.319,1.1,1.1,0,0,1,0,.783,1.017,1.017,0,0,1-.2.319.956.956,0,0,1-.293.216.87.87,0,0,1-.721,0,.955.955,0,0,1-.293-.216,1.023,1.023,0,0,1-.2-.319,1.058,1.058,0,0,1-.071-.391m1.372,0a.49.49,0,0,0-.129-.346.43.43,0,0,0-.637,0,.527.527,0,0,0,0,.691.43.43,0,0,0,.637,0,.49.49,0,0,0,.129-.346" transform="translate(-553.188 -552.59)" fill="#54667a"/>
            <rect id="Rectángulo_408289" data-name="Rectángulo 408289" width="16.994" height="1.945" transform="translate(31.424 84.265)" fill="#54667a"/>
            <path id="Trazado_885790" data-name="Trazado 885790" d="M265.1,742.715l-2.034-3.523h1.267l-1.709-2.959h1.161l-1.679-2.908-1.679,2.908h1.161l-1.709,2.959h1.267l-2.034,3.523h2.742v1.473h.5v-1.473Z" transform="translate(-227.984 -645.234)" fill="#54667a"/>
            <path id="Trazado_885791" data-name="Trazado 885791" d="M447.215,755.785l3.126-3.287q.137-.148.284-.315a2.881,2.881,0,0,0,.267-.352,2.233,2.233,0,0,0,.2-.389,1.165,1.165,0,0,0,.079-.426,1.141,1.141,0,0,0-.1-.482,1.111,1.111,0,0,0-.625-.587,1.251,1.251,0,0,0-.449-.08,1.156,1.156,0,0,0-.841.321,1.406,1.406,0,0,0-.4.865l-1.433-.124a2.979,2.979,0,0,1,.267-1.069,2.371,2.371,0,0,1,.574-.772,2.426,2.426,0,0,1,.818-.47,3.094,3.094,0,0,1,1.012-.161,3.254,3.254,0,0,1,1.017.155,2.388,2.388,0,0,1,.824.457,2.111,2.111,0,0,1,.557.772,2.731,2.731,0,0,1,.2,1.1,2.8,2.8,0,0,1-.347,1.427,5.5,5.5,0,0,1-.892,1.143l-2.49,2.508H452.6v1.335h-5.388Z" transform="translate(-393.493 -658.548)" fill="#54667a"/>
            <path id="Trazado_885792" data-name="Trazado 885792" d="M507.06,751.026h-3.24l-.034,1.742a1.6,1.6,0,0,1,.4-.087c.163-.016.316-.025.46-.025a2.817,2.817,0,0,1,1.086.2,2.347,2.347,0,0,1,.847.587,2.763,2.763,0,0,1,.551.914,3.721,3.721,0,0,1-.022,2.465,2.655,2.655,0,0,1-1.54,1.551,3.112,3.112,0,0,1-1.148.21,2.517,2.517,0,0,1-2.6-2l1.432-.42a1.458,1.458,0,0,0,.466.741,1.3,1.3,0,0,0,.853.272,1.4,1.4,0,0,0,.563-.111,1.315,1.315,0,0,0,.443-.315,1.446,1.446,0,0,0,.29-.476,1.674,1.674,0,0,0,.1-.593,1.8,1.8,0,0,0-.153-.779,1.436,1.436,0,0,0-.415-.525,1.683,1.683,0,0,0-.6-.3,2.719,2.719,0,0,0-.716-.093,3.552,3.552,0,0,0-.881.111,3.427,3.427,0,0,0-.8.309l.079-4.721h4.582Z" transform="translate(-441.537 -659.634)" fill="#54667a"/>
            <path id="Trazado_885793" data-name="Trazado 885793" d="M560.12,808.264a.959.959,0,0,1,.267-.68.851.851,0,0,1,.642-.284.876.876,0,0,1,.637.271.906.906,0,0,1,.273.668.956.956,0,0,1-.267.679.849.849,0,0,1-.642.284.833.833,0,0,1-.347-.074.972.972,0,0,1-.29-.2.92.92,0,0,1-.2-.3.929.929,0,0,1-.074-.37" transform="translate(-492.835 -710.322)" fill="#54667a"/>
            <path id="Trazado_885794" data-name="Trazado 885794" d="M588.332,756.662H584.91v-1.471l3.24-5.5H589.7v5.635h1.171v1.335H589.7v1.779h-1.364Zm0-4.869h-.023l-2.012,3.534h2.035Z" transform="translate(-514.647 -659.635)" fill="#54667a"/>
            <path id="Trazado_885795" data-name="Trazado 885795" d="M652.875,749.072a.663.663,0,0,0-.252-.216.7.7,0,0,0-.314-.076.779.779,0,0,0-.359.081.831.831,0,0,0-.275.221,1.019,1.019,0,0,0-.177.329,1.264,1.264,0,0,0-.063.4,1.2,1.2,0,0,0,.06.381.983.983,0,0,0,.172.317.807.807,0,0,0,.274.215.821.821,0,0,0,.367.08.685.685,0,0,0,.354-.09.778.778,0,0,0,.258-.252l.268.219a1.191,1.191,0,0,1-.093.113.946.946,0,0,1-.176.148,1.183,1.183,0,0,1-.263.129,1.033,1.033,0,0,1-.356.056,1.079,1.079,0,0,1-.5-.115,1.219,1.219,0,0,1-.38-.3,1.342,1.342,0,0,1-.24-.423,1.433,1.433,0,0,1-.083-.476,1.621,1.621,0,0,1,.089-.545,1.312,1.312,0,0,1,.25-.431,1.118,1.118,0,0,1,.386-.283,1.205,1.205,0,0,1,.5-.1,1.14,1.14,0,0,1,.455.1.863.863,0,0,1,.365.3Z" transform="translate(-572.885 -658.548)" fill="#54667a"/>
            <path id="Trazado_885796" data-name="Trazado 885796" d="M642.439,750.068a.376.376,0,1,1-.376-.376A.376.376,0,0,1,642.439,750.068Z" transform="translate(-564.604 -659.635)" fill="none" stroke="#54667a" stroke-miterlimit="10" stroke-width="0.772"/>
            <path id="Trazado_885797" data-name="Trazado 885797" d="M401.968,1009.159h-12.51a2.473,2.473,0,0,1-2.473-2.473v-5.1a2.473,2.473,0,0,1,2.473-2.473h12.51a2.473,2.473,0,0,1,2.473,2.473v5.1a2.473,2.473,0,0,1-2.473,2.473" transform="translate(-340.498 -879.089)" fill="#007cbe"/>
            <path id="Trazado_885798" data-name="Trazado 885798" d="M401.968,1177.254h-12.51a2.473,2.473,0,0,1-2.473-2.473v-5.1a2.473,2.473,0,0,1,2.473-2.473h12.51a2.473,2.473,0,0,1,2.473,2.473v5.1a2.473,2.473,0,0,1-2.473,2.473" transform="translate(-340.498 -1026.991)" fill="#007cbe"/>
            <path id="Trazado_885799" data-name="Trazado 885799" d="M555.108,1093.207H542.6a2.473,2.473,0,0,1-2.473-2.473v-5.1a2.473,2.473,0,0,1,2.473-2.473h12.51a2.473,2.473,0,0,1,2.473,2.473v5.1a2.473,2.473,0,0,1-2.473,2.473" transform="translate(-475.242 -953.041)" fill="#007cbe"/>
            <path id="Trazado_885800" data-name="Trazado 885800" d="M236.318,1093.207h12.51a2.473,2.473,0,0,0,2.473-2.473v-5.1a2.473,2.473,0,0,0-2.473-2.473h-12.51a2.473,2.473,0,0,0-2.473,2.473v5.1a2.473,2.473,0,0,0,2.473,2.473" transform="translate(-205.754 -953.041)" fill="#007cbe"/>
            <path id="Trazado_885801" data-name="Trazado 885801" d="M447.193,1197.8a1.978,1.978,0,0,0-2.008-1.978,2.005,2.005,0,0,0-1.949,1.971,1.974,1.974,0,0,0,.931,1.683.8.8,0,0,1,.368.681v.46h1.359v-.46a.815.815,0,0,1,.379-.688A1.973,1.973,0,0,0,447.193,1197.8Z" transform="translate(-389.992 -1052.175)" fill="none" stroke="#fff" stroke-miterlimit="10" stroke-width="2.315"/>
            <path id="Trazado_885802" data-name="Trazado 885802" d="M453.722,1233.759h-.332a.674.674,0,0,1-.674-.674v-.246H454.4v.246a.674.674,0,0,1-.674.674" transform="translate(-398.334 -1084.744)" fill="#fff"/>
            <line id="Línea_581" data-name="Línea 581" y1="1.679" transform="translate(55.223 141.458)" fill="none" stroke="#fff" stroke-miterlimit="10" stroke-width="2.315"/>
            <line id="Línea_582" data-name="Línea 582" x1="0.574" y1="1.577" transform="translate(53.791 141.706)" fill="none" stroke="#fff" stroke-miterlimit="10" stroke-width="2.315"/>
            <line id="Línea_583" data-name="Línea 583" x1="1.079" y1="1.286" transform="translate(52.529 142.428)" fill="none" stroke="#fff" stroke-miterlimit="10" stroke-width="2.315"/>
            <line id="Línea_584" data-name="Línea 584" x1="1.454" y1="0.839" transform="translate(51.591 143.538)" fill="none" stroke="#fff" stroke-miterlimit="10" stroke-width="2.315"/>
            <line id="Línea_585" data-name="Línea 585" y1="0.839" x2="1.454" transform="translate(57.386 143.564)" fill="none" stroke="#fff" stroke-miterlimit="10" stroke-width="2.315"/>
            <line id="Línea_586" data-name="Línea 586" y1="1.286" x2="1.079" transform="translate(56.83 142.447)" fill="none" stroke="#fff" stroke-miterlimit="10" stroke-width="2.315"/>
            <line id="Línea_587" data-name="Línea 587" y1="1.577" x2="0.574" transform="translate(56.079 141.716)" fill="none" stroke="#fff" stroke-miterlimit="10" stroke-width="2.315"/>
            <path id="Trazado_885803" data-name="Trazado 885803" d="M285.8,1103.464l-2.826,4.9h5.652Z" transform="translate(-248.982 -970.91)" fill="#fff"/>
            <path id="Trazado_885804" data-name="Trazado 885804" d="M609.359,1107.214a1.12,1.12,0,0,0-.425-.365,1.178,1.178,0,0,0-.531-.128,1.319,1.319,0,0,0-.606.137,1.406,1.406,0,0,0-.464.374,1.721,1.721,0,0,0-.3.556,2.135,2.135,0,0,0-.107.683,2.031,2.031,0,0,0,.1.644,1.654,1.654,0,0,0,.291.535,1.362,1.362,0,0,0,.464.364,1.386,1.386,0,0,0,.62.134,1.158,1.158,0,0,0,.6-.152,1.315,1.315,0,0,0,.436-.425l.453.371a1.965,1.965,0,0,1-.156.191,1.59,1.59,0,0,1-.3.249,1.986,1.986,0,0,1-.444.219,1.745,1.745,0,0,1-.6.095,1.822,1.822,0,0,1-.846-.195,2.057,2.057,0,0,1-.643-.51,2.266,2.266,0,0,1-.405-.714,2.418,2.418,0,0,1-.139-.8,2.737,2.737,0,0,1,.15-.92,2.21,2.21,0,0,1,.422-.729,1.886,1.886,0,0,1,.651-.478,2.034,2.034,0,0,1,.837-.17,1.927,1.927,0,0,1,.769.164,1.458,1.458,0,0,1,.617.5Z" transform="translate(-533.518 -973.295)" fill="#fff"/>
            <path id="Trazado_885805" data-name="Trazado 885805" d="M590.523,1109.037a.713.713,0,1,1,.713-.713.714.714,0,0,1-.713.713m0-1.269a.556.556,0,1,0,.556.556.557.557,0,0,0-.556-.556" transform="translate(-518.958 -974.558)" fill="#fff"/>
            <path id="Trazado_885806" data-name="Trazado 885806" d="M442.474,1021.058a2.715,2.715,0,1,1-2.715-2.715A2.715,2.715,0,0,1,442.474,1021.058Z" transform="translate(-384.544 -896.014)" fill="none" stroke="#fff" stroke-miterlimit="10" stroke-width="3.087"/>
            <line id="Línea_588" data-name="Línea 588" y2="3.375" transform="translate(55.215 121.482)" fill="none" stroke="#fff" stroke-miterlimit="10" stroke-width="3.087"/>
            <path id="Trazado_885807" data-name="Trazado 885807" d="M248.545,1042.511h0a1.744,1.744,0,0,1-1.534-1.921l.8-7.143a1.738,1.738,0,0,1,3.455.387l-.8,7.143a1.744,1.744,0,0,1-1.921,1.534" transform="translate(-217.329 -907.944)" fill="#fdae97"/>
            <path id="Trazado_885808" data-name="Trazado 885808" d="M248.826,1092.81a1.659,1.659,0,0,1,1.735,1.555l-1.029,7.3a5.212,5.212,0,0,0,.108.772c.13.544.309,2.064.09,2.088s-.553-.992-.637-.906a3.752,3.752,0,0,0,.045,1.228c.057.34.3,1.048.158,1.194s-.4,0-.4,0,.125.259-.052.306-.469-.31-.469-.31.084.137-.124.14-.461-.677-.461-.677a.13.13,0,0,1-.16.126c-.158-.019-.391-.949-.342-1.647.044-.623.314-2.091.371-2.4l-.593-7.243a1.659,1.659,0,0,1,1.758-1.529" transform="translate(-217.389 -961.535)" fill="#fdae97"/>
            <path id="Trazado_885809" data-name="Trazado 885809" d="M225.909,1234.693H221.2l1.5-14.993,0-.052a2.8,2.8,0,0,1,5.6.2,2.428,2.428,0,0,1-.013.254Z" transform="translate(-194.624 -1070.842)" fill="#28447a"/>
            <path id="Trazado_885810" data-name="Trazado 885810" d="M236.4,1131.565c-1.444,1.2-2.43,3.748-2.472,7.155s-.295,5.593-.295,5.593a2.811,2.811,0,1,0,5.59.588l2.181-13.335Z" transform="translate(-205.552 -995.635)" fill="#28447a"/>
            <path id="Trazado_885811" data-name="Trazado 885811" d="M252.38,1087.135l-3.423-.675.017-.149,3.452.415Z" transform="translate(-219.05 -955.817)" fill="#e89780"/>
            <path id="Trazado_885812" data-name="Trazado 885812" d="M270.8,1131.565c-1.138,1.49-1.567,4.58-.841,7.908s.971,5.516.971,5.516a2.811,2.811,0,0,0,5.579-.685l-1.157-12.74Z" transform="translate(-237.214 -995.635)" fill="#315395"/>
            <path id="Trazado_885813" data-name="Trazado 885813" d="M247.062,1033.467a1.889,1.889,0,0,1,2.055-1.552,1.743,1.743,0,0,1,1.534,1.921l-.3,5.05-4.05-.483Z" transform="translate(-216.715 -907.945)" fill="#ffc07b"/>
            <path id="Trazado_885814" data-name="Trazado 885814" d="M302.307,1043.644h0a1.744,1.744,0,0,1-2.375-.635l-3.6-6.223a1.738,1.738,0,0,1,3.01-1.74l3.6,6.223a1.744,1.744,0,0,1-.635,2.375" transform="translate(-260.534 -909.947)" fill="#fdae97"/>
            <path id="Trazado_885815" data-name="Trazado 885815" d="M255.206,1029.861l-3.042,1.378s.95,5.74,1.014,8.228a6.873,6.873,0,0,1-.46,2.611h7.291a29.378,29.378,0,0,1,.094-5.251c.736-2.77-.925-4.819-.7-6.392l-1.587-.508Z" transform="translate(-221.872 -906.148)" fill="#ffc07b"/>
            <path id="Trazado_885816" data-name="Trazado 885816" d="M295.692,1036.881a1.889,1.889,0,0,1,.732-2.469,1.744,1.744,0,0,1,2.375.635l2.757,4.242-3.546,2.016Z" transform="translate(-259.988 -909.948)" fill="#ffc07b"/>
            <path id="Trazado_885817" data-name="Trazado 885817" d="M277.384,1004.422l0,0a1.834,1.834,0,0,0,1.629.91.99.99,0,0,0,.993-.846v-3.538H277.76Z" transform="translate(-244.063 -880.709)" fill="#fdae97"/>
            <path id="Trazado_885818" data-name="Trazado 885818" d="M287.741,1014.554l-1.569-1.706,1.57.59Z" transform="translate(-251.795 -891.179)" fill="#e89780"/>
            <path id="Trazado_885819" data-name="Trazado 885819" d="M279.585,982a2.07,2.07,0,0,0,2.028.625c.595-.2.719-1,.7-1.535v0c0-.11-.01-.266-.016-.441-.022-.689-.055-1.709-.055-1.709a1.77,1.77,0,0,0-2.864-.934c-1.743,1.1-.39,3.391.206,4" transform="translate(-245.062 -860.174)" fill="#fdae97"/>
            <path id="Trazado_885820" data-name="Trazado 885820" d="M286.751,1234.7h-4.938l-1.7-14.516-.022-.332a2.8,2.8,0,0,1,2.889-2.8,2.833,2.833,0,0,1,2.718,2.64Z" transform="translate(-246.449 -1070.848)" fill="#315395"/>
            <path id="Trazado_885821" data-name="Trazado 885821" d="M322.388,1078.306l-3.254,1.319-.05-.087,3.009-1.743Z" transform="translate(-280.753 -948.324)" fill="#e89780"/>
            <path id="Trazado_885822" data-name="Trazado 885822" d="M231.427,1367.179h-3.608l-.578-.627-.028.627h-.952l.024-.5.077-1.577.056-1.106h2.962l-.255,1.106,1.748,1.577Z" transform="translate(-199.081 -1200.143)" fill="#fdae97"/>
            <path id="Trazado_885823" data-name="Trazado 885823" d="M306.062,1367.179l-.766-.62.015.62H304.4l-.1-.5-.3-1.577-.212-1.106H307.2l.062,1.106,1.748,1.577.554.5Z" transform="translate(-267.296 -1200.143)" fill="#fdae97"/>
            <path id="Trazado_885824" data-name="Trazado 885824" d="M241.59,982.471c.342.462,2,1.774,1.477,3.174s-.954,1.089-.36,2.191-.606,2.057-.606,2.057a30.951,30.951,0,0,1-3.208-.967,2.166,2.166,0,0,1,.61-.9c.578-.462.867-.678.578-1.357a2.78,2.78,0,0,1,0-1.616c-.332.188-.389,1.04-.372,1.487s-.537.794-1.243,1.01a1.13,1.13,0,0,0-.71.929,13.59,13.59,0,0,1-2.037-1.051,1.554,1.554,0,0,1,.77-1.149,1.538,1.538,0,0,0,.721-1.37,2,2,0,0,1-1.47,1.154.7.7,0,0,0-.653.909,3.875,3.875,0,0,1-.676-.693s-.071-1.641.882-1.894,1.965-.2,2.063-.978a1.4,1.4,0,0,1,1.175-1.329c.693-.169.86-.58.685-1.252s-.073-3.084,1.352-3.24a1.915,1.915,0,0,1,2.076-.255c.937.437.86,1.128.86,1.128a1.355,1.355,0,0,1-.732,1.686c-1.126.447-1.522,1.866-1.181,2.326" transform="translate(-206.25 -859.755)" fill="#2c3447"/>
            <path id="Trazado_885825" data-name="Trazado 885825" d="M289.362,1009c.109.314.11.517-.137.6a.57.57,0,0,1-.7-.357.549.549,0,0,1,.249-.724c.247-.086.48.164.589.478" transform="translate(-253.828 -887.359)" fill="#fdae97"/>
            <path id="Trazado_885826" data-name="Trazado 885826" d="M290.66,1011.531a.406.406,0,0,1,.33.079c-.04-.336-.437-.311-.437-.311" transform="translate(-255.65 -889.816)" fill="none" stroke="#e89780" stroke-linecap="round" stroke-linejoin="round" stroke-width="0.344"/>
            <path id="Trazado_885827" data-name="Trazado 885827" d="M292.352,1016.295a.214.214,0,1,1-.214-.214A.214.214,0,0,1,292.352,1016.295Z" transform="translate(-256.856 -894.023)" fill="none" stroke="#fff" stroke-miterlimit="10" stroke-width="0.452"/>
            <path id="Trazado_885828" data-name="Trazado 885828" d="M230.873,1374.782l.554.5h-3.608l-.578-.627-.028.627h-.952l.024-.5.077-1.577h2.763Z" transform="translate(-199.081 -1208.247)" fill="#2c3447"/>
            <path id="Trazado_885829" data-name="Trazado 885829" d="M307.614,1375.282l-.766-.621.015.621h-.912l-.1-.5-.3-1.577h3.261l1.748,1.577.554.5Z" transform="translate(-268.848 -1208.247)" fill="#2c3447"/>
            <path id="Trazado_885830" data-name="Trazado 885830" d="M232.746,1008.717a1.959,1.959,0,0,1,1.551-1.876c1.529-.3,1.089-1.325,1.883-1.751s1.407-.023,1.573-2.028" transform="translate(-204.787 -882.568)" fill="none" stroke="#2c3447" stroke-miterlimit="10" stroke-width="0.445"/>
            <path id="Trazado_885831" data-name="Trazado 885831" d="M325.865,1048.239a1.76,1.76,0,0,1,.36-2.446l7.065-3.365a5.536,5.536,0,0,0,.62-.547c.405-.434,1.645-1.482,1.795-1.3s-.554,1.07-.43,1.094a3.981,3.981,0,0,0,1.061-.758c.267-.25.754-.877.964-.839s.235.353.235.353.156-.262.3-.133,0,.6,0,.6.072-.155.2.027-.329.8-.329.8a.138.138,0,0,1,.205.067c.075.151-.611.9-1.257,1.267-.577.325-2.034.947-2.341,1.077l-6.062,4.766a1.76,1.76,0,0,1-2.383-.661" transform="translate(-286.429 -915.134)" fill="#fdae97"/>
            <rect id="Rectángulo_408290" data-name="Rectángulo 408290" width="69.627" height="5.027" transform="translate(144.341 159.58)" fill="#e8d0bf"/>
          </g>
        </g>
        <g id="Grupo_1112358" data-name="Grupo 1112358" transform="translate(144.341 159.58)">
          <g id="Grupo_1112357" data-name="Grupo 1112357" clip-path="url(#clip-path-3)">
            <path id="Trazado_885832" data-name="Trazado 885832" d="M1144.562,1194.206c6.368-5.324,13.532-10,21.523-12.46a37.167,37.167,0,0,1,11.966-1.691,68.86,68.86,0,0,1,13.411,2.08,128.6,128.6,0,0,0,12.986,2.609,56.479,56.479,0,0,0,12.332.158,60.424,60.424,0,0,0,23.517-7.423c5.994-3.338,11.974-8.027,13.669-15.027a16.877,16.877,0,0,0,.406-2.559c.012-.139-.206-.139-.217,0-.632,7.492-6.307,12.873-12.427,16.511a60.536,60.536,0,0,1-23.727,8.149,56.625,56.625,0,0,1-12.238.12,103.6,103.6,0,0,1-13.135-2.491,83.215,83.215,0,0,0-12.849-2.257A37,37,0,0,0,1167.94,1181c-7.777,1.992-14.84,6.194-21.12,11.1q-1.223.956-2.412,1.953c-.108.09.047.243.154.154" transform="translate(-1151.244 -1180.048)" fill="#bfa593"/>
            <path id="Trazado_885833" data-name="Trazado 885833" d="M1293.4,1362.876a13.8,13.8,0,0,1,5.77-5.809,14.911,14.911,0,0,1,8.107-1.583c6.892.511,12.829,4.5,19.145,6.89a21.8,21.8,0,0,0,11,1.6c.138-.021.079-.231-.058-.21-7.071,1.1-13.622-2.833-19.842-5.562-5.567-2.442-12.012-4.349-17.84-1.63a14.016,14.016,0,0,0-6.467,6.195c-.065.124.123.234.188.11" transform="translate(-1282.192 -1352.021)" fill="#bfa593"/>
            <path id="Trazado_885834" data-name="Trazado 885834" d="M1581.837,1285.281a10.6,10.6,0,0,1-8.182,8.816c-4.71,1.144-9.474-.611-13.444-3.088a64.964,64.964,0,0,1-6.746-5.021c-.107-.088-.262.065-.154.154,3.847,3.159,7.939,6.44,12.8,7.857,4.379,1.277,9.382.769,12.791-2.488a10.281,10.281,0,0,0,3.154-6.23c.016-.139-.2-.138-.217,0" transform="translate(-1511.027 -1290.374)" fill="#bfa593"/>
            <path id="Trazado_885835" data-name="Trazado 885835" d="M1641.076,1297.319c2.737,2.111,5.8,4.149,9.325,4.544a9.179,9.179,0,0,0,4.885-.736,19.407,19.407,0,0,0,3.656-2.482,11.1,11.1,0,0,1,4.416-2.449c.137-.028.079-.238-.058-.21-2.886.592-4.87,3.094-7.32,4.529-3.1,1.814-6.746,1.333-9.855-.184a29.1,29.1,0,0,1-4.939-3.2c-.111-.085-.219.1-.11.188" transform="translate(-1588.24 -1299.883)" fill="#bfa593"/>
          </g>
        </g>
        <g id="Grupo_1112360" data-name="Grupo 1112360" transform="translate(0 0)">
          <g id="Grupo_1112359" data-name="Grupo 1112359" clip-path="url(#clip-path)">
            <rect id="Rectángulo_408293" data-name="Rectángulo 408293" width="69.627" height="5.027" transform="translate(144.341 152.122)" fill="#e8d0bf"/>
          </g>
        </g>
        <g id="Grupo_1112362" data-name="Grupo 1112362" transform="translate(144.341 152.122)">
          <g id="Grupo_1112361" data-name="Grupo 1112361" clip-path="url(#clip-path-3)">
            <path id="Trazado_885836" data-name="Trazado 885836" d="M1144.562,1132.12c6.368-5.324,13.532-10,21.523-12.46a37.17,37.17,0,0,1,11.966-1.691,68.851,68.851,0,0,1,13.411,2.08,128.6,128.6,0,0,0,12.986,2.609,56.479,56.479,0,0,0,12.332.158,60.426,60.426,0,0,0,23.517-7.423c5.994-3.338,11.974-8.027,13.669-15.027a16.879,16.879,0,0,0,.406-2.559c.012-.139-.206-.139-.217,0-.632,7.492-6.307,12.873-12.427,16.511a60.532,60.532,0,0,1-23.727,8.149,56.6,56.6,0,0,1-12.238.12,103.574,103.574,0,0,1-13.135-2.491,83.215,83.215,0,0,0-12.849-2.257,37,37,0,0,0-11.839,1.073c-7.777,1.992-14.84,6.194-21.12,11.1q-1.223.955-2.412,1.953c-.108.09.047.243.154.154" transform="translate(-1151.244 -1117.962)" fill="#bfa593"/>
            <path id="Trazado_885837" data-name="Trazado 885837" d="M1293.4,1300.79a13.8,13.8,0,0,1,5.77-5.809,14.91,14.91,0,0,1,8.107-1.583c6.892.511,12.829,4.5,19.145,6.89a21.8,21.8,0,0,0,11,1.6c.138-.021.079-.231-.058-.21-7.071,1.1-13.622-2.833-19.842-5.562-5.567-2.442-12.012-4.349-17.84-1.63a14.016,14.016,0,0,0-6.467,6.195c-.065.124.123.234.188.11" transform="translate(-1282.192 -1289.935)" fill="#bfa593"/>
            <path id="Trazado_885838" data-name="Trazado 885838" d="M1581.837,1223.195a10.6,10.6,0,0,1-8.182,8.816c-4.71,1.144-9.474-.611-13.444-3.088a64.947,64.947,0,0,1-6.746-5.021c-.107-.088-.262.065-.154.154,3.847,3.159,7.939,6.44,12.8,7.857,4.379,1.277,9.382.769,12.791-2.488a10.282,10.282,0,0,0,3.154-6.23c.016-.139-.2-.138-.217,0" transform="translate(-1511.027 -1228.287)" fill="#bfa593"/>
            <path id="Trazado_885839" data-name="Trazado 885839" d="M1641.076,1235.234c2.737,2.111,5.8,4.149,9.325,4.544a9.178,9.178,0,0,0,4.885-.736,19.413,19.413,0,0,0,3.656-2.482,11.1,11.1,0,0,1,4.416-2.449c.137-.028.079-.238-.058-.21-2.886.593-4.87,3.094-7.32,4.53-3.1,1.814-6.746,1.333-9.855-.184a29.088,29.088,0,0,1-4.939-3.2c-.111-.085-.219.1-.11.188" transform="translate(-1588.24 -1237.798)" fill="#bfa593"/>
          </g>
        </g>
        <g id="Grupo_1112364" data-name="Grupo 1112364" transform="translate(0 0)">
          <g id="Grupo_1112363" data-name="Grupo 1112363" clip-path="url(#clip-path)">
            <rect id="Rectángulo_408296" data-name="Rectángulo 408296" width="69.627" height="5.027" transform="translate(144.341 144.663)" fill="#e8d0bf"/>
          </g>
        </g>
        <g id="Grupo_1112366" data-name="Grupo 1112366" transform="translate(144.341 144.664)">
          <g id="Grupo_1112365" data-name="Grupo 1112365" clip-path="url(#clip-path-3)">
            <path id="Trazado_885840" data-name="Trazado 885840" d="M1144.562,1070.034c6.368-5.324,13.532-10,21.523-12.46a37.17,37.17,0,0,1,11.966-1.691,68.86,68.86,0,0,1,13.411,2.08,128.6,128.6,0,0,0,12.986,2.609,56.479,56.479,0,0,0,12.332.158,60.424,60.424,0,0,0,23.517-7.423c5.994-3.338,11.974-8.027,13.669-15.027a16.877,16.877,0,0,0,.406-2.559c.012-.139-.206-.139-.217,0-.632,7.492-6.307,12.873-12.427,16.511a60.533,60.533,0,0,1-23.727,8.148,56.61,56.61,0,0,1-12.238.12,103.574,103.574,0,0,1-13.135-2.491,83.215,83.215,0,0,0-12.849-2.257,37,37,0,0,0-11.839,1.073c-7.777,1.992-14.84,6.194-21.12,11.1q-1.223.956-2.412,1.953c-.108.09.047.243.154.154" transform="translate(-1151.244 -1055.876)" fill="#bfa593"/>
            <path id="Trazado_885841" data-name="Trazado 885841" d="M1293.4,1238.7a13.8,13.8,0,0,1,5.77-5.809,14.909,14.909,0,0,1,8.107-1.583c6.892.511,12.829,4.5,19.145,6.89a21.8,21.8,0,0,0,11,1.6c.138-.021.079-.231-.058-.21-7.071,1.1-13.622-2.833-19.842-5.562-5.567-2.442-12.012-4.349-17.84-1.63a14.017,14.017,0,0,0-6.467,6.195c-.065.124.123.234.188.11" transform="translate(-1282.192 -1227.849)" fill="#bfa593"/>
            <path id="Trazado_885842" data-name="Trazado 885842" d="M1581.837,1161.11a10.6,10.6,0,0,1-8.182,8.816c-4.71,1.144-9.474-.611-13.444-3.088a64.947,64.947,0,0,1-6.746-5.021c-.107-.088-.262.065-.154.154,3.847,3.159,7.939,6.44,12.8,7.857,4.379,1.277,9.382.769,12.791-2.488a10.282,10.282,0,0,0,3.154-6.23c.016-.139-.2-.138-.217,0" transform="translate(-1511.027 -1166.202)" fill="#bfa593"/>
            <path id="Trazado_885843" data-name="Trazado 885843" d="M1641.076,1173.148c2.737,2.111,5.8,4.149,9.325,4.544a9.179,9.179,0,0,0,4.885-.736,19.413,19.413,0,0,0,3.656-2.482,11.1,11.1,0,0,1,4.416-2.449c.137-.028.079-.238-.058-.21-2.886.592-4.87,3.094-7.32,4.53-3.1,1.814-6.746,1.333-9.855-.184a29.1,29.1,0,0,1-4.939-3.2c-.111-.085-.219.1-.11.188" transform="translate(-1588.24 -1175.712)" fill="#bfa593"/>
          </g>
        </g>
        <g id="Grupo_1112368" data-name="Grupo 1112368" transform="translate(0 0)">
          <g id="Grupo_1112367" data-name="Grupo 1112367" clip-path="url(#clip-path)">
            <rect id="Rectángulo_408299" data-name="Rectángulo 408299" width="69.627" height="5.027" transform="translate(144.341 137.205)" fill="#e8d0bf"/>
          </g>
        </g>
        <g id="Grupo_1112370" data-name="Grupo 1112370" transform="translate(144.341 137.206)">
          <g id="Grupo_1112369" data-name="Grupo 1112369" clip-path="url(#clip-path-3)">
            <path id="Trazado_885844" data-name="Trazado 885844" d="M1144.562,1007.949c6.368-5.324,13.532-10,21.523-12.46a37.172,37.172,0,0,1,11.966-1.691,68.865,68.865,0,0,1,13.411,2.08,128.615,128.615,0,0,0,12.986,2.609,56.483,56.483,0,0,0,12.332.158,60.429,60.429,0,0,0,23.517-7.423c5.994-3.338,11.974-8.027,13.669-15.027a16.881,16.881,0,0,0,.406-2.559c.012-.139-.206-.139-.217,0-.632,7.492-6.307,12.873-12.427,16.511A60.535,60.535,0,0,1,1218,998.3a56.617,56.617,0,0,1-12.238.12,103.564,103.564,0,0,1-13.135-2.491,83.222,83.222,0,0,0-12.849-2.257,37,37,0,0,0-11.839,1.073c-7.777,1.992-14.84,6.194-21.12,11.1q-1.223.956-2.412,1.953c-.108.09.047.243.154.154" transform="translate(-1151.244 -993.79)" fill="#bfa593"/>
            <path id="Trazado_885845" data-name="Trazado 885845" d="M1293.4,1176.619a13.8,13.8,0,0,1,5.77-5.809,14.911,14.911,0,0,1,8.107-1.583c6.892.511,12.829,4.5,19.145,6.89a21.8,21.8,0,0,0,11,1.6c.138-.021.079-.231-.058-.21-7.071,1.1-13.622-2.833-19.842-5.562-5.567-2.442-12.012-4.349-17.84-1.63a14.016,14.016,0,0,0-6.467,6.195c-.065.124.123.234.188.11" transform="translate(-1282.192 -1165.764)" fill="#bfa593"/>
            <path id="Trazado_885846" data-name="Trazado 885846" d="M1581.837,1099.024a10.6,10.6,0,0,1-8.182,8.816c-4.71,1.144-9.474-.611-13.444-3.088a64.964,64.964,0,0,1-6.746-5.021c-.107-.088-.262.065-.154.154,3.847,3.159,7.939,6.44,12.8,7.857,4.379,1.277,9.382.769,12.791-2.488a10.281,10.281,0,0,0,3.154-6.23c.016-.139-.2-.138-.217,0" transform="translate(-1511.027 -1104.117)" fill="#bfa593"/>
            <path id="Trazado_885847" data-name="Trazado 885847" d="M1641.076,1111.063c2.737,2.111,5.8,4.149,9.325,4.544a9.181,9.181,0,0,0,4.885-.736,19.413,19.413,0,0,0,3.656-2.482,11.1,11.1,0,0,1,4.416-2.449c.137-.028.079-.238-.058-.21-2.886.593-4.87,3.094-7.32,4.53-3.1,1.814-6.746,1.333-9.855-.184a29.08,29.08,0,0,1-4.939-3.2c-.111-.085-.219.1-.11.188" transform="translate(-1588.24 -1113.627)" fill="#bfa593"/>
          </g>
        </g>
        <g id="Grupo_1112372" data-name="Grupo 1112372" transform="translate(0 0)">
          <g id="Grupo_1112371" data-name="Grupo 1112371" clip-path="url(#clip-path)">
            <rect id="Rectángulo_408302" data-name="Rectángulo 408302" width="69.627" height="5.027" transform="translate(144.341 129.747)" fill="#e8d0bf"/>
          </g>
        </g>
        <g id="Grupo_1112374" data-name="Grupo 1112374" transform="translate(144.341 129.748)">
          <g id="Grupo_1112373" data-name="Grupo 1112373" clip-path="url(#clip-path-3)">
            <path id="Trazado_885848" data-name="Trazado 885848" d="M1144.562,945.863c6.368-5.324,13.532-10,21.523-12.46a37.172,37.172,0,0,1,11.966-1.691,68.865,68.865,0,0,1,13.411,2.08,128.6,128.6,0,0,0,12.986,2.609,56.483,56.483,0,0,0,12.332.158,60.425,60.425,0,0,0,23.517-7.423c5.994-3.338,11.974-8.027,13.669-15.027a16.878,16.878,0,0,0,.406-2.559c.012-.139-.206-.139-.217,0-.632,7.492-6.307,12.873-12.427,16.511A60.534,60.534,0,0,1,1218,936.21a56.617,56.617,0,0,1-12.238.12,103.575,103.575,0,0,1-13.135-2.491,83.215,83.215,0,0,0-12.849-2.257,37,37,0,0,0-11.839,1.073c-7.777,1.992-14.84,6.194-21.12,11.1q-1.223.956-2.412,1.953c-.108.09.047.243.154.154" transform="translate(-1151.244 -931.705)" fill="#bfa593"/>
            <path id="Trazado_885849" data-name="Trazado 885849" d="M1293.4,1114.533a13.8,13.8,0,0,1,5.77-5.809,14.911,14.911,0,0,1,8.107-1.583c6.892.511,12.829,4.5,19.145,6.89a21.8,21.8,0,0,0,11,1.6c.138-.021.079-.231-.058-.21-7.071,1.1-13.622-2.833-19.842-5.562-5.567-2.442-12.012-4.349-17.84-1.63a14.016,14.016,0,0,0-6.467,6.195c-.065.124.123.234.188.11" transform="translate(-1282.192 -1103.678)" fill="#bfa593"/>
            <path id="Trazado_885850" data-name="Trazado 885850" d="M1581.837,1036.939a10.6,10.6,0,0,1-8.182,8.816c-4.71,1.144-9.474-.611-13.444-3.088a64.947,64.947,0,0,1-6.746-5.021c-.107-.088-.262.065-.154.154,3.847,3.159,7.939,6.44,12.8,7.857,4.379,1.277,9.382.769,12.791-2.488a10.281,10.281,0,0,0,3.154-6.23c.016-.139-.2-.138-.217,0" transform="translate(-1511.027 -1042.031)" fill="#bfa593"/>
            <path id="Trazado_885851" data-name="Trazado 885851" d="M1641.076,1048.977c2.737,2.111,5.8,4.149,9.325,4.544a9.179,9.179,0,0,0,4.885-.736,19.413,19.413,0,0,0,3.656-2.482,11.1,11.1,0,0,1,4.416-2.449c.137-.028.079-.238-.058-.21-2.886.593-4.87,3.094-7.32,4.53-3.1,1.814-6.746,1.333-9.855-.184a29.088,29.088,0,0,1-4.939-3.2c-.111-.085-.219.1-.11.188" transform="translate(-1588.24 -1051.541)" fill="#bfa593"/>
          </g>
        </g>
        <g id="Grupo_1112376" data-name="Grupo 1112376" transform="translate(0 0)">
          <g id="Grupo_1112375" data-name="Grupo 1112375" clip-path="url(#clip-path)">
            <rect id="Rectángulo_408305" data-name="Rectángulo 408305" width="69.627" height="5.027" transform="translate(144.341 122.289)" fill="#e8d0bf"/>
          </g>
        </g>
        <g id="Grupo_1112378" data-name="Grupo 1112378" transform="translate(144.341 122.29)">
          <g id="Grupo_1112377" data-name="Grupo 1112377" clip-path="url(#clip-path-3)">
            <path id="Trazado_885852" data-name="Trazado 885852" d="M1144.562,883.778c6.368-5.324,13.532-10,21.523-12.46a37.169,37.169,0,0,1,11.966-1.691,68.86,68.86,0,0,1,13.411,2.08,128.6,128.6,0,0,0,12.986,2.609,56.49,56.49,0,0,0,12.332.158,60.426,60.426,0,0,0,23.517-7.423c5.994-3.338,11.974-8.027,13.669-15.027a16.878,16.878,0,0,0,.406-2.559c.012-.139-.206-.139-.217,0-.632,7.492-6.307,12.873-12.427,16.511A60.535,60.535,0,0,1,1218,874.125a56.625,56.625,0,0,1-12.238.12,103.575,103.575,0,0,1-13.135-2.491,83.215,83.215,0,0,0-12.849-2.257,37,37,0,0,0-11.839,1.073c-7.777,1.992-14.84,6.194-21.12,11.1q-1.223.956-2.412,1.953c-.108.09.047.243.154.154" transform="translate(-1151.244 -869.62)" fill="#bfa593"/>
            <path id="Trazado_885853" data-name="Trazado 885853" d="M1293.4,1052.448a13.8,13.8,0,0,1,5.77-5.809,14.91,14.91,0,0,1,8.107-1.583c6.892.511,12.829,4.5,19.145,6.89a21.8,21.8,0,0,0,11,1.6c.138-.021.079-.231-.058-.21-7.071,1.1-13.622-2.833-19.842-5.562-5.567-2.442-12.012-4.349-17.84-1.63a14.017,14.017,0,0,0-6.467,6.195c-.065.124.123.234.188.11" transform="translate(-1282.192 -1041.593)" fill="#bfa593"/>
            <path id="Trazado_885854" data-name="Trazado 885854" d="M1581.837,974.853a10.6,10.6,0,0,1-8.182,8.816c-4.71,1.144-9.474-.611-13.444-3.088a64.964,64.964,0,0,1-6.746-5.021c-.107-.088-.262.065-.154.154,3.847,3.159,7.939,6.44,12.8,7.857,4.379,1.277,9.382.769,12.791-2.488a10.281,10.281,0,0,0,3.154-6.23c.016-.139-.2-.138-.217,0" transform="translate(-1511.027 -979.945)" fill="#bfa593"/>
            <path id="Trazado_885855" data-name="Trazado 885855" d="M1641.076,986.891c2.737,2.111,5.8,4.149,9.325,4.544a9.18,9.18,0,0,0,4.885-.736,19.41,19.41,0,0,0,3.656-2.482,11.1,11.1,0,0,1,4.416-2.449c.137-.028.079-.238-.058-.21-2.886.592-4.87,3.094-7.32,4.529-3.1,1.814-6.746,1.333-9.855-.184a29.092,29.092,0,0,1-4.939-3.2c-.111-.085-.219.1-.11.188" transform="translate(-1588.24 -989.455)" fill="#bfa593"/>
          </g>
        </g>
        <g id="Grupo_1112380" data-name="Grupo 1112380" transform="translate(0 0)">
          <g id="Grupo_1112379" data-name="Grupo 1112379" clip-path="url(#clip-path)">
            <rect id="Rectángulo_408308" data-name="Rectángulo 408308" width="69.627" height="5.027" transform="translate(144.341 114.831)" fill="#e8d0bf"/>
          </g>
        </g>
        <g id="Grupo_1112382" data-name="Grupo 1112382" transform="translate(144.341 114.831)">
          <g id="Grupo_1112381" data-name="Grupo 1112381" clip-path="url(#clip-path-3)">
            <path id="Trazado_885856" data-name="Trazado 885856" d="M1144.562,821.692c6.368-5.324,13.532-10,21.523-12.46a37.172,37.172,0,0,1,11.966-1.691,68.865,68.865,0,0,1,13.411,2.08,128.6,128.6,0,0,0,12.986,2.609,56.479,56.479,0,0,0,12.332.158,60.425,60.425,0,0,0,23.517-7.423c5.994-3.338,11.974-8.027,13.669-15.027a16.879,16.879,0,0,0,.406-2.559c.012-.139-.206-.139-.217,0-.632,7.492-6.307,12.873-12.427,16.511A60.535,60.535,0,0,1,1218,812.039a56.617,56.617,0,0,1-12.238.12,103.585,103.585,0,0,1-13.135-2.491,83.215,83.215,0,0,0-12.849-2.257,37,37,0,0,0-11.839,1.073c-7.777,1.992-14.84,6.194-21.12,11.1q-1.223.956-2.412,1.953c-.108.09.047.243.154.154" transform="translate(-1151.244 -807.534)" fill="#bfa593"/>
            <path id="Trazado_885857" data-name="Trazado 885857" d="M1293.4,990.362a13.8,13.8,0,0,1,5.77-5.809,14.91,14.91,0,0,1,8.107-1.583c6.892.511,12.829,4.5,19.145,6.89a21.8,21.8,0,0,0,11,1.6c.138-.022.079-.231-.058-.21-7.071,1.1-13.622-2.833-19.842-5.562-5.567-2.442-12.012-4.349-17.84-1.63a14.016,14.016,0,0,0-6.467,6.195c-.065.124.123.234.188.11" transform="translate(-1282.192 -979.507)" fill="#bfa593"/>
            <path id="Trazado_885858" data-name="Trazado 885858" d="M1581.837,912.767a10.6,10.6,0,0,1-8.182,8.816c-4.71,1.144-9.474-.611-13.444-3.088a64.955,64.955,0,0,1-6.746-5.021c-.107-.088-.262.065-.154.154,3.847,3.159,7.939,6.44,12.8,7.857,4.379,1.277,9.382.769,12.791-2.488a10.281,10.281,0,0,0,3.154-6.23c.016-.139-.2-.138-.217,0" transform="translate(-1511.027 -917.859)" fill="#bfa593"/>
            <path id="Trazado_885859" data-name="Trazado 885859" d="M1641.076,924.806c2.737,2.111,5.8,4.149,9.325,4.544a9.179,9.179,0,0,0,4.885-.736,19.407,19.407,0,0,0,3.656-2.482,11.1,11.1,0,0,1,4.416-2.449c.137-.028.079-.238-.058-.21-2.886.592-4.87,3.094-7.32,4.529-3.1,1.814-6.746,1.333-9.855-.184a29.092,29.092,0,0,1-4.939-3.2c-.111-.085-.219.1-.11.188" transform="translate(-1588.24 -927.37)" fill="#bfa593"/>
          </g>
        </g>
        <g id="Grupo_1112384" data-name="Grupo 1112384" transform="translate(0 0)">
          <g id="Grupo_1112383" data-name="Grupo 1112383" clip-path="url(#clip-path)">
            <rect id="Rectángulo_408311" data-name="Rectángulo 408311" width="69.627" height="5.027" transform="translate(144.341 107.373)" fill="#e8d0bf"/>
          </g>
        </g>
        <g id="Grupo_1112386" data-name="Grupo 1112386" transform="translate(144.341 107.373)">
          <g id="Grupo_1112385" data-name="Grupo 1112385" clip-path="url(#clip-path-3)">
            <path id="Trazado_885860" data-name="Trazado 885860" d="M1144.562,759.607c6.368-5.324,13.532-10,21.523-12.46a37.167,37.167,0,0,1,11.966-1.691,68.86,68.86,0,0,1,13.411,2.08,128.615,128.615,0,0,0,12.986,2.609,56.483,56.483,0,0,0,12.332.158,60.426,60.426,0,0,0,23.517-7.423c5.994-3.338,11.974-8.027,13.669-15.027a16.881,16.881,0,0,0,.406-2.559c.012-.139-.206-.139-.217,0-.632,7.492-6.307,12.873-12.427,16.511A60.534,60.534,0,0,1,1218,749.954a56.617,56.617,0,0,1-12.238.12,103.564,103.564,0,0,1-13.135-2.491,83.222,83.222,0,0,0-12.849-2.257,37,37,0,0,0-11.839,1.073c-7.777,1.992-14.84,6.194-21.12,11.1q-1.223.956-2.412,1.953c-.108.09.047.243.154.154" transform="translate(-1151.244 -745.449)" fill="#bfa593"/>
            <path id="Trazado_885861" data-name="Trazado 885861" d="M1293.4,928.277a13.8,13.8,0,0,1,5.77-5.809,14.91,14.91,0,0,1,8.107-1.583c6.892.511,12.829,4.5,19.145,6.89a21.8,21.8,0,0,0,11,1.6c.138-.021.079-.231-.058-.21-7.071,1.1-13.622-2.833-19.842-5.562-5.567-2.442-12.012-4.349-17.84-1.63a14.017,14.017,0,0,0-6.467,6.195c-.065.124.123.234.188.11" transform="translate(-1282.192 -917.422)" fill="#bfa593"/>
            <path id="Trazado_885862" data-name="Trazado 885862" d="M1581.837,850.682a10.6,10.6,0,0,1-8.182,8.816c-4.71,1.144-9.474-.611-13.444-3.088a64.955,64.955,0,0,1-6.746-5.021c-.107-.088-.262.065-.154.154,3.847,3.159,7.939,6.44,12.8,7.857,4.379,1.277,9.382.769,12.791-2.488a10.281,10.281,0,0,0,3.154-6.23c.016-.139-.2-.138-.217,0" transform="translate(-1511.027 -855.774)" fill="#bfa593"/>
            <path id="Trazado_885863" data-name="Trazado 885863" d="M1641.076,862.72c2.737,2.111,5.8,4.149,9.325,4.544a9.178,9.178,0,0,0,4.885-.736,19.407,19.407,0,0,0,3.656-2.482,11.1,11.1,0,0,1,4.416-2.449c.137-.028.079-.238-.058-.21-2.886.592-4.87,3.094-7.32,4.529-3.1,1.814-6.746,1.333-9.855-.184a29.092,29.092,0,0,1-4.939-3.2c-.111-.085-.219.1-.11.188" transform="translate(-1588.24 -865.284)" fill="#bfa593"/>
          </g>
        </g>
        <g id="Grupo_1112388" data-name="Grupo 1112388" transform="translate(0 0)">
          <g id="Grupo_1112387" data-name="Grupo 1112387" clip-path="url(#clip-path)">
            <rect id="Rectángulo_408314" data-name="Rectángulo 408314" width="69.627" height="5.027" transform="translate(144.341 99.915)" fill="#e8d0bf"/>
          </g>
        </g>
        <g id="Grupo_1112390" data-name="Grupo 1112390" transform="translate(144.341 99.915)">
          <g id="Grupo_1112389" data-name="Grupo 1112389" clip-path="url(#clip-path-3)">
            <path id="Trazado_885864" data-name="Trazado 885864" d="M1144.562,697.521c6.368-5.324,13.532-10,21.523-12.46a37.171,37.171,0,0,1,11.966-1.691,68.86,68.86,0,0,1,13.411,2.08,128.615,128.615,0,0,0,12.986,2.609,56.49,56.49,0,0,0,12.332.158,60.427,60.427,0,0,0,23.517-7.423c5.994-3.338,11.974-8.027,13.669-15.027a16.878,16.878,0,0,0,.406-2.559c.012-.139-.206-.139-.217,0-.632,7.492-6.307,12.873-12.427,16.511A60.534,60.534,0,0,1,1218,687.868a56.621,56.621,0,0,1-12.238.12,103.575,103.575,0,0,1-13.135-2.491,83.215,83.215,0,0,0-12.849-2.257,37,37,0,0,0-11.839,1.073c-7.777,1.992-14.84,6.194-21.12,11.1q-1.223.956-2.412,1.953c-.108.09.047.243.154.154" transform="translate(-1151.244 -683.363)" fill="#bfa593"/>
            <path id="Trazado_885865" data-name="Trazado 885865" d="M1293.4,866.191a13.8,13.8,0,0,1,5.77-5.809,14.91,14.91,0,0,1,8.107-1.583c6.892.511,12.829,4.5,19.145,6.89a21.8,21.8,0,0,0,11,1.6c.138-.021.079-.231-.058-.21-7.071,1.1-13.622-2.833-19.842-5.562-5.567-2.442-12.012-4.349-17.84-1.63a14.017,14.017,0,0,0-6.467,6.195c-.065.124.123.234.188.11" transform="translate(-1282.192 -855.336)" fill="#bfa593"/>
            <path id="Trazado_885866" data-name="Trazado 885866" d="M1581.837,788.6a10.6,10.6,0,0,1-8.182,8.816c-4.71,1.144-9.474-.611-13.444-3.088a64.964,64.964,0,0,1-6.746-5.021c-.107-.088-.262.065-.154.154,3.847,3.159,7.939,6.44,12.8,7.857,4.379,1.277,9.382.769,12.791-2.488a10.282,10.282,0,0,0,3.154-6.23c.016-.139-.2-.138-.217,0" transform="translate(-1511.027 -793.689)" fill="#bfa593"/>
            <path id="Trazado_885867" data-name="Trazado 885867" d="M1641.076,800.635c2.737,2.111,5.8,4.149,9.325,4.544a9.18,9.18,0,0,0,4.885-.736,19.41,19.41,0,0,0,3.656-2.482,11.1,11.1,0,0,1,4.416-2.449c.137-.028.079-.238-.058-.21-2.886.592-4.87,3.094-7.32,4.529-3.1,1.814-6.746,1.333-9.855-.184a29.1,29.1,0,0,1-4.939-3.2c-.111-.085-.219.1-.11.188" transform="translate(-1588.24 -803.199)" fill="#bfa593"/>
          </g>
        </g>
        <g id="Grupo_1112395" data-name="Grupo 1112395" transform="translate(0 0)">
          <g id="Grupo_1112394" data-name="Grupo 1112394" clip-path="url(#clip-path)">
            <rect id="Rectángulo_408317" data-name="Rectángulo 408317" width="4.195" height="2.431" transform="translate(149.845 104.942)" fill="#bfa593"/>
            <rect id="Rectángulo_408318" data-name="Rectángulo 408318" width="4.195" height="2.431" transform="translate(204.268 104.942)" fill="#bfa593"/>
            <rect id="Rectángulo_408319" data-name="Rectángulo 408319" width="4.195" height="2.431" transform="translate(177.057 104.942)" fill="#bfa593"/>
            <rect id="Rectángulo_408320" data-name="Rectángulo 408320" width="4.195" height="2.431" transform="translate(190.663 104.942)" fill="#bfa593"/>
            <rect id="Rectángulo_408321" data-name="Rectángulo 408321" width="4.195" height="2.431" transform="translate(163.451 104.942)" fill="#bfa593"/>
            <rect id="Rectángulo_408322" data-name="Rectángulo 408322" width="4.195" height="2.431" transform="translate(149.845 112.4)" fill="#bfa593"/>
            <rect id="Rectángulo_408323" data-name="Rectángulo 408323" width="4.195" height="2.431" transform="translate(204.268 112.4)" fill="#bfa593"/>
            <rect id="Rectángulo_408324" data-name="Rectángulo 408324" width="4.195" height="2.431" transform="translate(177.057 112.4)" fill="#bfa593"/>
            <rect id="Rectángulo_408325" data-name="Rectángulo 408325" width="4.195" height="2.431" transform="translate(190.663 112.4)" fill="#bfa593"/>
            <rect id="Rectángulo_408326" data-name="Rectángulo 408326" width="4.195" height="2.431" transform="translate(163.451 112.4)" fill="#bfa593"/>
            <rect id="Rectángulo_408327" data-name="Rectángulo 408327" width="4.195" height="2.431" transform="translate(149.845 119.858)" fill="#bfa593"/>
            <rect id="Rectángulo_408328" data-name="Rectángulo 408328" width="4.195" height="2.431" transform="translate(204.268 119.858)" fill="#bfa593"/>
            <rect id="Rectángulo_408329" data-name="Rectángulo 408329" width="4.195" height="2.431" transform="translate(177.057 119.858)" fill="#bfa593"/>
            <rect id="Rectángulo_408330" data-name="Rectángulo 408330" width="4.195" height="2.431" transform="translate(190.663 119.858)" fill="#bfa593"/>
            <rect id="Rectángulo_408331" data-name="Rectángulo 408331" width="4.195" height="2.431" transform="translate(163.451 119.858)" fill="#bfa593"/>
            <rect id="Rectángulo_408332" data-name="Rectángulo 408332" width="4.195" height="2.431" transform="translate(149.845 127.316)" fill="#bfa593"/>
            <rect id="Rectángulo_408333" data-name="Rectángulo 408333" width="4.195" height="2.431" transform="translate(204.268 127.316)" fill="#bfa593"/>
            <rect id="Rectángulo_408334" data-name="Rectángulo 408334" width="4.195" height="2.431" transform="translate(177.057 127.316)" fill="#bfa593"/>
            <rect id="Rectángulo_408335" data-name="Rectángulo 408335" width="4.195" height="2.431" transform="translate(190.663 127.316)" fill="#bfa593"/>
            <rect id="Rectángulo_408336" data-name="Rectángulo 408336" width="4.195" height="2.431" transform="translate(163.451 127.316)" fill="#bfa593"/>
            <rect id="Rectángulo_408337" data-name="Rectángulo 408337" width="4.195" height="2.431" transform="translate(149.845 134.774)" fill="#bfa593"/>
            <rect id="Rectángulo_408338" data-name="Rectángulo 408338" width="4.195" height="2.431" transform="translate(204.268 134.774)" fill="#bfa593"/>
            <rect id="Rectángulo_408339" data-name="Rectángulo 408339" width="4.195" height="2.431" transform="translate(177.057 134.774)" fill="#bfa593"/>
            <rect id="Rectángulo_408340" data-name="Rectángulo 408340" width="4.195" height="2.431" transform="translate(190.663 134.774)" fill="#bfa593"/>
            <rect id="Rectángulo_408341" data-name="Rectángulo 408341" width="4.195" height="2.431" transform="translate(163.451 134.774)" fill="#bfa593"/>
            <rect id="Rectángulo_408342" data-name="Rectángulo 408342" width="4.195" height="2.431" transform="translate(149.845 142.233)" fill="#bfa593"/>
            <rect id="Rectángulo_408343" data-name="Rectángulo 408343" width="4.195" height="2.431" transform="translate(204.268 142.233)" fill="#bfa593"/>
            <rect id="Rectángulo_408344" data-name="Rectángulo 408344" width="4.195" height="2.431" transform="translate(177.057 142.233)" fill="#bfa593"/>
            <rect id="Rectángulo_408345" data-name="Rectángulo 408345" width="4.195" height="2.431" transform="translate(190.663 142.233)" fill="#bfa593"/>
            <rect id="Rectángulo_408346" data-name="Rectángulo 408346" width="4.195" height="2.431" transform="translate(163.451 142.233)" fill="#bfa593"/>
            <rect id="Rectángulo_408347" data-name="Rectángulo 408347" width="4.195" height="2.431" transform="translate(149.845 149.691)" fill="#bfa593"/>
            <rect id="Rectángulo_408348" data-name="Rectángulo 408348" width="4.195" height="2.431" transform="translate(204.268 149.691)" fill="#bfa593"/>
            <rect id="Rectángulo_408349" data-name="Rectángulo 408349" width="4.195" height="2.431" transform="translate(177.057 149.691)" fill="#bfa593"/>
            <rect id="Rectángulo_408350" data-name="Rectángulo 408350" width="4.195" height="2.431" transform="translate(190.663 149.691)" fill="#bfa593"/>
            <rect id="Rectángulo_408351" data-name="Rectángulo 408351" width="4.195" height="2.431" transform="translate(163.451 149.691)" fill="#bfa593"/>
            <rect id="Rectángulo_408352" data-name="Rectángulo 408352" width="4.195" height="2.431" transform="translate(149.845 157.149)" fill="#bfa593"/>
            <rect id="Rectángulo_408353" data-name="Rectángulo 408353" width="4.195" height="2.431" transform="translate(204.268 157.149)" fill="#bfa593"/>
            <rect id="Rectángulo_408354" data-name="Rectángulo 408354" width="4.195" height="2.431" transform="translate(177.057 157.149)" fill="#bfa593"/>
            <rect id="Rectángulo_408355" data-name="Rectángulo 408355" width="4.195" height="2.431" transform="translate(190.663 157.149)" fill="#bfa593"/>
            <rect id="Rectángulo_408356" data-name="Rectángulo 408356" width="4.195" height="2.431" transform="translate(163.451 157.149)" fill="#bfa593"/>
            <rect id="Rectángulo_408357" data-name="Rectángulo 408357" width="4.195" height="2.431" transform="translate(149.845 164.607)" fill="#bfa593"/>
            <rect id="Rectángulo_408358" data-name="Rectángulo 408358" width="4.195" height="2.431" transform="translate(204.268 164.607)" fill="#bfa593"/>
            <rect id="Rectángulo_408359" data-name="Rectángulo 408359" width="4.195" height="2.431" transform="translate(177.057 164.607)" fill="#bfa593"/>
            <rect id="Rectángulo_408360" data-name="Rectángulo 408360" width="4.195" height="2.431" transform="translate(190.663 164.607)" fill="#bfa593"/>
            <rect id="Rectángulo_408361" data-name="Rectángulo 408361" width="4.195" height="2.431" transform="translate(163.451 164.607)" fill="#bfa593"/>
            <path id="Trazado_885868" data-name="Trazado 885868" d="M1427.221,783.845l.017-2.63-3.086.455Z" transform="translate(-1253.074 -687.371)" fill="#2d628c"/>
            <path id="Trazado_885869" data-name="Trazado 885869" d="M1307.645,777.614l-10.444,6.614a2.925,2.925,0,1,0,3.1,4.862l12.04-6.311Z" transform="translate(-1139.792 -684.202)" fill="#315395"/>
            <path id="Trazado_885870" data-name="Trazado 885870" d="M1295.274,834.065a2.924,2.924,0,1,1,5.819-.412l-.173,13.065h-4.869Z" transform="translate(-1139.649 -730.935)" fill="#315395"/>
            <path id="Trazado_885871" data-name="Trazado 885871" d="M1391.906,624.486c.041.235-5.058-1.238-4.749-1.635.412-.528,3.873.231,3.873.231Z" transform="translate(-1220.511 -547.866)" fill="#ba3c3e"/>
            <path id="Trazado_885872" data-name="Trazado 885872" d="M1353.135,780.81l-6.542,7.825a3.273,3.273,0,1,1-5.023-4.2l6.541-7.825a3.273,3.273,0,0,1,5.023,4.2" transform="translate(-1179.746 -682.29)" fill="#315395"/>
            <path id="Trazado_885873" data-name="Trazado 885873" d="M1376.165,672.636l-3.094,1.393.427,12.569,8.787.136,1.236-13.76-4.19-.568Z" transform="translate(-1208.129 -591.633)" fill="#ffc07b"/>
            <path id="Trazado_885874" data-name="Trazado 885874" d="M1398.836,639.231v1.963s.117.424,1.115.428a4.561,4.561,0,0,0,2.049-.658l-.309-4.292Z" transform="translate(-1230.799 -560.19)" fill="#fdae97"/>
            <path id="Trazado_885875" data-name="Trazado 885875" d="M1398.829,656.38l2.039-2.116-2.039-.027Z" transform="translate(-1230.793 -575.646)" fill="#e89780"/>
            <path id="Trazado_885876" data-name="Trazado 885876" d="M1391.881,614.79v2.763c0,.558.156,1.385.784,1.576a2.159,2.159,0,0,0,2.088-.722c.6-.654,1.934-3.6.08-4.689a1.984,1.984,0,0,0-2.953,1.072" transform="translate(-1224.679 -539.698)" fill="#fdae97"/>
            <path id="Trazado_885877" data-name="Trazado 885877" d="M1340.679,843.959a2.926,2.926,0,0,1,2.926-2.926,2.561,2.561,0,0,1,2.855,2.285c.818,3.741,2.535,13.706,2.535,13.706h-5.07l-3.214-12.653a2.917,2.917,0,0,1-.032-.412" transform="translate(-1179.628 -740.003)" fill="#315395"/>
            <path id="Trazado_885878" data-name="Trazado 885878" d="M1332.509,695.387h0a2.029,2.029,0,0,0,2.758-.761l3.65-6.434a2.023,2.023,0,1,0-3.519-2l-3.65,6.434a2.029,2.029,0,0,0,.761,2.758" transform="translate(-1171.539 -602.865)" fill="#ffc07b"/>
            <path id="Trazado_885879" data-name="Trazado 885879" d="M1392.648,615.056l-2.416.562a.929.929,0,0,0-.614.935c.042.721,2.3-.6,2.3-.6s-.888.4-.375.721a1.083,1.083,0,0,0,1.1-.1s.509.291.426,1.628.714,1.632.714,1.632a6.682,6.682,0,0,1,.3-2.566c.391-.541-.183-2.549-1.436-2.211" transform="translate(-1222.686 -541.139)" fill="#a06753"/>
            <path id="Trazado_885880" data-name="Trazado 885880" d="M1415.987,640.751c-.218.341-.276.581-.008.752a.694.694,0,0,0,.93-.224.668.668,0,0,0-.09-.927c-.268-.171-.614.058-.832.4" transform="translate(-1245.725 -563.378)" fill="#fdae97"/>
            <path id="Trazado_885881" data-name="Trazado 885881" d="M1419.78,643.87a.483.483,0,0,0-.463.311,1.039,1.039,0,0,1,.385,0" transform="translate(-1248.819 -566.524)" fill="none" stroke="#e89780" stroke-miterlimit="10" stroke-width="0.41"/>
            <path id="Trazado_885882" data-name="Trazado 885882" d="M1403.539,636.43c0,.129-.068.234-.151.234s-.151-.1-.151-.234.068-.234.151-.234.151.1.151.234" transform="translate(-1234.67 -559.772)" fill="#2c3447"/>
            <path id="Trazado_885883" data-name="Trazado 885883" d="M1399.13,650.373a.727.727,0,0,1-.794.335" transform="translate(-1230.359 -572.246)" fill="none" stroke="#2c3447" stroke-miterlimit="10" stroke-width="0.514"/>
            <path id="Trazado_885884" data-name="Trazado 885884" d="M1398.234,638.89l-.285.826a.193.193,0,0,0,.077.225l.233.151" transform="translate(-1230.008 -562.143)" fill="none" stroke="#2c3447" stroke-miterlimit="10" stroke-width="0.514"/>
            <path id="Trazado_885885" data-name="Trazado 885885" d="M1403.179,633.967a.69.69,0,0,0-.623-.082" transform="translate(-1234.072 -557.698)" fill="none" stroke="#2c3447" stroke-miterlimit="10" stroke-width="0.514"/>
            <path id="Trazado_885886" data-name="Trazado 885886" d="M1392.734,636.43c0,.129.068.234.151.234s.151-.1.151-.234-.068-.234-.151-.234-.151.1-.151.234" transform="translate(-1225.43 -559.772)" fill="#2c3447"/>
            <path id="Trazado_885887" data-name="Trazado 885887" d="M1391.564,633.939a.482.482,0,0,1,.525-.069" transform="translate(-1224.4 -557.683)" fill="none" stroke="#2c3447" stroke-miterlimit="10" stroke-width="0.514"/>
            <path id="Trazado_885888" data-name="Trazado 885888" d="M1442.861,687.727h0a2.029,2.029,0,0,0,1.45-2.466l-1.857-7.16a2.023,2.023,0,0,0-3.917,1.016l1.857,7.16a2.029,2.029,0,0,0,2.466,1.451" transform="translate(-1265.675 -595.31)" fill="#ffc07b"/>
            <path id="Trazado_885889" data-name="Trazado 885889" d="M1499.92,806.377l2.383-1.473.005.008a17.2,17.2,0,0,0,2.188,2.435.369.369,0,0,1,.079.412l-.582,1.347a.8.8,0,0,1-.483.445l-.936.317a.129.129,0,0,1-.166-.15l.192-.762a.232.232,0,0,0-.131-.266l-.9-.406.756,1.207a.161.161,0,0,1-.039.211l-.1.07a.16.16,0,0,1-.218-.02l-1.624-1.9-.376-1.413s-.018-.022-.05-.064" transform="translate(-1319.74 -708.214)" fill="#fdae97"/>
            <path id="Trazado_885890" data-name="Trazado 885890" d="M1403.708,642.311c.04.119.264.151.5.072s.4-.24.356-.358-.264-.151-.5-.072-.4.24-.356.358" transform="translate(-1235.081 -564.799)" fill="#e89780"/>
            <path id="Trazado_885891" data-name="Trazado 885891" d="M1391.881,642.238v.459c.193.023.352-.031.379-.132.029-.119-.14-.265-.379-.327" transform="translate(-1224.679 -565.089)" fill="#e89780"/>
            <path id="Trazado_885892" data-name="Trazado 885892" d="M1308.968,965.805l.1-1.959h-3.954l-.063,1.959Z" transform="translate(-1148.281 -848.063)" fill="#fdae97"/>
            <path id="Trazado_885893" data-name="Trazado 885893" d="M1305.271,964.986l3.99-1.139h-3.954Z" transform="translate(-1148.473 -848.064)" fill="#e89780"/>
            <path id="Trazado_885894" data-name="Trazado 885894" d="M1254.353,730.682l-.294,2.357a2.839,2.839,0,0,0-1,.071,10.758,10.758,0,0,0-.919.6c-.723.6-2.767-.171-2.767-.171s-.341.046-.425-.121.257-.378.257-.378c-.13-.146.044-.354.63-.468a4.756,4.756,0,0,0,1.641-.915c.065-.059.1-.1.1-.127-.006-.056.189-.313-.059-.32l-.3-.037c-.378-.006-.822-.1-.844-.18-.031-.109.05-.2.31-.288a1.267,1.267,0,0,1,.239-.062c.434-.081,1.684-.17,2.084-.189a5.491,5.491,0,0,1,1.331.226Z" transform="translate(-1098.901 -642.703)" fill="#fdae97"/>
            <path id="Trazado_885895" data-name="Trazado 885895" d="M1300.1,735.805a1.686,1.686,0,0,1-1.857,1.277,66.4,66.4,0,0,1-6.616-2.377l.266-2.363,6.963,1.348a1.74,1.74,0,0,1,1.244,2.115" transform="translate(-1136.466 -644.369)" fill="#fdae97"/>
            <path id="Trazado_885896" data-name="Trazado 885896" d="M1379.476,976.111l-.323-1.959h-3.859l.491,1.959Z" transform="translate(-1210.084 -857.131)" fill="#fdae97"/>
            <path id="Trazado_885897" data-name="Trazado 885897" d="M1375.529,975.094l3.623-.941h-3.859Z" transform="translate(-1210.083 -857.131)" fill="#e89780"/>
            <path id="Trazado_885898" data-name="Trazado 885898" d="M1454,733.546a1.862,1.862,0,0,1,2.6.294l4.459,7.935-2.383,1.473-5.372-6.787a2.361,2.361,0,0,1,.7-2.915" transform="translate(-1278.497 -645.085)" fill="#fdae97"/>
            <line id="Línea_589" data-name="Línea 589" x2="1.184" y2="4.892" transform="translate(173.495 86.242)" fill="none" stroke="#2c3447" stroke-miterlimit="10" stroke-width="0.514"/>
            <line id="Línea_590" data-name="Línea 590" x1="0.101" y1="2.97" transform="translate(165.073 86.242)" fill="none" stroke="#2c3447" stroke-miterlimit="10" stroke-width="0.514"/>
            <path id="Trazado_885899" data-name="Trazado 885899" d="M1374.5,990.461l.347,1.428h-5.179a1.167,1.167,0,0,1,1.138-1.428h3.695Z" transform="translate(-1205.105 -871.481)" fill="#2c3447"/>
            <path id="Trazado_885900" data-name="Trazado 885900" d="M1297.916,980.155v1.555h-5.425l.007-.128a1.5,1.5,0,0,1,1.5-1.427Z" transform="translate(-1137.229 -862.413)" fill="#2c3447"/>
            <path id="Trazado_885901" data-name="Trazado 885901" d="M1300.873,979.8s-.118-.517-.41-.376.391.4.391.4l-.406.28" transform="translate(-1144.18 -861.744)" fill="none" stroke="#fff" stroke-linecap="round" stroke-linejoin="round" stroke-width="0.273"/>
            <path id="Trazado_885902" data-name="Trazado 885902" d="M1304.4,979.8s.118-.517.41-.376-.391.4-.391.4l.406.28" transform="translate(-1147.711 -861.744)" fill="none" stroke="#fff" stroke-linecap="round" stroke-linejoin="round" stroke-width="0.273"/>
            <path id="Trazado_885903" data-name="Trazado 885903" d="M1376.158,990.588s-.118-.517-.41-.376.391.395.391.395l-.406.28" transform="translate(-1210.421 -871.241)" fill="none" stroke="#fff" stroke-linecap="round" stroke-linejoin="round" stroke-width="0.273"/>
            <path id="Trazado_885904" data-name="Trazado 885904" d="M1379.689,990.588s.118-.517.41-.376-.391.395-.391.395l.406.28" transform="translate(-1213.952 -871.241)" fill="none" stroke="#fff" stroke-linecap="round" stroke-linejoin="round" stroke-width="0.273"/>
            <path id="Trazado_885905" data-name="Trazado 885905" d="M1392.006,611.728a6.56,6.56,0,0,0-2.6-1.49,7.7,7.7,0,0,0-2.147-.145,3.859,3.859,0,0,0,.683-.845,1.988,1.988,0,0,1,2.393-1.021,2.107,2.107,0,0,1,1.855,2.092,12.581,12.581,0,0,0-.182,1.41" transform="translate(-1220.611 -535.108)" fill="#ee4b4e"/>
            <path id="Trazado_885906" data-name="Trazado 885906" d="M1396.643,619.73a4.138,4.138,0,0,0-3.4-1.066" transform="translate(-1225.881 -544.315)" fill="none" stroke="#fff" stroke-miterlimit="10" stroke-width="0.525"/>
            <path id="Trazado_885907" data-name="Trazado 885907" d="M1401.8,608.317a1.221,1.221,0,0,0-1.225.736,4.594,4.594,0,0,0-.659-.056,1.389,1.389,0,0,1,.891-.826" transform="translate(-1231.748 -535.114)" fill="none" stroke="#fff" stroke-linecap="round" stroke-linejoin="round" stroke-width="0.525"/>
            <path id="Trazado_885908" data-name="Trazado 885908" d="M1410.061,611.384a1.443,1.443,0,0,0-1.381.567" transform="translate(-1239.46 -537.927)" fill="none" stroke="#fff" stroke-linecap="round" stroke-linejoin="round" stroke-width="0.525"/>
            <path id="Trazado_885909" data-name="Trazado 885909" d="M1397.227,608.951s-.579.28-.693.726" transform="translate(-1228.773 -535.8)" fill="none" stroke="#fff" stroke-linecap="round" stroke-linejoin="round" stroke-width="0.525"/>
            <path id="Trazado_885910" data-name="Trazado 885910" d="M1383.988,688.713l.34-5.048-2.054-2.843,1.045-7.293-1.476-.2-1.594,4.383h-2.175l-.889-3.96-.934.421-.237,6.485-1.016,1.9.2,4.849Z" transform="translate(-1209.823 -592.445)" fill="#315395"/>
            <line id="Línea_591" data-name="Línea 591" x1="5.504" y2="6.476" transform="translate(161.445 96.017)" fill="none" stroke="#f7e7dc" stroke-miterlimit="10" stroke-width="0.514"/>
            <path id="Trazado_885911" data-name="Trazado 885911" d="M1081.428,1146.633l-2.089,11.951a2.87,2.87,0,1,0,5.575.959l3.361-12.91Z" transform="translate(-949.535 -1008.893)" fill="#793651"/>
            <path id="Trazado_885912" data-name="Trazado 885912" d="M1079.2,1233.474a2.87,2.87,0,1,1,5.711-.4l-.17,12.822h-4.778Z" transform="translate(-949.535 -1082.42)" fill="#793651"/>
            <path id="Trazado_885913" data-name="Trazado 885913" d="M1125.548,1141.795h-6.714l1.319,7.312,1.007,1,1.56,5.579,5.642-1.033Z" transform="translate(-984.432 -1004.635)" fill="#884560"/>
            <path id="Trazado_885914" data-name="Trazado 885914" d="M1100.99,1032.389l-3.037,1.367v12.329h9.382l.873-12.215-4.112-1.707Z" transform="translate(-966.06 -908.174)" fill="#a3cbff"/>
            <path id="Trazado_885915" data-name="Trazado 885915" d="M1123.239,999.6v1.926s.115.416,1.094.42a4.475,4.475,0,0,0,2.011-.646l-.3-4.212Z" transform="translate(-988.308 -877.316)" fill="#fdae97"/>
            <path id="Trazado_885916" data-name="Trazado 885916" d="M1123.232,1016.436l2-2.077-2-.026Z" transform="translate(-988.302 -892.485)" fill="#e89780"/>
            <path id="Trazado_885917" data-name="Trazado 885917" d="M1116.414,975.62v2.712c0,.547.153,1.359.769,1.547a2.119,2.119,0,0,0,2.05-.709c.59-.642,1.9-3.534.079-4.6a1.947,1.947,0,0,0-2.9,1.052" transform="translate(-982.303 -857.206)" fill="#fdae97"/>
            <path id="Trazado_885918" data-name="Trazado 885918" d="M1021.89,1036.494l-1.73.973-.021-.075a1.5,1.5,0,0,0-.641-.537c-.323-.094-.794-.222-1.288-.341-.9-.218-1.483-2.281-1.483-2.281s-.236-.242-.153-.406.449-.018.449-.018c.039-.188.3-.173.737.223a4.666,4.666,0,0,0,1.68.758c.085.017.137.016.157,0,.04-.037.357-.034.217-.233l-.148-.261c-.216-.3-.4-.7-.351-.77.067-.088.188-.079.409.076a1.237,1.237,0,0,1,.188.152c.317.3,1.119,1.228,1.368,1.532a5.394,5.394,0,0,1,.6,1.181Z" transform="translate(-894.441 -909.324)" fill="#fdae97"/>
            <path id="Trazado_885919" data-name="Trazado 885919" d="M1038.63,1057.019a1.715,1.715,0,0,1-2.08-.663l-3.3-7.568.94-.526,1.73-.973.2-.114,3.455,7.627a1.707,1.707,0,0,1-.94,2.217" transform="translate(-909.126 -921.382)" fill="#a3cbff"/>
            <path id="Trazado_885920" data-name="Trazado 885920" d="M1150.92,1233.07a2.871,2.871,0,0,1,2.871-2.871,2.514,2.514,0,0,1,2.8,2.243c.8,3.672,2.488,13.45,2.488,13.45h-4.975l-3.154-12.418a2.864,2.864,0,0,1-.032-.4" transform="translate(-1012.664 -1082.42)" fill="#884560"/>
            <path id="Trazado_885921" data-name="Trazado 885921" d="M1058.147,1054.714h0a1.991,1.991,0,0,0,2.706-.747l3.582-6.314a1.985,1.985,0,0,0-3.454-1.959l-3.582,6.314a1.991,1.991,0,0,0,.747,2.706" transform="translate(-930.152 -919.195)" fill="#a3cbff"/>
            <path id="Trazado_885922" data-name="Trazado 885922" d="M1114.2,971.94s-2.2-1.016-2.709-.349.338.9.338.9-1.05-.124-1.009.584,2.668-.259,2.668-.259-.871.395-.368.708a1.063,1.063,0,0,0,1.08-.1s.5.286.418,1.6.7,1.6.7,1.6a6.555,6.555,0,0,1,.29-2.518c.384-.531-.18-2.5-1.409-2.17" transform="translate(-977.376 -854.678)" fill="#a06753"/>
            <path id="Trazado_885923" data-name="Trazado 885923" d="M1081.375,1376.844l-.083,1.641h-5.3l.12-.514a1.457,1.457,0,0,1,1.419-1.126Z" transform="translate(-946.739 -1211.449)" fill="#2c3447"/>
            <path id="Trazado_885924" data-name="Trazado 885924" d="M1181.573,1378.485H1176.1l.037-.311a1.512,1.512,0,0,1,1.5-1.33h3.623Z" transform="translate(-1034.816 -1211.449)" fill="#2c3447"/>
            <path id="Trazado_885925" data-name="Trazado 885925" d="M1140.07,1001.1c-.214.335-.271.57-.008.738a.68.68,0,0,0,.913-.22.656.656,0,0,0-.089-.909c-.263-.168-.6.057-.816.391" transform="translate(-1002.956 -880.445)" fill="#fdae97"/>
            <path id="Trazado_885926" data-name="Trazado 885926" d="M1143.792,1004.158a.474.474,0,0,0-.454.305,1.018,1.018,0,0,1,.378,0" transform="translate(-1005.993 -883.531)" fill="none" stroke="#e89780" stroke-miterlimit="10" stroke-width="0.403"/>
            <path id="Trazado_885927" data-name="Trazado 885927" d="M1127.854,996.856c0,.127-.066.23-.149.23s-.148-.1-.148-.23.066-.23.148-.23.149.1.149.23" transform="translate(-992.108 -876.905)" fill="#2c3447"/>
            <path id="Trazado_885928" data-name="Trazado 885928" d="M1123.528,1010.54a.713.713,0,0,1-.78.329" transform="translate(-987.876 -889.148)" fill="none" stroke="#2c3447" stroke-miterlimit="10" stroke-width="0.504"/>
            <path id="Trazado_885929" data-name="Trazado 885929" d="M1122.647,999.271l-.28.81a.189.189,0,0,0,.076.22l.228.149" transform="translate(-987.532 -879.233)" fill="none" stroke="#2c3447" stroke-miterlimit="10" stroke-width="0.504"/>
            <path id="Trazado_885930" data-name="Trazado 885930" d="M866.5,854.512a10.648,10.648,0,1,0-.846,15.035,10.649,10.649,0,0,0,.846-15.035m-1.231,14.6a10.067,10.067,0,1,1,.8-14.217,10.068,10.068,0,0,1-.8,14.217" transform="translate(-746.058 -748.738)" fill="#597cff"/>
            <path id="Trazado_885931" data-name="Trazado 885931" d="M859.047,845.434a11.788,11.788,0,1,0-.933,16.644,11.8,11.8,0,0,0,.933-16.644m-1.7,15.795a10.647,10.647,0,1,1,.846-15.035,10.647,10.647,0,0,1-.846,15.035" transform="translate(-737.754 -740.42)" fill="#89a5c7"/>
            <path id="Trazado_885932" data-name="Trazado 885932" d="M866.5,854.512a10.648,10.648,0,1,0-.846,15.035,10.649,10.649,0,0,0,.846-15.035m-1.231,14.6a10.067,10.067,0,1,1,.8-14.217,10.068,10.068,0,0,1-.8,14.217" transform="translate(-746.058 -748.738)" fill="#54667a"/>
            <g id="Grupo_1112393" data-name="Grupo 1112393" transform="translate(102.437 102.802)" opacity="0.3">
              <g id="Grupo_1112392" data-name="Grupo 1112392">
                <g id="Grupo_1112391" data-name="Grupo 1112391" clip-path="url(#clip-path-21)">
                  <path id="Trazado_885933" data-name="Trazado 885933" d="M869.519,873.361a10.067,10.067,0,1,1,.8-14.217,10.068,10.068,0,0,1-.8,14.217" transform="translate(-852.743 -855.787)" fill="#cfe4ff"/>
                </g>
              </g>
            </g>
            <path id="Trazado_885934" data-name="Trazado 885934" d="M1002.517,1008.261l-.69.651-6.271-7.02.727-.609Z" transform="translate(-875.963 -881.003)" fill="#89a5c7"/>
            <path id="Trazado_885935" data-name="Trazado 885935" d="M1058.1,1072.12s-.005,0-.008.007a1.126,1.126,0,0,1-1.592-.09l-13.008-14.554L1044,1057l.313-.3.377-.354.437-.412,13.05,14.6a1.126,1.126,0,0,1-.082,1.585" transform="translate(-918.139 -929.09)" fill="#89a5c7"/>
            <path id="Trazado_885936" data-name="Trazado 885936" d="M1064.148,1072.12a.063.063,0,0,1-.011-.013l-13.771-15.406.377-.354.437-.412,13.05,14.6a1.126,1.126,0,0,1-.082,1.585" transform="translate(-924.189 -929.09)" fill="#54667a"/>
            <path id="Trazado_885937" data-name="Trazado 885937" d="M1127.5,994.438a.678.678,0,0,0-.612-.08" transform="translate(-991.521 -874.869)" fill="none" stroke="#2c3447" stroke-miterlimit="10" stroke-width="0.504"/>
            <path id="Trazado_885938" data-name="Trazado 885938" d="M1117.25,996.856c0,.127.067.23.149.23s.148-.1.148-.23-.066-.23-.148-.23-.149.1-.149.23" transform="translate(-983.039 -876.905)" fill="#2c3447"/>
            <path id="Trazado_885939" data-name="Trazado 885939" d="M1116.1,994.413a.473.473,0,0,1,.516-.068" transform="translate(-982.029 -874.856)" fill="none" stroke="#2c3447" stroke-miterlimit="10" stroke-width="0.504"/>
            <path id="Trazado_885940" data-name="Trazado 885940" d="M1164.79,1056.083h0a1.991,1.991,0,0,0,1.423-2.42l-1.822-7.027a1.985,1.985,0,0,0-3.844,1l1.822,7.027a1.991,1.991,0,0,0,2.42,1.423" transform="translate(-1021.08 -919.6)" fill="#a3cbff"/>
            <path id="Trazado_885941" data-name="Trazado 885941" d="M1087.028,1105.214l-.082,2.749h-.009a16.872,16.872,0,0,0-3.178.475.362.362,0,0,1-.38-.158l-.788-1.205a.785.785,0,0,1-.1-.636l.246-.937a.127.127,0,0,1,.213-.055l.521.569a.227.227,0,0,0,.289.036l.822-.521-1.4-.033a.158.158,0,0,1-.152-.146l-.006-.116a.157.157,0,0,1,.134-.167l2.432-.3,1.361.457.079-.006" transform="translate(-952.428 -972.053)" fill="#fdae97"/>
            <line id="Línea_592" data-name="Línea 592" x1="1.263" transform="translate(142.595 165.821)" fill="none" stroke="#d9b49c" stroke-miterlimit="10" stroke-width="0.84"/>
            <line id="Línea_593" data-name="Línea 593" x1="1.263" transform="translate(142.201 166.215)" fill="none" stroke="#d9b49c" stroke-miterlimit="10" stroke-width="0.84"/>
            <line id="Línea_594" data-name="Línea 594" x1="1.263" transform="translate(130.618 165.821)" fill="none" stroke="#d9b49c" stroke-miterlimit="10" stroke-width="0.84"/>
            <line id="Línea_595" data-name="Línea 595" x1="1.263" transform="translate(130.224 166.215)" fill="none" stroke="#d9b49c" stroke-miterlimit="10" stroke-width="0.84"/>
            <path id="Trazado_885942" data-name="Trazado 885942" d="M1128.02,1002.628c.039.117.259.148.491.07s.388-.235.349-.352-.259-.148-.491-.07-.388.235-.349.352" transform="translate(-992.51 -881.839)" fill="#e89780"/>
            <path id="Trazado_885943" data-name="Trazado 885943" d="M1116.414,1002.556v.45c.19.022.345-.03.372-.129.028-.117-.137-.261-.372-.321" transform="translate(-982.303 -882.123)" fill="#e89780"/>
            <path id="Trazado_885944" data-name="Trazado 885944" d="M1092.643,1362.761l.1-1.923h-3.88l-.061,1.923Z" transform="translate(-958.007 -1197.366)" fill="#fdae97"/>
            <path id="Trazado_885945" data-name="Trazado 885945" d="M1089.014,1361.956l3.916-1.118h-3.88Z" transform="translate(-958.195 -1197.366)" fill="#e89780"/>
            <path id="Trazado_885946" data-name="Trazado 885946" d="M1188.994,1362.761l-.317-1.923h-3.787l.482,1.923Z" transform="translate(-1042.552 -1197.366)" fill="#fdae97"/>
            <path id="Trazado_885947" data-name="Trazado 885947" d="M1185.121,1361.763l3.556-.924h-3.787Z" transform="translate(-1042.553 -1197.367)" fill="#e89780"/>
            <path id="Trazado_885948" data-name="Trazado 885948" d="M1130.292,1106.539a1.827,1.827,0,0,1-1.647,1.969l-8.918-.326.009-.313.082-2.748.012-.365,8.711-.1a1.829,1.829,0,0,1,1.75,1.881" transform="translate(-985.218 -971.96)" fill="#a3cbff"/>
            <line id="Línea_596" data-name="Línea 596" x2="4.755" y2="0.174" transform="translate(134.6 136.227)" fill="none" stroke="#2c3447" stroke-miterlimit="10" stroke-width="0.504"/>
            <path id="Trazado_885949" data-name="Trazado 885949" d="M1120.588,1086.1h6.091l-.686-2.645" transform="translate(-985.976 -953.301)" fill="none" stroke="#2c3447" stroke-miterlimit="10" stroke-width="0.504"/>
          </g>
        </g>
      </g>
    </g>
  </g>
</svg>
