<svg xmlns="http://www.w3.org/2000/svg" width="81.697" height="80.941" viewBox="0 0 81.697 80.941">
  <g id="Grupo_1102336" data-name="Grupo 1102336" transform="translate(15.496 -4.318)">
    <path id="Trazado_887885" data-name="Trazado 887885" d="M57.685,70.234a1.36,1.36,0,1,1-.4-.968A1.36,1.36,0,0,1,57.685,70.234ZM36.148,43.12a1.36,1.36,0,1,0,.968.4,1.369,1.369,0,0,0-.968-.4Zm28.51-21.047a1.324,1.324,0,1,0,.945.388,1.333,1.333,0,0,0-.945-.388ZM5.28,59.923,27.869,25.464a4.724,4.724,0,0,1-2.1-3.917c-7.182-3.065-14.028-4.534-19.333-4.189a1.36,1.36,0,0,1-1.17-.517c-.753-1.016.236-2.358.662-3.274,3.709-6.3,14.028-7.581,25.853-3.31a4.743,4.743,0,0,1,5.713-.825L38.823,7.2a3.718,3.718,0,0,1,5.1-1.324L46.93,7.691a3.727,3.727,0,0,1,1.324,5.051l-1.333,2.267a4.734,4.734,0,0,1,2.058,5.441C58.5,28.656,62.355,38.3,58.655,44.6c-.6.825-1.288,2.331-2.539,2.167A1.36,1.36,0,0,1,55.1,46c-2.258-4.815-6.883-10.075-13.049-14.863a4.661,4.661,0,0,1-4.471.073l-19.1,36.481c-.4.825-1.4.753-2.167.753-5.105,0-8.841-2.412-11.127-7.191a1.351,1.351,0,0,1,.091-1.333Zm42.4-37.034-3.709,6.348c5.541,4.353,9.921,9.068,12.541,13.648,2.53-5.024-1.034-13.013-8.832-20ZM39.839,10.828l4.743,2.784,1.324-2.231A1.016,1.016,0,0,0,45.552,10L42.541,8.189a1.007,1.007,0,0,0-1.378.363Zm-6.348,1.7a1.659,1.659,0,0,1-.145.236l-4.534,7.762a2.04,2.04,0,0,0,.725,2.775L38.8,28.738a2.031,2.031,0,0,0,2.775-.716l4.534-7.771a1.088,1.088,0,0,1,.145-.245,2.031,2.031,0,0,0-.744-2.72l-1.1-.644-3.537-2.086-4.643-2.72a1.968,1.968,0,0,0-1.533-.218,2.013,2.013,0,0,0-1.251.907Zm-6.937,6.411,3.718-6.348c-9.9-3.419-18.617-2.648-21.764,1.986a51.247,51.247,0,0,1,18.009,4.362ZM7.982,60.757a9.322,9.322,0,0,0,3.954,3.99l4.28-7.255A1.371,1.371,0,0,1,18.6,58.844l-3.963,6.738a10.882,10.882,0,0,0,1.814.145l18.78-35.883-1.342-.789-3.5,5.9a1.362,1.362,0,1,1-2.349-1.378l3.5-5.876-1.333-.816Zm15.76-14.446,1.3-2.2a1.362,1.362,0,0,0-2.349-1.378l-1.288,2.2a1.36,1.36,0,0,0,2.34,1.378ZM86.612,10.665V84.942a1.36,1.36,0,0,1-1.36,1.36H9.986A1.36,1.36,0,0,1,8.98,84.035C13.514,79.066,21.385,70.7,23.7,70.388c1.242-.408,6.928-6.266,11.435-11.453a1.387,1.387,0,0,1,1.025-.462l14.273-.063L55.182,50.9a1.378,1.378,0,0,1,.354-.372l14-10.129V30a1.351,1.351,0,0,1,.617-1.134l7-4.588.907-7.563a1.369,1.369,0,0,1,.372-.789l5.9-6.2a1.369,1.369,0,0,1,2.349.907ZM83.892,14.1l-3.246,3.41-.907,7.744a1.36,1.36,0,0,1-.608.979L72.2,30.769V41.116a1.351,1.351,0,0,1-.508,1.1L57.331,52.578l-5.015,7.916a1.369,1.369,0,0,1-1.143.635l-14.436.063c-3.963,4.534-10.483,11.6-12.7,11.9-1.124.39-6.2,5.386-10.963,10.492H83.892ZM66.018,36.908V30a1.36,1.36,0,1,0-2.72,0v6.91a1.36,1.36,0,0,0,2.72,0Zm-22.67,12.26h8.588a1.36,1.36,0,1,0,0-2.72H43.357a1.36,1.36,0,1,0,0,2.72Zm4.534-5.522a1.365,1.365,0,1,0,.907-2.575l-4.063-1.387a1.365,1.365,0,1,0-.907,2.575ZM78.351,69.481a1.378,1.378,0,0,1,.082.462v3.518a1.36,1.36,0,0,1-.762,1.215l-4.924,2.457a1.424,1.424,0,0,1-.8.127L67.224,76.6a1.369,1.369,0,0,1-1.143-1.578l1.306-7.572a1.378,1.378,0,0,1,.644-.907l6.175-3.7a1.378,1.378,0,0,1,1.986.707Zm-2.621.707L74.207,66l-4.271,2.512-.961,5.568,2.911.408,3.845-1.868ZM50.893,74.722l-3.927,3.854A29.98,29.98,0,0,1,43.81,80.1a1.36,1.36,0,0,1-1.424-.172l-3.754-2.983a1.415,1.415,0,0,1-.444-.671L37.009,72.31a1.36,1.36,0,0,1,.961-1.7l6.438-1.7a1.351,1.351,0,0,1,1.115.2l5.142,3.537a1.369,1.369,0,0,1,.181,2.086Zm-3.129-.771-3.274-2.24-4.471,1.17.653,2.213,2.72,2.2,1.814-.816ZM71.876,55.725,74.506,53a1.363,1.363,0,0,0-1.95-1.9l-2.63,2.72a1.363,1.363,0,1,0,1.95,1.9ZM61.221,59.216A1.36,1.36,0,0,0,58.945,60.7l2.63,4.026a1.362,1.362,0,0,0,2.276-1.5ZM76.855,36.908v5.441a1.36,1.36,0,1,0,2.72,0V36.908a1.365,1.365,0,1,0-2.73,0ZM29.229,76.355h-1.75a1.36,1.36,0,1,0,0,2.72h1.75a1.36,1.36,0,1,0,0-2.72Z" transform="translate(-20.483 -1.042)" fill="#fbfbfb"/>
  </g>
</svg>
