<svg xmlns="http://www.w3.org/2000/svg" width="80.016" height="80.045" viewBox="0 0 80.016 80.045">
  <g id="Grupo_1102336" data-name="Grupo 1102336" transform="translate(7.903 -3.951)">
    <g id="Page-1" transform="translate(-7.903 3.973)">
      <g id="_013---Electronic-Waste" data-name="013---Electronic-Waste" transform="translate(0 -0.022)">
        <path id="Shape" d="M76.535,73.021a25.6,25.6,0,0,0,.813-6.668c0-4.241-3.521-6.575-6.241-7.548a17.337,17.337,0,0,0-.52-11.616c-2.547-6.348-6.961-8.175-9.7-8.668a16.31,16.31,0,0,0-.4-7.842l5.454-.84a4,4,0,0,0,3.4-4.561l-.413-2.667a1.334,1.334,0,0,0-1.52-1.12l-1.334.2-2.867-18.4a2.667,2.667,0,0,0-3.041-2.28L31.193,5.5a2.667,2.667,0,0,0-2.254,3.041l1.574,10.242a13.1,13.1,0,0,0-4.988,5.694,16.51,16.51,0,0,1-2.467,3.587,7.842,7.842,0,0,0-2.294,7.908,18.524,18.524,0,0,0-9.8,6.881C6.241,48.75,8.108,56.338,9.042,59.139,4.974,62.219,4.187,69.834,4,73.021a4,4,0,0,0-4,4v2.667a1.334,1.334,0,0,0,1.334,1.334H78.682a1.334,1.334,0,0,0,1.334-1.334V77.022A4,4,0,0,0,76.535,73.021ZM66.68,25.679a1.334,1.334,0,0,1-1.12,1.52L48.823,29.773a18.87,18.87,0,0,0-4-2.067l11.842-1.827h.067l9.8-1.507ZM35.167,7.582l-.347,3.774a1.334,1.334,0,0,0,.92,1.4l2.054.653.48,3.147a1.334,1.334,0,0,0,.907,1.067l2.841.907a1.494,1.494,0,0,0,.413,0,1.332,1.332,0,0,0,.467-2.6l-2.054-.667-.48-3.134a1.334,1.334,0,0,0-.907-1.067l-1.827-.587.32-3.374L60.572,3.675l1.334,8.6-5.081-1.187a1.334,1.334,0,0,0-1.334.52l-.333.44-2-1.44a1.334,1.334,0,0,0-1.56,0L50.13,11.676,47.676,9.009a1.334,1.334,0,0,0-1.76-.187l-2.427,1.667a1.336,1.336,0,0,0,1.534,2.187l1.48-1,2.454,2.667a1.334,1.334,0,0,0,1.747.187l1.654-1.16L54.677,15a1.339,1.339,0,0,0,1.867-.293l.587-.813,5.334,1.227,1.08,7-7.108,1.094-5.6.867.28-.267a1.334,1.334,0,0,0,.2-1.76L50.143,20.4l.547-.733a1.335,1.335,0,0,0-2.147-1.587l-1.307,1.6a1.334,1.334,0,0,0,0,1.56l1.04,1.48L45.9,24.892l-10.3,1.454h-.133l-1.067.093-2.827-18.3Zm-23.9,53.344a1.334,1.334,0,0,0,.627-1.707c0-.093-3.627-8.682,1.147-14.67s9.442-6.2,9.629-6.2a1.317,1.317,0,0,0,1.107-2.04c-.08-.133-2.027-3.134,1.174-6.321a19.577,19.577,0,0,0,2.894-4.161,13.123,13.123,0,0,1,3.107-4.161L31.779,27a20.871,20.871,0,0,0-2.934.813,1.335,1.335,0,0,0,.987,2.48c.133,0,12.562-4.868,21.177,4.974a1.346,1.346,0,0,0,2-1.8c-.44-.507-.907-.974-1.334-1.427l6.215-.96c1.334,5.854.24,7.335.107,7.481A1.3,1.3,0,0,0,58.771,41s6.188-.56,9.335,7.175a14.149,14.149,0,0,1,0,10.909,1.341,1.341,0,0,0,.934,1.907c.067,0,5.6,1.174,5.6,5.334a21,21,0,0,1-.92,6.668H6.668C6.908,69.3,8,62.539,11.269,60.872Zm66.079,17.43H2.667V77.022A1.334,1.334,0,0,1,4,75.689H76.015a1.334,1.334,0,0,1,1.334,1.334Z" transform="translate(0 -0.978)" fill="#2d3d45"/>
        <path id="Shape-2" data-name="Shape" d="M32.335,31.334A1.334,1.334,0,0,0,31,30c-3.094,0-4.508,1.4-5.054,2.667a16.75,16.75,0,0,0-6.215,1.454,1.351,1.351,0,0,0,.6,2.547,1.24,1.24,0,0,0,.6-.147A15.15,15.15,0,0,1,27,35.334,1.334,1.334,0,0,0,28.334,34c0-.227.213-1.334,2.667-1.334A1.334,1.334,0,0,0,32.335,31.334Z" transform="translate(6.339 8.704)" fill="#2d3d45"/>
        <path id="Shape-3" data-name="Shape" d="M48,42.428a1.24,1.24,0,0,0,.6-.147,1.334,1.334,0,0,0,.587-1.787c-1.24-2.48-4-2.667-5.988-2.254-1.067-1.107-3.147-2.134-6.295-1.08a1.337,1.337,0,0,0,.853,2.534c2.667-.92,3.627.52,3.721.667a1.334,1.334,0,0,0,1.6.667s2.947-.907,3.734.667A1.334,1.334,0,0,0,48,42.428Z" transform="translate(12.008 10.946)" fill="#2d3d45"/>
        <path id="Shape-4" data-name="Shape" d="M26,42a5.908,5.908,0,0,0-4.748,2.667c-5.334.24-6.948,3.054-7.108,3.387a1.334,1.334,0,0,0,.573,1.76,1.227,1.227,0,0,0,.613.187,1.334,1.334,0,0,0,1.174-.68c0-.08,1.174-1.96,5.494-1.96a1.334,1.334,0,0,0,1.187-.733A3.667,3.667,0,0,1,26,44.667,1.334,1.334,0,0,0,26,42Z" transform="translate(4.673 12.707)" fill="#2d3d45"/>
        <path id="Shape-5" data-name="Shape" d="M36,48c-5.988,0-7.681,3.054-7.855,3.4a1.334,1.334,0,0,0,.573,1.76,1.227,1.227,0,0,0,.613.173,1.334,1.334,0,0,0,1.174-.68c0-.08,1.174-1.96,5.494-1.96a1.334,1.334,0,1,0,0-2.667Z" transform="translate(9.344 14.709)" fill="#2d3d45"/>
        <circle id="Oval" cx="1.334" cy="1.334" r="1.334" transform="translate(42.675 53.373)" fill="#2d3d45"/>
        <circle id="Oval-2" data-name="Oval" cx="1.334" cy="1.334" r="1.334" transform="translate(46.676 40.038)" fill="#2d3d45"/>
        <circle id="Oval-3" data-name="Oval" cx="1.334" cy="1.334" r="1.334" transform="translate(17.337 49.373)" fill="#2d3d45"/>
        <circle id="Oval-4" data-name="Oval" cx="1.334" cy="1.334" r="1.334" transform="translate(25.338 66.709)" fill="#2d3d45"/>
        <circle id="Oval-5" data-name="Oval" cx="1.334" cy="1.334" r="1.334" transform="translate(58.678 62.709)" fill="#2d3d45"/>
      </g>
    </g>
  </g>
</svg>
