<svg xmlns="http://www.w3.org/2000/svg" width="79.406" height="79.365" viewBox="0 0 79.406 79.365">
  <g id="Grupo_1113230" data-name="Grupo 1113230" transform="translate(-710.594 -3775.182)">
    <g id="Layer_32" data-name="Layer 32" transform="translate(709.602 3774.157)">
      <path id="Trazado_886401" data-name="Trazado 886401" d="M80.4,21.482a20.489,20.489,0,0,0-39.942-6.4H13.808a1.281,1.281,0,0,0-1.281.9L1,53.113A1.972,1.972,0,0,0,1,53.5v5.122A1.281,1.281,0,0,0,2.283,59.9H9.966a5.122,5.122,0,0,0,5.122,5.122H30.456v7.684H26.614a3.842,3.842,0,0,0-3.842,3.842v2.561a1.281,1.281,0,0,0,1.281,1.281H49.664a1.281,1.281,0,0,0,1.281-1.281V76.548A3.842,3.842,0,0,0,47.1,72.706H43.261V65.022H58.628A5.122,5.122,0,0,0,63.751,59.9h7.684a1.281,1.281,0,0,0,1.281-1.281V53.5a1.179,1.179,0,0,0,0-.371L68.617,40A20.489,20.489,0,0,0,80.4,21.482ZM60.575,41.972l1.473,5.122H53.288l-1.217-6.4h.781a20.169,20.169,0,0,0,7.056,1.281ZM26.46,29.166l1.217-6.4h7.9v6.4Zm9.118,2.561v6.4H24.744l1.217-6.4Zm-11.73-2.561H16.792l1.818-6.4h6.4Zm-7.8,2.561h7.312l-1.217,6.4H14.231Zm-2.561,8.964h8.157l-1.217,6.4H11.669Zm10.77,0h11.32v6.4H23.041Zm13.882,0h11.32l1.217,6.4H38.139Zm0-2.561v-6.4h4.047a20.656,20.656,0,0,0,5.827,6.4Zm0-8.964v-6.4h1.345a20.118,20.118,0,0,0,1.447,6.4ZM48.384,76.548v1.281H25.333V76.548a1.281,1.281,0,0,1,1.281-1.281H47.1A1.281,1.281,0,0,1,48.384,76.548ZM40.7,72.706H33.017V65.022H40.7ZM58.628,62.461H15.089A2.561,2.561,0,0,1,12.527,59.9H61.19A2.561,2.561,0,0,1,58.628,62.461ZM3.563,57.339V54.778H70.154v2.561Zm66.142-5.122H4.024L14.756,17.641H39.791a20.886,20.886,0,0,0-.307,2.561H17.65a1.281,1.281,0,0,0-1.281.935L8.686,48.029a1.277,1.277,0,0,0,1.281,1.626H63.751a1.281,1.281,0,0,0,1.229-1.639L63.162,41.69a20.643,20.643,0,0,0,3.073-.73Zm-9.8-12.806A17.928,17.928,0,1,1,77.837,21.482,17.928,17.928,0,0,1,59.909,39.411Z" transform="translate(0)" fill="#87a771"/>
      <path id="Trazado_886402" data-name="Trazado 886402" d="M48.122,13.122a2.561,2.561,0,0,1,2.561,2.561h2.561A5.122,5.122,0,0,0,49.4,10.74V8H46.842v2.74a5.122,5.122,0,0,0,1.281,10.065,2.561,2.561,0,1,1-2.561,2.561H43a5.122,5.122,0,0,0,3.842,4.943v2.74H49.4V28.31a5.122,5.122,0,0,0-1.281-10.065,2.561,2.561,0,1,1,0-5.122Z" transform="translate(11.787 1.957)" fill="#87a771"/>
    </g>
  </g>
</svg>
