<svg xmlns="http://www.w3.org/2000/svg" width="72.736" height="72.793" viewBox="0 0 72.736 72.793">
  <path id="Trazado_885709" data-name="Trazado 885709" d="M20.456,51.04a1.936,1.936,0,0,1,1.1-.344h2.784a1.945,1.945,0,0,1,1.945,1.945,2.051,2.051,0,0,0,3.5,1.45,1.948,1.948,0,0,1,2.752,0l1.968,1.97a1.945,1.945,0,0,1,0,2.75,2.052,2.052,0,0,0,1.45,3.5A1.943,1.943,0,0,1,37.9,64.256V67.04a1.943,1.943,0,0,1-1.945,1.945,2.052,2.052,0,0,0-1.45,3.5,1.948,1.948,0,0,1,0,2.752L32.54,77.205a1.948,1.948,0,0,1-2.752,0,2.051,2.051,0,0,0-3.5,1.45A1.943,1.943,0,0,1,24.343,80.6H21.56a1.943,1.943,0,0,1-1.945-1.945,2.051,2.051,0,0,0-3.5-1.45,1.945,1.945,0,0,1-2.75,0l-1.97-1.968a1.948,1.948,0,0,1,0-2.752,2.051,2.051,0,0,0-1.45-3.5A1.945,1.945,0,0,1,8,67.04V64.256a1.945,1.945,0,0,1,1.945-1.945,2.051,2.051,0,0,0,1.45-3.5,1.945,1.945,0,0,1,0-2.75l1.97-1.97a1.945,1.945,0,0,1,2.75,0,2.053,2.053,0,0,0,3.021-.126A31.565,31.565,0,0,1,69.973,20.5,10.486,10.486,0,0,1,77.513,7.84a1.031,1.031,0,0,1,1.091.387,10.485,10.485,0,0,1-4.938,16.1A31.561,31.561,0,0,1,49.17,75.8a1.031,1.031,0,0,1-1.031-1.031V69.844H46.449a2.912,2.912,0,0,1-2.9-2.9v-.959h-1.01a3.026,3.026,0,0,1-3.015-3.018V58.682a3.029,3.029,0,0,1,2.024-2.846,18.114,18.114,0,0,0-3.557-9.425,11,11,0,0,1-1.854-6.488,13.037,13.037,0,1,1,26.074,0,11,11,0,0,1-1.854,6.488A18.114,18.114,0,0,0,56.8,55.837a3.028,3.028,0,0,1,2.024,2.846v4.284A3.026,3.026,0,0,1,55.8,65.984H54.795v.959a2.912,2.912,0,0,1-2.9,2.9H50.2v3.875A29.525,29.525,0,0,0,77.693,36.662a10.485,10.485,0,0,1-15.036-8,1.03,1.03,0,0,1,.515-1.037,10.479,10.479,0,0,1,9.785-.279q.327.161.638.341A29.511,29.511,0,0,0,20.456,51.04Zm53.85-29.259a8.421,8.421,0,0,0,3.039-11.735,8.421,8.421,0,0,0-5,11.1l2.031-5.812a1.031,1.031,0,0,1,1.946.68ZM43.6,55.668H54.741a18.746,18.746,0,0,1,3.127-9.2c1.174-1.832,2.278-3.26,2.278-6.547a10.976,10.976,0,1,0-21.952,0c0,3.287,1.1,4.715,2.278,6.547A18.746,18.746,0,0,1,43.6,55.668ZM76.11,33.524a8.421,8.421,0,0,0-11.283-4.433,8.421,8.421,0,0,0,10.414,6.3l-5.524-2.717a1.031,1.031,0,0,1,.91-1.85Zm-33.575,24.2a.957.957,0,0,0-.953.953v4.284a.958.958,0,0,0,.953.956h2.041a1.031,1.031,0,0,1,1.031,1.031v1.99a.844.844,0,0,0,.842.839h5.443a.844.844,0,0,0,.842-.839v-1.99a1.031,1.031,0,0,1,1.031-1.031H55.8a.959.959,0,0,0,.956-.956V58.682a.958.958,0,0,0-.956-.953Zm6.9-10.642a1.031,1.031,0,0,1-1.768-1.059L50.7,40.954H45.817a1.031,1.031,0,0,1-.884-1.56l3.974-6.634a1.031,1.031,0,1,1,1.768,1.059l-3.039,5.073h4.888a1.031,1.031,0,0,1,.884,1.56ZM10.061,64.371v2.554a4.114,4.114,0,0,1,2.872,6.935l1.807,1.806a4.113,4.113,0,0,1,6.934,2.872h2.554a4.114,4.114,0,0,1,6.935-2.872L32.97,73.86a4.115,4.115,0,0,1,2.872-6.935V64.371a4.114,4.114,0,0,1-2.872-6.934L31.163,55.63a4.114,4.114,0,0,1-6.935-2.872H21.675a4.114,4.114,0,0,1-6.934,2.872l-1.807,1.807a4.114,4.114,0,0,1-2.872,6.934Zm12.891,9a7.719,7.719,0,1,1,7.719-7.719A7.734,7.734,0,0,1,22.952,73.368Zm0-2.061a5.658,5.658,0,1,0-5.658-5.658A5.67,5.67,0,0,0,22.952,71.307Zm-1.031-6.689V62.846a1.031,1.031,0,1,1,2.061,0v1.772h1.772a1.031,1.031,0,1,1,0,2.061H23.983v1.772a1.031,1.031,0,1,1-2.061,0V66.68H20.149a1.031,1.031,0,1,1,0-2.061Z" transform="translate(-8 -7.806)" fill="#87a771" fill-rule="evenodd"/>
</svg>
