<svg xmlns="http://www.w3.org/2000/svg" width="60.014" height="59.997" viewBox="0 0 60.014 59.997">
  <g id="Grupo_1112229" data-name="Grupo 1112229" transform="translate(6.835 -3.481)">
    <g id="_059---Financial-Gain" data-name="059---Financial-Gain" transform="translate(-7.821 3.477)">
      <path id="Shape" d="M58,22H40V15h2.45a2,2,0,0,0,1.369-3.464C42.083,9.926,39.386,7.311,37.006,5,35.013,3.069,33.29,1.4,32.357.534a2,2,0,0,0-2.729.015L18.19,11.536A2,2,0,0,0,19.55,15H22v9.271A17.992,17.992,0,1,0,33.031,53.246,2.978,2.978,0,0,0,35,54h.184A2.966,2.966,0,0,0,35,55v2a3,3,0,0,0,3,3H58a3,3,0,0,0,3-3V55a3,3,0,0,0-3-3h-.184A2.966,2.966,0,0,0,58,51V49a2.984,2.984,0,0,0-.22-1.116A3,3,0,0,0,60,45V43a2.994,2.994,0,0,0-1.4-2.529A2.967,2.967,0,0,0,59,39V37a2.994,2.994,0,0,0-1.4-2.529A2.967,2.967,0,0,0,58,33V31a2.966,2.966,0,0,0-.184-1H58a3,3,0,0,0,3-3V25a3,3,0,0,0-3-3ZM22,13l-2.438-.01L31,2c.914.848,2.711,2.59,4.614,4.435C38,8.753,40.707,11.377,42.45,13H40a2,2,0,0,0-2,2v7a3,3,0,0,0-3,3v2a2.966,2.966,0,0,0,.184,1H35a3,3,0,0,0-2.766,1.841A18.008,18.008,0,0,0,24,24.721V15a2,2,0,0,0-2-2ZM56,36a1,1,0,0,1,1,1v2a1,1,0,0,1-1,1H36.882a17.8,17.8,0,0,0-.932-4ZM19,54A12,12,0,1,1,31,42,12,12,0,0,1,19,54Zm9.154-22.568A13.919,13.919,0,0,0,20,28.051v-2a15.915,15.915,0,0,1,9.568,3.967ZM18,28.051a13.919,13.919,0,0,0-8.154,3.381L8.432,30.018A15.915,15.915,0,0,1,18,26.051Zm-9.568,4.8A13.919,13.919,0,0,0,5.051,41h-2a15.915,15.915,0,0,1,3.967-9.568ZM5.051,43a13.919,13.919,0,0,0,3.381,8.154L7.018,52.568A15.915,15.915,0,0,1,3.051,43Zm4.8,9.568A13.919,13.919,0,0,0,18,55.949v2a15.915,15.915,0,0,1-9.568-3.967ZM20,55.949a13.919,13.919,0,0,0,8.154-3.381l1.414,1.414A15.915,15.915,0,0,1,20,57.949Zm9.568-4.8A13.919,13.919,0,0,0,32.949,43h2a15.915,15.915,0,0,1-3.967,9.568ZM34.949,41h-2a13.919,13.919,0,0,0-3.381-8.154l1.414-1.414A15.915,15.915,0,0,1,34.949,41ZM59,55v2a1,1,0,0,1-1,1H38a1,1,0,0,1-1-1V55a1,1,0,0,1,1-1H58A1,1,0,0,1,59,55ZM38,52H35a.985.985,0,0,1-.8-.41A17.953,17.953,0,0,0,35.95,48H55a1,1,0,0,1,1,1v2a1,1,0,0,1-1,1Zm20-7a1,1,0,0,1-1,1H36.536A17.949,17.949,0,0,0,37,42H57a1,1,0,0,1,1,1ZM56,31v2a1,1,0,0,1-1,1H35.1A17.769,17.769,0,0,0,34,32.072V31a1,1,0,0,1,1-1H55a1,1,0,0,1,1,1Zm3-4a1,1,0,0,1-1,1H38a1,1,0,0,1-1-1V25a1,1,0,0,1,1-1H58a1,1,0,0,1,1,1Z" fill="#edf0f1"/>
      <path id="Shape-2" data-name="Shape" d="M22,38a1,1,0,0,0,2,0,5.009,5.009,0,0,0-4-4.9V33a1,1,0,0,0-2,0v.1a5,5,0,0,0,0,9.8v5.917A3,3,0,0,1,16,46a1,1,0,0,0-2,0,5.009,5.009,0,0,0,4,4.9V51a1,1,0,0,0,2,0v-.1a5,5,0,0,0,0-9.8V35.184A3,3,0,0,1,22,38Zm-6,0a3,3,0,0,1,2-2.816v5.632A3,3,0,0,1,16,38Zm6,8a3,3,0,0,1-2,2.816V43.184A3,3,0,0,1,22,46Z" fill="#edf0f1"/>
    </g>
  </g>
</svg>
