<svg xmlns="http://www.w3.org/2000/svg" xmlns:xlink="http://www.w3.org/1999/xlink" width="521.058" height="394.805" viewBox="0 0 521.058 394.805">
  <defs>
    <clipPath id="clip-path">
      <rect id="Rectángulo_408530" data-name="Rectángulo 408530" width="295" height="295" transform="translate(-0.382 -0.382)" fill="none"/>
    </clipPath>
  </defs>
  <g id="Grupo_1113233" data-name="Grupo 1113233" transform="translate(-234.231 -6555.857)">
    <rect id="Rectángulo_406955" data-name="Rectángulo 406955" width="521.058" height="394.804" rx="20" transform="translate(234.231 6555.857)" fill="#fbfbfb"/>
    <rect id="Ilustración" width="438" height="292" rx="20" transform="translate(276.231 6606.857)" fill="#cce5f2"/>
    <g id="Grupo_1112595" data-name="Grupo 1112595" transform="translate(347.919 6604.936)">
      <g id="Grupo_1112594" data-name="Grupo 1112594" transform="translate(-0.305 -0.305)" clip-path="url(#clip-path)">
        <path id="Trazado_886519" data-name="Trazado 886519" d="M293.76,146.88A146.88,146.88,0,1,1,146.88,0,146.88,146.88,0,0,1,293.76,146.88" transform="translate(0.262 0.262)" fill="#e6f2f9"/>
        <rect id="Rectángulo_408522" data-name="Rectángulo 408522" width="261.276" height="185.273" transform="translate(27.68 0.662)" fill="#006398"/>
        <rect id="Rectángulo_408523" data-name="Rectángulo 408523" width="244.881" height="152.998" transform="translate(35.877 8.86)" fill="#cce5f2"/>
        <path id="Trazado_886520" data-name="Trazado 886520" d="M772.835,1181.119h7.735a10.506,10.506,0,0,0,10.506,10.506H809.6a10.506,10.506,0,0,0,10.506-10.506h7.735l7.735,41.107v3.438H765.1v-3.438Z" transform="translate(-642.02 -991.258)" fill="#006398"/>
        <path id="Trazado_886521" data-name="Trazado 886521" d="M833.725,1483.888H763.249a.354.354,0,0,1,0-.708h70.476a.354.354,0,0,1,0,.708" transform="translate(-640.169 -1244.831)" fill="#e6d0be"/>
        <path id="Trazado_886522" data-name="Trazado 886522" d="M366.188,615.165H291.477a.354.354,0,0,1-.354-.354V558.475a.354.354,0,0,1,.708,0v55.982h74.358a.354.354,0,1,1,0,.708" transform="translate(-244.128 -468.267)" fill="#006398"/>
        <path id="Trazado_886523" data-name="Trazado 886523" d="M634.618,641.172a.354.354,0,0,1-.182-.658l10.2-6.094a.354.354,0,0,1,.363.608l-10.2,6.094a.355.355,0,0,1-.181.05" transform="translate(-532.187 -532.276)" fill="#006398"/>
        <path id="Trazado_886524" data-name="Trazado 886524" d="M522.15,552.9a.353.353,0,0,1-.3-.16l-13.815-21.032a.354.354,0,1,1,.592-.388l13.815,21.032a.354.354,0,0,1-.1.49.35.35,0,0,1-.194.058" transform="translate(-426.175 -445.633)" fill="#006398"/>
        <path id="Trazado_886525" data-name="Trazado 886525" d="M403.987,534.482a.354.354,0,0,1-.217-.634l10.733-8.292a.354.354,0,1,1,.433.56L404.2,534.408a.352.352,0,0,1-.216.074" transform="translate(-338.578 -440.867)" fill="#e6d0be"/>
        <path id="Trazado_886526" data-name="Trazado 886526" d="M359.158,576.383a4.78,4.78,0,1,1,4.78-4.779,4.785,4.785,0,0,1-4.78,4.779m0-8.851a4.072,4.072,0,1,0,4.072,4.072,4.076,4.076,0,0,0-4.072-4.072" transform="translate(-297.229 -475.572)" fill="#e6d0be"/>
        <path id="Trazado_886527" data-name="Trazado 886527" d="M470.315,490.608a4.78,4.78,0,1,1,4.78-4.78,4.785,4.785,0,0,1-4.78,4.78m0-8.851a4.072,4.072,0,1,0,4.072,4.072,4.076,4.076,0,0,0-4.072-4.072" transform="translate(-390.543 -403.566)" fill="#e6d0be"/>
        <path id="Trazado_886528" data-name="Trazado 886528" d="M587.189,667.51a4.78,4.78,0,1,1,4.78-4.78,4.785,4.785,0,0,1-4.78,4.78m0-8.851a4.072,4.072,0,1,0,4.072,4.072,4.076,4.076,0,0,0-4.072-4.072" transform="translate(-488.656 -552.071)" fill="#006398"/>
        <path id="Trazado_886529" data-name="Trazado 886529" d="M699.23,603.207a4.78,4.78,0,1,1,4.78-4.78,4.785,4.785,0,0,1-4.78,4.78m0-8.851a4.072,4.072,0,1,0,4.072,4.071,4.076,4.076,0,0,0-4.072-4.071" transform="translate(-582.711 -498.091)" fill="#e6d0be"/>
        <rect id="Rectángulo_408524" data-name="Rectángulo 408524" width="11.007" height="30.18" transform="translate(56.699 107.488)" fill="#e6d0be"/>
        <rect id="Rectángulo_408525" data-name="Rectángulo 408525" width="11.007" height="36.192" transform="translate(74.862 101.475)" fill="#99cae5"/>
        <rect id="Rectángulo_408526" data-name="Rectángulo 408526" width="11.007" height="19.503" transform="translate(93.026 118.165)" fill="#99cae5"/>
        <rect id="Rectángulo_408527" data-name="Rectángulo 408527" width="11.007" height="25.104" transform="translate(111.19 112.564)" fill="#99cae5"/>
        <path id="Trazado_886530" data-name="Trazado 886530" d="M1332.263,635.324a26.984,26.984,0,1,1,17.54-10.9,26.808,26.808,0,0,1-17.54,10.9m-7.394-44.841A18.463,18.463,0,1,0,1346.09,605.7a18.484,18.484,0,0,0-21.221-15.213" transform="translate(-1091.796 -488.068)" fill="#fff"/>
        <path id="Trazado_886531" data-name="Trazado 886531" d="M1337.66,639.844a25.919,25.919,0,1,1,16.848-10.472,25.748,25.748,0,0,1-16.848,10.472M1330.266,595a19.528,19.528,0,1,0,22.445,16.091A19.55,19.55,0,0,0,1330.266,595" transform="translate(-1097.367 -493.639)" fill="#fff"/>
        <path id="Trazado_886532" data-name="Trazado 886532" d="M1480.558,595.2a19.573,19.573,0,0,1,17.1,14.75l6.319-1.042a25.941,25.941,0,0,0-23.322-20.12Z" transform="translate(-1242.629 -494.013)" fill="#a8d08d"/>
        <path id="Trazado_886533" data-name="Trazado 886533" d="M1407.423,734.159a19.519,19.519,0,0,1-30.824,17.513l-4.135,4.9c.132.1.264.2.4.293a25.918,25.918,0,0,0,40.88-23.75Z" transform="translate(-1151.887 -615.171)" fill="#657d55"/>
        <path id="Trazado_886534" data-name="Trazado 886534" d="M1366.355,599.565a19.411,19.411,0,0,1,9.492-4.414q.975-.161,1.941-.222l.1-6.407a26.384,26.384,0,0,0-3.082.323,25.748,25.748,0,0,0-12.992,6.18Z" transform="translate(-1142.948 -493.787)" fill="#657d55"/>
        <path id="Trazado_886535" data-name="Trazado 886535" d="M1312.379,644.773a25.925,25.925,0,0,0,3.2,33.885l4.137-4.905a19.494,19.494,0,0,1-1.124-26.545l-4.538-4.538a26.445,26.445,0,0,0-1.677,2.1" transform="translate(-1097.367 -539.243)" fill="#f7f1eb"/>
        <path id="Trazado_886536" data-name="Trazado 886536" d="M1433.577,721.586a6.682,6.682,0,1,1,6.682-6.682,6.689,6.689,0,0,1-6.682,6.682m0-12.655a5.974,5.974,0,1,0,5.974,5.974,5.98,5.98,0,0,0-5.974-5.974" transform="translate(-1197.582 -594.273)" fill="#8b865c"/>
        <path id="Trazado_886537" data-name="Trazado 886537" d="M957.483,606.171a26.984,26.984,0,1,1-9.669-18.249,26.807,26.807,0,0,1,9.669,18.249m-45.244,4.29a18.463,18.463,0,1,0,16.638-20.124,18.484,18.484,0,0,0-16.638,20.124" transform="translate(-758.316 -488.087)" fill="#fff"/>
        <path id="Trazado_886538" data-name="Trazado 886538" d="M961.993,611.842a25.919,25.919,0,1,1-9.288-17.529,25.751,25.751,0,0,1,9.288,17.529m-45.244,4.29a19.528,19.528,0,1,0,17.6-21.284,19.55,19.55,0,0,0-17.6,21.284" transform="translate(-763.886 -493.658)" fill="#fff"/>
        <path id="Trazado_886539" data-name="Trazado 886539" d="M918.3,612.727a19.573,19.573,0,0,1,15.892-16.049l-.6-6.376a25.942,25.942,0,0,0-21.678,21.882Z" transform="translate(-765.264 -495.282)" fill="#87a771"/>
        <path id="Trazado_886540" data-name="Trazado 886540" d="M1066.715,594.773a19.519,19.519,0,0,1,15.35,31.956l4.606,4.463c.107-.125.214-.25.32-.377a25.918,25.918,0,0,0-20.88-42.417Z" transform="translate(-894.711 -493.668)" fill="#a8d08d"/>
        <path id="Trazado_886541" data-name="Trazado 886541" d="M920.505,758.061a19.41,19.41,0,0,1-3.75-9.773q-.093-.983-.087-1.952l-6.385-.542a26.317,26.317,0,0,0,.11,3.1,25.745,25.745,0,0,0,5.271,13.386Z" transform="translate(-763.892 -625.813)" fill="#8b865c"/>
        <path id="Trazado_886542" data-name="Trazado 886542" d="M958.495,842.737a25.925,25.925,0,0,0,34.025-.862l-4.609-4.465a19.494,19.494,0,0,1-26.56-.706l-4.839,4.215a26.346,26.346,0,0,0,1.983,1.818" transform="translate(-802.706 -702.13)" fill="#dcecd1"/>
        <path id="Trazado_886543" data-name="Trazado 886543" d="M1036.78,722.084c-.156,0-.313-.006-.47-.016a6.662,6.662,0,1,1,.47.016m-.019-12.656a5.982,5.982,0,1,0,.42.014c-.14-.01-.281-.014-.42-.014" transform="translate(-864.471 -594.69)" fill="#8b865c"/>
        <path id="Trazado_886544" data-name="Trazado 886544" d="M369.042,247.65H285.61a.354.354,0,0,1-.354-.354V225.827a.354.354,0,0,1,.354-.354h83.432a.354.354,0,0,1,.354.354V247.3a.354.354,0,0,1-.354.354m-83.078-.708h82.725V226.181H285.964Z" transform="translate(-239.203 -189.017)" fill="#006398"/>
        <path id="Trazado_886545" data-name="Trazado 886545" d="M379.842,150.915c-3.558-1.078-3.979-6.337-6.947-6.262-7.349.186-10.685,23.123-16.259,22.82-4.6-.25-5.354-16.045-10.682-16.558-5.687-.547-9.7,16.98-15.839,16.558-5.393-.37-5.178-14.082-14.734-18.672a14.735,14.735,0,0,0-4.975-1.354V175.01h76.065V149.06c-2.871,1.972-5.007,2.347-6.63,1.855" transform="translate(-260.317 -121.17)" fill="#99cae5"/>
        <path id="Trazado_886546" data-name="Trazado 886546" d="M1080.054,204.143H982.766a.354.354,0,0,1-.354-.354V152.638a.354.354,0,0,1,.354-.354h97.289a.354.354,0,0,1,.354.354v51.151a.354.354,0,0,1-.354.354m-96.935-.708H1079.7V152.992H983.12Z" transform="translate(-824.448 -127.576)" fill="#006398"/>
        <rect id="Rectángulo_408528" data-name="Rectángulo 408528" width="35.607" height="30.492" transform="translate(173.544 37.621)" fill="#99cae5"/>
        <rect id="Rectángulo_408529" data-name="Rectángulo 408529" width="35.607" height="30.492" transform="translate(169.29 33.367)" fill="#fff"/>
        <path id="Trazado_886547" data-name="Trazado 886547" d="M1356.3,230.791h-31.865a.354.354,0,1,1,0-.708H1356.3a.354.354,0,0,1,0,.708" transform="translate(-1111.269 -192.887)" fill="#006398"/>
        <path id="Trazado_886548" data-name="Trazado 886548" d="M1349.53,271.477h-25.1a.354.354,0,1,1,0-.708h25.1a.354.354,0,1,1,0,.708" transform="translate(-1111.269 -227.042)" fill="#006398"/>
        <path id="Trazado_886549" data-name="Trazado 886549" d="M1353.76,308.33h-29.327a.354.354,0,1,1,0-.708h29.327a.354.354,0,1,1,0,.708" transform="translate(-1111.269 -257.979)" fill="#006398"/>
        <path id="Trazado_886550" data-name="Trazado 886550" d="M1344.608,347.1h-20.175a.354.354,0,1,1,0-.708h20.175a.354.354,0,1,1,0,.708" transform="translate(-1111.269 -290.523)" fill="#006398"/>
        <path id="Trazado_886551" data-name="Trazado 886551" d="M1105.237,243.919a6.737,6.737,0,0,1,1.724-.588l-.222-3.171a9.9,9.9,0,0,0-7.721,6.213l3.048.9a6.723,6.723,0,0,1,3.171-3.352" transform="translate(-922.336 -201.346)" fill="#99cae5"/>
        <path id="Trazado_886552" data-name="Trazado 886552" d="M1098.362,293.038a6.719,6.719,0,0,1-.3-3.35l-3.048-.9a9.868,9.868,0,0,0,.5,5.669Z" transform="translate(-918.807 -242.17)" fill="#99cae5"/>
        <path id="Trazado_886553" data-name="Trazado 886553" d="M1121.514,278.3l-2.842,1.421a6.754,6.754,0,0,1-11.989,6l-2.843,1.421a9.916,9.916,0,0,0,17.674-8.839" transform="translate(-926.384 -233.364)" fill="#006398"/>
        <path id="Trazado_886554" data-name="Trazado 886554" d="M1157.663,242.62a6.767,6.767,0,0,1,5.262,3l2.842-1.422a9.933,9.933,0,0,0-8.327-4.751Z" transform="translate(-971.381 -200.749)" fill="#99cae5"/>
        <path id="Trazado_886555" data-name="Trazado 886555" d="M344.9,1510.777l-19.708-3.906,8.562-25.088,19.151,6.957Z" transform="translate(-272.731 -1243.659)" fill="#bc8271"/>
        <path id="Trazado_886556" data-name="Trazado 886556" d="M328.2,1627l-50.17-13.76,9.88-17.912,19.655,5.391,13.024,8.234A15.989,15.989,0,0,1,328.2,1627Z" transform="translate(-233.135 -1338.974)" fill="#2d3d45"/>
        <path id="Trazado_886557" data-name="Trazado 886557" d="M90.68,1552.816l-20.327,1.228,1.87-26.443,20.574,1.865Z" transform="translate(-58.798 -1282.121)" fill="#bc8271"/>
        <path id="Trazado_886558" data-name="Trazado 886558" d="M95.543,1667.027H43.521l4.79-19.887h20.38l14.738,4.5A15.99,15.99,0,0,1,95.543,1667.027Z" transform="translate(-36.273 -1382.471)" fill="#2d3d45"/>
        <path id="Trazado_886559" data-name="Trazado 886559" d="M72.822,741.059c-2.147,5.643-3.7,12.057-5.753,18.857-10.86,36.043-9.322,112.326-9.322,112.326L84.6,871.57s10.015-44.284,14.462-77.026c3.638,8.691,10.51,22.9,10.51,22.9s-4.447,32.944-6.67,43.252c8.893,3.436,17.685,5.255,28.6,8.287,13.07-43.791,15.863-49.9,10.409-66.5-7.026-21.378-24.788-60.136-30.733-68.461l-38.354,7.032" transform="translate(-48.152 -615.935)" fill="#4a6572"/>
        <path id="Trazado_886560" data-name="Trazado 886560" d="M451.256,409.381c8.387-2.792,27.357-9.129,29.283-9.791,3.6-1.237,21.137-7.057,22.015-4.52.561,1.621-8.149,4.694-9.624,5.349,1.916-.317,11.424-3.474,12.082-2.053.714,1.542-11.041,6.632-11.12,6.7,1.328-.389,11.012-3.443,11.41-2.014.461,1.658-9.318,5.714-10.945,6.285.192.151,7.131-2.484,7.8-.931.594,1.383-7.2,4.71-8.2,5.326-2.677,1.533-7.9,3.634-13.711,6.319-13.646,6.307-20.28,8.645-27.415,10.531-5.14,1.359-11.03-3.258-15.055-8.192,3.342-5.291,6.663-7.654,13.487-13" transform="translate(-367.234 -330.858)" fill="#bc8271"/>
        <path id="Trazado_886561" data-name="Trazado 886561" d="M733.834,435.244a.354.354,0,0,1-.1-.695c8.281-2.333,8.231-3.443,8.229-3.454-.005-.04-.216-.981-7.547-1.154a.354.354,0,0,1-.345-.362.362.362,0,0,1,.362-.346c8.02.19,8.168,1.3,8.232,1.767s.229,1.7-8.739,4.23a.356.356,0,0,1-.1.013" transform="translate(-615.476 -360.069)" fill="#363e44"/>
        <path id="Trazado_886562" data-name="Trazado 886562" d="M344.345,447.572l50.943-14.61,11.34,20.27L358.483,473.5Z" transform="translate(-288.807 -363.199)" fill="#fff"/>
        <path id="Trazado_886563" data-name="Trazado 886563" d="M101.252,506.009c2.18-7.763,9.646-19.9,25.457-21.372,13.407-1.246,23.209,10.072,26.544,22.805,2.3,8.788,1.111,21.727,2.324,31.428-12.009,1.819-58.209,8.186-58.209,8.186s.25-28.11,3.883-41.047" transform="translate(-81.477 -406.499)" fill="#fff"/>
        <path id="Trazado_886564" data-name="Trazado 886564" d="M383.327,606.4a.354.354,0,0,1-.349-.3c-2.69-16.24-10.709-35.2-10.79-35.39a.354.354,0,0,1,.651-.277c.081.19,8.133,19.227,10.837,35.552a.354.354,0,0,1-.349.412" transform="translate(-312.157 -478.421)" fill="#363e44"/>
        <path id="Trazado_886565" data-name="Trazado 886565" d="M213.747,693.372c8.733,32.97.622,30.539-5.085,31.852-4.6,1.058-12-12.817-15.739-26.827Z" transform="translate(-161.693 -581.806)" fill="#fff"/>
        <path id="Trazado_886566" data-name="Trazado 886566" d="M251.487,726.411c8.66-1.773,28.25-5.806,30.241-6.233,3.722-.8,21.688-4.455,22.4-1.865.765,2.8-8.65,3.69-10.192,4.164,1.94-.086,11.816-2.681,12.241-.6.535,2.63-11.752,5.269-11.839,5.324,1.365-.228,11.061-2.708,11.569-.641.658,2.681-9.932,4.563-11.616,4.936.173.173,7.218-2.2,7.853,0,.674,2.341-7.707,3.819-8.781,4.31-2.841,1.2-8.277,2.667-14.366,4.641-14.3,4.637-20.832,7.726-28.185,7.094-3.291-.283-7.022-4.132-10.184-9.761,3.948-4.855,6.915-6.52,10.863-11.375" transform="translate(-201.736 -601.976)" fill="#bc8271"/>
        <path id="Trazado_886567" data-name="Trazado 886567" d="M222.308,771.93s-26.4,7.2-34.437,1.979c-4.61-3-7.613-15.537-7.613-15.537l37.483-7.956Z" transform="translate(-151.06 -629.693)" fill="#fff"/>
        <path id="Trazado_886568" data-name="Trazado 886568" d="M151.828,737.554a.354.354,0,0,1-.33-.224l-9.1-23.091a.354.354,0,1,1,.659-.259l9.1,23.091a.354.354,0,0,1-.329.483" transform="translate(-119.261 -598.917)" fill="#363e44"/>
        <path id="Trazado_886569" data-name="Trazado 886569" d="M262.344,752.487a.354.354,0,0,1-.052-.7l24.009-3.564a.354.354,0,0,1,.1.7L262.4,752.483a.383.383,0,0,1-.052,0" transform="translate(-219.673 -627.846)" fill="#363e44"/>
        <path id="Trazado_886570" data-name="Trazado 886570" d="M291.823,663.808a.354.354,0,0,1-.343-.267l-4.716-18.594a.354.354,0,1,1,.686-.174l4.716,18.594a.354.354,0,0,1-.343.441" transform="translate(-240.46 -540.785)" fill="#363e44"/>
        <path id="Trazado_886571" data-name="Trazado 886571" d="M554.869,740.354a.354.354,0,0,1-.055-.7l9.769-1.55a.354.354,0,1,1,.111.7l-9.769,1.55a.349.349,0,0,1-.056,0" transform="translate(-465.24 -619.351)" fill="#363e44"/>
        <path id="Trazado_886572" data-name="Trazado 886572" d="M560.746,769.108a.354.354,0,0,1-.061-.7l8.622-1.509a.354.354,0,0,1,.122.7l-8.622,1.509a.381.381,0,0,1-.061.005" transform="translate(-470.173 -643.524)" fill="#363e44"/>
        <path id="Trazado_886573" data-name="Trazado 886573" d="M565.363,798.774a.354.354,0,0,1-.065-.7l6.4-1.213a.354.354,0,1,1,.132.7l-6.4,1.213a.36.36,0,0,1-.066.006" transform="translate(-474.049 -668.677)" fill="#363e44"/>
        <path id="Trazado_886574" data-name="Trazado 886574" d="M460.756,716.893c4.309-3.625,5.094-5.846,4.5-6.51-1-1.118-6.176.611-13.141,5.115,2.306.638,6.337.757,8.642,1.394" transform="translate(-379.275 -595.81)" fill="#bc8271"/>
        <path id="Trazado_886575" data-name="Trazado 886575" d="M494.835,727.634a.354.354,0,0,1-.074-.7c.752-.161,2.78-.589,5.374-1.068a.354.354,0,1,1,.129.7c-2.585.478-4.6.9-5.354,1.064a.337.337,0,0,1-.075.008" transform="translate(-414.843 -609.079)" fill="#363e44"/>
        <path id="Trazado_886576" data-name="Trazado 886576" d="M304.229,529.026l.91-6.333-6.161,1.744,4.1,4.916,4.593,27.019,4.659,3.457,2.155-5.387Z" transform="translate(-250.722 -438.525)" fill="#363e44"/>
        <path id="Trazado_886577" data-name="Trazado 886577" d="M260.289,349.812c-2.566,1.822-9.87-2.56-9.87-2.56l-4.48-9.264a8.7,8.7,0,0,1,8.456-8.354,8.017,8.017,0,0,1,8.017,8.017s.491,10.3-2.123,12.16" transform="translate(-206.197 -276.458)" fill="#bc8271"/>
        <path id="Trazado_886578" data-name="Trazado 886578" d="M245.711,398.876l11.416,5.273V380.9H245.711Z" transform="translate(-206.006 -319.498)" fill="#bc8271"/>
        <path id="Trazado_886579" data-name="Trazado 886579" d="M292.79,382.952a7.628,7.628,0,0,1,3.244-.791c.377,0-.335,3.019-.693,2.848a7.644,7.644,0,0,1-2.552-2.057" transform="translate(-245.528 -320.553)" fill="#fff"/>
        <path id="Trazado_886580" data-name="Trazado 886580" d="M309.967,382.3a7.17,7.17,0,0,1,3.714,2.462,7.171,7.171,0,0,1-4.406.668,5.423,5.423,0,0,1-1.164-.406,3,3,0,0,1,.7-2.845,5.361,5.361,0,0,1,1.159.121" transform="translate(-258.299 -320.564)" fill="#363e44"/>
        <path id="Trazado_886581" data-name="Trazado 886581" d="M242.2,321.3c.273-1.225-2.476-3.495-5.558-3.84-3.777-.423-8.214.786-10.619,5.036a11.26,11.26,0,0,0,1.886,13.728c1.017-.8,1.919-1.483,3.167-2.477-2.1-2.118-2.224-4.361-1.348-5.338.748-.834,2.19-.91,3.706.353a9.323,9.323,0,0,1,3.436-4.581c2.572-1.871,5.119-1.93,5.331-2.88" transform="translate(-188.199 -266.171)" fill="#363e44"/>
        <path id="Trazado_886582" data-name="Trazado 886582" d="M279.65,441.129a.355.355,0,0,1-.086-.011,19.2,19.2,0,0,1-6.736-3.1.354.354,0,0,1,.438-.556,18.86,18.86,0,0,0,6.469,2.966.354.354,0,0,1-.086.7" transform="translate(-228.657 -366.916)" fill="#363e44"/>
        <path id="Trazado_886583" data-name="Trazado 886583" d="M322.344,420.178a1.44,1.44,0,0,1-1.036-.427,1.527,1.527,0,0,1-.343-1.418.354.354,0,0,1,.682.189.83.83,0,0,0,.168.736.777.777,0,0,0,.919.115.354.354,0,1,1,.332.625,1.541,1.541,0,0,1-.723.181" transform="translate(-269.139 -350.7)" fill="#363e44"/>
        <path id="Trazado_886584" data-name="Trazado 886584" d="M346.845,394.216a3.326,3.326,0,0,0,.277,1.478c.293.656.923,1.063.911,1.476-.009.277-.318.692-1.463.958Z" transform="translate(-290.674 -330.672)" fill="#bc8271"/>
        <path id="Trazado_886585" data-name="Trazado 886585" d="M262.1,394.033a.354.354,0,0,1-.275-.13c-1.118-1.372-1.475-2.859-.832-3.458.609-.567,1.839-.034,2.2.143a.354.354,0,1,1-.31.636c-.612-.3-1.244-.415-1.409-.261-.225.209-.114,1.25.9,2.493a.354.354,0,0,1-.274.578" transform="translate(-218.567 -327.293)" fill="#363e44"/>
        <path id="Trazado_886586" data-name="Trazado 886586" d="M679.882,1587.34H667.715L673.8,1559.8Z" transform="translate(-560.268 -1309.148)" fill="#efbc73"/>
        <path id="Trazado_886587" data-name="Trazado 886587" d="M755.68,1629.112H743.513l6.084-19.557Z" transform="translate(-623.898 -1350.919)" fill="#8b865c"/>
        <path id="Trazado_886588" data-name="Trazado 886588" d="M831.478,1544.38H819.31l6.084-35.76Z" transform="translate(-687.528 -1266.187)" fill="#007cbe"/>
        <path id="Trazado_886589" data-name="Trazado 886589" d="M907.275,1637.884H895.108l6.084-17.88Z" transform="translate(-751.158 -1359.691)" fill="#d3bba3"/>
        <path id="Trazado_886590" data-name="Trazado 886590" d="M699.248,1630.788h-54.31a.354.354,0,0,1-.354-.354V1607.7a.354.354,0,0,1,.708,0v22.375h53.956a.354.354,0,1,1,0,.708" transform="translate(-540.85 -1349.069)" fill="#e6d0be"/>
        <path id="Trazado_886591" data-name="Trazado 886591" d="M664.95,595.578A24.982,24.982,0,0,0,689.54,570.6c0-.4-.012-.8-.03-1.19H664.95Z" transform="translate(-557.947 -477.744)" fill="#a8d08d"/>
        <path id="Trazado_886592" data-name="Trazado 886592" d="M567.094,476.712h15.264a15.529,15.529,0,1,0-15.51,16.269c.083,0,.164,0,.246-.006Z" transform="translate(-462.556 -387.51)" fill="#657d55"/>
        <path id="Trazado_886593" data-name="Trazado 886593" d="M1520.073,933.518a2.226,2.226,0,0,1-.4-.036,2.646,2.646,0,0,1-1.9-1.649,5.54,5.54,0,0,1,1.046-5.76,2.648,2.648,0,0,1,2.356-.877c1.627.3,2.613,2.395,2.2,4.679a5.212,5.212,0,0,1-1.346,2.731,2.783,2.783,0,0,1-1.959.912m.713-7.649a2.1,2.1,0,0,0-1.46.7,4.837,4.837,0,0,0-.9,4.972,1.764,1.764,0,0,0,3.106.564,4.5,4.5,0,0,0,1.152-2.359c.345-1.9-.385-3.63-1.628-3.855a1.46,1.46,0,0,0-.267-.024" transform="translate(-1273.542 -776.387)" fill="#363e44"/>
        <path id="Trazado_886594" data-name="Trazado 886594" d="M1538.293,880.395c1.069-5.918,2.214-9.274,5.237-11.352,4.063-2.792,9.2-1.042,9.736-.852.341.122,5.289,1.561,6.889,6.495a14.252,14.252,0,0,1-2.968,14.093l1.845,11.163a6.577,6.577,0,0,1-5.416,7.561l-.812.134a6.577,6.577,0,0,1-7.562-5.416l-1.233-7.457c-2.3.186-4.212-.176-5.123-1.208-1.632-1.849-1.854-6.191-.594-13.161" transform="translate(-1290.417 -727.962)" fill="#9e6c5a"/>
        <path id="Trazado_886595" data-name="Trazado 886595" d="M1529.715,948.986h-.017l-10.883-.528a.354.354,0,1,1,.034-.707l10.883.528a.354.354,0,0,1-.017.707" transform="translate(-1274.462 -795.35)" fill="#363e44"/>
        <path id="Trazado_886596" data-name="Trazado 886596" d="M1573.489,1020.64a.354.354,0,0,1-.35-.306l-.379-2.742a.354.354,0,0,1,.7-.1l.379,2.742a.356.356,0,0,1-.351.4" transform="translate(-1320.028 -853.643)" fill="#363e44"/>
        <path id="Trazado_886597" data-name="Trazado 886597" d="M1594.314,965.89a.354.354,0,0,1-.3-.547c.5-.774.812-1.27,1.038-1.634.111-.178.2-.325.287-.457a.354.354,0,0,1,.6.382c-.083.13-.173.274-.281.449-.227.367-.538.866-1.046,1.647a.354.354,0,0,1-.3.161" transform="translate(-1337.828 -808.227)" fill="#363e44"/>
        <path id="Trazado_886598" data-name="Trazado 886598" d="M1560.53,860.274c3.166-4.354,13.127-3.794,17.655.506,6.124,5.816,5.3,16.3.094,20.683-1.746,1.471-4.746,3.416-8.441,2.388-2.157-.6-2.249-3.615-2.257-4.343a3.9,3.9,0,0,0,2.566-4.3,3.833,3.833,0,0,0-3.643-3.12,3.68,3.68,0,0,0-2.247.818c-4.022-4.737-5.983-9.534-3.727-12.637" transform="translate(-1308.965 -719.394)" fill="#363e44"/>
        <path id="Trazado_886599" data-name="Trazado 886599" d="M1432.43,1052.031a.027.027,0,0,1,0,.01c0,.007,0,.025-.007.05-.092.435-.637,3.118-.782,4.658a146.242,146.242,0,0,1-32.041,67.806l-17.566,3.38-3.182-24.028-12.621,1.589-7.5-31.8s29.38-15.583,49.808-19.827a107.1,107.1,0,0,1,23.89-1.841Z" transform="translate(-1140.356 -882.851)" fill="#efbc73"/>
        <path id="Trazado_886600" data-name="Trazado 886600" d="M1593.08,879.142s-1.775,16.31-10.6,18.729l-5.155,20.008a33.656,33.656,0,0,0,3.358.407c1.047-4.37,2.576-10.236,2.576-10.236v10.365a39.137,39.137,0,0,0,15.333-2.53,39.167,39.167,0,0,0,.125-9.065c-.595-4.675,2.292,1.108,3.633,7.2,5.344-3.195,9.949-8.588,11.825-17.566Z" transform="translate(-1323.86 -737.756)" fill="#363e44"/>
        <path id="Trazado_886601" data-name="Trazado 886601" d="M1109.188,1533.14a146.4,146.4,0,0,1-86.762,42.475c-.014,0-.028,0-.042-.007,4.265-6.236,8.675-12.377,13.162-18.454q2.293-3.106,4.612-6.194a48.872,48.872,0,0,1,4.3-5.206,43.479,43.479,0,0,1,9.747-7.2c7.156-3.978,15.06-6.449,22.956-8.473,7.535-1.929,15.569-2.711,23.182-.736a32.574,32.574,0,0,1,8.845,3.794" transform="translate(-858.004 -1282.621)" fill="#d3bba3"/>
        <path id="Trazado_886602" data-name="Trazado 886602" d="M1238.61,997.181c2.7-5.528,4.766-8.512,8.322-9.714,4.779-1.615,9.349,1.54,9.822,1.877.3.215,4.771,3.012,4.97,8.315a14.582,14.582,0,0,1-6.852,13.045l-1.3,11.5a6.729,6.729,0,0,1-7.441,5.933l-.836-.094a6.729,6.729,0,0,1-5.933-7.44l.866-7.685c-2.321-.46-4.1-1.348-4.707-2.618-1.091-2.275-.1-6.612,3.085-13.122" transform="translate(-1036.572 -828.308)" fill="#e2a18d"/>
        <path id="Trazado_886603" data-name="Trazado 886603" d="M1264.695,1131.055a.339.339,0,0,1-.05,0,.354.354,0,0,1-.3-.4l.392-2.8a.354.354,0,1,1,.7.1l-.392,2.8a.354.354,0,0,1-.35.3" transform="translate(-1061.12 -946.281)" fill="#363e44"/>
        <path id="Trazado_886604" data-name="Trazado 886604" d="M1294.492,1087.17a.354.354,0,0,1-.233-.621c.359-.313.68-.6,1.014-.905.273-.248.556-.5.874-.785a.354.354,0,0,1,.469.53c-.316.28-.6.533-.868.779-.337.3-.661.6-1.023.914a.353.353,0,0,1-.232.087" transform="translate(-1086.135 -910.376)" fill="#363e44"/>
        <path id="Trazado_886605" data-name="Trazado 886605" d="M1279.692,943.514a5.585,5.585,0,0,0-3.463-7.1l-.014,0a9.121,9.121,0,0,0-10.522-13.588,5.6,5.6,0,0,0-10.634-.776c-.131-.059-.264-.114-.4-.162a4.81,4.81,0,1,0-3.133,9.1c.073.025.146.042.219.063-1.18,4.549,3.346,6.66,3.6,6.824l-3.652,5.563c.7.483,1.524,1.111,2.226,1.593,1.169-1.986,2.291-2.531,3.554-2.341,1.99.3,3.167,2.607,2.722,4.5a4.679,4.679,0,0,1-3.517,3.688c1.887.682,3.881,1.342,5.981,1.96q1.643.483,3.227.893a13.368,13.368,0,0,0,8.243-6.455,5.587,5.587,0,0,0,5.563-3.76" transform="translate(-1047.638 -770.829)" fill="#b77250"/>
        <path id="Trazado_886606" data-name="Trazado 886606" d="M1301.46,1422.9c-23.725,5.279-37.776,8.626-42.992,9.72a9.814,9.814,0,0,1-2.787.24c-4.735-.3-6.2-4.064-11.037-6.651-5.486-2.935-10.237-1.482-10.566-3.036-.229-1.081,1.408-2.134,5.259-2.89h0c-2.992.238-7.063.384-7.189-1.27-.044-1.917,4.719-2.65,7.622-2.953-3.514.366-5.492-.49-5.333-1.43.25-1.479,2.909-2.4,7.572-2.7h0c-3.278-.69-3.971-1.346-3.628-2.142.626-1.454,4.465-1.631,7.882-1.268a19.836,19.836,0,0,1,8.455,3.144h0c16.233-5.42,26.992-8.906,40.014-13.551,2.664-.95,6.727,24.788,6.726,24.788" transform="translate(-1034.095 -1173.401)" fill="#e2a18d"/>
        <path id="Trazado_886607" data-name="Trazado 886607" d="M1458.1,1243.506c21.58,25.068,28.266,44.061,18.523,49.188-5.521,2.9-21.946-8.718-37.476-29.84,6.738-6.156,10.615-12.111,18.953-19.348" transform="translate(-1207.865 -1043.63)" fill="#e2a18d"/>
        <path id="Trazado_886608" data-name="Trazado 886608" d="M818.7,1259.97c-26.952,5.732-48.117,11.539-45.806,20.187,4.893,18.3,25.225,8.9,43.3,8.736.68-7.422,1.878-19.923,2.508-28.922" transform="translate(-648.419 -1057.451)" fill="#e2a18d"/>
        <path id="Trazado_886609" data-name="Trazado 886609" d="M795.687,1078.928s6.805-18.305,9.728-28.263c3.07-10.458,6.079-26.344,3.851-26.737-1.269-.223-2.127,1.858-4.052,7.575a2.659,2.659,0,0,0-2.171-1.41,2.553,2.553,0,0,0-2.405,1.515c-.054-.136-.681-1.588-1.878-1.805a2.812,2.812,0,0,0-2.956,1.275,2.916,2.916,0,0,0-1.964-1.686,2.618,2.618,0,0,0-2.9,1.706c-.616,2.22-2.32,8.851-3.543,11.978-2.406,6.152-13.884,26.852-15.011,36.663,8.336-1.89,23.3-.81,23.3-.81" transform="translate(-648.138 -859.287)" fill="#e2a18d"/>
        <path id="Trazado_886610" data-name="Trazado 886610" d="M891.328,1084.64a.308.308,0,0,1-.052,0l-1.927-.28a.354.354,0,1,1,.1-.7l1.927.28a.354.354,0,0,1-.05.7" transform="translate(-746.071 -909.436)" fill="#363e44"/>
        <path id="Trazado_886611" data-name="Trazado 886611" d="M920.464,1089.347l-.04,0-2.188-.248a.354.354,0,1,1,.08-.7l2.187.247a.354.354,0,0,1-.039.706" transform="translate(-770.31 -913.415)" fill="#363e44"/>
        <path id="Trazado_886612" data-name="Trazado 886612" d="M950.964,1092.281a.326.326,0,0,1-.052,0c-.364-.053-.691-.1-1.02-.144s-.643-.089-1-.141a.354.354,0,0,1,.1-.7c.354.052.673.1.992.14s.66.092,1.025.145a.354.354,0,0,1-.051.7" transform="translate(-796.057 -915.846)" fill="#363e44"/>
        <path id="Trazado_886613" data-name="Trazado 886613" d="M975.806,1097.228a.356.356,0,0,1-.077-.008l-1.887-.418a.354.354,0,1,1,.153-.691l1.887.419a.354.354,0,0,1-.076.7" transform="translate(-817.02 -919.888)" fill="#363e44"/>
        <path id="Trazado_886614" data-name="Trazado 886614" d="M1088.822,1199.181a23.485,23.485,0,0,0-13.723-11.417,81.2,81.2,0,0,0-32.585-3.159c-25.479,2.706-54.328,11.715-54.328,11.715v37.265l18.576-3.873,4.062,30.44,75.97-12.937-3.243-21.448,13.109-11.842Z" transform="translate(-829.295 -993.801)" fill="#fff"/>
      </g>
    </g>
  </g>
</svg>
