<svg xmlns="http://www.w3.org/2000/svg" width="60" height="60" viewBox="0 0 60 60">
  <g id="Grupo_1113234" data-name="Grupo 1113234" transform="translate(-205.051 -7256)">
    <g id="Electric_Plug-ev-electric_car-vehicle-plug" data-name="Electric Plug-ev-electric car-vehicle-plug" transform="translate(203.051 7254)">
      <path id="Trazado_886615" data-name="Trazado 886615" d="M56.407,14.585a4.953,4.953,0,0,0-.365-6.627L53.213,5.13a1.029,1.029,0,0,0-1.414,0l-.707.707L48.263,3.009,46.849,4.423l2.829,2.828L48.264,8.665,45.435,5.837,44.021,7.251,46.85,10.08l-.708.707a1,1,0,0,0,0,1.414l2.829,2.828a4.932,4.932,0,0,0,5.9.846A27.69,27.69,0,0,1,60,32,28.018,28.018,0,0,1,21.379,57.916l-.758,1.85A30.016,30.016,0,0,0,62,32a29.672,29.672,0,0,0-5.593-17.415Zm-6.022-.97-2.122-2.121,4.243-4.243,2.121,2.122a3,3,0,1,1-4.242,4.242Z" fill="#87a771"/>
      <path id="Trazado_886616" data-name="Trazado 886616" d="M7.593,49.415a4.953,4.953,0,0,0,.365,6.627l2.829,2.828a1.029,1.029,0,0,0,1.414,0l.707-.707,2.829,2.828,1.414-1.414-2.829-2.828,1.414-1.414,2.829,2.828,1.414-1.414L17.15,53.92l.708-.707a1,1,0,0,0,0-1.414l-2.829-2.828a4.932,4.932,0,0,0-5.9-.846A27.69,27.69,0,0,1,4,32,28.018,28.018,0,0,1,42.621,6.084l.758-1.85A30.016,30.016,0,0,0,2,32,29.672,29.672,0,0,0,7.593,49.415Zm6.022.97,2.122,2.121-4.243,4.243L9.373,54.627a3,3,0,1,1,4.242-4.242Z" fill="#87a771"/>
      <path id="Trazado_886617" data-name="Trazado 886617" d="M13,32A19,19,0,1,0,32,13,19,19,0,0,0,13,32Zm36,0A17,17,0,1,1,32,15,17,17,0,0,1,49,32Z" fill="#87a771"/>
      <path id="Trazado_886618" data-name="Trazado 886618" d="M31.1,21.553l-6,12A1,1,0,0,0,26,35h5v7a1,1,0,0,0,1.9.447l6-12A1,1,0,0,0,38,29H33V22a1,1,0,0,0-1.9-.447ZM36.382,31,33,37.764V34a1,1,0,0,0-1-1H27.618L31,26.236V30a1,1,0,0,0,1,1Z" fill="#87a771"/>
    </g>
  </g>
</svg>
