<svg xmlns="http://www.w3.org/2000/svg" xmlns:xlink="http://www.w3.org/1999/xlink" width="86.02" height="85.845" viewBox="0 0 86.02 85.845">
  <defs>
    <clipPath id="clip-path">
      <rect id="Rectángulo_406885" data-name="Rectángulo 406885" width="86.02" height="85.845" fill="#87a771"/>
    </clipPath>
  </defs>
  <g id="Grupo_1113238" data-name="Grupo 1113238" transform="translate(-706.967 -2924.941)">
    <g id="Grupo_1110389" data-name="Grupo 1110389" transform="translate(706.967 2767.699)">
      <g id="Grupo_1110388" data-name="Grupo 1110388" transform="translate(0 157.242)" clip-path="url(#clip-path)">
        <path id="Trazado_877652" data-name="Trazado 877652" d="M30.629,7.452l-.885-2.658C35.408,6.861,40.06,6.19,43.021,0c2.987,5.968,7.516,6.992,13.3,4.788l-.814,2.707a38.357,38.357,0,0,1,23.4,24.3h7.057V56.764H80.636V59.5l2.578.113v2.738c-2.333,0-4.632-.066-6.922.044a2.548,2.548,0,0,0-1.763.939A39.208,39.208,0,0,1,62.1,75.22a1.948,1.948,0,0,0-.935,1.239c-.1,2.176-.044,4.359-.044,6.667h19.3v2.718H5.685V83.2h16.54c0-2.986.036-5.851-.043-8.713-.01-.382-.587-.767-.936-1.118-2.882-2.9-5.76-5.795-8.669-8.662a5.529,5.529,0,0,0-1.748-1.256c-2.439-.958-3.963-2.788-3.805-5.4A6.408,6.408,0,0,0,4.309,52.2c-6.47-5.4-5.465-15.471,1.749-19.978a3.844,3.844,0,0,0,1.58-1.654,37.4,37.4,0,0,1,22.169-22.7c.257-.1.5-.247.822-.411M58.451,56.839V31.781H75.7C74.28,23.718,62.9,12.114,54.954,10.549c.057,3.922,2.972,5.657,6.254,7.451-5.994,2.623-7.968,6.577-5.312,12.248-2.643,0-5.316-.622-7.46.175s-3.732,3.012-5.293,4.37c-1.8-1.427-3.529-3.573-5.737-4.336-2.228-.77-4.93-.17-7.442-.17.924-2.083,2.21-4.687.743-7.106-1.273-2.1-3.314-3.734-5.035-5.595,2.684-1.458,5.465-3.2,5.495-7.275A34.883,34.883,0,0,0,10.69,30.422c.731,0,1.231,0,1.732,0a12.5,12.5,0,0,1,11.917,8.437,12.2,12.2,0,0,1-4.245,13.934,4.312,4.312,0,0,0-2.017,4.24,6.112,6.112,0,0,1-3.358,6.33l7.1,7.194.5-.354V66.761l11.1-2.26V58.237l2.62-.126c.062-.945.117-1.779.17-2.578h2.751v2.533h2.788V52.718H44.49v5.328h2.68c.044-.925.083-1.716.122-2.532h2.794v2.721h2.7v9.6l8.26,1.712c.047.984.087,1.828.141,2.941A33.942,33.942,0,0,0,71.732,62.346H61.2V59.634l2.593-.151V56.839ZM13.925,55.225l.539.386c.324-.37.672-.722.967-1.115.913-1.213,1.6-2.692,2.743-3.616a9.955,9.955,0,0,0,3.593-10.955,9.708,9.708,0,0,0-18.425-.139c-1.4,4.085.066,8.283,3.564,11.107,1.14.92,1.8,2.422,2.727,3.623a8.229,8.229,0,0,0,1.128,1.021,46.363,46.363,0,0,0,.34-7.774,2.072,2.072,0,0,0-.776-1.323C8.6,45.064,7.97,43.4,8.6,41.6a4.142,4.142,0,0,1,7.874.021c.618,1.8-.01,3.444-1.758,4.827a1.884,1.884,0,0,0-.753,1.165c-.068,2.536-.035,5.074-.035,7.612M43.053,30.85a10.672,10.672,0,0,1,8.955-3.937A10.234,10.234,0,0,1,55.7,17.894a10.583,10.583,0,0,1-3.615-9.228,10.289,10.289,0,0,1-8.822-3.372,28.367,28.367,0,0,1-4.3,2.634,29.309,29.309,0,0,1-4.934,1.045,10.43,10.43,0,0,1-3.618,8.971,10.73,10.73,0,0,1,3.649,9.241,10.363,10.363,0,0,1,8.985,3.665M44.5,83.127V66.247l5.381.985V61.1H36.2v2.766l2.778-.353V83.127ZM25.149,69.035V83.019h10.9V66.845l-10.9,2.19m22.209.59V83.08H58.227V71.8L47.358,69.625m19.182-34.9H61.2v8.1H66.54Zm3.023,8.045h5.328v-8.1H69.563Zm13.6-8.06H77.9v8.159h5.266ZM61.234,53.878h5.331v-8.1H61.234ZM74.9,45.821H69.577v8.1H74.9Zm2.988,8.054h5.326v-8.1H77.893ZM66.73,59.44H77.669V56.9H66.73ZM15.173,58.252H9.813a2.636,2.636,0,0,0,2.63,2.678c1.487.121,2.469-.88,2.73-2.678M12.5,44.884c.662-.9,1.379-1.457,1.3-1.87a2.092,2.092,0,0,0-1.3-1.362c-.315-.084-1.221.745-1.24,1.189-.023.53.619,1.089,1.237,2.043" transform="translate(0 0.001)" fill="#87a771"/>
        <rect id="Rectángulo_406876" data-name="Rectángulo 406876" width="2.544" height="2.635" transform="translate(0.139 83.194)" fill="#87a771"/>
        <rect id="Rectángulo_406877" data-name="Rectángulo 406877" width="2.6" height="2.57" transform="translate(83.419 83.257)" fill="#87a771"/>
        <rect id="Rectángulo_406878" data-name="Rectángulo 406878" width="19.273" height="2.589" transform="translate(33.445 38.834)" fill="#87a771"/>
        <rect id="Rectángulo_406879" data-name="Rectángulo 406879" width="2.57" height="2.6" transform="translate(33.437 44.379)" fill="#87a771"/>
        <rect id="Rectángulo_406880" data-name="Rectángulo 406880" width="2.596" height="2.565" transform="translate(38.976 44.427)" fill="#87a771"/>
        <rect id="Rectángulo_406881" data-name="Rectángulo 406881" width="2.6" height="2.57" transform="translate(44.525 44.425)" fill="#87a771"/>
        <rect id="Rectángulo_406882" data-name="Rectángulo 406882" width="2.637" height="2.566" transform="translate(50.079 44.427)" fill="#87a771"/>
        <path id="Trazado_877653" data-name="Trazado 877653" d="M108.207,44.34a8.329,8.329,0,1,1,8.553-8.01,8.365,8.365,0,0,1-8.553,8.01m5.77-8.3a5.541,5.541,0,1,0-5.522,5.515,5.564,5.564,0,0,0,5.522-5.515" transform="translate(-65.371 -18.08)" fill="#87a771"/>
        <rect id="Rectángulo_406883" data-name="Rectángulo 406883" width="5.378" height="2.574" transform="translate(27.901 72.153)" fill="#87a771"/>
        <rect id="Rectángulo_406884" data-name="Rectángulo 406884" width="5.366" height="2.563" transform="translate(27.907 77.71)" fill="#87a771"/>
        <path id="Trazado_877654" data-name="Trazado 877654" d="M149.692,226.684c-1.659,0-3.157,0-4.654,0a5.738,5.738,0,0,1-.721-.1v-2.555h5.374Z" transform="translate(-94.241 -146.289)" fill="#87a771"/>
      </g>
    </g>
  </g>
</svg>
