<svg xmlns="http://www.w3.org/2000/svg" xmlns:xlink="http://www.w3.org/1999/xlink" width="295" height="262" viewBox="0 0 295 262">
  <defs>
    <clipPath id="clip-path">
      <rect id="Rectángulo_408622" data-name="Rectángulo 408622" width="276.34" height="225.42" fill="none"/>
    </clipPath>
  </defs>
  <g id="Grupo_1113241" data-name="Grupo 1113241" transform="translate(-709 -9620.807)">
    <path id="Trazado_876484" data-name="Trazado 876484" d="M0,0H295V262H0Z" transform="translate(709 9620.807)" fill="#edf5e8"/>
    <g id="Grupo_1112701" data-name="Grupo 1112701" transform="translate(718.33 9656.057)" clip-path="url(#clip-path)">
      <path id="Trazado_887103" data-name="Trazado 887103" d="M858.4,245.362a2.6,2.6,0,0,1-.019-.313c0-1.706,1.683-3.089,3.76-3.089a4.573,4.573,0,0,1,.51.032,6.212,6.212,0,0,1-.146-1.327c0-4.128,4.073-7.474,9.1-7.474,4.4,0,8.076,2.571,8.916,5.987a7.235,7.235,0,0,1,2.546-.456c3.383,0,6.6,2.526,6.719,5.3a8.053,8.053,0,0,1-.64,4.2c1.456.249,7.093.268,9.555,1.263H853.1s.341-3.865,5.3-4.122" transform="translate(-622.353 -170.117)" fill="#e3e3e3"/>
      <path id="Trazado_887104" data-name="Trazado 887104" d="M520.232,12.367a2.62,2.62,0,0,1-.019-.313c0-1.706,1.683-3.089,3.76-3.089a4.577,4.577,0,0,1,.51.032,6.2,6.2,0,0,1-.146-1.327c0-4.128,4.073-7.474,9.1-7.474,4.4,0,8.076,2.571,8.916,5.987a7.236,7.236,0,0,1,2.546-.455c3.383,0,6.6,2.526,6.719,5.3a8.054,8.054,0,0,1-.639,4.2c1.456.249,7.093.268,9.555,1.263H514.937s.341-3.865,5.3-4.122" transform="translate(-375.656 -0.142)" fill="#e3e3e3"/>
      <path id="Trazado_887105" data-name="Trazado 887105" d="M457,688.68c-23.322-6.884-48.489-6.782-71.182,2.51-34.435,14.1-42.863,21.873-83.4,16.949l-3.18,5.334h186.12C480.281,701.6,469.106,693.16,457,688.68" transform="translate(-218.295 -498.867)" fill="#a8d08d"/>
      <path id="Trazado_887106" data-name="Trazado 887106" d="M539.915,340.987q.114-1.408.227-2.816a8.945,8.945,0,0,1-5.722-.836,8.687,8.687,0,0,1-2.958-2.566l-38.88-6.216a6.471,6.471,0,0,0-4.21.959,6.351,6.351,0,0,0-2.224,2.5l53.767,8.978" transform="translate(-354.654 -239.654)" fill="#e3e3e3"/>
      <path id="Trazado_887107" data-name="Trazado 887107" d="M190.143,136.217c9.191-5.982,28.958-10.893,54.027,3.77,27.2,15.912,37.52,37.043,29.959,64.618C263.986,241.6,207.2,261.4,207.2,261.4s4.549-17.834-.819-31.488c-6.979-17.752-20.3-25.536-26.985-35.02-11.155-15.816-12.93-43.265,10.75-58.677" transform="translate(-125.101 -95.096)" fill="#80918f"/>
      <path id="Trazado_887108" data-name="Trazado 887108" d="M233.592,14.386c.452,8.293-4.466,15.3-10.985,15.658s-12.169-6.08-12.62-14.372S214.454.369,220.972.014s12.169,6.08,12.62,14.372" transform="translate(-153.169 0)" fill="#80918f"/>
      <path id="Trazado_887109" data-name="Trazado 887109" d="M342.745,36.182c-1.389,6.747-6.58,11.38-11.594,10.348s-7.952-7.339-6.562-14.087,6.58-11.38,11.594-10.348,7.952,7.339,6.563,14.086" transform="translate(-236.542 -16.014)" fill="#80918f"/>
      <path id="Trazado_887110" data-name="Trazado 887110" d="M425.557,78.453c-2.3,5.339-7.341,8.3-11.259,6.61s-5.229-7.384-2.929-12.723,7.341-8.3,11.259-6.61,5.229,7.384,2.929,12.723" transform="translate(-299.274 -47.605)" fill="#80918f"/>
      <path id="Trazado_887111" data-name="Trazado 887111" d="M485.721,130.654c-2.179,4.084-6.375,6.1-9.372,4.5s-3.661-6.206-1.482-10.29,6.375-6.1,9.372-4.5,3.661,6.206,1.482,10.29" transform="translate(-345.489 -87.408)" fill="#80918f"/>
      <path id="Trazado_887112" data-name="Trazado 887112" d="M532.247,183.668c-2.237,3.234-5.975,4.524-8.348,2.882s-2.484-5.595-.246-8.829,5.975-4.524,8.348-2.882,2.484,5.595.246,8.829" transform="translate(-380.841 -127.029)" fill="#80918f"/>
      <path id="Trazado_887113" data-name="Trazado 887113" d="M827.3,683.408s.425,7.907-1.317,9.48c-3.42,3.088-9.018,8.973-8.543,15.883l28.355.18-.6-25.975Z" transform="translate(-596.316 -498.244)" fill="#233635"/>
      <path id="Trazado_887114" data-name="Trazado 887114" d="M817.479,778.342l-.013,1.985a2.111,2.111,0,0,0,2.1,2.125l24.063.151a2.11,2.11,0,0,0,2.125-2.1l.014-1.985Z" transform="translate(-596.357 -567.815)" fill="#ffc60a"/>
      <path id="Trazado_887115" data-name="Trazado 887115" d="M902.548,761.86l-.021,0a.139.139,0,0,1-.116-.158,9.648,9.648,0,0,1,1.3-3.583,4.953,4.953,0,0,1,3.752-2.655.141.141,0,0,1,.145.133.139.139,0,0,1-.133.145,4.684,4.684,0,0,0-3.528,2.523,9.362,9.362,0,0,0-1.259,3.479.139.139,0,0,1-.137.118" transform="translate(-658.325 -551.125)" fill="#fff"/>
      <path id="Trazado_887116" data-name="Trazado 887116" d="M834.468,732.138a.139.139,0,0,1-.071-.258c1.946-1.16,6.549-.772,8.986-.059a.139.139,0,1,1-.078.266c-2.39-.7-6.888-1.089-8.766.032a.139.139,0,0,1-.071.019" transform="translate(-608.659 -533.382)" fill="#fff"/>
      <path id="Trazado_887117" data-name="Trazado 887117" d="M866.173,733.137a.982.982,0,0,1,.248-1.466,1.254,1.254,0,0,1,1.631.223.981.981,0,0,1-.248,1.466,1.254,1.254,0,0,1-1.631-.223" transform="translate(-631.724 -533.619)" fill="#ffc60a"/>
      <path id="Trazado_887118" data-name="Trazado 887118" d="M834.173,751.474a.143.143,0,0,1-.054-.011c-3.052-1.27-8.347-1.852-11.065-.653a.139.139,0,0,1-.112-.254c2.824-1.244,8.115-.668,11.284.651a.139.139,0,0,1-.054.267" transform="translate(-600.292 -547.042)" fill="#fff"/>
      <path id="Trazado_887119" data-name="Trazado 887119" d="M860.62,753.1a1.015,1.015,0,0,1,.235-1.466,1.144,1.144,0,0,1,1.545.223,1.015,1.015,0,0,1-.235,1.466,1.144,1.144,0,0,1-1.545-.223" transform="translate(-627.682 -548.179)" fill="#ffc60a"/>
      <path id="Trazado_887120" data-name="Trazado 887120" d="M670.723,687.135s.446,7.572-1.214,9.088c-3.261,2.976-17.4,1.849-18.951,15.229l38.012.06-.708-24.88Z" transform="translate(-474.594 -500.911)" fill="#233635"/>
      <path id="Trazado_887121" data-name="Trazado 887121" d="M650.549,778.4l0,1.9a2.022,2.022,0,0,0,2.019,2.025l33.9.053a2.022,2.022,0,0,0,2.025-2.019l0-1.9Z" transform="translate(-474.586 -567.855)" fill="#ffc60a"/>
      <path id="Trazado_887122" data-name="Trazado 887122" d="M759.3,762.205a.139.139,0,0,1-.134-.173,7.3,7.3,0,0,1,2.136-3.454,9.45,9.45,0,0,1,6.138-2.532.147.147,0,0,1,.142.135.139.139,0,0,1-.135.143,9.168,9.168,0,0,0-5.955,2.457,7.026,7.026,0,0,0-2.058,3.321.139.139,0,0,1-.134.1" transform="translate(-553.824 -551.55)" fill="#fff"/>
      <path id="Trazado_887123" data-name="Trazado 887123" d="M674.76,745.549a.139.139,0,0,1-.12-.068,9.006,9.006,0,0,0-4.6-3.823.139.139,0,1,1,.1-.261,9.162,9.162,0,0,1,4.742,3.943.139.139,0,0,1-.12.209" transform="translate(-488.742 -540.857)" fill="#fff"/>
      <path id="Trazado_887124" data-name="Trazado 887124" d="M691,737.1a.139.139,0,0,1-.119-.067c-.926-1.531-3.068-3.171-4.658-3.066a.139.139,0,1,1-.018-.277c1.718-.106,3.926,1.566,4.914,3.2a.139.139,0,0,1-.119.211" transform="translate(-500.505 -535.235)" fill="#fff"/>
      <path id="Trazado_887125" data-name="Trazado 887125" d="M702.4,744.721a1,1,0,1,1,1,1.006,1,1,0,0,1-1-1.006" transform="translate(-512.413 -542.556)" fill="#ffc60a"/>
      <path id="Trazado_887126" data-name="Trazado 887126" d="M683.98,754.044a1,1,0,1,1,1,1.006,1,1,0,0,1-1-1.006" transform="translate(-498.976 -549.358)" fill="#ffc60a"/>
      <path id="Trazado_887127" data-name="Trazado 887127" d="M751.728,423.432c2.658-7.521,10.376-30.2,10.376-30.2,6.765-16.23-10.095-21.024-16.86-4.794l-12.222,28.264c-5.868,14.077,13.627,21.1,18.707,6.727" transform="translate(-533.957 -276.053)" fill="#657d55"/>
      <path id="Trazado_887128" data-name="Trazado 887128" d="M811.436,441.452l-4.644,26.69,6-16.8Z" transform="translate(-588.57 -322.048)" fill="#233635"/>
      <path id="Trazado_887129" data-name="Trazado 887129" d="M741.386,515.347c1.167-17.675-19.065-22.682-20.484-1.179l-3.074,43.464,21.45.228Z" transform="translate(-523.669 -364.741)" fill="#657d55"/>
      <path id="Trazado_887130" data-name="Trazado 887130" d="M842.063,402.208c-.91-9.147-2.025-21.95-3.97-35.876-2.341-15.017-18.166,1.777-18.166,1.777s1.669,23.824,3.716,40.4c1.615,13.083,20.179,11.39,18.419-6.3" transform="translate(-598.153 -262.692)" fill="#657d55"/>
      <path id="Trazado_887131" data-name="Trazado 887131" d="M851.9,486.564c-1.487-16.781-18.954-11.426-18.208,7.348.465,11.7,2.843,46.743,2.843,46.743l21.46-.232Z" transform="translate(-608.175 -347.605)" fill="#657d55"/>
      <path id="Trazado_887132" data-name="Trazado 887132" d="M740.833,280.619c-2.954,4.6-8.7,14.644-11.595,20.355-4.69,9.25,4.427,17.673,11.389,7.232,3.763-5.644,9.461-15.291,10.779-22.028,1.095-5.594-5.918-12.806-10.573-5.559" transform="translate(-531.054 -202.49)" fill="#ffa873"/>
      <path id="Trazado_887133" data-name="Trazado 887133" d="M871.968,265.137c3.591,4.494,13.128,20.307,15.308,26.682,4.324,12.651-8.107,14.2-15.171,4.435-4.1-5.842-9.035-16.385-11.145-23.294-1.752-5.737,5.35-14.9,11.009-7.824" transform="translate(-627.888 -191.545)" fill="#ffa873"/>
      <path id="Trazado_887134" data-name="Trazado 887134" d="M814,247.915l-3.625,1.219c-3.374,5.372,3.372,14.482,6.6,14.835,2.353-.586,6-11.754,5.667-15.879l-3.87-.475Z" transform="translate(-590.513 -180.64)" fill="#a8d08d"/>
      <path id="Trazado_887135" data-name="Trazado 887135" d="M769.843,278.748c-1.111,3.814-7.15,10.616-7.15,10.616-4.37-2.746-9.725-5.38-11.844-9.279,0,0,6.549-17.138,12.521-19.112a27.071,27.071,0,0,0,4.084,1.919c2.5,3.916,3.974,10.784,2.389,15.856" transform="translate(-547.759 -190.384)" fill="#a8d08d"/>
      <path id="Trazado_887136" data-name="Trazado 887136" d="M765.247,329.9a.138.138,0,0,1-.071-.02,53.286,53.286,0,0,1-7.863-6.165.139.139,0,0,1,.186-.206,53.071,53.071,0,0,0,7.819,6.133.139.139,0,0,1-.071.258" transform="translate(-552.441 -235.978)" fill="#fff"/>
      <path id="Trazado_887137" data-name="Trazado 887137" d="M778.469,315.946l-2.915,10.374,3.957,2.406Z" transform="translate(-565.782 -230.488)" fill="#233635"/>
      <path id="Trazado_887138" data-name="Trazado 887138" d="M785.443,253.522c1.145-2.434,6.254-3.29,6.254-3.29-.838,1.143.193,10.525,4.709,12.529,2.843-2.122,6.393-8.946,6.969-13.407,3.466.207,7.039.7,8.823,1.635,0,0-1.543,12.213-.585,14.164.277,2.946-.081,27.888-.081,27.888s-6.948,1.039-18.049-.459c-3.6-.486-10.672-1.835-10.32-3.152,2.993-11.2-1.154-24.72,2.278-35.909" transform="translate(-571.325 -181.909)" fill="#ffc01f"/>
      <path id="Trazado_887139" data-name="Trazado 887139" d="M866.349,321.635l1.116,12.381-3.342,5.442,9.13-3.487Z" transform="translate(-630.394 -234.639)" fill="#233635"/>
      <path id="Trazado_887140" data-name="Trazado 887140" d="M836.786,374.648l-5.961,1.868c-2.121-1.16-7.222-5.431-5.024-6.634,2.69-1.638,10.047,4.169,10.985,4.766" transform="translate(-602.045 -269.625)" fill="#ffa873"/>
      <path id="Trazado_887141" data-name="Trazado 887141" d="M815.87,200.14a5.334,5.334,0,0,1,4.3-2.653,4.707,4.707,0,0,1,4.041,3.206c.388,1.519,1.517,3.969-.854,7.289a3.2,3.2,0,0,0-.148,3.1c-2.375,2.722-5.91,3.759-5.08.262a2.215,2.215,0,0,0,.917-2.262c-.075-.288-1.547-.332-2.666-1.366-1.615-1.494-1.566-5.691-.514-7.576" transform="translate(-594.645 -144.069)" fill="#ffa873"/>
      <path id="Trazado_887142" data-name="Trazado 887142" d="M829.171,237.416a2.418,2.418,0,0,1-.085,1.3,5.617,5.617,0,0,0,3.492-2.264c-1.806.877-2.325,1.045-3.406.968" transform="translate(-604.834 -172.493)" fill="#233635"/>
      <path id="Trazado_887143" data-name="Trazado 887143" d="M835.385,216.443a.708.708,0,1,0-.754.66.709.709,0,0,0,.754-.66" transform="translate(-608.396 -157.348)" fill="#233635"/>
      <path id="Trazado_887144" data-name="Trazado 887144" d="M836.846,215.7c.535.063.581.536,1.135.549a.748.748,0,0,1-1.135-.549" transform="translate(-610.495 -157.357)" fill="#233635"/>
      <path id="Trazado_887145" data-name="Trazado 887145" d="M837.237,217.448a.166.166,0,1,0-.177.155.167.167,0,0,0,.177-.155" transform="translate(-610.538 -158.503)" fill="#fff"/>
      <path id="Trazado_887146" data-name="Trazado 887146" d="M833.691,211.238c.527-.188,1.821.035,2,.953a1.87,1.87,0,0,0-1.781-.392c-.307.1-.335-.52-.219-.562" transform="translate(-608.147 -154.057)" fill="#233635"/>
      <path id="Trazado_887147" data-name="Trazado 887147" d="M818.905,215.7a.623.623,0,1,1,.581.663.623.623,0,0,1-.581-.663" transform="translate(-597.406 -156.931)" fill="#233635"/>
      <path id="Trazado_887148" data-name="Trazado 887148" d="M818.444,215.116c-.474-.007-.569.4-1.054.347a.658.658,0,0,0,1.054-.347" transform="translate(-596.302 -156.931)" fill="#233635"/>
      <path id="Trazado_887149" data-name="Trazado 887149" d="M819.9,216.54a.147.147,0,1,1,.137.156.147.147,0,0,1-.137-.156" transform="translate(-598.136 -157.87)" fill="#fff"/>
      <path id="Trazado_887150" data-name="Trazado 887150" d="M819.879,210.622c-.5-.256-1.809-.206-2.108.681a1.87,1.87,0,0,1,1.817-.153c.29.143.4-.472.291-.528" transform="translate(-596.58 -153.555)" fill="#233635"/>
      <path id="Trazado_887151" data-name="Trazado 887151" d="M826.578,218.7c.188-.522.766-.876.715-1.483-.013-.152.224-.148.237,0a2.114,2.114,0,0,1-.595,1.308c-.113.167-.25.418-.092.6a.8.8,0,0,0,.641.162c.153,0,.15.235,0,.237a1.1,1.1,0,0,1-.745-.176.567.567,0,0,1-.159-.652" transform="translate(-602.974 -158.382)" fill="#233635"/>
      <path id="Trazado_887152" data-name="Trazado 887152" d="M847.17,217.2s1.451-2.132,2.578-1-.807,4.706-2.34,2.743Z" transform="translate(-618.027 -157.476)" fill="#ffa873"/>
      <path id="Trazado_887153" data-name="Trazado 887153" d="M868.919,251.536a12.877,12.877,0,0,1,2.411.593c5.359.655,15.465,19.232,15.465,19.232-4.766,4.545-9.564,7.787-14.4,9.319-3.111-5.2-9.662-20.314-3.474-29.144" transform="translate(-632.021 -183.5)" fill="#a8d08d"/>
      <path id="Trazado_887154" data-name="Trazado 887154" d="M887.354,324.956a.139.139,0,0,1-.052-.268c2.9-1.166,9.343-5.9,10.334-7.38a.139.139,0,0,1,.231.155c-1.033,1.543-7.46,6.275-10.461,7.483a.14.14,0,0,1-.052.01" transform="translate(-647.24 -231.438)" fill="#fff"/>
      <path id="Trazado_887155" data-name="Trazado 887155" d="M860.6,429.155h-.018a12.582,12.582,0,0,1-7.316-4.025,12.739,12.739,0,0,1-2.922-4.276c-.109-.224-.227-.468-.358-.735a.139.139,0,1,1,.249-.122c.131.268.249.511.358.736a14.326,14.326,0,0,0,10.024,8.147.139.139,0,0,1-.018.277" transform="translate(-620.074 -306.338)" fill="#fff"/>
      <path id="Trazado_887156" data-name="Trazado 887156" d="M886.353,516.95a.139.139,0,0,1-.138-.123L878.7,450.421a.139.139,0,1,1,.276-.032l7.515,66.406a.139.139,0,0,1-.122.154h-.016" transform="translate(-641.028 -328.478)" fill="#fff"/>
      <path id="Trazado_887157" data-name="Trazado 887157" d="M850.877,695.321a.139.139,0,0,1,0-.278l17.476-.271a.13.13,0,0,1,.141.137.139.139,0,0,1-.137.141l-17.475.271Z" transform="translate(-620.63 -506.849)" fill="#fff"/>
      <path id="Trazado_887158" data-name="Trazado 887158" d="M721.357,272.474s2.292,16.28,4.045,23.551c4.013,16.646-10.676,17.035-12.873,6.15-2.086-10.338-1.541-28.622-1.541-28.622Z" transform="translate(-518.633 -198.775)" fill="#ffa873"/>
      <path id="Trazado_887159" data-name="Trazado 887159" d="M547.938,322.856l1.56,2.356a8.943,8.943,0,0,0-4.6,3.5,8.689,8.689,0,0,0-1.35,3.676c-10.345,8.077-12.372,15.817-22.717,23.894-5.688,3.043-15.122.765-15.62.421l42.732-33.845" transform="translate(-368.557 -235.53)" fill="#e3e3e3"/>
      <path id="Trazado_887160" data-name="Trazado 887160" d="M652.594,232.38c4.016-2.165,10.6-5.676,17.21-9.079,7.086-3.651,11.686-4.743,15.761-11.752,3.51-6.739-1.865-17.04-10.355-18.3-7.5-1.112-14.731,3-17.128,11.357-3.09,10.785,1.645,15.3-9.408,22.05,0,0,2.612,3.818,3.92,5.725m12.467-16.348c-3.061-2.328-3.493-8.335-.326-13.241a8.951,8.951,0,0,1,13.444-2.11,8.783,8.783,0,0,1-.793,13.176c-3.6,2.952-8.815,4.844-12.325,2.175" transform="translate(-473.22 -140.847)" fill="#004b72"/>
      <path id="Trazado_887161" data-name="Trazado 887161" d="M678.255,369.564c12.938.567,10.975,6.808,18.893,14.757,6.137,6.157,14.455,6.264,20.484,1.665,6.823-5.207,6.55-16.823.22-21.027-6.955-4.166-11.51-2.9-19.478-2.671-7.433.216-14.892.323-19.454.37-.223,2.3-.665,6.906-.665,6.906m31.322-2.672a8.782,8.782,0,0,1,7.062,11.152,8.95,8.95,0,0,1-12.789,4.65c-5.144-2.764-7.668-8.232-6.114-11.749,1.783-4.033,7.263-4.9,11.841-4.053" transform="translate(-494.8 -264.035)" fill="#004b72"/>
      <path id="Trazado_887162" data-name="Trazado 887162" d="M628.447,359.215a1.142,1.142,0,0,1,1.6.212,1.141,1.141,0,0,1-.212,1.6,1.126,1.126,0,0,1-.487.215,1.14,1.14,0,0,1-.9-2.027" transform="translate(-458.137 -261.883)" fill="#fff"/>
      <path id="Trazado_887163" data-name="Trazado 887163" d="M817.462,186.57a5.07,5.07,0,0,0,2.742-.533,2.436,2.436,0,0,1-1.025.964,7.336,7.336,0,0,0,4.064-1.111,3.672,3.672,0,0,1,.951,2.432c-.175,1.376.008,2.107.746,2.425.187-1.927,2.914-1.678,2.79-4.406a3.818,3.818,0,0,0-2.143-3.309s-.442-2.895-2.739-3.311c-1.58-.286-3.049,1.493-4.372,1.718-3.352.569-4.379,4.92-1.014,5.13" transform="translate(-594.845 -131.088)" fill="#233635"/>
      <path id="Trazado_887164" data-name="Trazado 887164" d="M829.24,226.833a1.151,1.151,0,0,1-.119.731,1.071,1.071,0,0,1-1.693.444,1.157,1.157,0,0,1-.467-.593,4.021,4.021,0,0,0,2.279-.581" transform="translate(-603.284 -165.479)" fill="#fff"/>
      <path id="Trazado_887165" data-name="Trazado 887165" d="M845.085,368.479s14.388-6.708,21.143-8.917c11.462-3.528,14.823,10.676,5.093,14.9-9.241,4.013-23.46,5.2-23.46,5.2Z" transform="translate(-616.506 -261.901)" fill="#ffa873"/>
      <path id="Trazado_887166" data-name="Trazado 887166" d="M816.245,383.167c.663,4.16,2.457,6.482,3.12,10.642-3.532,5.553-21.547,7.637-18.875-.124-1.738-.15-2.629-2.891-1.374-4.237-.874-.4-1.121-3.514-.279-4.007-4.527-7.941,16.109-2.64,17.408-2.274" transform="translate(-582.295 -278.017)" fill="#ffa873"/>
      <path id="Trazado_887167" data-name="Trazado 887167" d="M802.43,395.529c-1.223,0-2.132-.038-2.226-.042a.139.139,0,0,1,.012-.278c.059,0,5.931.247,8.329-.526a.139.139,0,0,1,.085.265,24.7,24.7,0,0,1-6.2.581" transform="translate(-583.667 -287.924)" fill="#263a39"/>
      <path id="Trazado_887168" data-name="Trazado 887168" d="M803.533,409.9c-1.222,0-2.131-.038-2.225-.042a.139.139,0,0,1-.133-.145.143.143,0,0,1,.145-.133c.059,0,5.931.247,8.329-.526a.139.139,0,1,1,.085.264,24.708,24.708,0,0,1-6.2.581" transform="translate(-584.473 -298.409)" fill="#263a39"/>
      <path id="Trazado_887169" data-name="Trazado 887169" d="M810.561,427.091c-2.116,0-4.114-.2-4.253-.217a.139.139,0,0,1-.124-.153.136.136,0,0,1,.153-.124c.057.006,5.727.581,8.121-.19a.139.139,0,1,1,.085.264,14.449,14.449,0,0,1-3.982.419" transform="translate(-588.126 -311.067)" fill="#263a39"/>
      <path id="Trazado_887170" data-name="Trazado 887170" d="M700.388,256.046a2.462,2.462,0,0,1,3.7-1.631,2.7,2.7,0,0,1,3.471-1.313c.719-.954,3.119-1.319,4.017-.574,3.25-2.461,3.97.2,4.49,2.1.454,1.66-.889,4.745-3.647,3.369-.31,1.61-3.145,1.816-4.093,1.146-1.048,1.478-3.832,1.535-4.355,0-3.19,1.733-3.838-.514-3.584-3.1" transform="translate(-510.91 -183.5)" fill="#ffb182"/>
      <path id="Trazado_887171" data-name="Trazado 887171" d="M742.552,260.827h0a.139.139,0,0,1-.134-.143,15.166,15.166,0,0,0-.813-5.356.139.139,0,0,1,.263-.09,15.442,15.442,0,0,1,.828,5.455.139.139,0,0,1-.139.134" transform="translate(-541.006 -186.133)" fill="#1e1a1b"/>
      <path id="Trazado_887172" data-name="Trazado 887172" d="M727.234,264.6h0a.139.139,0,0,1-.134-.143,15.162,15.162,0,0,0-.813-5.356.139.139,0,1,1,.263-.09,15.433,15.433,0,0,1,.827,5.455.138.138,0,0,1-.138.134" transform="translate(-529.832 -188.887)" fill="#1e1a1b"/>
      <path id="Trazado_887173" data-name="Trazado 887173" d="M713.182,266.853l-.028,0a.139.139,0,0,1-.108-.164,13.714,13.714,0,0,0-.077-4.6.139.139,0,1,1,.266-.082,13.812,13.812,0,0,1,.083,4.737.139.139,0,0,1-.136.111" transform="translate(-520.12 -191.066)" fill="#1e1a1b"/>
      <path id="Trazado_887174" data-name="Trazado 887174" d="M748.366,281.837c-.343-2.288-2.754-2.586-4.611,3.2l2.673,2.629c1.069-2.243,2.155-4.377,1.938-5.825" transform="translate(-542.583 -204.49)" fill="#ffa873"/>
      <path id="Trazado_887175" data-name="Trazado 887175" d="M260.53,272.3a17.746,17.746,0,0,1,5.252.879,15.355,15.355,0,0,1,4.624,2.218l-1.757,3.725a11.188,11.188,0,0,0-4.059-.711q-6.194,0-6.193,7.2a7.981,7.981,0,0,0,1.695,5.419,5.249,5.249,0,0,0,4.1,1.946,10.261,10.261,0,0,0,4.5-1l1.883,3.6a16.593,16.593,0,0,1-10.085,3.1,13.51,13.51,0,0,1-9.562-3.432q-3.7-3.431-3.7-9.855t3.641-9.751q3.641-3.327,9.667-3.327" transform="translate(-180.353 -198.647)" fill="#fff"/>
      <path id="Trazado_887176" data-name="Trazado 887176" d="M338.2,285.732q0-6.57,3.829-10T352.99,272.3q7.135,0,10.964,3.432t3.829,10q0,6.571-4.038,9.751t-10.755,3.18q-6.717,0-10.755-3.18t-4.038-9.751m18.455-.167q0-8.452-3.662-8.453t-3.662,8.453q0,8.454,3.662,8.453t3.662-8.453" transform="translate(-246.721 -198.647)" fill="#fff"/>
      <path id="Trazado_887177" data-name="Trazado 887177" d="M465.555,275.9H453.381v-2.367q.219-.243,1.2-1.244t1.476-1.574q.5-.573,1.232-1.452a5.22,5.22,0,0,0,1.391-2.977,1.607,1.607,0,0,0-1.805-1.83,5.89,5.89,0,0,0-2.269.512l-.683-2.684a11.115,11.115,0,0,1,2.6-1.061,10.189,10.189,0,0,1,2.757-.451,10.022,10.022,0,0,1,2.171.22,7.477,7.477,0,0,1,1.9.707,3.65,3.65,0,0,1,1.452,1.4,4.144,4.144,0,0,1,.537,2.135q-.024,3.586-5.709,7l.147.342,5.782-1.2Z" transform="translate(-330.75 -190.243)" fill="#fff"/>
      <path id="Trazado_887178" data-name="Trazado 887178" d="M70.808,662.34h36.12V660.9H72.252a1.444,1.444,0,0,0-1.444,1.444" transform="translate(-51.656 -482.136)" fill="#263a39"/>
      <path id="Trazado_887179" data-name="Trazado 887179" d="M272.47,586.77h0a.819.819,0,0,0-.819.819v55.093h1.637V587.589a.819.819,0,0,0-.819-.819" transform="translate(-198.175 -428.06)" fill="#263a39"/>
      <path id="Trazado_887180" data-name="Trazado 887180" d="M254.879,587.786h-8.463v-1.443h7.02a1.444,1.444,0,0,1,1.444,1.443" transform="translate(-179.765 -427.748)" fill="#263a39"/>
      <path id="Trazado_887181" data-name="Trazado 887181" d="M207.061,534.013h0a6.676,6.676,0,0,1,6.676,6.676v63.505H200.385V540.689a6.676,6.676,0,0,1,6.676-6.676" transform="translate(-146.185 -389.573)" fill="#ffc01f"/>
      <path id="Trazado_887182" data-name="Trazado 887182" d="M211.293,700.5H197.935a.9.9,0,0,0-.9.9v1.044a.9.9,0,0,0,.9.9h13.358a.9.9,0,0,0,.9-.9V701.4a.9.9,0,0,0-.9-.9" transform="translate(-143.737 -511.026)" fill="#263a39"/>
      <path id="Trazado_887183" data-name="Trazado 887183" d="M211.293,612.391H197.935a.9.9,0,0,0-.9.9v1.044a.9.9,0,0,0,.9.9h13.358a.9.9,0,0,0,.9-.9V613.3a.9.9,0,0,0-.9-.9" transform="translate(-143.737 -446.751)" fill="#263a39"/>
      <rect id="Rectángulo_408615" data-name="Rectángulo 408615" width="13.352" height="31.09" transform="translate(81.926 179.531)" fill="#6f8280"/>
      <path id="Trazado_887184" data-name="Trazado 887184" d="M312.5,782.613H294.738l1.474-3.923h14.814Z" transform="translate(-215.017 -568.07)" fill="#ff6a3d"/>
      <path id="Trazado_887185" data-name="Trazado 887185" d="M325.234,685.416a1.378,1.378,0,1,1-1.378-1.378,1.378,1.378,0,0,1,1.378,1.378" transform="translate(-235.254 -499.019)" fill="#ffc01f"/>
      <path id="Trazado_887186" data-name="Trazado 887186" d="M325.234,719.439a1.378,1.378,0,1,1-1.378-1.378,1.378,1.378,0,0,1,1.378,1.378" transform="translate(-235.254 -523.839)" fill="#ffc01f"/>
      <path id="Trazado_887187" data-name="Trazado 887187" d="M325.234,753.462a1.378,1.378,0,1,1-1.378-1.378,1.378,1.378,0,0,1,1.378,1.378" transform="translate(-235.254 -548.66)" fill="#ffc01f"/>
      <rect id="Rectángulo_408616" data-name="Rectángulo 408616" width="15.488" height="2.663" transform="translate(80.937 177.481)" fill="#263a39"/>
      <path id="Trazado_887188" data-name="Trazado 887188" d="M71.849,660.892h0a1.444,1.444,0,0,0-1.444,1.444v24.476h1.444Z" transform="translate(-51.362 -482.133)" fill="#263a39"/>
      <path id="Trazado_887189" data-name="Trazado 887189" d="M118.338,558.721l-25.679.01,7.37-71.445,10.835,0Z" transform="translate(-67.597 -355.481)" fill="#6f8280"/>
      <path id="Trazado_887190" data-name="Trazado 887190" d="M129.223,511.5H116.575l.31-2.971H128.91Z" transform="translate(-85.043 -370.981)" fill="#ffc01f"/>
      <path id="Trazado_887191" data-name="Trazado 887191" d="M127.286,552.833H112.321l.305-2.968h14.351Z" transform="translate(-81.94 -401.136)" fill="#ffc01f"/>
      <path id="Trazado_887192" data-name="Trazado 887192" d="M125.342,594.16H108.05l.31-2.971h16.672Z" transform="translate(-78.825 -431.283)" fill="#ffc01f"/>
      <path id="Trazado_887193" data-name="Trazado 887193" d="M92.662,751.329l0,.029,5.276,0Z" transform="translate(-67.596 -548.109)" fill="#bac7d1"/>
      <path id="Trazado_887194" data-name="Trazado 887194" d="M127.116,483.358l-12.429.157c-.282,0-.515-.157-.52-.359l-.028-1.134c-.005-.2.22-.369.5-.372l12.429-.157c.282,0,.515.157.52.359l.028,1.134c0,.2-.22.369-.5.372" transform="translate(-83.267 -351.258)" fill="#263a39"/>
      <rect id="Rectángulo_408617" data-name="Rectángulo 408617" width="57.495" height="7.282" transform="translate(51.429 207.34)" fill="#263a39"/>
      <rect id="Rectángulo_408618" data-name="Rectángulo 408618" width="38.939" height="11.372" transform="translate(15.262 203.249)" fill="#263a39"/>
      <path id="Trazado_887195" data-name="Trazado 887195" d="M75.464,187.152A21.437,21.437,0,1,1,96.9,208.589a21.437,21.437,0,0,1-21.437-21.437" transform="translate(-55.052 -120.892)" fill="#fff"/>
      <path id="Trazado_887196" data-name="Trazado 887196" d="M95.586,205.518a23.112,23.112,0,1,1,19.68-26.1,23.138,23.138,0,0,1-19.68,26.1M89.73,163.739a19.076,19.076,0,1,0,21.539,16.243A19.1,19.1,0,0,0,89.73,163.739" transform="translate(-50.529 -116.371)" fill="#007cbe"/>
      <rect id="Rectángulo_408619" data-name="Rectángulo 408619" width="4.533" height="44.539" transform="translate(22.703 54.661) rotate(-52.98)" fill="#007cbe"/>
      <path id="Trazado_887197" data-name="Trazado 887197" d="M450.826,477.477h0a15.341,15.341,0,0,0-15.341,15.341v70.055h30.681V492.818a15.341,15.341,0,0,0-15.341-15.341" transform="translate(-317.695 -348.329)" fill="#ffc01f"/>
      <path id="Trazado_887198" data-name="Trazado 887198" d="M462.287,594.882a9.706,9.706,0,0,1-3.926-18.585l-.15-43.743c-.013-3.78,1.937-5.48,3.877-5.487s3.9,1.688,3.916,5.46l.15,43.743A9.78,9.78,0,0,1,472,585.135a9.713,9.713,0,0,1-9.68,9.747Z" transform="translate(-330.161 -384.505)" fill="#fff"/>
      <path id="Trazado_887199" data-name="Trazado 887199" d="M476.887,723.643a6.834,6.834,0,1,1-6.858-6.776,6.817,6.817,0,0,1,6.858,6.776" transform="translate(-337.926 -522.968)" fill="#ff6a3d"/>
      <rect id="Rectángulo_408620" data-name="Rectángulo 408620" width="2.035" height="11.956" transform="translate(131.055 185.069) rotate(-0.197)" fill="#ff6a3d"/>
      <path id="Trazado_887200" data-name="Trazado 887200" d="M486.091,540.3l.065,18.957-2.035.007-.065-18.957c-.005-1.433.446-2.6,1.008-2.6s1.021,1.158,1.026,2.591" transform="translate(-353.128 -392.27)" fill="#e3e3e3"/>
      <rect id="Rectángulo_408621" data-name="Rectángulo 408621" width="2.035" height="31.152" transform="matrix(1, -0.003, 0.003, 1, 130.948, 153.917)" fill="#ff6a3d"/>
      <path id="Trazado_887201" data-name="Trazado 887201" d="M520.157,544.186h-5.49a.1.1,0,0,1,0-.208h5.49a.1.1,0,0,1,0,.208" transform="translate(-375.384 -396.842)" fill="#fff"/>
      <path id="Trazado_887202" data-name="Trazado 887202" d="M516.144,562.928h-1.478a.1.1,0,0,1,0-.208h1.478a.1.1,0,0,1,0,.208" transform="translate(-375.383 -410.515)" fill="#fff"/>
      <path id="Trazado_887203" data-name="Trazado 887203" d="M516.144,580.107h-1.478a.1.1,0,0,1,0-.208h1.478a.1.1,0,0,1,0,.208" transform="translate(-375.383 -423.047)" fill="#fff"/>
      <path id="Trazado_887204" data-name="Trazado 887204" d="M520.157,599.238h-5.49a.1.1,0,0,1,0-.208h5.49a.1.1,0,0,1,0,.208" transform="translate(-375.384 -437.004)" fill="#fff"/>
      <path id="Trazado_887205" data-name="Trazado 887205" d="M516.144,617.979h-1.478a.1.1,0,0,1,0-.208h1.478a.1.1,0,0,1,0,.208" transform="translate(-375.383 -450.676)" fill="#fff"/>
      <path id="Trazado_887206" data-name="Trazado 887206" d="M516.144,635.158h-1.478a.1.1,0,0,1,0-.208h1.478a.1.1,0,0,1,0,.208" transform="translate(-375.383 -463.208)" fill="#fff"/>
      <path id="Trazado_887207" data-name="Trazado 887207" d="M520.157,654.29h-5.49a.1.1,0,0,1,0-.208h5.49a.1.1,0,0,1,0,.208" transform="translate(-375.384 -477.165)" fill="#fff"/>
      <path id="Trazado_887208" data-name="Trazado 887208" d="M516.144,673.031h-1.478a.1.1,0,0,1,0-.208h1.478a.1.1,0,0,1,0,.208" transform="translate(-375.383 -490.837)" fill="#fff"/>
      <path id="Trazado_887209" data-name="Trazado 887209" d="M516.144,690.21h-1.478a.1.1,0,0,1,0-.208h1.478a.1.1,0,0,1,0,.208" transform="translate(-375.383 -503.37)" fill="#fff"/>
      <path id="Trazado_887210" data-name="Trazado 887210" d="M285.513,793.247H19.452a.139.139,0,0,1,0-.278H285.513a.139.139,0,0,1,0,.278" transform="translate(-14.089 -578.486)" fill="#263a39"/>
      <path id="Trazado_887211" data-name="Trazado 887211" d="M660.409,40.789H603.837c-2.551,0-4.62,2.48-4.62,5.54V65.447c0,3.059,2.068,5.54,4.62,5.54h39.677l7.886,8.57v-8.57h9.011c2.551,0,4.62-2.48,4.62-5.54V46.329c0-3.059-2.068-5.54-4.62-5.54" transform="translate(-437.14 -29.756)" fill="#fff"/>
      <path id="Trazado_887212" data-name="Trazado 887212" d="M651.024,79.321a.139.139,0,0,1-.1-.045l-7.844-8.525H603.462c-2.624,0-4.759-2.547-4.759-5.678V45.954c0-3.131,2.135-5.679,4.759-5.679h56.573c2.624,0,4.759,2.548,4.759,5.679V65.072c0,3.131-2.135,5.678-4.759,5.678h-8.872v8.431a.139.139,0,0,1-.089.13.142.142,0,0,1-.051.009M603.462,40.553c-2.471,0-4.481,2.423-4.481,5.4V65.072c0,2.978,2.01,5.4,4.481,5.4h39.677a.139.139,0,0,1,.1.045l7.645,8.308V70.612a.139.139,0,0,1,.139-.139h9.011c2.471,0,4.481-2.423,4.481-5.4V45.954c0-2.978-2.01-5.4-4.481-5.4Z" transform="translate(-436.765 -29.381)" fill="#263a39"/>
      <path id="Trazado_887213" data-name="Trazado 887213" d="M713.771,76.61H678.038a.139.139,0,0,1,0-.278h35.733a.139.139,0,1,1,0,.278" transform="translate(-494.54 -55.686)" fill="#263a39"/>
      <path id="Trazado_887214" data-name="Trazado 887214" d="M701.211,108.014H678.038a.139.139,0,0,1,0-.278h23.173a.139.139,0,0,1,0,.278" transform="translate(-494.54 -78.595)" fill="#263a39"/>
      <path id="Trazado_887215" data-name="Trazado 887215" d="M647.687,60.437,646.7,73.109h-4.457l-.458-12.672Zm-.8,16.382a2.389,2.389,0,0,1-.2.988,2.656,2.656,0,0,1-.548.8,2.57,2.57,0,0,1-.8.542,2.423,2.423,0,0,1-.976.2,2.453,2.453,0,0,1-.988-.2,2.555,2.555,0,0,1-1.343-1.343,2.451,2.451,0,0,1-.2-.988,2.565,2.565,0,0,1,.741-1.8,2.655,2.655,0,0,1,.8-.548,2.4,2.4,0,0,1,.988-.2,2.366,2.366,0,0,1,.976.2,2.657,2.657,0,0,1,.8.548,2.614,2.614,0,0,1,.548.813,2.445,2.445,0,0,1,.2.988" transform="translate(-468.194 -44.09)" fill="#ffc01f"/>
      <path id="Trazado_887216" data-name="Trazado 887216" d="M70.907,368.378c-1.334-1.508-2.771-2.943-4.739-2.292,2.783-12.129-13.719-15.962-14.913-5.093-11.608-6.178-17.674,17.542-3.8,14.819-.272,5.445,5,8.663,9.556,5.832,1.522-.9,2.829-2.319,4.41-3.065,5.413-2.065,7.193,5.872,7.193,5.872s9.276-8.18,2.292-16.073" transform="translate(-28.782 -258.685)" fill="#80918f"/>
      <path id="Trazado_887217" data-name="Trazado 887217" d="M32.348,92.406A9.1,9.1,0,0,1,40.971,89c-.146-.036.321-.037.176-.073a3.292,3.292,0,0,1,5.524-3.513,9.533,9.533,0,0,1,9.085-8.6,9.532,9.532,0,0,1,9.256,8.413A4.28,4.28,0,0,1,70.793,91.2,3.636,3.636,0,0,1,75.9,93.809l-51.787.012a30.2,30.2,0,0,1,8.235-1.415" transform="translate(-17.591 -56.039)" fill="#e3e3e3"/>
      <path id="Trazado_887218" data-name="Trazado 887218" d="M239.032,832.657H187.224a.139.139,0,0,1,0-.278h51.808a.139.139,0,0,1,0,.278" transform="translate(-136.482 -607.236)" fill="#263a39"/>
      <path id="Trazado_887219" data-name="Trazado 887219" d="M486.277,832.657h-6.521a.139.139,0,1,1,0-.278h6.521a.139.139,0,0,1,0,.278" transform="translate(-349.89 -607.236)" fill="#263a39"/>
      <path id="Trazado_887220" data-name="Trazado 887220" d="M797.325,832.657H790.8a.139.139,0,0,1,0-.278h6.521a.139.139,0,0,1,0,.278" transform="translate(-576.805 -607.236)" fill="#263a39"/>
      <path id="Trazado_887221" data-name="Trazado 887221" d="M16.3,216.729a2.717,2.717,0,0,0,1.678-2.278l.1-.621.1.621a2.716,2.716,0,0,0,1.678,2.278l.458.137-.458.137a2.716,2.716,0,0,0-1.678,2.278l-.1.621-.1-.621A2.717,2.717,0,0,0,16.3,217l-.458-.137Z" transform="translate(-11.558 -155.993)" fill="#547d5f"/>
      <path id="Trazado_887222" data-name="Trazado 887222" d="M611.919,554.778A2.716,2.716,0,0,0,613.6,552.5l.1-.621.1.621a2.716,2.716,0,0,0,1.678,2.278l.458.137-.458.137a2.717,2.717,0,0,0-1.678,2.278l-.1.621-.1-.621a2.717,2.717,0,0,0-1.678-2.278l-.458-.137Z" transform="translate(-446.072 -402.606)" fill="#547d5f"/>
      <path id="Trazado_887223" data-name="Trazado 887223" d="M908.048,112.631a2.716,2.716,0,0,0,1.678-2.278l.1-.621.1.621a2.716,2.716,0,0,0,1.678,2.278l.458.137-.458.137a2.717,2.717,0,0,0-1.678,2.278l-.1.621-.1-.621a2.717,2.717,0,0,0-1.678-2.278l-.458-.137Z" transform="translate(-662.104 -80.052)" fill="#ff7954"/>
      <path id="Trazado_887224" data-name="Trazado 887224" d="M1.1,569.048c2.011-.6,3.581-2.733,4.024-5.462l.242-1.49.242,1.49c.443,2.729,2.013,4.861,4.024,5.462l1.1.328-1.1.328c-2.011.6-3.581,2.733-4.024,5.462l-.242,1.49-.242-1.49c-.443-2.729-2.013-4.861-4.024-5.462L0,569.376Z" transform="translate(0.001 -410.06)" fill="#ffc236"/>
      <path id="Trazado_887225" data-name="Trazado 887225" d="M943.55,507.1c2.01-.6,3.581-2.733,4.024-5.462l.242-1.489.242,1.489c.443,2.729,2.013,4.861,4.024,5.462l1.1.328-1.1.328c-2.01.6-3.581,2.733-4.024,5.462l-.242,1.49-.242-1.49c-.443-2.729-2.013-4.861-4.024-5.462l-1.1-.328Z" transform="translate(-687.537 -364.87)" fill="#ffc236"/>
    </g>
  </g>
</svg>
