<svg xmlns="http://www.w3.org/2000/svg" width="66.203" height="56.93" viewBox="0 0 66.203 56.93">
  <g id="Grupo_1112709" data-name="Grupo 1112709" transform="translate(0 -35.857)">
    <g id="Grupo_1112704" data-name="Grupo 1112704" transform="translate(0 35.857)">
      <g id="Grupo_1112703" data-name="Grupo 1112703" transform="translate(0 0)">
        <path id="Trazado_887226" data-name="Trazado 887226" d="M65.35,83.769,38.194,38.733a5.948,5.948,0,0,0-10.187,0L.852,83.769a5.948,5.948,0,0,0,5.093,9.019H60.257a5.947,5.947,0,0,0,5.093-9.019Zm-3.668,3.876a1.64,1.64,0,0,1-1.426.832H5.946a1.637,1.637,0,0,1-1.4-2.483L31.7,40.959a1.637,1.637,0,0,1,2.8,0L61.659,85.994A1.639,1.639,0,0,1,61.682,87.645Z" transform="translate(0 -35.857)" fill="#87a771"/>
      </g>
    </g>
    <g id="Grupo_1112706" data-name="Grupo 1112706" transform="translate(30.202 53.591)">
      <g id="Grupo_1112705" data-name="Grupo 1112705" transform="translate(0 0)">
        <path id="Trazado_887227" data-name="Trazado 887227" d="M236.5,173.005c-1.64,0-2.919.88-2.919,2.439,0,4.759.56,11.6.56,16.355,0,1.24,1.08,1.759,2.36,1.759.96,0,2.319-.52,2.319-1.759,0-4.759.56-11.6.56-16.355C239.376,173.885,238.057,173.005,236.5,173.005Z" transform="translate(-233.578 -173.005)" fill="#87a771"/>
      </g>
    </g>
    <g id="Grupo_1112708" data-name="Grupo 1112708" transform="translate(30.082 76.904)">
      <g id="Grupo_1112707" data-name="Grupo 1112707">
        <path id="Trazado_887228" data-name="Trazado 887228" d="M235.73,353.306a3.079,3.079,0,1,0,0,6.158,3.079,3.079,0,0,0,0-6.158Z" transform="translate(-232.651 -353.306)" fill="#87a771"/>
      </g>
    </g>
  </g>
</svg>
