<svg xmlns="http://www.w3.org/2000/svg" xmlns:xlink="http://www.w3.org/1999/xlink" width="295" height="262" viewBox="0 0 295 262">
  <defs>
    <clipPath id="clip-path">
      <rect id="Rectángulo_408623" data-name="Rectángulo 408623" width="277.179" height="228.809" fill="none"/>
    </clipPath>
  </defs>
  <g id="Grupo_1113242" data-name="Grupo 1113242" transform="translate(-709 -10592.933)">
    <path id="Trazado_876484" data-name="Trazado 876484" d="M0,0H295V262H0Z" transform="translate(709 10592.933)" fill="#edf5e8"/>
    <g id="Grupo_1112711" data-name="Grupo 1112711" transform="translate(714 10609.596)">
      <g id="Grupo_1112710" data-name="Grupo 1112710" clip-path="url(#clip-path)">
        <path id="Trazado_887229" data-name="Trazado 887229" d="M362.282,186.179s7.535-2.394,17.7.574,12.863,13.919,5.671,20.156-20.5,1.827-20.5,1.827-2.19,9.235-15.733,7-14.542-8.6-14.542-8.6-15.771,6.571-25.7,1.43-6.647-16.626-.935-20.148,8.854-2.081,8.854-2.081.055-9.044,8.87-11.552,13.468,1.382,13.468,1.382,2.3-7.953,11.928-6.228,11.856,12.287,10.918,16.244" transform="translate(-112.522 -63.054)" fill="#fff"/>
        <path id="Trazado_887230" data-name="Trazado 887230" d="M94.305,226.628s7.535-2.394,17.7.574,12.863,13.919,5.671,20.156-20.5,1.827-20.5,1.827-2.19,9.235-15.733,7-14.541-8.6-14.541-8.6-15.772,6.571-25.7,1.43-6.647-16.625-.935-20.148,8.854-2.081,8.854-2.081.055-9.044,8.871-11.552,13.467,1.383,13.467,1.383,2.3-7.954,11.928-6.229,11.857,12.287,10.918,16.244" transform="translate(-12.945 -78.085)" fill="#fff"/>
        <path id="Trazado_887231" data-name="Trazado 887231" d="M20.349,89.484S17.393,73.86,32.595,71.749,49.486,78.5,49.486,78.5s10.978-5.911,17.734.422a13.86,13.86,0,0,1,4.224,13.935s8.868-.845,10.557,8.023S76.087,114.4,70.176,114.82,56.241,110.6,56.241,110.6s-2.955,8.867-14.357,8.445S27.1,113.975,26.26,110.175c0,0-8.023,3.378-16.046,2.111s-12.667-8.023-8.868-15.2a15.69,15.69,0,0,1,19-7.6" transform="translate(0 -26.54)" fill="#fff"/>
        <path id="Trazado_887232" data-name="Trazado 887232" d="M245.288,20.628s-.364-22.454,22.3-20.509,19.892,19.493,19.892,19.493,12.5-1.419,18.069,6.49.8,18.384-7.183,20.282a18.178,18.178,0,0,1-13.928-2.391S279.17,54.871,268.121,55.53s-20.09-8.992-20.09-8.992-10.055,8.541-21.693,1.817-7.486-20.007-2.435-24.5,15.888-7.465,21.386-3.223" transform="translate(-81.32 0)" fill="#fff"/>
        <path id="Trazado_887233" data-name="Trazado 887233" d="M222.121,185.314s-45.584-51.914-58.99-54.373-31.507-2.383-41.562,5.438S99,161.033,85.37,194.1s-21.451,57.128-21.451,57.128l62.119,2.235Z" transform="translate(-23.751 -48.126)" fill="#bebebe"/>
        <path id="Trazado_887234" data-name="Trazado 887234" d="M108.051,297.79l-3.384,22.492-1.68,11.173-23.537-.3v-5.064s-66.735,8.046-66.735,5.659c0-.256.344-.671.963-1.2,5.076-4.353,28.531-16.676,28.531-16.676L50.552,296.3Z" transform="translate(-4.725 -110.102)" fill="#006398"/>
        <path id="Trazado_887235" data-name="Trazado 887235" d="M104.667,334.2l-1.68,11.173-23.537-.3v-5.064s-66.735,8.046-66.735,5.659c0-.256.344-.671.963-1.2l89.659-10.713Z" transform="translate(-4.725 -124.019)" fill="#2f2f2e"/>
        <path id="Trazado_887236" data-name="Trazado 887236" d="M375.72,328.294c0,.5-1.063.931-2.933,1.288-13.3,2.547-67.3,1.689-67.3,1.689l-3.719-45.34,3.843-.334,13.252-1.15,17.1,11.149-6.688,2.227S375.72,324.2,375.72,328.294" transform="translate(-112.132 -105.696)" fill="#006398"/>
        <path id="Trazado_887237" data-name="Trazado 887237" d="M377.992,328.294c0,.5-1.063.931-2.933,1.288L307.88,285.6l13.252-1.15,17.1,11.149-6.688,2.227s46.453,26.381,46.453,30.471" transform="translate(-114.404 -105.696)" fill="#2f2f2e"/>
        <path id="Trazado_887238" data-name="Trazado 887238" d="M237.4,223.707s-89.443,13.165-103.382,20.259c-16.535,8.416-14.3,39.923-9.832,50.648,3.048,7.316,8.715,12.737,25.25,15.865s93.03-1.266,93.03-1.266l-1.49-38.433c9.582-3.354,22.643-6.852,31.283-18.769,7.821-10.787,9.534-29.2,9.534-29.2Z" transform="translate(-44.945 -82.794)" fill="#8f8f8f"/>
        <path id="Trazado_887239" data-name="Trazado 887239" d="M356.639,193.452c-2.386,4.171-7.153,5.064-16.984,5.665-3.355.2-7.83.549-12.294.811a114.311,114.311,0,0,1-14.487.245c-1.873-.17-3.1-.5-3.308-1.056-.9-2.386,26.513-50.5,26.513-50.5s7,11.176,9.683,18.025,13.256,22.64,10.876,26.813" transform="translate(-115.023 -55.223)" fill="#068dc9"/>
        <path id="Trazado_887240" data-name="Trazado 887240" d="M82.96,56.42s4.473-6.881,15.915-11.967,43.859-5.4,55.3-3.814l-41,20.341Z" transform="translate(-30.827 -14.786)" fill="#0c6cad"/>
        <path id="Trazado_887241" data-name="Trazado 887241" d="M288.68,91.2S269.61,65.458,236.874,57.83L225.115,82.62S247.363,94.38,258.486,103.6s20.658,23.519,20.658,23.519l13.826-22.8s.476-8.343-4.291-13.11" transform="translate(-83.65 -21.489)" fill="#0c6cad"/>
        <path id="Trazado_887242" data-name="Trazado 887242" d="M338.344,175.4s-2.38,14.3-4.766,22.941a85.906,85.906,0,0,1-4.248,11.54,114.2,114.2,0,0,1-14.487.245Z" transform="translate(-116.992 -65.176)" fill="#0c6cad"/>
        <path id="Trazado_887243" data-name="Trazado 887243" d="M306.214,118.981s-1.156-2.559,2.425-7.442,8.791-5.21,10.745-4.559,5.534,4.233,6.837,8.465-1.791,8.221-1.791,8.221Z" transform="translate(-113.719 -39.659)" fill="#2f2f2e"/>
        <path id="Trazado_887244" data-name="Trazado 887244" d="M220.917,111.869a73.24,73.24,0,0,1-71.945,73.247c-.438.006-.875.011-1.313.011a73.258,73.258,0,1,1,0-146.516,74.4,74.4,0,0,1,10,.677,73.242,73.242,0,0,1,63.258,72.581" transform="translate(-27.646 -14.347)" fill="#a7d8e8"/>
        <path id="Trazado_887245" data-name="Trazado 887245" d="M306.636,120.194s-1.709,6.105-.549,9.34,4.822,5.25,8.974,5.006a10.235,10.235,0,0,0,8.73-6.532,16.436,16.436,0,0,0,1.159-4.884s-1.709-1.892-4.09-4.09a28.471,28.471,0,0,1-4.335-5.494s-4.334,3.052-6.043,4.151-3.846,2.5-3.846,2.5" transform="translate(-113.588 -42.19)" fill="#ef9f6a"/>
        <path id="Trazado_887246" data-name="Trazado 887246" d="M103.313,120.7c-2.386,5.957,2.981,17.728,13.407,22.792s3.874,6.109,9.236,17.131,8.046,14,16.085,19.365a52.7,52.7,0,0,1,6.931,5.128c-.437.006-.875.011-1.313.011a73.258,73.258,0,1,1,0-146.516,74.421,74.421,0,0,1,10,.677c-.858,6.5-3.133,17.807-8.764,20.934-8.046,4.463-20.858,10.724-25.923,19.96s-5.064,20.853-10.723,28.9-6.552,5.656-8.938,11.619" transform="translate(-27.647 -14.347)" fill="#85a013"/>
        <path id="Trazado_887247" data-name="Trazado 887247" d="M134.852,180.161a160.791,160.791,0,0,1-20.379-12.447c-1.867-1.322-6.211-7.219-8.638-9.172s-4.42-.041-4.236,2.36,6.857,10.239,6.857,10.239a114.284,114.284,0,0,1-8.493-9.079c-2.533-3.325-5.038-6.307-6.78-5.622a2.215,2.215,0,0,0-1.4,2.453,4.708,4.708,0,0,0-2.876,1.186c-1.425,1.213-.292,3.4-.292,3.4s-1.451-.027-2.059,1.952a2.734,2.734,0,0,0,.5,2.929s-1.266-.317-1.188,2.506,3.8,8.129,8.017,12.774a95.848,95.848,0,0,0,13.321,11.746c3.508,2.56,14.984,10.031,14.984,10.031Z" transform="translate(-31.907 -58.094)" fill="#ef9f6a"/>
        <path id="Trazado_887248" data-name="Trazado 887248" d="M95.143,160.4a9.859,9.859,0,0,0,1.9,3.615,153.7,153.7,0,0,0,14.442,15.223l-.128.346s-6.789-6.536-8.471-8.443-5.262-5.635-6.554-7.641a8.565,8.565,0,0,1-1.424-3.048Z" transform="translate(-35.265 -59.604)" fill="#b75d42"/>
        <path id="Trazado_887249" data-name="Trazado 887249" d="M89.8,167.492s.435,1.286,3.076,4.345,6.34,7.1,8.566,9.125,5.717,5.048,5.717,5.048l-.1.4s-6.6-5.731-9.674-9.066-6.133-6.75-6.894-7.909a17.266,17.266,0,0,1-1.038-1.731Z" transform="translate(-33.24 -62.238)" fill="#b75d42"/>
        <path id="Trazado_887250" data-name="Trazado 887250" d="M87.664,175.274a63.363,63.363,0,0,0,4.4,5.477c2.81,3.171,5.539,6.013,7.573,8.02a36.1,36.1,0,0,0,4.583,3.711l-.367.287a60.489,60.489,0,0,1-8.25-7.652c-2.685-2.957-4.972-5.475-6.057-6.892s-2.2-2.887-2.2-2.887Z" transform="translate(-32.454 -65.13)" fill="#b75d42"/>
        <path id="Trazado_887251" data-name="Trazado 887251" d="M121.318,179.3l2.9,2.366.03-.287-3.146-2.554Z" transform="translate(-44.999 -66.448)" fill="#b75d42"/>
        <path id="Trazado_887252" data-name="Trazado 887252" d="M99.856,64.416a22.586,22.586,0,0,0-1.3,11.379c1.061,5.923,3.828,11.146,3.616,13.326s-1.487,2.771-3.306,2.353-5.442-7.966-5.442-7.966a32.98,32.98,0,0,0,2.6,10.043c2.181,4.632,4.77,7.535,4.953,9.939S98.9,106.18,97.8,106.115a3.154,3.154,0,0,1-1.046,2.661,2.278,2.278,0,0,1-2.352.358,2.562,2.562,0,0,1-.855,2.517,2.624,2.624,0,0,1-2.735.052,3.475,3.475,0,0,1-1.78,1.8c-1.157.352-3.018-1.007-5.823-4.194a34.9,34.9,0,0,1-7.328-15.022c-1.151-5.936-1.525-11.935-.141-17.695s2.135-8.716,4.2-12c0,0,2.728-2.191,3.838-2.432,7.31-1.589,16.07,2.262,16.07,2.262" transform="translate(-27.815 -22.953)" fill="#ef9f6a"/>
        <path id="Trazado_887253" data-name="Trazado 887253" d="M105.045,119.695s-1.147-.241-3.417-3.526a56.639,56.639,0,0,1-5.083-9.447c-1.1-2.529-1.826-8.407-1.826-8.407l-.38.288a31.386,31.386,0,0,0,1.959,8.68,48.087,48.087,0,0,0,6.774,11.377,6.508,6.508,0,0,0,2.01,1.464Z" transform="translate(-35.055 -36.533)" fill="#b75d42"/>
        <path id="Trazado_887254" data-name="Trazado 887254" d="M98.528,123.8s-2.418-1.435-5.325-5.656a43.268,43.268,0,0,1-5.292-10.41,34.064,34.064,0,0,1-1.492-6.493l-.474.361a31.352,31.352,0,0,0,1.841,7.05,47.2,47.2,0,0,0,5.83,10.823,29.429,29.429,0,0,0,4.792,4.734Z" transform="translate(-31.936 -37.621)" fill="#b75d42"/>
        <path id="Trazado_887255" data-name="Trazado 887255" d="M92.375,127.381a26.11,26.11,0,0,1-6.24-6.97A54.18,54.18,0,0,1,80.6,108.692a25.26,25.26,0,0,1-1.053-4.733l-.5.527a24.823,24.823,0,0,0,1.872,6.2c1.5,3.349,2.182,6.417,5.135,10.3a54.336,54.336,0,0,0,6.055,6.69Z" transform="translate(-29.373 -38.63)" fill="#b75d42"/>
        <path id="Trazado_887256" data-name="Trazado 887256" d="M326.93,127.78a3.717,3.717,0,0,1-3.087.654c-2.2-.435-2.615-1.743-2.615-1.743s-.436-.145-.29.363a4.2,4.2,0,0,0,2.833,1.743,4.885,4.885,0,0,0,3.415-.726c.508-.363-.036-.581-.255-.29" transform="translate(-119.245 -47.069)" fill="#2f2f2e"/>
        <path id="Trazado_887257" data-name="Trazado 887257" d="M222.752,50.588c-3.524,2.5-11.634,8.915-13.255,15.87-1.885,8.064,4.467,12.214,2.679,23.387-.5,3.127-4.022,8.565-13.854,15.418s-11.917,25.026-4.469,32.177,18.025,9.757,22.792,17.205c3.077,4.807,8.384,8.123,11.764,9.872.931,5.74,1.061,11.371-.539,14.751a73.276,73.276,0,0,0-5.118-128.68" transform="translate(-70.37 -18.798)" fill="#85a013"/>
        <path id="Trazado_887258" data-name="Trazado 887258" d="M317.908,124.846s-3.622,3.713-3.459,4.19,4.07.068,4.07-.068-.122-.221-.569-.153-3.012.495-3.134.119,3.195-3.73,3.358-3.968-.021-.29-.265-.119" transform="translate(-116.843 -46.354)" fill="#b75d42"/>
        <path id="Trazado_887259" data-name="Trazado 887259" d="M319.9,132.49a4.68,4.68,0,0,1-2.859.733c-1.771-.019-2.233-.329-2.3.015s1.7.608,3.155.44a3.471,3.471,0,0,0,2.5-1.1c.1-.3-.3-.254-.5-.087" transform="translate(-116.953 -49.182)" fill="#b75d42"/>
        <path id="Trazado_887260" data-name="Trazado 887260" d="M313.973,122.8a6.862,6.862,0,0,0-3.175-.59c-1.872.082-2.788.326-2.727.508s.55.021.916-.02a18.214,18.214,0,0,1,2.5-.122,17.884,17.884,0,0,1,2.381.57c.265-.021.244-.244.1-.346" transform="translate(-114.474 -45.411)" fill="#b75d42"/>
        <path id="Trazado_887261" data-name="Trazado 887261" d="M328.209,124.869a6.864,6.864,0,0,0-3.071-1c-1.867-.161-2.807-.038-2.771.151s.543.091.911.1a18.246,18.246,0,0,1,2.5.2,18,18,0,0,1,2.287.873c.265.014.274-.211.146-.33" transform="translate(-119.787 -46.002)" fill="#b75d42"/>
        <path id="Trazado_887262" data-name="Trazado 887262" d="M334.514,128.72a3.364,3.364,0,0,1,2.441-.61c1.771.061,3.114,1.282,2.625,3.662s-4.151,2.869-5.861,1.893Z" transform="translate(-124.006 -47.602)" fill="#ef9f6a"/>
        <path id="Trazado_887263" data-name="Trazado 887263" d="M335.765,131.881a3.194,3.194,0,0,1,1.873-.407c1.139.082,1.22,1.058.326,1.384s-2.443.489-2.686,0,.488-.977.488-.977" transform="translate(-124.566 -48.851)" fill="#b75d42"/>
        <path id="Trazado_887264" data-name="Trazado 887264" d="M265.535,134.487s-4.079-.914-8.841,3.541-7.5,11.914-16.057,25.35-23.214,18.174-35.688,18.92-26.889-2.781-34.052-5.179-14.563-5.107-14.563-5.107l-12.66,25.26s25.317,17.307,55.973,16.2,49.794-14.31,58.77-24.532,15.854-23.6,17.6-35.267-5.453-18.21-10.484-19.188" transform="translate(-53.387 -49.945)" fill="#068dc9"/>
        <path id="Trazado_887265" data-name="Trazado 887265" d="M323.482,95.851s-1.628-6.186,2.93-9.767,14-2.93,20.512-3.907,9.442-8.79,16.279-6.837,5.861,9.442,2.279,13.023-11.721,6.187-17.256,5.861S335.2,92.27,331.3,92.6s-4.559,4.558-4.559,4.558Z" transform="translate(-120.097 -27.879)" fill="#2f2f2e"/>
        <path id="Trazado_887266" data-name="Trazado 887266" d="M257.861,299.143s-15.79,0-40.221,1.191-51.244,1.788-51.244,1.788v1.788l91.763-2.384Z" transform="translate(-61.831 -111.158)" fill="#004b72"/>
        <path id="Trazado_887267" data-name="Trazado 887267" d="M259.092,85.493s3.3.386,5.512-1.266,2.658-6.949,2.661-10.926-.576-8.788-1.452-10.551-4.587-3.063-8.067-1.438-5.1,7.665-5.773,11.6-.987,8.314.85,10.564,6.269,2.017,6.269,2.017" transform="translate(-93.434 -22.507)" fill="#6e8403"/>
        <path id="Trazado_887268" data-name="Trazado 887268" d="M263.083,92.719,265.4,60.805l-.46-.065L262,92.668s.113.469,1.08.051" transform="translate(-97.357 -22.57)" fill="#2f2f2e"/>
        <path id="Trazado_887269" data-name="Trazado 887269" d="M262.354,71.629l-5.736-5.094-.261.333,5.883,5.317Z" transform="translate(-95.259 -24.723)" fill="#2f2f2e"/>
        <path id="Trazado_887270" data-name="Trazado 887270" d="M265.988,76.937l6.461-2.888-.016.364-6.625,3.028Z" transform="translate(-98.771 -27.516)" fill="#2f2f2e"/>
        <path id="Trazado_887271" data-name="Trazado 887271" d="M260.189,84.8l-7.483-6.089-.114.556,7.682,6.245Z" transform="translate(-93.86 -29.249)" fill="#2f2f2e"/>
        <path id="Trazado_887272" data-name="Trazado 887272" d="M264.478,90.364l7.312-3.833.05.415-7.594,3.989Z" transform="translate(-98.19 -32.154)" fill="#2f2f2e"/>
        <path id="Trazado_887273" data-name="Trazado 887273" d="M198.326,145.891s3.3.386,5.512-1.266,2.658-6.949,2.661-10.926-.576-8.789-1.452-10.552-4.587-3.062-8.067-1.438-5.1,7.665-5.773,11.6-.987,8.315.851,10.564,6.268,2.017,6.268,2.017" transform="translate(-70.854 -44.95)" fill="#6e8403"/>
        <path id="Trazado_887274" data-name="Trazado 887274" d="M202.317,153.116,204.63,121.2l-.459-.065-2.933,31.928s.113.469,1.08.051" transform="translate(-74.777 -45.013)" fill="#2f2f2e"/>
        <path id="Trazado_887275" data-name="Trazado 887275" d="M201.588,132.026l-5.736-5.094-.261.333,5.883,5.317Z" transform="translate(-72.679 -47.166)" fill="#2f2f2e"/>
        <path id="Trazado_887276" data-name="Trazado 887276" d="M205.222,137.335l6.461-2.888-.016.364-6.625,3.028Z" transform="translate(-76.191 -49.959)" fill="#2f2f2e"/>
        <path id="Trazado_887277" data-name="Trazado 887277" d="M199.423,145.2l-7.483-6.089-.114.556,7.682,6.245Z" transform="translate(-71.28 -51.692)" fill="#2f2f2e"/>
        <path id="Trazado_887278" data-name="Trazado 887278" d="M203.712,150.762l7.312-3.833.05.415-7.594,3.989Z" transform="translate(-75.61 -54.597)" fill="#2f2f2e"/>
        <path id="Trazado_887279" data-name="Trazado 887279" d="M304.9,124.411a2.866,2.866,0,0,0-2.5-.61c-1.587.3-2.442,2.686-1.465,4.151a4.448,4.448,0,0,0,3.6,1.709c.427-.122.366-5.25.366-5.25" transform="translate(-111.668 -45.98)" fill="#ef9f6a"/>
        <path id="Trazado_887280" data-name="Trazado 887280" d="M304.655,127.291s-.977-1.221-1.872-.9-.326.977.407,1.465,1.465.814,1.628.488-.163-1.058-.163-1.058" transform="translate(-112.34 -46.946)" fill="#b75d42"/>
        <path id="Trazado_887281" data-name="Trazado 887281" d="M312.295,126.725a3.717,3.717,0,0,1-3.087.654c-2.2-.435-2.615-1.743-2.615-1.743s-.436-.145-.29.363a4.2,4.2,0,0,0,2.833,1.743,4.885,4.885,0,0,0,3.415-.726c.508-.363-.036-.581-.255-.29" transform="translate(-113.806 -46.677)" fill="#2f2f2e"/>
        <path id="Trazado_887282" data-name="Trazado 887282" d="M173.482,47.122l-2.549-24.8-1.738-.116-4.636,24.916Z" transform="translate(-61.148 -8.251)" fill="#fff"/>
        <path id="Trazado_887283" data-name="Trazado 887283" d="M172.472,18.021a1.509,1.509,0,0,1,1.78,1.352c.219,1.315-.612,2.08-1.926,2.08a1.656,1.656,0,0,1-1.534-2.264,1.857,1.857,0,0,1,1.68-1.168" transform="translate(-63.424 -6.694)" fill="#fff"/>
        <path id="Trazado_887284" data-name="Trazado 887284" d="M173.315,11.9S175.89.548,176.041.668A51.776,51.776,0,0,1,177.7,6.943c-.082.3-3.789,5.566-3.789,5.566l-.686-.182Z" transform="translate(-64.368 -0.248)" fill="#fff"/>
        <path id="Trazado_887285" data-name="Trazado 887285" d="M175.587,22.021s10.546,6.335,10.469,6.451-5.717-.039-5.949-.077-5.1-5.91-5.1-5.91Z" transform="translate(-65.031 -8.183)" fill="#fff"/>
        <path id="Trazado_887286" data-name="Trazado 887286" d="M164.4,21.293s-11.37,4.7-11.417,4.567,3.436-4.569,3.605-4.733,7.784-.576,7.784-.576Z" transform="translate(-56.847 -7.636)" fill="#fff"/>
        <path id="Trazado_887287" data-name="Trazado 887287" d="M249.442,172.572l-2.549-24.8-1.738-.116-4.636,24.916Z" transform="translate(-89.374 -54.867)" fill="#fff"/>
        <path id="Trazado_887288" data-name="Trazado 887288" d="M248.433,143.471a1.51,1.51,0,0,1,1.78,1.352c.219,1.315-.612,2.08-1.926,2.08a1.656,1.656,0,0,1-1.534-2.264,1.857,1.857,0,0,1,1.68-1.168" transform="translate(-91.65 -53.309)" fill="#fff"/>
        <path id="Trazado_887289" data-name="Trazado 887289" d="M249.276,137.354S251.85,126,252,126.118a51.787,51.787,0,0,1,1.659,6.274c-.082.3-3.789,5.566-3.789,5.566l-.686-.182Z" transform="translate(-92.594 -46.864)" fill="#fff"/>
        <path id="Trazado_887290" data-name="Trazado 887290" d="M251.548,147.471s10.546,6.335,10.469,6.451-5.717-.039-5.949-.077-5.1-5.91-5.1-5.91Z" transform="translate(-93.257 -54.798)" fill="#fff"/>
        <path id="Trazado_887291" data-name="Trazado 887291" d="M240.361,146.743s-11.37,4.7-11.417,4.567,3.436-4.569,3.605-4.733,7.785-.576,7.785-.576Z" transform="translate(-85.072 -54.252)" fill="#fff"/>
        <path id="Trazado_887292" data-name="Trazado 887292" d="M127.891,71.494s3.3.386,5.512-1.266,2.658-6.949,2.661-10.926-.576-8.788-1.452-10.551-4.587-3.063-8.067-1.438-5.1,7.665-5.773,11.6-.987,8.314.851,10.564,6.268,2.017,6.268,2.017" transform="translate(-44.682 -17.305)" fill="#6e8403"/>
        <path id="Trazado_887293" data-name="Trazado 887293" d="M131.882,78.72l2.313-31.914-.459-.065L130.8,78.669s.113.469,1.08.051" transform="translate(-48.604 -17.368)" fill="#2f2f2e"/>
        <path id="Trazado_887294" data-name="Trazado 887294" d="M131.153,57.63l-5.736-5.094-.261.332,5.883,5.318Z" transform="translate(-46.506 -19.522)" fill="#2f2f2e"/>
        <path id="Trazado_887295" data-name="Trazado 887295" d="M134.787,62.939l6.461-2.888-.016.364-6.625,3.028Z" transform="translate(-50.018 -22.314)" fill="#2f2f2e"/>
        <path id="Trazado_887296" data-name="Trazado 887296" d="M128.989,70.8l-7.483-6.089-.114.556,7.682,6.245Z" transform="translate(-45.108 -24.048)" fill="#2f2f2e"/>
        <path id="Trazado_887297" data-name="Trazado 887297" d="M133.277,76.366l7.312-3.833.05.415-7.594,3.989Z" transform="translate(-49.437 -26.952)" fill="#2f2f2e"/>
        <path id="Trazado_887298" data-name="Trazado 887298" d="M287.975,163.38l-.111,7.458-1.56.136-.223-7.594Z" transform="translate(-106.304 -60.71)" fill="#772301"/>
        <path id="Trazado_887299" data-name="Trazado 887299" d="M281.928,131.675s6.975,10.557,6.133,10.715a9.949,9.949,0,0,1-2.831-.356s5.469,6,4.946,6.579-3-.366-3-.366,4.018,4.493,3.5,4.872-16.587.733-16.564.124,4.221-5.677,4.221-5.677-3.739,1.631-3.71.818,4.447-7.293,4.447-7.293-2.89,1.269-2.86.456,5.712-9.872,5.712-9.872" transform="translate(-101.858 -48.929)" fill="#265f00"/>
        <path id="Trazado_887300" data-name="Trazado 887300" d="M130.108,141.757,130,149.215l-1.56.136-.223-7.594Z" transform="translate(-47.643 -52.675)" fill="#772301"/>
        <path id="Trazado_887301" data-name="Trazado 887301" d="M124.061,110.052s6.975,10.557,6.133,10.715a9.925,9.925,0,0,1-2.831-.356s5.469,6,4.946,6.578-3-.365-3-.365,4.019,4.493,3.5,4.872-16.587.733-16.564.124,4.221-5.677,4.221-5.677-3.739,1.631-3.71.818,4.447-7.293,4.447-7.293-2.89,1.269-2.86.456,5.712-9.872,5.712-9.872" transform="translate(-43.197 -40.894)" fill="#265f00"/>
        <path id="Trazado_887302" data-name="Trazado 887302" d="M230.888,85.677l-.111,7.458-1.56.136-.223-7.594Z" transform="translate(-85.091 -31.837)" fill="#772301"/>
        <path id="Trazado_887303" data-name="Trazado 887303" d="M224.841,53.972s6.975,10.557,6.133,10.715a9.949,9.949,0,0,1-2.831-.356s5.469,6,4.946,6.579-3-.366-3-.366,4.019,4.493,3.5,4.872-16.587.733-16.564.124,4.221-5.677,4.221-5.677-3.739,1.631-3.71.818,4.447-7.293,4.447-7.293-2.889,1.269-2.86.456,5.712-9.872,5.712-9.872" transform="translate(-80.645 -20.055)" fill="#265f00"/>
      </g>
    </g>
  </g>
</svg>
