<svg xmlns="http://www.w3.org/2000/svg" width="80.841" height="84.144" viewBox="0 0 80.841 84.144">
  <g id="Grupo_1110389" data-name="Grupo 1110389" transform="translate(-4.159 -158.092)">
    <path id="Trazado_887304" data-name="Trazado 887304" d="M105.3,60.617A7.367,7.367,0,0,0,92.58,55.793l-1.526,1.622a7.7,7.7,0,0,0-2.7-2.989,8.568,8.568,0,0,0-5.924-1.334,7.565,7.565,0,0,0-1.334.328,7.69,7.69,0,0,0-8.132-3.886,8.536,8.536,0,0,0-1.854.5c.035-.972.077-1.969.12-3.008a.959.959,0,0,0,.019-.189c.045-3.809,3.67-7.729,7.247-10.4a6.184,6.184,0,0,0,4.6,2.151c2.687,0,4.7-2.05,6.65-4.045,1.608-1.641,3.27-3.338,5.372-4.063a1.047,1.047,0,0,0,.307-1.812A16.172,16.172,0,0,0,83.606,25.6a7.375,7.375,0,0,0-5.171,3.05,6.08,6.08,0,0,0-1,5.978,31.407,31.407,0,0,0-2.7,2.242,23.694,23.694,0,0,0-3.28,3.706c.035-2.064.016-4.057-.112-5.9A8.685,8.685,0,0,0,74.87,24.311c-.651-2.687-2.6-4.991-5.63-6.669a24.038,24.038,0,0,0-18.085-1.517,1.047,1.047,0,0,0-.311,1.812c2.753,2.181,4.312,5.515,5.821,8.738,2.147,4.59,4.366,9.337,10.054,9.337a8.647,8.647,0,0,0,2.573-.389c.178,3.542.005,7.622-.15,11.309-.065,1.524-.126,2.968-.164,4.365A7.531,7.531,0,0,0,67.8,52.522a1.068,1.068,0,0,0-.122.206c-.726,1.629-3.45,1.466-5.826.581a1.036,1.036,0,0,0-.478-.059,12.592,12.592,0,0,0-8.483,4.342,5.922,5.922,0,0,0-1.271,2.991,3.994,3.994,0,0,0-1.721.508A25.342,25.342,0,0,0,40,70.263l-1.889-3.321a1.049,1.049,0,0,0-1.43-.393L24.994,73.2a1.047,1.047,0,0,0-.393,1.428L38.264,98.639a1.049,1.049,0,0,0,.634.492,1.073,1.073,0,0,0,.278.037,1.048,1.048,0,0,0,.519-.138l11.692-6.653a1.047,1.047,0,0,0,.393-1.428l-1.88-3.3c4.976,0,9.206.059,12.671.108,2.493.035,4.686.065,6.636.065,14.035,0,15.559-1.521,26.1-13.205,2.247-2.49,4.794-5.313,8-8.726a7.311,7.311,0,0,0,1.988-5.271ZM79.378,31.19a3.991,3.991,0,0,1,.709-1.245.983.983,0,0,0,.08-.11,5.465,5.465,0,0,1,3.792-2.168,10.562,10.562,0,0,1,1.753-.14,14.879,14.879,0,0,1,6.943,1.809,21.967,21.967,0,0,0-4.394,3.743c-2.46,2.51-4.087,4.007-6.451,3.176a3.946,3.946,0,0,1-1.573-1.021,18.366,18.366,0,0,1,3.708-1.917,1.047,1.047,0,1,0-.674-1.983,20.107,20.107,0,0,0-4.019,2.048A3.943,3.943,0,0,1,79.378,31.19ZM66.721,33.915c-4.354,0-6.032-3.588-8.156-8.129a29.819,29.819,0,0,0-4.979-8.176,21.941,21.941,0,0,1,14.642,1.865c1.76.974,3.991,2.7,4.619,5.379a1.249,1.249,0,0,0,.04.131,6.593,6.593,0,0,1-1.793,7.264c-.545-3.877-1.789-6.756-4.387-7.64a1.047,1.047,0,0,0-.674,1.983c1.849.628,2.725,3.314,3.1,6.865A6.578,6.578,0,0,1,66.721,33.915ZM61.363,55.359c3.846,1.358,7.02.718,8.172-1.657a5.775,5.775,0,0,1,3.754-2.1c2.811-.433,5.55,1.112,6.236,3.52a1.048,1.048,0,0,0,1.55.609,4.489,4.489,0,0,1,1.678-.571,6.446,6.446,0,0,1,4.455,1.014A5.28,5.28,0,0,1,89.471,59.1l-5.517,5.864a7.386,7.386,0,0,0-6.9-4.757l-23.31.337a4.172,4.172,0,0,1,.81-1.678,10.552,10.552,0,0,1,6.812-3.507ZM39.568,96.693,26.942,74.5l9.871-5.616L49.439,91.075Zm62.219-32.24c-3.226,3.429-5.892,6.383-8.034,8.757-5.787,6.412-8.692,9.632-12.46,11.14-3.8,1.521-8.776,1.451-18.694,1.309-3.747-.054-8.383-.119-13.891-.106L41.2,72.363a23.277,23.277,0,0,1,9.707-9.44,1.964,1.964,0,0,1,.974-.258L77.07,62.3a5.271,5.271,0,1,1,0,10.541H64.687a1.047,1.047,0,0,0,0,2.095H77.07a7.374,7.374,0,0,0,7.366-7.366c0-.019,0-.04,0-.059l9.675-10.285a5.272,5.272,0,0,1,7.678,7.226Z" transform="translate(-20.305 143.068)" fill="#87a771"/>
  </g>
</svg>
