<svg xmlns="http://www.w3.org/2000/svg" width="74.5" height="74.452" viewBox="0 0 74.5 74.452">
  <g id="Grupo_1112772" data-name="Grupo 1112772" transform="translate(-1.906 -2)">
    <path id="Trazado_887563" data-name="Trazado 887563" d="M125.2,132.769v-5.187a.637.637,0,0,0-1.274,0v5.187h-1.848a2.765,2.765,0,0,0-2.762,2.762v6.725a9.171,9.171,0,0,0,8.564,9.136,13.031,13.031,0,0,0,24.55-3.769,5.911,5.911,0,0,0,5.59-5.891v-.044c.01-.809.015-1.249,0-1.509a.064.064,0,0,1,0-.007A13.623,13.623,0,0,1,161,132.045a11.941,11.941,0,0,0-1.035-16.268,11.6,11.6,0,0,0-8.757-3.154,11.89,11.89,0,0,0-8.379,19.314,13.1,13.1,0,0,1,3.069,8.132c-.027.241-.022.683-.011,1.618v.04a5.918,5.918,0,0,0,5.262,5.873,11.758,11.758,0,0,1-21.83,3.779,9.176,9.176,0,0,0,8.339-9.125V135.53a2.765,2.765,0,0,0-2.762-2.762h-1.926v-5.187a.637.637,0,1,0-1.274,0v5.187H125.2Zm16.278-8.782a10.63,10.63,0,0,1,9.8-10.091,10.328,10.328,0,0,1,7.8,2.811,10.667,10.667,0,0,1,.925,14.528,14.8,14.8,0,0,0-3.227,8.276h-4.195v-8.693a3.759,3.759,0,1,0-1.275,0v8.693h-4.162a14.473,14.473,0,0,0-3.336-8.372A10.652,10.652,0,0,1,141.483,123.987Zm10.472,5.615h0a2.484,2.484,0,1,1,2.486-2.484A2.487,2.487,0,0,1,151.952,129.6Zm-4.8,12.126v-.055c0-.391-.007-.677-.008-.888h9.609c0,.21,0,.5-.008.888v.057a4.637,4.637,0,0,1-4.488,4.628.623.623,0,0,0-.734-.006A4.638,4.638,0,0,1,147.158,141.728Zm-10.778-6.2v6.725a7.892,7.892,0,1,1-15.785,0v-6.725a1.489,1.489,0,0,1,1.487-1.487h2.452c.011,0,.022,0,.033,0s.022,0,.033,0h7.7c.011,0,.022,0,.033,0s.022,0,.033,0h2.531A1.489,1.489,0,0,1,136.38,135.531Z" transform="translate(-87.804 -82.686)" fill="#87a771" stroke="#86a770" stroke-width="1"/>
    <path id="Trazado_887564" data-name="Trazado 887564" d="M225.587,36.924a7.43,7.43,0,1,0-7.43-7.43A7.438,7.438,0,0,0,225.587,36.924Zm0-13.585a6.155,6.155,0,1,1-6.155,6.156A6.162,6.162,0,0,1,225.587,23.338Z" transform="translate(-162.031 -14.693)" fill="#87a771" stroke="#86a770" stroke-width="1"/>
    <path id="Trazado_887565" data-name="Trazado 887565" d="M283.639,50.619h2.311a.637.637,0,0,0,0-1.274h-2.311a.637.637,0,0,0,0,1.274Z" transform="translate(-210.73 -35.181)" fill="#87a771" stroke="#86a770" stroke-width="1"/>
    <path id="Trazado_887566" data-name="Trazado 887566" d="M199.23,50.619h2.311a.637.637,0,1,0,0-1.274H199.23a.637.637,0,0,0,0,1.274Z" transform="translate(-147.338 -35.181)" fill="#87a771" stroke="#86a770" stroke-width="1"/>
    <path id="Trazado_887567" data-name="Trazado 887567" d="M245.016,87.548v2.31a.637.637,0,1,0,1.274,0v-2.31a.637.637,0,1,0-1.274,0Z" transform="translate(-182.202 -63.393)" fill="#87a771" stroke="#86a770" stroke-width="1"/>
    <path id="Trazado_887568" data-name="Trazado 887568" d="M245.654,6.085a.637.637,0,0,0,.637-.637V3.137a.637.637,0,1,0-1.274,0v2.31A.637.637,0,0,0,245.654,6.085Z" transform="translate(-182.203)" fill="#87a771" stroke="#86a770" stroke-width="1"/>
    <path id="Trazado_887569" data-name="Trazado 887569" d="M213.712,76.094l-1.634,1.634a.637.637,0,1,0,.9.9L214.613,77a.637.637,0,1,0-.9-.9Z" transform="translate(-157.325 -55.13)" fill="#87a771" stroke="#86a770" stroke-width="1"/>
    <path id="Trazado_887570" data-name="Trazado 887570" d="M272.216,19.128a.635.635,0,0,0,.451-.187l1.634-1.634a.637.637,0,1,0-.9-.9l-1.634,1.634a.637.637,0,0,0,.45,1.088Z" transform="translate(-202.151 -10.303)" fill="#87a771" stroke="#86a770" stroke-width="1"/>
    <path id="Trazado_887571" data-name="Trazado 887571" d="M213.712,18.941a.637.637,0,1,0,.9-.9l-1.634-1.634a.637.637,0,1,0-.9.9Z" transform="translate(-157.326 -10.303)" fill="#87a771" stroke="#86a770" stroke-width="1"/>
    <path id="Trazado_887572" data-name="Trazado 887572" d="M272.667,76.094a.637.637,0,0,0-.9.9l1.634,1.634a.637.637,0,1,0,.9-.9Z" transform="translate(-202.151 -55.129)" fill="#87a771" stroke="#86a770" stroke-width="1"/>
    <path id="Trazado_887573" data-name="Trazado 887573" d="M9.864,76.409H42.329a.637.637,0,0,0,0-1.274H9.864a3.653,3.653,0,0,1-3.169-1.875,23.577,23.577,0,0,1,3.855-28.168H23.318a4.548,4.548,0,0,1,0,9.1H21.206a5.822,5.822,0,1,0,0,11.644h8.711a.637.637,0,1,0,0-1.274H21.206a4.548,4.548,0,0,1,0-9.1h2.113a5.822,5.822,0,1,0,0-11.644h-11.4a23.038,23.038,0,0,1,8.293-4.542l.025-.008A23.095,23.095,0,0,1,41.3,43.355a.637.637,0,0,0,.8-.995,24.457,24.457,0,0,0-5.669-3.4V34.57h6.513a.763.763,0,0,0,.752-.891l-1.88-11.1a.76.76,0,0,0-.753-.639H26.338a.762.762,0,0,0-.758.671l-1.36,11.1a.763.763,0,0,0,.757.859h6.563v2.894a24.589,24.589,0,0,0-4.652-.445,24.245,24.245,0,0,0-6.215.809L20,19.348a3.32,3.32,0,0,0,1.085-1.13l10.006.774c.047,0,.095.005.141.005a1.784,1.784,0,0,0,.18-3.558l-9.462-1.981a.69.69,0,0,0-.081-.012,4.142,4.142,0,0,0-1.835.281,3.375,3.375,0,0,0-2.091-.542L13.456,4.1a1.784,1.784,0,0,0-3.218,1.539l3.128,9.148a.614.614,0,0,0,.032.076,4.128,4.128,0,0,0,1.435,1.614,3.331,3.331,0,0,0,.331,1.513c.04.083.085.162.131.24l-5.152,8.136a1.784,1.784,0,0,0,2.989,1.948l3.108-3.738-.576,15.188a24.53,24.53,0,0,0-5.52,3.93c-.058.055-.37.469-.515.513A24.849,24.849,0,0,0,5.584,73.885a4.928,4.928,0,0,0,4.279,2.524ZM36.2,28.664l.415,4.631h-5.6l.3-4.631ZM31.4,27.39l.27-4.175h4.043l.374,4.175ZM37.9,33.3l-.415-4.631h4.072l.785,4.631Zm3.441-5.906H37.367l-.374-4.175h3.636ZM26.791,23.215h3.6l-.27,4.175H26.28Zm-.668,5.449H30.04l-.3,4.631H25.556Zm6.692,5.963h2.34v3.828a23.886,23.886,0,0,0-2.34-.713Zm-16.5-17.191a2.084,2.084,0,0,1,.966-2.78,2.054,2.054,0,0,1,.409-.146.608.608,0,0,0,.072-.016,2.053,2.053,0,0,1,.422-.046,2.075,2.075,0,0,1,1.875,1.174,2.081,2.081,0,0,1-3.746,1.815Zm5.419-2.721,9.455,1.98a.689.689,0,0,0,.081.012.508.508,0,0,1,.292.894.52.52,0,0,1-.384.121l-9.664-.748a3.334,3.334,0,0,0-.306-1.907h0a3.443,3.443,0,0,0-.169-.307,2.87,2.87,0,0,1,.694-.044Zm-10.3-9.522a.575.575,0,0,0-.032-.076.513.513,0,0,1,.231-.682.5.5,0,0,1,.388-.024.517.517,0,0,1,.3.268l4.368,8.847a3.337,3.337,0,0,0-1.544,1.585,2.866,2.866,0,0,1-.587-.776Zm.7,22.335a.6.6,0,0,0-.048.066.511.511,0,0,1-.7.158.5.5,0,0,1-.223-.319.514.514,0,0,1,.073-.4l4.951-7.819a3.375,3.375,0,0,0,2.008.667c.081,0,.162-.008.243-.014-.038.077-.078.153-.123.227ZM18.8,21.5l.611,16.7a24.114,24.114,0,0,0-2.449.942l.613-16.17Z" transform="translate(0 -0.456)" fill="#87a771" stroke="#86a770" stroke-width="1"/>
  </g>
</svg>
