<svg xmlns="http://www.w3.org/2000/svg" width="50.524" height="51.129" viewBox="0 0 50.524 51.129">
  <g id="Grupo_1112773" data-name="Grupo 1112773" transform="translate(-19.673 -19.201)">
    <path id="Trazado_887574" data-name="Trazado 887574" d="M59.045,52.108l7.111,6.1a.636.636,0,0,0,.7.083,3.673,3.673,0,0,0,1.408-1.9.636.636,0,0,0-.119-.627l-8.016-9.267a2.878,2.878,0,0,0-.1-1.707L61.595,42.8a.634.634,0,0,0,.125-.276L63.7,31.975a.636.636,0,0,0-.28-.651,3.673,3.673,0,0,0-2.35-.269.636.636,0,0,0-.484.416L56.565,43.045a2.858,2.858,0,0,0-1.088.587,2.894,2.894,0,0,0-.342.355l-2.5-.359a.636.636,0,0,0-.3.03L42.21,47.221a.636.636,0,0,0-.424.568,3.671,3.671,0,0,0,.942,2.169.635.635,0,0,0,.6.211l12.032-2.308a2.846,2.846,0,0,0,.477.372L54.9,69.058H37.277l-1.3-28.68c.1-.058.2-.118.294-.186a3.671,3.671,0,0,0,.572-.5l3.463.848a.635.635,0,0,0,.3,0l14.174-3.48a.635.635,0,0,0,.477-.524,4.881,4.881,0,0,0-.948-2.9.631.631,0,0,0-.579-.269L37.022,34.91a3.639,3.639,0,0,0-2.056-1.292l-1-3.424a.636.636,0,0,0-.151-.262L23.717,19.4a.636.636,0,0,0-.692-.151,4.882,4.882,0,0,0-2.034,2.269.636.636,0,0,0,.057.636l9.688,13.7a3.707,3.707,0,0,0-.2.725,3.654,3.654,0,0,0,.11,1.7l-2.466,2.575a.637.637,0,0,0-.151.262L23.953,55.133a.636.636,0,0,0,.215.675,4.236,4.236,0,0,0,2.478.646c.26,0,.447-.014.5-.019a.636.636,0,0,0,.522-.367l4.372-9.489-1.018,22.48H19.673V70.33H69.561V69.058H59.813ZM43.479,48.846a3.446,3.446,0,0,1-.335-.606l9.463-3.331,1.948.28a2.9,2.9,0,0,0-.061.406,2.863,2.863,0,0,0,.138,1.112ZM37.662,36.128l15.8-1.456a4.364,4.364,0,0,1,.522,1.274L40.459,39.268l-2.9-.71a3.687,3.687,0,0,0,.1-2.429ZM34.146,34.8a2.425,2.425,0,0,1,.41.035,2.388,2.388,0,1,1-.41-.035ZM22.31,21.734a4.46,4.46,0,0,1,.843-1.089L32.792,30.7l.834,2.864a3.653,3.653,0,0,0-1.595.638,3.705,3.705,0,0,0-.561.489Zm4.371,33.449A4.449,4.449,0,0,1,25.317,55L29.2,41.623l2.064-2.155a3.639,3.639,0,0,0,2.053,1.3ZM32.3,69.058l1.157-25.543,1.238-2.688.031,0L36,69.058Zm29.354-36.8a3.422,3.422,0,0,1,.692.013L60.5,42.135l-1.216,1.547a2.835,2.835,0,0,0-1.355-.688ZM55.762,45.686A1.6,1.6,0,0,1,57.351,44.2q.058,0,.117,0a1.6,1.6,0,1,1-1.321,2.636h0A1.585,1.585,0,0,1,55.762,45.686Zm.406,23.373.9-19.982.634,1.582.833,18.4H56.168Zm2.055-20.529A2.764,2.764,0,0,0,59.5,47.7l7.432,8.592a3.454,3.454,0,0,1-.357.593l-7.616-6.53Z" transform="translate(0 0)" fill="#006398"/>
    <path id="Trazado_887575" data-name="Trazado 887575" d="M151.509,23.368a2.9,2.9,0,0,1-5.793,0h-1.271a4.168,4.168,0,1,0,4.2-4.167H127.086v1.271h21.527a2.9,2.9,0,0,1,2.9,2.9Z" transform="translate(-82.583)" fill="#006398"/>
    <path id="Trazado_887576" data-name="Trazado 887576" d="M102.226,42.8a2.9,2.9,0,0,1-5.792,0H95.162a4.168,4.168,0,1,0,4.2-4.167H77.8V39.9H99.33A2.9,2.9,0,0,1,102.226,42.8Z" transform="translate(-44.693 -14.938)" fill="#006398"/>
    <path id="Trazado_887577" data-name="Trazado 887577" d="M93.093,58.187h8.376v1.271H93.093Z" transform="translate(-56.448 -29.974)" fill="#006398"/>
  </g>
</svg>
