<svg xmlns="http://www.w3.org/2000/svg" width="51.069" height="46.281" viewBox="0 0 51.069 46.281">
  <g id="Grupo_1112774" data-name="Grupo 1112774" transform="translate(0 -3)">
    <path id="Trazado_887578" data-name="Trazado 887578" d="M50.271,3H26.532A.8.8,0,0,0,25.8,4.105l2.867,6.881-1.475,3.687a.8.8,0,0,0,.262.934l2.731,2.049-1.345,4.036-4.389,3.84,1.068-4.8a.8.8,0,0,0-.215-.737L22.548,17.24l2.075-3.455a.8.8,0,0,0-.12-.975l-1.987-1.987,1.343-2.678a.8.8,0,0,0,0-.713l-1.995-3.99A.8.8,0,0,0,21.146,3H.8a.8.8,0,0,0-.8.8V48.484a.8.8,0,0,0,.8.8H50.271a.8.8,0,0,0,.8-.8V3.8A.8.8,0,0,0,50.271,3ZM1.6,4.6H20.653l1.6,3.192H1.6Zm47.878,43.09H1.6V41.35a5.178,5.178,0,0,1,1.933.662,6.623,6.623,0,0,0,3.454.886,6.638,6.638,0,0,0,3.462-.887,5.082,5.082,0,0,1,2.731-.709,5.057,5.057,0,0,1,2.722.709,6.638,6.638,0,0,0,3.462.887,6.609,6.609,0,0,0,3.454-.887,5.062,5.062,0,0,1,2.722-.709,5.062,5.062,0,0,1,2.722.709,7.182,7.182,0,0,0,6.917,0,5.6,5.6,0,0,1,5.452,0,7.189,7.189,0,0,0,6.915,0,5.178,5.178,0,0,1,1.933-.661Zm0-7.939a6.677,6.677,0,0,0-2.664.847,5.6,5.6,0,0,1-5.452,0,7.189,7.189,0,0,0-6.915,0,5.593,5.593,0,0,1-5.452,0,6.606,6.606,0,0,0-3.454-.887,6.606,6.606,0,0,0-3.454.887,5.062,5.062,0,0,1-2.722.709,5.072,5.072,0,0,1-2.731-.71,6.623,6.623,0,0,0-3.454-.886,6.638,6.638,0,0,0-3.462.887,5.084,5.084,0,0,1-2.731.709,5.057,5.057,0,0,1-2.722-.709A6.677,6.677,0,0,0,1.6,39.747V36.562a5.178,5.178,0,0,1,1.933.662,6.623,6.623,0,0,0,3.454.886,6.638,6.638,0,0,0,3.462-.887,5.082,5.082,0,0,1,2.731-.709,5.057,5.057,0,0,1,2.722.709,6.638,6.638,0,0,0,3.462.887,6.609,6.609,0,0,0,3.454-.887,5.062,5.062,0,0,1,2.722-.709,5.062,5.062,0,0,1,2.722.709,7.182,7.182,0,0,0,6.917,0,5.6,5.6,0,0,1,5.452,0,7.189,7.189,0,0,0,6.915,0,5.178,5.178,0,0,1,1.933-.661Zm0-4.788a6.677,6.677,0,0,0-2.664.847,5.6,5.6,0,0,1-5.452,0,7.189,7.189,0,0,0-6.915,0,5.593,5.593,0,0,1-5.452,0,6.606,6.606,0,0,0-3.454-.887,6.606,6.606,0,0,0-3.454.887,5.062,5.062,0,0,1-2.722.709,5.072,5.072,0,0,1-2.731-.71,6.623,6.623,0,0,0-3.454-.886,6.638,6.638,0,0,0-3.462.887,5.084,5.084,0,0,1-2.731.709,5.057,5.057,0,0,1-2.722-.709A6.677,6.677,0,0,0,1.6,34.959V31.767a5.154,5.154,0,0,1,1.933.665,6.623,6.623,0,0,0,3.454.89,6.638,6.638,0,0,0,3.462-.887,5.082,5.082,0,0,1,2.731-.709,5.057,5.057,0,0,1,2.722.709,6.638,6.638,0,0,0,3.462.887,6.609,6.609,0,0,0,3.454-.887,5.062,5.062,0,0,1,2.722-.709,5.062,5.062,0,0,1,2.722.709,7.182,7.182,0,0,0,6.917,0,5.6,5.6,0,0,1,5.452,0,7.189,7.189,0,0,0,6.915,0,5.154,5.154,0,0,1,1.933-.664Zm0-17.715-4.451-.638-4.614-3.845a.8.8,0,0,0-.921-.072l-3.456,2.075L33.28,12.012a.8.8,0,1,0-1.128,1.128L35,15.984l-.638,1.926a.8.8,0,0,0,.505,1.009h0a.8.8,0,0,0,1.009-.505l.7-2.114,3.25-1.95,4.353,3.627a.8.8,0,0,0,.4.177l4.9.7V30.171a6.677,6.677,0,0,0-2.664.847,5.6,5.6,0,0,1-5.452,0,7.189,7.189,0,0,0-6.915,0,5.593,5.593,0,0,1-5.452,0,6.606,6.606,0,0,0-3.454-.887,6.606,6.606,0,0,0-3.454.887,5.062,5.062,0,0,1-2.722.709,5.072,5.072,0,0,1-2.731-.71,6.623,6.623,0,0,0-3.454-.886,6.638,6.638,0,0,0-3.462.887,5.084,5.084,0,0,1-2.731.709,5.057,5.057,0,0,1-2.722-.709A6.677,6.677,0,0,0,1.6,30.171V19.452l5.528-2.764,3.7,2.467L8.937,21.672a.8.8,0,0,0,.16,1.117h0a.8.8,0,0,0,1.117-.16l2.26-3.013,3.2-1.277L19.3,23.416a.8.8,0,0,0,1.3-.927L16.609,16.9a.8.8,0,0,0-.946-.278l-3.6,1.436L8.326,15.57l1.888-2.516a.8.8,0,0,0-.16-1.117h0a.8.8,0,0,0-1.117.16L6.656,15.139,1.6,17.668V9.384H21.451l-.619,1.239a.8.8,0,0,0,.149.921L22.934,13.5l-2.075,3.455a.8.8,0,0,0,.12.975l2.88,2.882-1.5,6.754a.8.8,0,0,0,1.3.774l6.384-5.586a.8.8,0,0,0,.231-.349l1.6-4.788a.8.8,0,0,0-.274-.891L28.9,14.7l1.368-3.422a.8.8,0,0,0,0-.6l-.541-1.289H49.473Zm0-9.457H29.059L27.729,4.6H49.473Z" transform="translate(0 0)" fill="#006398"/>
    <path id="Trazado_887579" data-name="Trazado 887579" d="M54.394,30.788A2.394,2.394,0,1,0,52,28.394,2.394,2.394,0,0,0,54.394,30.788Zm0-3.192a.8.8,0,1,1-.8.8A.8.8,0,0,1,54.394,27.6Z" transform="translate(-10.506 -4.647)" fill="#006398"/>
    <path id="Trazado_887580" data-name="Trazado 887580" d="M6.394,29a2.394,2.394,0,1,0,2.394,2.394A2.394,2.394,0,0,0,6.394,29Zm0,3.192a.8.8,0,1,1,.8-.8A.8.8,0,0,1,6.394,32.192Z" transform="translate(-0.808 -5.253)" fill="#006398"/>
    <ellipse id="Elipse_11492" data-name="Elipse 11492" cx="0.837" cy="1.674" rx="0.837" ry="1.674" transform="translate(14.657 11.079)" fill="#006398"/>
    <path id="Trazado_887581" data-name="Trazado 887581" d="M39.355,31.856h0a.8.8,0,0,0,1.107-.221l1.6-2.394a.8.8,0,0,0-.221-1.107h0a.8.8,0,0,0-1.107.221l-1.6,2.394A.8.8,0,0,0,39.355,31.856Z" transform="translate(-7.88 -5.051)" fill="#006398"/>
    <path id="Trazado_887582" data-name="Trazado 887582" d="M56.83,15.958a.8.8,0,1,0,1.128-1.128l-1.6-1.6a.8.8,0,1,0-1.128,1.128Z" transform="translate(-11.112 -2.02)" fill="#006398"/>
    <path id="Trazado_887583" data-name="Trazado 887583" d="M20.362,29.234a.8.8,0,1,0-1.128,1.128l1.6,1.6a.8.8,0,1,0,1.128-1.128Z" transform="translate(-3.839 -5.253)" fill="#006398"/>
  </g>
</svg>
