<svg xmlns="http://www.w3.org/2000/svg" xmlns:xlink="http://www.w3.org/1999/xlink" width="295" height="246" viewBox="0 0 295 246">
  <defs>
    <clipPath id="clip-path">
      <rect id="Rectángulo_408670" data-name="Rectángulo 408670" width="271.524" height="213.902" fill="none"/>
    </clipPath>
    <clipPath id="clip-path-3">
      <rect id="Rectángulo_408666" data-name="Rectángulo 408666" width="13.364" height="11.5" fill="none"/>
    </clipPath>
    <clipPath id="clip-path-4">
      <rect id="Rectángulo_408667" data-name="Rectángulo 408667" width="9.286" height="12.489" fill="none"/>
    </clipPath>
    <clipPath id="clip-path-5">
      <rect id="Rectángulo_408668" data-name="Rectángulo 408668" width="11.762" height="5.017" fill="none"/>
    </clipPath>
  </defs>
  <g id="Grupo_1113244" data-name="Grupo 1113244" transform="translate(-1053 -14636.133)">
    <rect id="Rectángulo_35929" data-name="Rectángulo 35929" width="295" height="246" rx="20" transform="translate(1053 14636.133)" fill="#edf5e8"/>
    <g id="Grupo_1112789" data-name="Grupo 1112789" transform="translate(1063.477 14668.23)">
      <g id="Grupo_1112788" data-name="Grupo 1112788" clip-path="url(#clip-path)">
        <g id="Grupo_1112787" data-name="Grupo 1112787" transform="translate(0 0)">
          <g id="Grupo_1112786" data-name="Grupo 1112786" clip-path="url(#clip-path)">
            <path id="Trazado_887584" data-name="Trazado 887584" d="M1976.821,2197.562c0-.229.282-.435.854-.537l1.449-.033c.577.074.813.243.877.461.068.236-.261.491-.835.608l-1.479.034c-.58-.094-.866-.294-.867-.533" transform="translate(-1851.995 -2058.263)" fill="#bbcaea"/>
            <path id="Trazado_887585" data-name="Trazado 887585" d="M1774.229,2153.9c.228,0,.435.569.529,1.721v.934l.94.015c1.148.113,1.714.328,1.711.562s-.576.426-1.729.508l-1.993-.031v-1.987c.1-1.152.3-1.721.541-1.721" transform="translate(-1661.688 -2017.893)" fill="#bbcaea"/>
            <path id="Trazado_887586" data-name="Trazado 887586" d="M1774.229,1954.766c.228,0,.435.562.529,1.7v2.889c-.095,1.136-.3,1.7-.535,1.7s-.435-.562-.535-1.7v-2.889c.1-1.137.3-1.7.541-1.7" transform="translate(-1661.688 -1831.332)" fill="#bbcaea"/>
            <path id="Trazado_887587" data-name="Trazado 887587" d="M1774.229,1755.631c.228,0,.435.562.529,1.7v2.89c-.095,1.136-.3,1.7-.535,1.7s-.435-.562-.535-1.7v-2.89c.1-1.137.3-1.7.541-1.7" transform="translate(-1661.688 -1644.772)" fill="#bbcaea"/>
            <path id="Trazado_887588" data-name="Trazado 887588" d="M1774.229,1556.5c.228,0,.435.562.529,1.7v2.89c-.095,1.136-.3,1.7-.535,1.7s-.435-.562-.535-1.7v-2.89c.1-1.137.3-1.7.541-1.7" transform="translate(-1661.688 -1458.211)" fill="#bbcaea"/>
            <path id="Trazado_887589" data-name="Trazado 887589" d="M1774.229,1357.362c.228,0,.435.562.529,1.7v2.89c-.095,1.136-.3,1.7-.535,1.7s-.435-.562-.535-1.7v-2.89c.1-1.137.3-1.7.541-1.7" transform="translate(-1661.688 -1271.652)" fill="#bbcaea"/>
            <path id="Trazado_887590" data-name="Trazado 887590" d="M1774.229,1158.227c.228,0,.435.562.529,1.7v2.89c-.095,1.136-.3,1.7-.535,1.7s-.435-.562-.535-1.7v-2.89c.1-1.137.3-1.7.541-1.7" transform="translate(-1661.688 -1085.091)" fill="#bbcaea"/>
            <path id="Trazado_887591" data-name="Trazado 887591" d="M1774.229,959.094c.228,0,.435.562.529,1.7v2.89c-.095,1.136-.3,1.7-.535,1.7s-.435-.562-.535-1.7v-2.89c.1-1.137.3-1.7.541-1.7" transform="translate(-1661.688 -898.532)" fill="#bbcaea"/>
            <path id="Trazado_887592" data-name="Trazado 887592" d="M1731.771,801.191c0-.228.569-.435,1.72-.529h2v2c-.095,1.15-.3,1.719-.535,1.719s-.435-.569-.535-1.719v-.928h-.927c-1.151-.1-1.72-.3-1.72-.541" transform="translate(-1622.418 -750.104)" fill="#bbcaea"/>
            <path id="Trazado_887593" data-name="Trazado 887593" d="M1545.9,801.191c0-.228.525-.435,1.586-.529h2.7c1.06.095,1.585.3,1.585.535s-.525.435-1.585.535h-2.7c-1.061-.1-1.586-.3-1.586-.541" transform="translate(-1448.283 -750.104)" fill="#bbcaea"/>
            <path id="Trazado_887594" data-name="Trazado 887594" d="M1360.027,801.191c0-.228.525-.435,1.586-.529h2.7c1.06.095,1.585.3,1.585.535s-.525.435-1.585.535h-2.7c-1.061-.1-1.586-.3-1.586-.541" transform="translate(-1274.148 -750.104)" fill="#bbcaea"/>
            <path id="Trazado_887595" data-name="Trazado 887595" d="M1216.7,801.191c0-.228.285-.435.86-.529h1.462c.575.095.859.3.859.535s-.285.435-.859.535h-1.462c-.575-.1-.86-.3-.86-.541" transform="translate(-1139.872 -750.104)" fill="#bbcaea"/>
            <rect id="Rectángulo_408656" data-name="Rectángulo 408656" width="5.141" height="6.453" transform="translate(130.73 58.735)" fill="#4a5258"/>
            <path id="Trazado_887596" data-name="Trazado 887596" d="M2029.732,321.045l-3.3,6.743H2021.3l-3.307-6.743,3.54-31.774a2.352,2.352,0,0,1,2.328-2.087h.008a2.34,2.34,0,0,1,2.328,2.087Z" transform="translate(-1890.562 -269.05)" fill="#99cae5"/>
            <path id="Trazado_887597" data-name="Trazado 887597" d="M2116.916,321.045l-3.3,6.743h-2.569v-40.6a2.341,2.341,0,0,1,2.328,2.087Z" transform="translate(-1977.746 -269.05)" fill="#007cbe"/>
            <rect id="Rectángulo_408657" data-name="Rectángulo 408657" width="6.453" height="5.141" transform="matrix(0.866, -0.5, 0.5, 0.866, 123.928, 70.517)" fill="#4a5258"/>
            <path id="Trazado_887598" data-name="Trazado 887598" d="M1457.877,1121.17l-4.182,6.229-29.285,12.82a2.336,2.336,0,0,1-2.97-.971.008.008,0,0,0-.008-.008,2.336,2.336,0,0,1,.65-3.059l25.737-18.953,7.49-.514,1.285,2.232Z" transform="translate(-1331.382 -1046.2)" fill="#99cae5"/>
            <path id="Trazado_887599" data-name="Trazado 887599" d="M1456.592,1118.947l-35.161,20.294a2.336,2.336,0,0,1,.65-3.059l25.737-18.953,7.49-.514Z" transform="translate(-1331.382 -1046.2)" fill="#007cbe"/>
            <rect id="Rectángulo_408658" data-name="Rectángulo 408658" width="5.141" height="6.453" transform="matrix(0.5, -0.866, 0.866, 0.5, 134.514, 71.743)" fill="#4a5258"/>
            <path id="Trazado_887600" data-name="Trazado 887600" d="M2255.375,1138.8a2.4,2.4,0,0,1-.193.441,2.334,2.334,0,0,1-2.978.971l-29.285-12.812-4.191-6.229,1.285-2.224,1.284-2.232,7.49.514,25.745,18.945a2.347,2.347,0,0,1,.843,2.625" transform="translate(-2078.627 -1046.2)" fill="#99cae5"/>
            <path id="Trazado_887601" data-name="Trazado 887601" d="M2274.432,1138.8l-.2.441-35.161-20.294,1.284-2.232,7.49.514,25.745,18.945a2.347,2.347,0,0,1,.843,2.625" transform="translate(-2097.684 -1046.2)" fill="#007cbe"/>
            <path id="Trazado_887602" data-name="Trazado 887602" d="M2063.562,1026.29H2060l-1.511,44.536h6.586Z" transform="translate(-1928.504 -961.485)" fill="#99cae5"/>
            <path id="Trazado_887603" data-name="Trazado 887603" d="M2029.821,1731.591h-6.586l-2.376,5.62H2032.2Z" transform="translate(-1893.251 -1622.25)" fill="#bbcaea"/>
            <path id="Trazado_887604" data-name="Trazado 887604" d="M2005.639,1918.741h-15.177l1.919-98.153h11.338Z" transform="translate(-1864.774 -1705.627)" fill="#99cae5"/>
            <path id="Trazado_887605" data-name="Trazado 887605" d="M2037.78,999.523a5.293,5.293,0,1,1-5.293-5.293,5.293,5.293,0,0,1,5.293,5.293" transform="translate(-1899.186 -931.449)" fill="#e4ecf9"/>
            <path id="Trazado_887606" data-name="Trazado 887606" d="M2065.791,1029.559a3.269,3.269,0,1,1-3.269-3.269,3.269,3.269,0,0,1,3.269,3.269" transform="translate(-1929.221 -961.485)" fill="#4a5258"/>
            <rect id="Rectángulo_408659" data-name="Rectángulo 408659" width="4.353" height="5.465" transform="translate(222.118 76.606)" fill="#4a5258"/>
            <path id="Trazado_887607" data-name="Trazado 887607" d="M3483.215,697.381l-2.794,5.71h-4.351l-2.8-5.71,3-26.906a1.991,1.991,0,0,1,1.971-1.767h.007a1.982,1.982,0,0,1,1.971,1.767Z" transform="translate(-3253.95 -626.483)" fill="#99cae5"/>
            <path id="Trazado_887608" data-name="Trazado 887608" d="M3557.041,697.381l-2.794,5.71h-2.175V668.708a1.982,1.982,0,0,1,1.971,1.767Z" transform="translate(-3327.776 -626.483)" fill="#007cbe"/>
            <rect id="Rectángulo_408660" data-name="Rectángulo 408660" width="5.465" height="4.353" transform="translate(216.357 86.583) rotate(-30)" fill="#4a5258"/>
            <path id="Trazado_887609" data-name="Trazado 887609" d="M2998.974,1374.917l-3.542,5.275-24.8,10.856a1.978,1.978,0,0,1-2.515-.823.007.007,0,0,0-.007-.007,1.978,1.978,0,0,1,.551-2.59l21.794-16.049,6.342-.435,1.088,1.89Z" transform="translate(-2780.443 -1284.563)" fill="#99cae5"/>
            <path id="Trazado_887610" data-name="Trazado 887610" d="M2997.887,1373.034l-29.774,17.185a1.978,1.978,0,0,1,.551-2.59l21.794-16.049,6.342-.435Z" transform="translate(-2780.443 -1284.563)" fill="#007cbe"/>
            <rect id="Rectángulo_408661" data-name="Rectángulo 408661" width="4.353" height="5.465" transform="translate(225.322 87.621) rotate(-60)" fill="#4a5258"/>
            <path id="Trazado_887611" data-name="Trazado 887611" d="M3674.285,1389.845a2,2,0,0,1-.163.374,1.977,1.977,0,0,1-2.522.823l-24.8-10.849-3.548-5.275,1.088-1.883,1.088-1.89,6.342.435,21.8,16.043a1.987,1.987,0,0,1,.714,2.223" transform="translate(-3413.199 -1284.564)" fill="#99cae5"/>
            <path id="Trazado_887612" data-name="Trazado 887612" d="M3690.422,1389.845l-.17.374-29.774-17.185,1.088-1.89,6.342.435,21.8,16.043a1.987,1.987,0,0,1,.714,2.223" transform="translate(-3429.337 -1284.564)" fill="#007cbe"/>
            <path id="Trazado_887613" data-name="Trazado 887613" d="M3511.86,1294.573h-3.017l-1.28,37.713h5.577Z" transform="translate(-3286.078 -1212.828)" fill="#99cae5"/>
            <path id="Trazado_887614" data-name="Trazado 887614" d="M3483.288,1891.813h-5.577l-2.012,4.759h9.6Z" transform="translate(-3256.226 -1772.354)" fill="#bbcaea"/>
            <path id="Trazado_887615" data-name="Trazado 887615" d="M3462.812,2056.089H3449.96l1.625-88.915h9.6Z" transform="translate(-3232.112 -1842.957)" fill="#99cae5"/>
            <path id="Trazado_887616" data-name="Trazado 887616" d="M3490.027,1271.907a4.482,4.482,0,1,1-4.482-4.482,4.482,4.482,0,0,1,4.482,4.482" transform="translate(-3261.251 -1187.394)" fill="#e4ecf9"/>
            <path id="Trazado_887617" data-name="Trazado 887617" d="M3513.747,1297.341a2.768,2.768,0,1,1-2.768-2.768,2.768,2.768,0,0,1,2.768,2.768" transform="translate(-3286.685 -1212.827)" fill="#4a5258"/>
            <path id="Trazado_887618" data-name="Trazado 887618" d="M3731.952,270.072a.386.386,0,0,1-.335-.192,47.174,47.174,0,0,0-6.218-8.392.387.387,0,0,1,.567-.527,47.923,47.923,0,0,1,6.321,8.529.387.387,0,0,1-.334.582" transform="translate(-3490.062 -244.367)" fill="#d1dcf8"/>
            <path id="Trazado_887619" data-name="Trazado 887619" d="M3385.5,57.638a.386.386,0,0,1-.268-.108,46.974,46.974,0,0,0-20.756-11.616.387.387,0,0,1,.194-.749,47.747,47.747,0,0,1,21.1,11.807.387.387,0,0,1-.269.666" transform="translate(-3151.758 -42.301)" fill="#d1dcf8"/>
            <path id="Trazado_887620" data-name="Trazado 887620" d="M2461.573,466.5a.38.38,0,0,1-.116-.018.386.386,0,0,1-.252-.486,47.515,47.515,0,0,1,2.064-5.369.387.387,0,0,1,.7.321,46.765,46.765,0,0,0-2.031,5.281.387.387,0,0,1-.369.27" transform="translate(-2305.774 -431.331)" fill="#d1dcf8"/>
            <path id="Trazado_887621" data-name="Trazado 887621" d="M2429.853,613.883a.387.387,0,0,1-.362-.251,48,48,0,0,1-1.55-28.64.387.387,0,1,1,.75.192,47.218,47.218,0,0,0,1.525,28.176.387.387,0,0,1-.363.523" transform="translate(-2273.237 -547.78)" fill="#d1dcf8"/>
            <path id="Trazado_887622" data-name="Trazado 887622" d="M3406.45,134.155a.388.388,0,0,1-.309-.153,42.693,42.693,0,0,0-21.112-14.956.387.387,0,0,1,.236-.737,43.463,43.463,0,0,1,21.493,15.225.387.387,0,0,1-.308.621" transform="translate(-3171.029 -110.82)" fill="#d1dcf8"/>
            <path id="Trazado_887623" data-name="Trazado 887623" d="M2498.273,578.548a.374.374,0,0,1-.055,0,.387.387,0,0,1-.329-.438,43.566,43.566,0,0,1,1.445-6.514.387.387,0,0,1,.741.225,42.719,42.719,0,0,0-1.419,6.4.387.387,0,0,1-.383.333" transform="translate(-2340.156 -535.243)" fill="#d1dcf8"/>
            <path id="Trazado_887624" data-name="Trazado 887624" d="M2493.106,731.649a.387.387,0,0,1-.372-.279,43.709,43.709,0,0,1-1.719-12.167c0-1.179.048-2.371.142-3.545a.387.387,0,1,1,.772.062c-.093,1.153-.139,2.325-.139,3.483a42.936,42.936,0,0,0,1.688,11.952.388.388,0,0,1-.264.48.4.4,0,0,1-.108.015" transform="translate(-2333.721 -670.135)" fill="#d1dcf8"/>
            <rect id="Rectángulo_408662" data-name="Rectángulo 408662" width="5.734" height="7.198" transform="translate(196.084 45.287)" fill="#4a5258"/>
            <path id="Trazado_887625" data-name="Trazado 887625" d="M3060.029,37.771l-3.68,7.521h-5.731l-3.689-7.521,3.949-35.441a2.622,2.622,0,0,1,2.6-2.328h.009a2.61,2.61,0,0,1,2.6,2.328Z" transform="translate(-2854.531 -0.002)" fill="#99cae5"/>
            <path id="Trazado_887626" data-name="Trazado 887626" d="M3157.275,37.771l-3.68,7.521h-2.865V0a2.61,2.61,0,0,1,2.6,2.328Z" transform="translate(-2951.776 -0.002)" fill="#007cbe"/>
            <rect id="Rectángulo_408663" data-name="Rectángulo 408663" width="7.198" height="5.734" transform="translate(188.496 58.429) rotate(-30)" fill="#4a5258"/>
            <path id="Trazado_887627" data-name="Trazado 887627" d="M2422.172,930.243l-4.665,6.948-32.665,14.3a2.605,2.605,0,0,1-3.313-1.083.009.009,0,0,0-.009-.009,2.605,2.605,0,0,1,.725-3.411l28.707-21.141,8.354-.573,1.433,2.489Z" transform="translate(-2230.813 -866.847)" fill="#99cae5"/>
            <path id="Trazado_887628" data-name="Trazado 887628" d="M2420.74,927.761,2381.52,950.4a2.606,2.606,0,0,1,.725-3.411l28.707-21.141,8.354-.573Z" transform="translate(-2230.813 -866.846)" fill="#007cbe"/>
            <rect id="Rectángulo_408664" data-name="Rectángulo 408664" width="5.734" height="7.198" transform="translate(200.305 59.796) rotate(-60)" fill="#4a5258"/>
            <path id="Trazado_887629" data-name="Trazado 887629" d="M3311.714,949.905a2.657,2.657,0,0,1-.215.492,2.6,2.6,0,0,1-3.322,1.084l-32.665-14.291-4.674-6.948,1.433-2.48,1.433-2.489,8.354.573,28.716,21.132a2.617,2.617,0,0,1,.94,2.928" transform="translate(-3064.301 -866.846)" fill="#99cae5"/>
            <path id="Trazado_887630" data-name="Trazado 887630" d="M3332.969,949.905l-.224.492-39.219-22.636,1.433-2.489,8.354.573,28.717,21.132a2.617,2.617,0,0,1,.94,2.928" transform="translate(-3085.556 -866.846)" fill="#007cbe"/>
            <path id="Trazado_887631" data-name="Trazado 887631" d="M3097.761,824.411h-3.975l-1.686,49.676h7.346Z" transform="translate(-2896.85 -772.353)" fill="#99cae5"/>
            <path id="Trazado_887632" data-name="Trazado 887632" d="M3060.126,1611.113h-7.346l-2.65,6.268h12.647Z" transform="translate(-2857.529 -1509.379)" fill="#bbcaea"/>
            <path id="Trazado_887633" data-name="Trazado 887633" d="M3033.153,1815.494h-16.928l2.141-105.112h12.647Z" transform="translate(-2825.765 -1602.38)" fill="#99cae5"/>
            <path id="Trazado_887634" data-name="Trazado 887634" d="M3069,794.555a5.9,5.9,0,1,1-5.9-5.9,5.9,5.9,0,0,1,5.9,5.9" transform="translate(-2864.149 -738.852)" fill="#e4ecf9"/>
            <path id="Trazado_887635" data-name="Trazado 887635" d="M3100.248,828.057a3.646,3.646,0,1,1-3.646-3.646,3.646,3.646,0,0,1,3.646,3.646" transform="translate(-2897.65 -772.354)" fill="#4a5258"/>
            <path id="Trazado_887636" data-name="Trazado 887636" d="M2810.783,3161.348a4.315,4.315,0,0,0-3.293-7.119,4.614,4.614,0,0,0-.887.083,2.34,2.34,0,0,0,.014-.319,748.5,748.5,0,0,1-12.886-6.062,5.34,5.34,0,0,0-4.785,3,5.17,5.17,0,0,0-2.441-.6,5.3,5.3,0,0,0-5.229,4.452,4.384,4.384,0,0,0-1.65-.333,4.122,4.122,0,0,0-4.037,3.274,3.117,3.117,0,0,0-.8-.111,3.176,3.176,0,0,0-3.176,3.176,3.114,3.114,0,0,0,.057.558Z" transform="translate(-2596.594 -2949.155)" fill="#87a771"/>
            <path id="Trazado_887637" data-name="Trazado 887637" d="M2047.362,3161.348a4.315,4.315,0,0,0-3.293-7.119,4.615,4.615,0,0,0-.888.083,2.382,2.382,0,0,0,.014-.319,749.336,749.336,0,0,1-12.886-6.062,5.34,5.34,0,0,0-4.785,3,5.169,5.169,0,0,0-2.441-.6,5.3,5.3,0,0,0-5.229,4.452,4.383,4.383,0,0,0-1.65-.333,4.122,4.122,0,0,0-4.037,3.274,3.117,3.117,0,0,0-.8-.111,3.141,3.141,0,0,0-3.12,3.735Z" transform="translate(-1881.379 -2949.155)" fill="#87a771"/>
            <path id="Trazado_887638" data-name="Trazado 887638" d="M3621.6,3161.348a4.315,4.315,0,0,0-3.293-7.119,4.618,4.618,0,0,0-.888.083,2.34,2.34,0,0,0,.014-.319,751.159,751.159,0,0,1-12.886-6.062,5.339,5.339,0,0,0-4.785,3,5.169,5.169,0,0,0-2.441-.6,5.3,5.3,0,0,0-5.229,4.452,4.384,4.384,0,0,0-1.651-.333,4.122,4.122,0,0,0-4.036,3.274,3.118,3.118,0,0,0-.8-.111,3.141,3.141,0,0,0-3.12,3.735Z" transform="translate(-3356.21 -2949.155)" fill="#87a771"/>
            <path id="Trazado_887639" data-name="Trazado 887639" d="M3246.663,3161.348a4.315,4.315,0,0,0-3.293-7.119,4.618,4.618,0,0,0-.888.083,2.34,2.34,0,0,0,.014-.319,751.159,751.159,0,0,1-12.886-6.062,5.34,5.34,0,0,0-4.785,3,5.169,5.169,0,0,0-2.441-.6,5.3,5.3,0,0,0-5.229,4.452,4.383,4.383,0,0,0-1.651-.333,4.122,4.122,0,0,0-4.036,3.274,3.118,3.118,0,0,0-.8-.111,3.141,3.141,0,0,0-3.12,3.735Z" transform="translate(-3004.95 -2949.155)" fill="#a8d08d"/>
            <path id="Trazado_887640" data-name="Trazado 887640" d="M2391.97,3161.348a4.315,4.315,0,0,0-3.293-7.119,4.615,4.615,0,0,0-.888.083,2.382,2.382,0,0,0,.014-.319,747.522,747.522,0,0,1-12.885-6.062,5.34,5.34,0,0,0-4.785,3,5.171,5.171,0,0,0-2.441-.6,5.3,5.3,0,0,0-5.229,4.452,4.383,4.383,0,0,0-1.651-.333,4.122,4.122,0,0,0-4.036,3.274,3.117,3.117,0,0,0-.8-.111,3.176,3.176,0,0,0-3.176,3.176,3.137,3.137,0,0,0,.057.558Z" transform="translate(-2204.227 -2949.155)" fill="#a8d08d"/>
            <path id="Trazado_887641" data-name="Trazado 887641" d="M1753.826,3179.075a3.931,3.931,0,0,0-3-6.485,4.185,4.185,0,0,0-.809.076,2.13,2.13,0,0,0,.013-.291,689.072,689.072,0,0,1-11.738-5.521,4.863,4.863,0,0,0-4.359,2.729,4.708,4.708,0,0,0-2.224-.543,4.826,4.826,0,0,0-4.764,4.056,3.989,3.989,0,0,0-1.5-.3,3.755,3.755,0,0,0-3.677,2.982,2.847,2.847,0,0,0-.733-.1,2.893,2.893,0,0,0-2.893,2.894,2.864,2.864,0,0,0,.052.509Z" transform="translate(-1609.647 -2966.882)" fill="#a8d08d"/>
            <rect id="Rectángulo_408665" data-name="Rectángulo 408665" width="225.944" height="2.044" transform="translate(45.579 211.858)" fill="#7cd194"/>
            <path id="Trazado_887642" data-name="Trazado 887642" d="M817.4,539.016a16.826,16.826,0,1,1-16.826-16.826A16.826,16.826,0,0,1,817.4,539.016" transform="translate(-734.263 -489.217)" fill="#87a771"/>
            <path id="Trazado_887643" data-name="Trazado 887643" d="M966.237,662.021l-9.122,10.145a.286.286,0,0,1-.494-.243l1.6-8.61a.285.285,0,0,0-.234-.329l-3.581-.668a.285.285,0,0,1-.147-.477l8.992-9.269a.283.283,0,0,1,.485.243l-1.465,7.743a.285.285,0,0,0,.234.329l3.573.668a.283.283,0,0,1,.156.468" transform="translate(-893.931 -611.279)" fill="#fff"/>
            <path id="Trazado_887644" data-name="Trazado 887644" d="M155.381,1488.729a26.251,26.251,0,0,1-6.462-7.98,14.98,14.98,0,0,1-1.362-10.036,10.547,10.547,0,0,1,6.479-7.5c1.166-.4,2.407-.565,3.567-.986a4.344,4.344,0,0,0,2.723-2.334c.495-1.325-.044-2.667-.3-3.974a6.929,6.929,0,0,1,.2-3.518,11.241,11.241,0,0,1,5.128-6.044c3.505-2.059,7.66-2.675,11.571-3.691a4.273,4.273,0,0,0,2.115-1.222c1.659-1.837.362-3.725-.265-5.557a9.4,9.4,0,0,1,2.127-9.158,12.29,12.29,0,0,1,8.84-3.739,17.114,17.114,0,0,1,7.652,1.81,3.977,3.977,0,0,0,3.154.11,5.944,5.944,0,0,1,3.406-.17,11.366,11.366,0,0,1,8.167,15.561c-.68,1.608-1.735,3.071-2.132,4.771-.559,2.4.273,4.9,1.346,7.115s2.412,4.345,2.963,6.745.12,5.236-1.817,6.756c-7.43-2.82-16.341-.54-22.167,4.865-3.873,3.593-6.305,8.5-10.039,12.235-6.374,6.382-18.1,11.872-24.9,5.94" transform="translate(-137.908 -1333.134)" fill="#2e363a"/>
            <path id="Trazado_887645" data-name="Trazado 887645" d="M1073.97,2343.422c.623.174,7.97,11.108,4.874,18.994-2.719,6.926-22.322,6.273-22.322,6.273v-12.057l-.407-9.522,5.7-5.223Z" transform="translate(-989.427 -2194.008)" fill="#fec9ac"/>
            <path id="Trazado_887646" data-name="Trazado 887646" d="M321.614,2343.422c-.623.174-8.019,11.128-4.874,18.994,2.7,6.75,22.322,6.273,22.322,6.273v-12.057l.407-9.522-5.7-5.223Z" transform="translate(-296.013 -2194.008)" fill="#fec9ac"/>
            <path id="Trazado_887647" data-name="Trazado 887647" d="M99.138,2807.134s-30.573-9.908-32.469-3.124c-2.348,8.4,47.878,21.639,47.878,21.639s58.591-14.8,53.027-21.521c-5.783-6.983-30.951,2.619-30.951,2.619Z" transform="translate(-62.384 -2624.677)" fill="#022033"/>
            <path id="Trazado_887648" data-name="Trazado 887648" d="M3.24,2815.927c.015.015.045.03.06.06,1.657,1.478,33.177,13.865,45.236,16.611,2.313.537,3.9.716,4.447.4,3.164-1.791,4.6-12.552,4.074-13.208,0,0-1.418-.6-3.761-1.612-7.925-3.4-26.431-11.447-35.909-16.387A27.407,27.407,0,0,0,12,2799.63c-9.671-2.627-16.253,9.626-8.761,16.3" transform="translate(0 -2622.507)" fill="#003567"/>
            <path id="Trazado_887649" data-name="Trazado 887649" d="M768.64,3113.223c2.313.537,3.9.716,4.448.4,3.164-1.791,4.6-12.552,4.074-13.208,0,0-1.418-.6-3.761-1.612.06.03-1.3,10.82-4.761,14.417" transform="translate(-720.104 -2903.132)" fill="#022e4f"/>
            <path id="Trazado_887650" data-name="Trazado 887650" d="M1060.3,3205.2l.846,8.863,16.083,1.283a5.8,5.8,0,1,0,.239-11.6h-.239Z" transform="translate(-993.346 -3001.445)" fill="#4a5258"/>
            <path id="Trazado_887651" data-name="Trazado 887651" d="M873.363,3158.759c.131,7.415-7.953,5.06-7.953,5.06l-1.621-.371-11.682-2.653,2.072-6.557,1.25-3.947,3.38,1.665h.007l2.479,1.221,1.389.676.865.429,1.7.836s8.026-1.578,8.113,3.642" transform="translate(-798.301 -2951.365)" fill="#fec9ac"/>
            <g id="Grupo_1112779" data-name="Grupo 1112779" transform="translate(53.806 200.583)" opacity="0.5">
              <g id="Grupo_1112778" data-name="Grupo 1112778">
                <g id="Grupo_1112777" data-name="Grupo 1112777" clip-path="url(#clip-path-3)">
                  <path id="Trazado_887652" data-name="Trazado 887652" d="M865.2,3185.927a5.444,5.444,0,0,1-1.41,2.115l-11.682-2.653,2.072-6.557a9.4,9.4,0,0,1,3.075-1.919,5.718,5.718,0,0,1,1.556-.363h.007a2.543,2.543,0,0,1,1.657.407,5.456,5.456,0,0,1,.821.814,4.417,4.417,0,0,0,.385.356,1.481,1.481,0,0,0,1,.32.529.529,0,0,0,.109.008c.233,0,.247-.138.465-.015a1.218,1.218,0,0,1,.291.436,1.733,1.733,0,0,0,.1.2,14.575,14.575,0,0,1,1.4,2.8,6.245,6.245,0,0,1,.153,4.049" transform="translate(-852.106 -3176.542)" fill="#ffab90"/>
                </g>
              </g>
            </g>
            <path id="Trazado_887653" data-name="Trazado 887653" d="M1215.345,3248.031v5.03a.537.537,0,0,0,1.074,0v-5.03a.537.537,0,0,0-1.074,0" transform="translate(-1138.602 -3042.444)" fill="#2e363a"/>
            <path id="Trazado_887654" data-name="Trazado 887654" d="M1253.853,3248.031v5.03a.537.537,0,0,0,1.074,0v-5.03a.537.537,0,0,0-1.074,0" transform="translate(-1174.678 -3042.444)" fill="#2e363a"/>
            <path id="Trazado_887655" data-name="Trazado 887655" d="M1292.361,3248.031v5.03a.537.537,0,0,0,1.074,0v-5.03a.537.537,0,0,0-1.074,0" transform="translate(-1210.755 -3042.444)" fill="#2e363a"/>
            <path id="Trazado_887656" data-name="Trazado 887656" d="M378.056,3205.2l-.846,8.863-16.083,1.283a5.8,5.8,0,1,1-.239-11.6h.239Z" transform="translate(-332.674 -3001.445)" fill="#4a5258"/>
            <path id="Trazado_887657" data-name="Trazado 887657" d="M611.441,3160.793l-8.709,1.984-4.587,1.04s-8.084,2.355-7.96-5.06c.087-5.219,8.113-3.642,8.113-3.642l5.612-2.755,4.216-2.072Z" transform="translate(-552.917 -2951.364)" fill="#fec9ac"/>
            <g id="Grupo_1112782" data-name="Grupo 1112782" transform="translate(49.238 198.925)" opacity="0.5">
              <g id="Grupo_1112781" data-name="Grupo 1112781">
                <g id="Grupo_1112780" data-name="Grupo 1112780" clip-path="url(#clip-path-4)">
                  <path id="Trazado_887658" data-name="Trazado 887658" d="M789.042,3160.793l-8.709,1.984a10.37,10.37,0,0,1-.5-2.188,13.5,13.5,0,0,1,.661-5.706,21.021,21.021,0,0,1,1.018-2.522l4.216-2.072Z" transform="translate(-779.756 -3150.289)" fill="#ffab90"/>
                </g>
              </g>
            </g>
            <path id="Trazado_887659" data-name="Trazado 887659" d="M547.7,3248.031v5.03a.537.537,0,0,1-1.075,0v-5.03a.537.537,0,0,1,1.075,0" transform="translate(-512.106 -3042.444)" fill="#2e363a"/>
            <path id="Trazado_887660" data-name="Trazado 887660" d="M509.189,3248.031v5.03a.537.537,0,0,1-1.075,0v-5.03a.537.537,0,0,1,1.075,0" transform="translate(-476.029 -3042.444)" fill="#2e363a"/>
            <path id="Trazado_887661" data-name="Trazado 887661" d="M470.681,3248.031v5.03a.537.537,0,0,1-1.075,0v-5.03a.537.537,0,0,1,1.075,0" transform="translate(-439.953 -3042.444)" fill="#2e363a"/>
            <path id="Trazado_887662" data-name="Trazado 887662" d="M860.841,2815.927c-.015.015-.045.03-.06.06-1.657,1.478-33.177,13.865-45.236,16.611-2.313.537-3.9.716-4.447.4-3.164-1.791-4.6-12.552-4.074-13.208,0,0,1.418-.6,3.761-1.612,7.925-3.4,26.431-11.447,35.909-16.387a27.406,27.406,0,0,1,5.388-2.164c9.671-2.627,16.253,9.626,8.761,16.3" transform="translate(-755.964 -2622.507)" fill="#003567"/>
            <path id="Trazado_887663" data-name="Trazado 887663" d="M815.544,3113.223c-2.313.537-3.9.716-4.448.4-3.164-1.791-4.6-12.552-4.074-13.208,0,0,1.418-.6,3.761-1.612-.06.03,1.3,10.82,4.761,14.417" transform="translate(-755.964 -2903.132)" fill="#022e4f"/>
            <path id="Trazado_887664" data-name="Trazado 887664" d="M402.527,2023.611l-.361-.769s2.732,23.967,2.732,27.252c0,7.372-42.837,6.923-42.837-.449,0-.457.2-2.42.5-5.064.841-7.484,2.46-20.457,2.46-20.457l-.274,3.986c-.585,1.01-13.732-7.24-14.437-9a.244.244,0,0,1-.016-.232,55.806,55.806,0,0,1,9.5-17.027c2.837-3.422,9.095-5.577,16.234-6.475,1.394-.184,2.821-.313,4.263-.393.481-.032.97-.048,1.45-.064.753-.032,1.514-.04,2.276-.04a63.771,63.771,0,0,1,7.172.409c7.324.857,13.678,3.045,16.234,6.563a85.29,85.29,0,0,1,9.5,17.027c.609,1.066-13.675,10.027-14.284,8.961Z" transform="translate(-328.158 -1868.911)" fill="#ffd964"/>
            <path id="Trazado_887665" data-name="Trazado 887665" d="M1163.255,2249.77l-.482-4.992c0-.044-.007-.145-.015-.291-.124-2.05-.821-13.252-.545-12.7.291.6,4.376,6.535,15.331,9.021.6,1.069-13.678,10.029-14.289,8.961" transform="translate(-1088.765 -2090.843)" fill="#fcc230"/>
            <path id="Trazado_887666" data-name="Trazado 887666" d="M1235.332,2338.429c.043-.337.975-.333,2.567-.859a6.208,6.208,0,0,0,3.438-2.333c1.075-1.284,1.417-2.151,1.753-2.065.147.036.244.3.2.8a4.944,4.944,0,0,1-.8,2.111,7.643,7.643,0,0,1-4.219,2.863,4.932,4.932,0,0,1-2.26-.033c-.486-.145-.694-.334-.672-.488" transform="translate(-1157.325 -2185.839)" fill="#fff"/>
            <path id="Trazado_887667" data-name="Trazado 887667" d="M366.614,2326.711l-1.032,8.295-.278,3.983c-.582,1.01-13.73-7.239-14.435-9,8.171,1.919,15.745-3.279,15.745-3.279" transform="translate(-328.713 -2179.791)" fill="#fcc230"/>
            <path id="Trazado_887668" data-name="Trazado 887668" d="M785.513,1881.693c-5.208.881-12.693-2.188-9.752-5.265-.04-.216.152-5.5.361-7.8v-.008c.064-.721.112-1.178.112-1.178l.617.128,11.034,2.156s-.024,1.17-.04,2.46v.593c0,1.354.016,3.75.048,3.8,0,0,5.914,3.7-2.38,5.112" transform="translate(-726.154 -1749.526)" fill="#fec9ac"/>
            <g id="Grupo_1112785" data-name="Grupo 1112785" transform="translate(49.966 117.924)" opacity="0.5">
              <g id="Grupo_1112784" data-name="Grupo 1112784">
                <g id="Grupo_1112783" data-name="Grupo 1112783" clip-path="url(#clip-path-5)">
                  <path id="Trazado_887669" data-name="Trazado 887669" d="M803.05,1869.79s-.023,1.17-.035,2.457c-4.879,1.275-9.954-2.178-11.727-3.558v-.011c.069-.719.116-1.17.116-1.17l.614.128Z" transform="translate(-791.288 -1867.507)" fill="#ffab90"/>
                </g>
              </g>
            </g>
            <path id="Trazado_887670" data-name="Trazado 887670" d="M704.716,1540.11s-6.111-1.354-4.789-6.9c1.29-5.4,5.16-1.7,5.16-1.7,5.869-.606,9.449-4.849,10.588-12.972,0,0,4.207,1.636,4.272,1.664,1.224.521,6.646,16.9.69,22.11-6.809,5.954-15.921-2.207-15.921-2.207" transform="translate(-655.555 -1422.654)" fill="#fec9ac"/>
            <path id="Trazado_887671" data-name="Trazado 887671" d="M914.4,1831.7c.121-.109.487.167,1.186.64a4.064,4.064,0,0,0,1.893.845c.792.17,1.231.12,1.277.286.051.125-.38.479-1.379.42a4.776,4.776,0,0,1-2.225-.986c-.7-.647-.862-1.11-.751-1.205" transform="translate(-856.629 -1716.019)" fill="#4f2d2b"/>
            <path id="Trazado_887672" data-name="Trazado 887672" d="M964.48,1728.831c.007-.078.168-.123.443-.169s.682-.145.8-.454c.133-.133-.158-.657-.34-1.109l-.589-1.369c-.405-1.1-.508-1.689-.365-1.75s.5.418,1.02,1.468l.589,1.369.3.693a1.207,1.207,0,0,1,.031,1.009,1.19,1.19,0,0,1-.829.589,1.526,1.526,0,0,1-.632-.021c-.307-.08-.432-.178-.425-.255" transform="translate(-903.473 -1615.113)" fill="#4f2d2b"/>
            <path id="Trazado_887673" data-name="Trazado 887673" d="M1004.671,1687.652c.06.7-.3,1.3-.8,1.343s-.954-.488-1.015-1.186.3-1.3.8-1.343.954.488,1.015,1.186" transform="translate(-939.529 -1579.972)" fill="#4f2d2b"/>
            <path id="Trazado_887674" data-name="Trazado 887674" d="M1004.822,1687.559c.061.7-.3,1.3-.8,1.343s-.954-.488-1.015-1.186.3-1.3.8-1.343.954.488,1.015,1.186" transform="translate(-939.67 -1579.885)" fill="#4f2d2b"/>
            <path id="Trazado_887675" data-name="Trazado 887675" d="M998.156,1653.738c-.02.157-.28.236-.709.328a1.887,1.887,0,0,0-.987.346c-.355.188-.551.338-.7.264-.132-.054-.162-.414.273-.837a2.6,2.6,0,0,1,1.354-.484c.562.032.789.233.767.383" transform="translate(-932.804 -1548.954)" fill="#4f2d2b"/>
            <path id="Trazado_887676" data-name="Trazado 887676" d="M908.541,1707.907c.06.7-.3,1.3-.8,1.343s-.954-.488-1.015-1.186.3-1.3.8-1.343.954.488,1.015,1.186" transform="translate(-849.469 -1598.948)" fill="#4f2d2b"/>
            <path id="Trazado_887677" data-name="Trazado 887677" d="M901.876,1674.086c-.02.157-.28.236-.709.328a1.884,1.884,0,0,0-.987.346c-.355.188-.551.338-.7.264-.132-.055-.162-.414.273-.837a2.6,2.6,0,0,1,1.354-.484c.562.032.789.233.767.383" transform="translate(-842.603 -1568.017)" fill="#4f2d2b"/>
            <path id="Trazado_887678" data-name="Trazado 887678" d="M581.883,2476.4c0,7.372-42.837,6.923-42.837-.449,0-.457.2-2.42.5-5.064a93.2,93.2,0,0,0,30.081-13.863q3.486-2.44,6.731-5.2c.721-.617,2.789-2.676,2.789-2.676s2.732,23.967,2.732,27.252" transform="translate(-505.008 -2294.494)" fill="#fcc230"/>
            <path id="Trazado_887679" data-name="Trazado 887679" d="M755.5,2082.739c.1-.132.548.071,1.4.461a21.643,21.643,0,0,0,3.9,1.439,14.637,14.637,0,0,0,9.154-.245,6.059,6.059,0,0,0,3.124-2.237c.495-.719.626-1.19.8-1.169.134,0,.315.547-.04,1.555a5.844,5.844,0,0,1-3.356,3.178,16.037,16.037,0,0,1-10.079.288,12.262,12.262,0,0,1-3.955-2.089c-.769-.628-1.038-1.066-.948-1.18" transform="translate(-707.781 -1949.582)" fill="#fff"/>
            <path id="Trazado_887680" data-name="Trazado 887680" d="M421.475,2372.258c.028.267-1,.7-2.885.073a12.813,12.813,0,0,1-3.942-2.756c-1.223-1.395-1.573-2.252-1.355-2.458.235-.222,1.017.3,2.349,1.434a11.41,11.41,0,0,0,3.5,2.463c1.468.747,2.335.893,2.333,1.243" transform="translate(-387.14 -2217.599)" fill="#fff"/>
            <path id="Trazado_887681" data-name="Trazado 887681" d="M447.276,2434.248h50.747a1.013,1.013,0,0,0,.031-.122l2.31-38.154a1.081,1.081,0,0,0-1.079-1.146H446.014a1.081,1.081,0,0,0-1.079,1.146l2.31,38.154a1.013,1.013,0,0,0,.031.122" transform="translate(-416.838 -2243.605)" fill="#e4ecf9"/>
            <path id="Trazado_887682" data-name="Trazado 887682" d="M479.2,2978.065h50.747a1,1,0,0,0,.031-.122l.16-2.646h-51.13l.16,2.646a1,1,0,0,0,.031.122" transform="translate(-448.76 -2787.422)" fill="#4a5258"/>
            <path id="Trazado_887683" data-name="Trazado 887683" d="M835.743,2635.8c0,2.649-1.557,4.8-3.478,4.8s-3.478-2.148-3.478-4.8,1.557-4.8,3.478-4.8,3.478,2.148,3.478,4.8" transform="translate(-776.453 -2464.87)" fill="#bbcaea"/>
          </g>
        </g>
      </g>
    </g>
  </g>
</svg>
