<svg xmlns="http://www.w3.org/2000/svg" width="74.101" height="74.1" viewBox="0 0 74.101 74.1">
  <g id="Grupo_1112793" data-name="Grupo 1112793" transform="translate(0 -0.004)">
    <path id="Trazado_887886" data-name="Trazado 887886" d="M68.44,13.99a37.048,37.048,0,0,0-50.907-6.8l-3.259-4.1a1.447,1.447,0,0,0-2.465.337L2.919,24.409A1.447,1.447,0,0,0,4.5,26.4l22.444-3.95a1.447,1.447,0,0,0,.881-2.326l-3.217-4.041a25.677,25.677,0,0,1,25.03-2.614,1.447,1.447,0,1,0,1.145-2.658,28.566,28.566,0,0,0-29.135,3.876,1.447,1.447,0,0,0-.231,2.034l2.627,3.3L6.623,23.087l6.9-16.29,2.628,3.3a1.448,1.448,0,0,0,2.033.231A34.151,34.151,0,0,1,73.475,39.983l-5.712,1.006a28.487,28.487,0,0,0-5.944-21.732,1.447,1.447,0,0,0-2.265,1.8,25.62,25.62,0,0,1,5.01,21.41,1.447,1.447,0,0,0,1.415,1.751c.084,0,9.075-1.577,9.075-1.577a1.447,1.447,0,0,0,1.186-1.256,36.784,36.784,0,0,0-7.8-27.4Z" transform="translate(-2.398 0)" fill="#87a771"/>
    <path id="Trazado_887887" data-name="Trazado 887887" d="M72,212.863,49.555,216.81a1.447,1.447,0,0,0-.882,2.326l3.217,4.045A25.548,25.548,0,0,1,38.5,227.846V208.823a18.305,18.305,0,0,0,4.4.554,14.867,14.867,0,0,0,7.495-1.946c3.943-2.277,6.647-6.382,7.615-11.561a1.447,1.447,0,0,0-.941-1.63c-4.97-1.754-9.879-1.466-13.823.81a15.2,15.2,0,0,0-6.194,7,15.2,15.2,0,0,0-6.194-7c-3.943-2.276-8.853-2.564-13.823-.81a1.447,1.447,0,0,0-.941,1.63c.968,5.179,3.672,9.285,7.615,11.561a14.867,14.867,0,0,0,7.495,1.946,18.308,18.308,0,0,0,4.4-.554v19.02a25.668,25.668,0,0,1-23.667-31.049,1.447,1.447,0,0,0-1.665-1.729l-8.824,1.551A1.447,1.447,0,0,0,.26,197.871a37.041,37.041,0,0,0,32.6,41.144,37.616,37.616,0,0,0,4.264.243,36.733,36.733,0,0,0,21.843-7.181l3.259,4.1a1.447,1.447,0,0,0,2.465-.337l8.89-20.982A1.447,1.447,0,0,0,72,212.863ZM44.692,197.556a13.153,13.153,0,0,1,10.194-.97,13.155,13.155,0,0,1-5.939,8.339,13.16,13.16,0,0,1-10.2.974A13.155,13.155,0,0,1,44.692,197.556Zm-19.537,7.369a13.155,13.155,0,0,1-5.939-8.339,13.154,13.154,0,0,1,10.194.97,13.155,13.155,0,0,1,5.94,8.343A13.159,13.159,0,0,1,25.155,204.924Zm37.821,27.541-2.628-3.3a1.447,1.447,0,0,0-2.033-.231A34.151,34.151,0,0,1,3.026,199.277l5.711-1a28.6,28.6,0,0,0,46.112,26.3,1.447,1.447,0,0,0,.232-2.033l-2.629-3.3,17.425-3.064Z" transform="translate(0 -165.154)" fill="#87a771"/>
    <path id="Trazado_887888" data-name="Trazado 887888" d="M361.168,99.762a1.45,1.45,0,1,0-1.024-.427l0,0A1.438,1.438,0,0,0,361.168,99.762Z" transform="translate(-307.658 -82.843)" fill="#87a771"/>
  </g>
</svg>
