<svg xmlns="http://www.w3.org/2000/svg" width="65.511" height="61.144" viewBox="0 0 65.511 61.144">
  <g id="bounce_back" data-name="bounce back" transform="translate(-2 -4)">
    <path id="Trazado_886403" data-name="Trazado 886403" d="M53.735,21.1a4.372,4.372,0,0,0-4.367-4.367,2.184,2.184,0,1,1,2.06-2.911,1.091,1.091,0,0,0,2.058-.728,4.366,4.366,0,0,0-3.026-2.76V9.092a1.092,1.092,0,0,0-2.184,0v1.247a4.358,4.358,0,0,0,1.092,8.58,2.184,2.184,0,1,1-2.06,2.911,1.091,1.091,0,0,0-2.058.728,4.366,4.366,0,0,0,3.026,2.76v1.244a1.092,1.092,0,0,0,2.184,0V25.315A4.363,4.363,0,0,0,53.735,21.1Z" transform="translate(3.949 0.367)" fill="#4a6572"/>
    <path id="Trazado_886404" data-name="Trazado 886404" d="M50.194,32.388A14.194,14.194,0,1,1,64.388,18.194,14.194,14.194,0,0,1,50.194,32.388Zm0-26.2A12.01,12.01,0,1,0,62.2,18.194a12.01,12.01,0,0,0-12.01-12.01Z" transform="translate(3.123)" fill="#4a6572"/>
    <path id="Trazado_886405" data-name="Trazado 886405" d="M21.286,52.113a4.338,4.338,0,0,1-3.088-1.28L7.28,39.915a4.366,4.366,0,0,1,0-6.176,4.47,4.47,0,0,1,6.176,0l7.831,7.83,9.242-9.242-3.463-3.463A1.092,1.092,0,0,1,27.837,27h13.1a1.092,1.092,0,0,1,1.092,1.092v13.1a1.092,1.092,0,0,1-1.864.772L36.7,38.5l-12.33,12.33a4.338,4.338,0,0,1-3.088,1.28ZM10.367,34.643a2.183,2.183,0,0,0-1.544,3.728L19.742,49.289a2.235,2.235,0,0,0,3.088,0l13.1-13.1a1.091,1.091,0,0,1,1.544,0l2.371,2.371V29.184H30.473l2.371,2.371a1.091,1.091,0,0,1,0,1.544L22.058,43.885a1.091,1.091,0,0,1-1.544,0l-8.6-8.6a2.169,2.169,0,0,0-1.544-.64Z" transform="translate(0.367 2.113)" fill="#4a6572"/>
    <path id="Trazado_886406" data-name="Trazado 886406" d="M36.939,60.735H6.367a4.367,4.367,0,0,1,0-8.735H36.939a4.367,4.367,0,0,1,0,8.735ZM6.367,54.184a2.184,2.184,0,0,0,0,4.367H36.939a2.184,2.184,0,1,0,0-4.367Z" transform="translate(0 4.409)" fill="#4a6572"/>
  </g>
</svg>
